M48
; DRILL file {KiCad (6.0.8)} date Tue Dec  6 21:36:00 2022
; FORMAT={-:-/ absolute / metric / decimal}
; #@! TF.CreationDate,2022-12-06T21:36:00-08:00
; #@! TF.GenerationSoftware,Kicad,Pcbnew,(6.0.8)
; #@! TF.FileFunction,MixedPlating,1,2
FMAT,2
METRIC
; #@! TA.AperFunction,Plated,PTH,ComponentDrill
T1C0.200
; #@! TA.AperFunction,Plated,PTH,ViaDrill
T2C0.400
; #@! TA.AperFunction,Plated,PTH,ComponentDrill
T3C1.000
; #@! TA.AperFunction,Plated,PTH,ComponentDrill
T4C1.200
; #@! TA.AperFunction,NonPlated,NPTH,ComponentDrill
T5C3.200
%
G90
G05
T1
X100.475Y-122.975
X100.475Y-124.5
X101.237Y-122.212
X101.237Y-123.737
X101.237Y-125.262
X102.0Y-122.975
X102.0Y-124.5
X102.762Y-122.212
X102.762Y-123.737
X102.762Y-125.262
X103.525Y-122.975
X103.525Y-124.5
T2
X52.75Y-94.25
X53.0Y-54.25
X53.0Y-64.25
X53.0Y-74.25
X53.0Y-84.25
X53.0Y-104.25
X53.75Y-125.0
X54.5Y-111.25
X54.5Y-115.5
X55.0Y-130.0
X56.25Y-111.224
X57.0Y-106.0
X57.0Y-108.844
X60.75Y-94.25
X61.0Y-54.25
X61.0Y-64.25
X61.0Y-74.25
X61.0Y-84.25
X61.0Y-104.25
X61.25Y-48.5
X64.5Y-43.75
X65.0Y-53.5
X67.0Y-114.0
X67.5Y-107.0
X68.988Y-54.488
X69.0Y-63.75
X69.0Y-74.0
X69.0Y-93.75
X69.0Y-103.75
X69.145Y-83.895
X69.5Y-43.75
X70.5Y-120.0
X71.0Y-134.75
X71.25Y-126.25
X73.25Y-64.0
X73.25Y-74.0
X73.25Y-84.25
X73.75Y-94.25
X73.75Y-104.25
X74.5Y-131.0
X75.0Y-56.0
X75.5Y-128.25
X75.75Y-43.75
X79.988Y-103.988
X80.0Y-54.5
X80.0Y-64.0
X80.0Y-74.5
X80.0Y-94.0
X80.095Y-83.595
X80.5Y-43.75
X81.75Y-130.0
X83.0Y-114.75
X83.75Y-134.5
X84.0Y-64.25
X84.0Y-74.5
X84.0Y-94.75
X84.25Y-84.62
X84.5Y-104.75
X84.5Y-113.75
X85.25Y-56.25
X86.25Y-130.25
X86.5Y-43.75
X87.0Y-131.0
X88.5Y-131.0
X90.75Y-125.75
X90.75Y-127.25
X90.75Y-131.25
X90.845Y-103.845
X90.988Y-93.988
X91.0Y-54.5
X91.0Y-64.0
X91.0Y-74.25
X91.0Y-83.5
X91.0Y-114.75
X91.5Y-43.75
X94.25Y-123.5
X95.0Y-64.25
X95.0Y-74.5
X95.25Y-84.62
X95.25Y-111.75
X95.5Y-94.635
X95.5Y-104.75
X95.537Y-128.537
X96.5Y-56.25
X97.5Y-43.75
X100.0Y-111.25
X101.863Y-104.113
X102.0Y-54.5
X102.0Y-64.25
X102.0Y-74.5
X102.0Y-83.5
X102.0Y-93.75
X102.5Y-43.75
X106.0Y-74.5
X106.25Y-64.25
X106.25Y-84.62
X106.5Y-94.62
X106.5Y-104.75
X107.0Y-111.75
X108.0Y-56.151
X108.5Y-43.75
X111.5Y-129.75
X111.5Y-131.25
X113.0Y-54.5
X113.0Y-74.5
X113.0Y-83.75
X113.0Y-104.0
X113.238Y-93.738
X113.25Y-64.25
X113.5Y-43.75
X117.0Y-64.25
X117.0Y-74.5
X117.0Y-84.75
X117.5Y-94.635
X117.75Y-104.75
X119.0Y-56.25
X119.5Y-43.75
X121.5Y-123.0
X121.5Y-134.5
X122.5Y-114.25
X122.625Y-121.375
X124.0Y-54.5
X124.0Y-73.75
X124.0Y-83.75
X124.0Y-94.0
X124.0Y-103.75
X124.25Y-64.25
X124.5Y-43.75
X126.625Y-117.375
X128.0Y-74.5
X128.0Y-94.5
X128.25Y-64.25
X128.25Y-84.5
X128.25Y-104.75
X130.0Y-56.25
X130.25Y-114.25
X130.5Y-43.75
X131.0Y-121.25
X133.0Y-119.0
X133.0Y-132.257
X133.5Y-103.25
X133.75Y-83.25
X134.25Y-73.5
X134.275Y-94.0
X134.5Y-77.0
X134.5Y-86.75
X134.5Y-96.75
X135.0Y-54.0
X135.0Y-64.5
X135.25Y-66.5
X135.5Y-43.75
X135.5Y-103.25
X135.75Y-57.5
X136.25Y-55.25
X137.0Y-103.25
X138.95Y-109.5
X140.0Y-130.0
X140.25Y-114.75
X140.948Y-102.973
X140.948Y-105.973
X141.0Y-108.75
X141.5Y-123.0
X142.025Y-109.775
X143.25Y-52.5
X143.25Y-57.5
X143.25Y-62.5
X143.25Y-67.5
X143.25Y-72.5
X143.25Y-77.5
X143.25Y-82.5
X143.25Y-87.5
X143.25Y-92.5
X143.25Y-97.5
X143.5Y-117.0
X144.5Y-122.75
X145.5Y-119.25
X147.725Y-55.225
X147.725Y-65.225
X147.725Y-75.225
X147.725Y-85.275
X147.725Y-95.025
X148.5Y-119.25
T3
X52.25Y-116.945
X52.25Y-119.485
X52.25Y-122.025
X71.15Y-136.5
X73.69Y-136.5
X76.23Y-136.5
X78.77Y-136.5
X81.31Y-136.5
X83.85Y-136.5
T4
X125.19Y-134.75
X129.0Y-134.75
T5
X54.0Y-44.0
X55.0Y-135.0
X146.0Y-44.0
X146.0Y-136.0
T0
M30
