G04 #@! TF.GenerationSoftware,KiCad,Pcbnew,(6.0.8)*
G04 #@! TF.CreationDate,2022-12-06T21:36:09-08:00*
G04 #@! TF.ProjectId,EveryDayCalendarSingleMonth,45766572-7944-4617-9943-616c656e6461,rev?*
G04 #@! TF.SameCoordinates,Original*
G04 #@! TF.FileFunction,Paste,Top*
G04 #@! TF.FilePolarity,Positive*
%FSLAX46Y46*%
G04 Gerber Fmt 4.6, Leading zero omitted, Abs format (unit mm)*
G04 Created by KiCad (PCBNEW (6.0.8)) date 2022-12-06 21:36:09*
%MOMM*%
%LPD*%
G01*
G04 APERTURE LIST*
G04 Aperture macros list*
%AMRoundRect*
0 Rectangle with rounded corners*
0 $1 Rounding radius*
0 $2 $3 $4 $5 $6 $7 $8 $9 X,Y pos of 4 corners*
0 Add a 4 corners polygon primitive as box body*
4,1,4,$2,$3,$4,$5,$6,$7,$8,$9,$2,$3,0*
0 Add four circle primitives for the rounded corners*
1,1,$1+$1,$2,$3*
1,1,$1+$1,$4,$5*
1,1,$1+$1,$6,$7*
1,1,$1+$1,$8,$9*
0 Add four rect primitives between the rounded corners*
20,1,$1+$1,$2,$3,$4,$5,0*
20,1,$1+$1,$4,$5,$6,$7,0*
20,1,$1+$1,$6,$7,$8,$9,0*
20,1,$1+$1,$8,$9,$2,$3,0*%
G04 Aperture macros list end*
%ADD10RoundRect,0.147500X0.172500X-0.147500X0.172500X0.147500X-0.172500X0.147500X-0.172500X-0.147500X0*%
%ADD11R,0.700000X0.700000*%
%ADD12R,1.550000X1.300000*%
%ADD13RoundRect,0.147500X-0.147500X-0.172500X0.147500X-0.172500X0.147500X0.172500X-0.147500X0.172500X0*%
%ADD14R,1.300000X1.550000*%
%ADD15RoundRect,0.147500X-0.172500X0.147500X-0.172500X-0.147500X0.172500X-0.147500X0.172500X0.147500X0*%
%ADD16R,1.500000X0.900000*%
%ADD17R,0.900000X1.500000*%
%ADD18R,1.050000X1.050000*%
%ADD19RoundRect,0.218750X-0.256250X0.218750X-0.256250X-0.218750X0.256250X-0.218750X0.256250X0.218750X0*%
%ADD20RoundRect,0.150000X0.587500X0.150000X-0.587500X0.150000X-0.587500X-0.150000X0.587500X-0.150000X0*%
%ADD21RoundRect,0.218750X0.256250X-0.218750X0.256250X0.218750X-0.256250X0.218750X-0.256250X-0.218750X0*%
%ADD22RoundRect,0.147500X0.147500X0.172500X-0.147500X0.172500X-0.147500X-0.172500X0.147500X-0.172500X0*%
%ADD23RoundRect,0.218750X0.218750X0.256250X-0.218750X0.256250X-0.218750X-0.256250X0.218750X-0.256250X0*%
%ADD24RoundRect,0.150000X0.150000X-0.512500X0.150000X0.512500X-0.150000X0.512500X-0.150000X-0.512500X0*%
%ADD25R,5.250000X4.550000*%
%ADD26R,1.100000X4.600000*%
G04 APERTURE END LIST*
D10*
G04 #@! TO.C,C8*
X83000000Y-95500000D03*
X83000000Y-94530000D03*
G04 #@! TD*
G04 #@! TO.C,C21*
X105000000Y-75485000D03*
X105000000Y-74515000D03*
G04 #@! TD*
D11*
G04 #@! TO.C,DAY13*
X122915000Y-65550000D03*
X122915000Y-64450000D03*
X121085000Y-64450000D03*
X121085000Y-65550000D03*
G04 #@! TD*
G04 #@! TO.C,DAY27*
X122915000Y-85550000D03*
X122915000Y-84450000D03*
X121085000Y-84450000D03*
X121085000Y-85550000D03*
G04 #@! TD*
G04 #@! TO.C,DAY40*
X111915000Y-105550000D03*
X111915000Y-104450000D03*
X110085000Y-104450000D03*
X110085000Y-105550000D03*
G04 #@! TD*
D12*
G04 #@! TO.C,SW_DAY6*
X125975000Y-43750000D03*
X118025000Y-43750000D03*
X125975000Y-48250000D03*
X118025000Y-48250000D03*
G04 #@! TD*
G04 #@! TO.C,SW_DAY3*
X92975000Y-43750000D03*
X85025000Y-43750000D03*
X85025000Y-48250000D03*
X92975000Y-48250000D03*
G04 #@! TD*
D13*
G04 #@! TO.C,C41*
X132515000Y-97500000D03*
X133485000Y-97500000D03*
G04 #@! TD*
D10*
G04 #@! TO.C,C36*
X127000000Y-105485000D03*
X127000000Y-104515000D03*
G04 #@! TD*
D11*
G04 #@! TO.C,DAY1*
X67915000Y-55550000D03*
X67915000Y-54450000D03*
X66085000Y-54450000D03*
X66085000Y-55550000D03*
G04 #@! TD*
D14*
G04 #@! TO.C,NEXT1*
X143225000Y-91025000D03*
X143225000Y-98975000D03*
X147725000Y-98975000D03*
X147725000Y-91025000D03*
G04 #@! TD*
D11*
G04 #@! TO.C,DAY10*
X89915000Y-65550000D03*
X89915000Y-64450000D03*
X88085000Y-64450000D03*
X88085000Y-65550000D03*
G04 #@! TD*
D15*
G04 #@! TO.C,C2*
X133000000Y-130272500D03*
X133000000Y-131242500D03*
G04 #@! TD*
D11*
G04 #@! TO.C,DAY2*
X78915000Y-55550000D03*
X78915000Y-54450000D03*
X77085000Y-54450000D03*
X77085000Y-55550000D03*
G04 #@! TD*
D13*
G04 #@! TO.C,C13*
X94515000Y-56250000D03*
X95485000Y-56250000D03*
G04 #@! TD*
D12*
G04 #@! TO.C,SW_WEEK3*
X60975000Y-72750000D03*
X53025000Y-72750000D03*
X60975000Y-77250000D03*
X53025000Y-77250000D03*
G04 #@! TD*
D13*
G04 #@! TO.C,C38*
X133530000Y-67500000D03*
X134500000Y-67500000D03*
G04 #@! TD*
D11*
G04 #@! TO.C,DAY22*
X67915000Y-85550000D03*
X67915000Y-84450000D03*
X66085000Y-84450000D03*
X66085000Y-85550000D03*
G04 #@! TD*
D10*
G04 #@! TO.C,C23*
X105500000Y-95485000D03*
X105500000Y-94515000D03*
G04 #@! TD*
D14*
G04 #@! TO.C,PREV1*
X143225000Y-81025000D03*
X143225000Y-88975000D03*
X147725000Y-81025000D03*
X147725000Y-88975000D03*
G04 #@! TD*
D11*
G04 #@! TO.C,DAY34*
X122915000Y-95550000D03*
X122915000Y-94450000D03*
X121085000Y-94450000D03*
X121085000Y-95550000D03*
G04 #@! TD*
D16*
G04 #@! TO.C,U_CPU1*
X110070000Y-131077500D03*
X110070000Y-129807500D03*
X110070000Y-128537500D03*
X110070000Y-127267500D03*
X110070000Y-125997500D03*
X110070000Y-124727500D03*
X110070000Y-123457500D03*
X110070000Y-122187500D03*
X110070000Y-120917500D03*
X110070000Y-119647500D03*
X110070000Y-118377500D03*
X110070000Y-117107500D03*
X110070000Y-115837500D03*
X110070000Y-114567500D03*
D17*
X107030000Y-113317500D03*
X105760000Y-113317500D03*
X104490000Y-113317500D03*
X103220000Y-113317500D03*
X101950000Y-113317500D03*
X100680000Y-113317500D03*
X99410000Y-113317500D03*
X98140000Y-113317500D03*
X96870000Y-113317500D03*
X95600000Y-113317500D03*
D16*
X92570000Y-114567500D03*
X92570000Y-115837500D03*
X92570000Y-117107500D03*
X92570000Y-118377500D03*
X92570000Y-119647500D03*
X92570000Y-120917500D03*
X92570000Y-122187500D03*
X92570000Y-123457500D03*
X92570000Y-124727500D03*
X92570000Y-125997500D03*
X92570000Y-127267500D03*
X92570000Y-128537500D03*
X92570000Y-129807500D03*
X92570000Y-131077500D03*
D18*
X100475000Y-123737500D03*
X102000000Y-123737500D03*
X100475000Y-125262500D03*
X102000000Y-125262500D03*
X103525000Y-123737500D03*
X102000000Y-122212500D03*
X103525000Y-122212500D03*
X103525000Y-125262500D03*
X100475000Y-122212500D03*
G04 #@! TD*
D13*
G04 #@! TO.C,C39*
X133030000Y-78000000D03*
X134000000Y-78000000D03*
G04 #@! TD*
D10*
G04 #@! TO.C,C32*
X127000000Y-65485000D03*
X127000000Y-64515000D03*
G04 #@! TD*
D11*
G04 #@! TO.C,DAY8*
X67915000Y-65550000D03*
X67915000Y-64450000D03*
X66085000Y-64450000D03*
X66085000Y-65550000D03*
G04 #@! TD*
D12*
G04 #@! TO.C,SW_DAY7*
X129025000Y-43750000D03*
X136975000Y-43750000D03*
X136975000Y-48250000D03*
X129025000Y-48250000D03*
G04 #@! TD*
D14*
G04 #@! TO.C,WIN1*
X143225000Y-51025000D03*
X143225000Y-58975000D03*
X147725000Y-51025000D03*
X147725000Y-58975000D03*
G04 #@! TD*
D11*
G04 #@! TO.C,DAY11*
X100915000Y-65550000D03*
X100915000Y-64450000D03*
X99085000Y-64450000D03*
X99085000Y-65550000D03*
G04 #@! TD*
D10*
G04 #@! TO.C,C28*
X116000000Y-85485000D03*
X116000000Y-84515000D03*
G04 #@! TD*
D19*
G04 #@! TO.C,ROW2*
X72000000Y-64212500D03*
X72000000Y-65787500D03*
G04 #@! TD*
D10*
G04 #@! TO.C,C24*
X105500000Y-105485000D03*
X105500000Y-104515000D03*
G04 #@! TD*
D11*
G04 #@! TO.C,DAY37*
X78915000Y-105550000D03*
X78915000Y-104450000D03*
X77085000Y-104450000D03*
X77085000Y-105550000D03*
G04 #@! TD*
G04 #@! TO.C,DAY4*
X100915000Y-55550000D03*
X100915000Y-54450000D03*
X99085000Y-54450000D03*
X99085000Y-55550000D03*
G04 #@! TD*
D10*
G04 #@! TO.C,C35*
X127000000Y-95500000D03*
X127000000Y-94530000D03*
G04 #@! TD*
G04 #@! TO.C,C42*
X135500000Y-105485000D03*
X135500000Y-104515000D03*
G04 #@! TD*
D11*
G04 #@! TO.C,D_S3*
X141830000Y-109600000D03*
X141830000Y-108500000D03*
X140000000Y-108500000D03*
X140000000Y-109600000D03*
G04 #@! TD*
D20*
G04 #@! TO.C,Q2*
X80087500Y-130950000D03*
X80087500Y-129050000D03*
X78212500Y-130000000D03*
G04 #@! TD*
D10*
G04 #@! TO.C,R3*
X55500000Y-112985000D03*
X55500000Y-112015000D03*
G04 #@! TD*
D11*
G04 #@! TO.C,DAY21*
X133915000Y-75550000D03*
X133915000Y-74450000D03*
X132085000Y-74450000D03*
X132085000Y-75550000D03*
G04 #@! TD*
G04 #@! TO.C,DAY3*
X89915000Y-55500000D03*
X89915000Y-54400000D03*
X88085000Y-54400000D03*
X88085000Y-55500000D03*
G04 #@! TD*
G04 #@! TO.C,DAY38*
X89915000Y-105550000D03*
X89915000Y-104450000D03*
X88085000Y-104450000D03*
X88085000Y-105550000D03*
G04 #@! TD*
D10*
G04 #@! TO.C,C7*
X83000000Y-85485000D03*
X83000000Y-84515000D03*
G04 #@! TD*
G04 #@! TO.C,C27*
X116000000Y-75485000D03*
X116000000Y-74515000D03*
G04 #@! TD*
G04 #@! TO.C,C29*
X116500000Y-95500000D03*
X116500000Y-94530000D03*
G04 #@! TD*
D13*
G04 #@! TO.C,C4*
X83265000Y-56250000D03*
X84235000Y-56250000D03*
G04 #@! TD*
D21*
G04 #@! TO.C,C10*
X112000000Y-128287500D03*
X112000000Y-126712500D03*
G04 #@! TD*
D10*
G04 #@! TO.C,C18*
X94500000Y-105485000D03*
X94500000Y-104515000D03*
G04 #@! TD*
D13*
G04 #@! TO.C,C25*
X117015000Y-56250000D03*
X117985000Y-56250000D03*
G04 #@! TD*
G04 #@! TO.C,C31*
X128030000Y-56250000D03*
X129000000Y-56250000D03*
G04 #@! TD*
D19*
G04 #@! TO.C,C1*
X55000000Y-123462500D03*
X55000000Y-125037500D03*
G04 #@! TD*
D22*
G04 #@! TO.C,C43*
X76485000Y-131000000D03*
X75515000Y-131000000D03*
G04 #@! TD*
D10*
G04 #@! TO.C,R4*
X81750000Y-128735000D03*
X81750000Y-127765000D03*
G04 #@! TD*
D21*
G04 #@! TO.C,D1*
X101250000Y-110787500D03*
X101250000Y-109212500D03*
G04 #@! TD*
D19*
G04 #@! TO.C,ROW6*
X72500000Y-104212500D03*
X72500000Y-105787500D03*
G04 #@! TD*
D10*
G04 #@! TO.C,C34*
X127000000Y-85485000D03*
X127000000Y-84515000D03*
G04 #@! TD*
D11*
G04 #@! TO.C,DAY24*
X89915000Y-85550000D03*
X89915000Y-84450000D03*
X88085000Y-84450000D03*
X88085000Y-85550000D03*
G04 #@! TD*
D20*
G04 #@! TO.C,Q1*
X80087500Y-127450000D03*
X80087500Y-125550000D03*
X78212500Y-126500000D03*
G04 #@! TD*
D11*
G04 #@! TO.C,D_S2*
X141830000Y-106600000D03*
X141830000Y-105500000D03*
X140000000Y-105500000D03*
X140000000Y-106600000D03*
G04 #@! TD*
D15*
G04 #@! TO.C,C11*
X133000000Y-117015000D03*
X133000000Y-117985000D03*
G04 #@! TD*
D13*
G04 #@! TO.C,C37*
X135265000Y-56250000D03*
X136235000Y-56250000D03*
G04 #@! TD*
D11*
G04 #@! TO.C,DAY20*
X122915000Y-75550000D03*
X122915000Y-74450000D03*
X121085000Y-74450000D03*
X121085000Y-75550000D03*
G04 #@! TD*
G04 #@! TO.C,DAY41*
X122915000Y-105550000D03*
X122915000Y-104450000D03*
X121085000Y-104450000D03*
X121085000Y-105550000D03*
G04 #@! TD*
G04 #@! TO.C,DAY33*
X111915000Y-95550000D03*
X111915000Y-94450000D03*
X110085000Y-94450000D03*
X110085000Y-95550000D03*
G04 #@! TD*
D13*
G04 #@! TO.C,C19*
X106030000Y-56250000D03*
X107000000Y-56250000D03*
G04 #@! TD*
D15*
G04 #@! TO.C,R5*
X81750000Y-125515000D03*
X81750000Y-126485000D03*
G04 #@! TD*
D23*
G04 #@! TO.C,ROW1*
X73537500Y-56000000D03*
X71962500Y-56000000D03*
G04 #@! TD*
D10*
G04 #@! TO.C,C5*
X83000000Y-65485000D03*
X83000000Y-64515000D03*
G04 #@! TD*
D19*
G04 #@! TO.C,C_ROW_STATUS1*
X137000000Y-104212500D03*
X137000000Y-105787500D03*
G04 #@! TD*
D14*
G04 #@! TO.C,WIN2*
X143225000Y-68975000D03*
X143225000Y-61025000D03*
X147725000Y-68975000D03*
X147725000Y-61025000D03*
G04 #@! TD*
D11*
G04 #@! TO.C,DAY31*
X89915000Y-95550000D03*
X89915000Y-94450000D03*
X88085000Y-94450000D03*
X88085000Y-95550000D03*
G04 #@! TD*
D10*
G04 #@! TO.C,C30*
X116500000Y-105485000D03*
X116500000Y-104515000D03*
G04 #@! TD*
D11*
G04 #@! TO.C,DAY32*
X100915000Y-95550000D03*
X100915000Y-94450000D03*
X99085000Y-94450000D03*
X99085000Y-95550000D03*
G04 #@! TD*
D19*
G04 #@! TO.C,ROW3*
X72000000Y-74212500D03*
X72000000Y-75787500D03*
G04 #@! TD*
D11*
G04 #@! TO.C,DAY17*
X89915000Y-75550000D03*
X89915000Y-74450000D03*
X88085000Y-74450000D03*
X88085000Y-75550000D03*
G04 #@! TD*
G04 #@! TO.C,DAY30*
X78915000Y-95550000D03*
X78915000Y-94450000D03*
X77085000Y-94450000D03*
X77085000Y-95550000D03*
G04 #@! TD*
G04 #@! TO.C,DAY25*
X100915000Y-85550000D03*
X100915000Y-84450000D03*
X99085000Y-84450000D03*
X99085000Y-85550000D03*
G04 #@! TD*
G04 #@! TO.C,DAY14*
X133915000Y-65550000D03*
X133915000Y-64450000D03*
X132085000Y-64450000D03*
X132085000Y-65550000D03*
G04 #@! TD*
D12*
G04 #@! TO.C,SW_DAY2*
X81975000Y-43750000D03*
X74025000Y-43750000D03*
X74025000Y-48250000D03*
X81975000Y-48250000D03*
G04 #@! TD*
D11*
G04 #@! TO.C,DAY7*
X133915000Y-55550000D03*
X133915000Y-54450000D03*
X132085000Y-54450000D03*
X132085000Y-55550000D03*
G04 #@! TD*
D10*
G04 #@! TO.C,C9*
X83500000Y-105485000D03*
X83500000Y-104515000D03*
G04 #@! TD*
D22*
G04 #@! TO.C,R6*
X76485000Y-130000000D03*
X75515000Y-130000000D03*
G04 #@! TD*
D11*
G04 #@! TO.C,DAY36*
X67915000Y-105550000D03*
X67915000Y-104450000D03*
X66085000Y-104450000D03*
X66085000Y-105550000D03*
G04 #@! TD*
D12*
G04 #@! TO.C,SW_DAY1*
X70975000Y-43750000D03*
X63025000Y-43750000D03*
X70975000Y-48250000D03*
X63025000Y-48250000D03*
G04 #@! TD*
D11*
G04 #@! TO.C,DAY23*
X78915000Y-85550000D03*
X78915000Y-84450000D03*
X77085000Y-84450000D03*
X77085000Y-85550000D03*
G04 #@! TD*
D12*
G04 #@! TO.C,SW_WEEK6*
X53025000Y-102750000D03*
X60975000Y-102750000D03*
X53025000Y-107250000D03*
X60975000Y-107250000D03*
G04 #@! TD*
D11*
G04 #@! TO.C,DAY9*
X78915000Y-65550000D03*
X78915000Y-64450000D03*
X77085000Y-64450000D03*
X77085000Y-65550000D03*
G04 #@! TD*
G04 #@! TO.C,DAY26*
X111915000Y-85550000D03*
X111915000Y-84450000D03*
X110085000Y-84450000D03*
X110085000Y-85550000D03*
G04 #@! TD*
G04 #@! TO.C,DAY42*
X133415000Y-105550000D03*
X133415000Y-104450000D03*
X131585000Y-104450000D03*
X131585000Y-105550000D03*
G04 #@! TD*
G04 #@! TO.C,DAY15*
X67915000Y-75550000D03*
X67915000Y-74450000D03*
X66085000Y-74450000D03*
X66085000Y-75550000D03*
G04 #@! TD*
D24*
G04 #@! TO.C,U1*
X141800000Y-121387500D03*
X142750000Y-121387500D03*
X143700000Y-121387500D03*
X143700000Y-119112500D03*
X141800000Y-119112500D03*
G04 #@! TD*
D11*
G04 #@! TO.C,DAY16*
X78915000Y-75550000D03*
X78915000Y-74450000D03*
X77085000Y-74450000D03*
X77085000Y-75550000D03*
G04 #@! TD*
D10*
G04 #@! TO.C,C33*
X127000000Y-75485000D03*
X127000000Y-74515000D03*
G04 #@! TD*
G04 #@! TO.C,C22*
X105000000Y-85485000D03*
X105000000Y-84515000D03*
G04 #@! TD*
D11*
G04 #@! TO.C,DAY35*
X133415000Y-95550000D03*
X133415000Y-94450000D03*
X131585000Y-94450000D03*
X131585000Y-95550000D03*
G04 #@! TD*
G04 #@! TO.C,DAY6*
X122915000Y-55550000D03*
X122915000Y-54450000D03*
X121085000Y-54450000D03*
X121085000Y-55550000D03*
G04 #@! TD*
D12*
G04 #@! TO.C,SW_WEEK5*
X60775000Y-92750000D03*
X52825000Y-92750000D03*
X52825000Y-97250000D03*
X60775000Y-97250000D03*
G04 #@! TD*
G04 #@! TO.C,SW_WEEK4*
X53025000Y-82750000D03*
X60975000Y-82750000D03*
X60975000Y-87250000D03*
X53025000Y-87250000D03*
G04 #@! TD*
D11*
G04 #@! TO.C,DAY39*
X100915000Y-105550000D03*
X100915000Y-104450000D03*
X99085000Y-104450000D03*
X99085000Y-105550000D03*
G04 #@! TD*
D12*
G04 #@! TO.C,SW_DAY5*
X114975000Y-43750000D03*
X107025000Y-43750000D03*
X114975000Y-48250000D03*
X107025000Y-48250000D03*
G04 #@! TD*
D11*
G04 #@! TO.C,DAY5*
X111915000Y-55550000D03*
X111915000Y-54450000D03*
X110085000Y-54450000D03*
X110085000Y-55550000D03*
G04 #@! TD*
D13*
G04 #@! TO.C,C40*
X132765000Y-87500000D03*
X133735000Y-87500000D03*
G04 #@! TD*
D19*
G04 #@! TO.C,ROW5*
X72500000Y-94212500D03*
X72500000Y-95787500D03*
G04 #@! TD*
D10*
G04 #@! TO.C,C14*
X94000000Y-65485000D03*
X94000000Y-64515000D03*
G04 #@! TD*
G04 #@! TO.C,C6*
X83000000Y-75485000D03*
X83000000Y-74515000D03*
G04 #@! TD*
D11*
G04 #@! TO.C,DAY19*
X111915000Y-75550000D03*
X111915000Y-74450000D03*
X110085000Y-74450000D03*
X110085000Y-75550000D03*
G04 #@! TD*
D10*
G04 #@! TO.C,C17*
X94500000Y-95500000D03*
X94500000Y-94530000D03*
G04 #@! TD*
D11*
G04 #@! TO.C,DAY28*
X133415000Y-85550000D03*
X133415000Y-84450000D03*
X131585000Y-84450000D03*
X131585000Y-85550000D03*
G04 #@! TD*
D10*
G04 #@! TO.C,C26*
X116000000Y-65485000D03*
X116000000Y-64515000D03*
G04 #@! TD*
D11*
G04 #@! TO.C,DAY12*
X111915000Y-65550000D03*
X111915000Y-64450000D03*
X110085000Y-64450000D03*
X110085000Y-65550000D03*
G04 #@! TD*
D10*
G04 #@! TO.C,R1*
X142750000Y-123985000D03*
X142750000Y-123015000D03*
G04 #@! TD*
D12*
G04 #@! TO.C,SW_WEEK2*
X53025000Y-62750000D03*
X60975000Y-62750000D03*
X53025000Y-67250000D03*
X60975000Y-67250000D03*
G04 #@! TD*
D15*
G04 #@! TO.C,R2*
X102750000Y-109515000D03*
X102750000Y-110485000D03*
G04 #@! TD*
D12*
G04 #@! TO.C,SW_DAY4*
X103975000Y-43750000D03*
X96025000Y-43750000D03*
X103975000Y-48250000D03*
X96025000Y-48250000D03*
G04 #@! TD*
D10*
G04 #@! TO.C,C16*
X94000000Y-85485000D03*
X94000000Y-84515000D03*
G04 #@! TD*
D14*
G04 #@! TO.C,MODE1*
X143225000Y-71025000D03*
X143225000Y-78975000D03*
X147725000Y-78975000D03*
X147725000Y-71025000D03*
G04 #@! TD*
D10*
G04 #@! TO.C,C15*
X94000000Y-75485000D03*
X94000000Y-74515000D03*
G04 #@! TD*
D25*
G04 #@! TO.C,U_POWER1*
X129275000Y-119925000D03*
X129275000Y-115075000D03*
X123725000Y-115075000D03*
X123725000Y-119925000D03*
D26*
X123960000Y-126650000D03*
X126500000Y-126650000D03*
X129040000Y-126650000D03*
G04 #@! TD*
D10*
G04 #@! TO.C,C20*
X105000000Y-65485000D03*
X105000000Y-64515000D03*
G04 #@! TD*
D12*
G04 #@! TO.C,SW_WEEK1*
X53025000Y-52750000D03*
X60975000Y-52750000D03*
X60975000Y-57250000D03*
X53025000Y-57250000D03*
G04 #@! TD*
D11*
G04 #@! TO.C,D_S1*
X141830000Y-103600000D03*
X141830000Y-102500000D03*
X140000000Y-102500000D03*
X140000000Y-103600000D03*
G04 #@! TD*
D19*
G04 #@! TO.C,ROW4*
X72000000Y-84212500D03*
X72000000Y-85787500D03*
G04 #@! TD*
D11*
G04 #@! TO.C,DAY18*
X100915000Y-75550000D03*
X100915000Y-74450000D03*
X99085000Y-74450000D03*
X99085000Y-75550000D03*
G04 #@! TD*
G04 #@! TO.C,DAY29*
X67915000Y-95550000D03*
X67915000Y-94450000D03*
X66085000Y-94450000D03*
X66085000Y-95550000D03*
G04 #@! TD*
M02*
