M48
; DRILL file {KiCad (6.0.8)} date Sun Dec 11 20:38:47 2022
; FORMAT={-:-/ absolute / metric / decimal}
; #@! TF.CreationDate,2022-12-11T20:38:47-08:00
; #@! TF.GenerationSoftware,Kicad,Pcbnew,(6.0.8)
; #@! TF.FileFunction,MixedPlating,1,2
FMAT,2
METRIC
; #@! TA.AperFunction,Plated,PTH,ComponentDrill
T1C0.200
; #@! TA.AperFunction,Plated,PTH,ViaDrill
T2C0.400
; #@! TA.AperFunction,Plated,PTH,ComponentDrill
T3C1.000
; #@! TA.AperFunction,Plated,PTH,ComponentDrill
T4C1.200
; #@! TA.AperFunction,NonPlated,NPTH,ComponentDrill
T5C3.200
%
G90
G05
T1
X100.475Y-122.975
X100.475Y-124.5
X101.237Y-122.212
X101.237Y-123.737
X101.237Y-125.262
X102.0Y-122.975
X102.0Y-124.5
X102.762Y-122.212
X102.762Y-123.737
X102.762Y-125.262
X103.525Y-122.975
X103.525Y-124.5
T2
X52.75Y-94.25
X53.0Y-54.25
X53.0Y-64.25
X53.0Y-74.25
X53.0Y-84.25
X53.0Y-104.25
X53.75Y-125.0
X54.5Y-115.5
X55.0Y-130.0
X57.0Y-106.0
X57.0Y-108.844
X60.75Y-94.25
X61.0Y-54.25
X61.0Y-64.25
X61.0Y-74.25
X61.0Y-84.25
X61.0Y-104.25
X64.5Y-43.75
X65.5Y-115.25
X66.562Y-82.5
X66.562Y-92.5
X66.562Y-102.5
X66.811Y-55.75
X66.874Y-52.5
X66.874Y-62.5
X66.874Y-72.39
X67.0Y-47.25
X69.5Y-43.75
X70.5Y-120.0
X70.61Y-107.61
X71.0Y-134.75
X71.25Y-126.25
X73.062Y-86.25
X73.062Y-96.25
X73.062Y-106.25
X73.374Y-56.25
X73.374Y-66.25
X73.374Y-76.14
X74.5Y-131.0
X75.5Y-128.25
X75.75Y-43.75
X77.562Y-82.5
X77.562Y-92.5
X77.562Y-102.5
X77.874Y-52.5
X77.874Y-62.5
X77.874Y-72.39
X80.5Y-43.75
X81.75Y-130.0
X83.0Y-113.5
X83.0Y-114.75
X83.75Y-134.5
X84.062Y-86.25
X84.062Y-96.25
X84.062Y-106.25
X84.374Y-56.25
X84.374Y-66.25
X84.374Y-76.14
X86.25Y-130.25
X86.5Y-43.75
X87.0Y-131.0
X88.5Y-131.0
X88.562Y-82.5
X88.562Y-92.5
X88.562Y-102.5
X88.874Y-52.5
X88.874Y-62.5
X88.874Y-72.39
X90.75Y-125.75
X90.75Y-127.25
X90.75Y-131.25
X91.0Y-112.75
X91.0Y-114.75
X91.5Y-43.75
X94.25Y-123.5
X95.062Y-86.25
X95.062Y-96.25
X95.062Y-106.25
X95.374Y-56.25
X95.374Y-66.25
X95.374Y-76.14
X95.537Y-128.537
X97.5Y-43.75
X99.562Y-82.5
X99.562Y-92.5
X99.562Y-102.5
X99.874Y-52.5
X99.874Y-62.5
X99.874Y-72.39
X100.0Y-111.5
X102.5Y-43.75
X106.062Y-86.25
X106.062Y-96.25
X106.062Y-106.25
X106.374Y-56.25
X106.374Y-66.25
X106.374Y-76.14
X107.0Y-111.75
X108.5Y-43.75
X110.562Y-82.5
X110.562Y-92.5
X110.562Y-102.5
X110.874Y-52.5
X110.874Y-62.5
X110.874Y-72.39
X111.5Y-129.75
X111.5Y-131.25
X113.5Y-43.75
X117.062Y-86.25
X117.062Y-96.25
X117.062Y-106.25
X117.374Y-56.25
X117.374Y-66.25
X117.374Y-76.14
X119.5Y-43.75
X121.5Y-123.0
X121.5Y-134.5
X121.562Y-82.5
X121.562Y-92.5
X121.562Y-102.5
X121.874Y-52.5
X121.874Y-62.5
X121.874Y-72.39
X122.5Y-114.25
X122.625Y-121.375
X124.5Y-43.75
X126.625Y-117.375
X127.562Y-86.5
X127.75Y-106.5
X127.947Y-66.5
X127.947Y-76.39
X128.447Y-56.5
X130.25Y-114.25
X130.5Y-43.75
X131.0Y-121.25
X132.947Y-52.5
X132.947Y-62.5
X132.947Y-72.39
X133.0Y-119.0
X133.0Y-132.257
X133.062Y-82.462
X133.062Y-92.5
X133.062Y-102.5
X133.312Y-89.0
X133.312Y-99.0
X133.386Y-78.89
X133.697Y-54.25
X133.697Y-59.0
X133.697Y-64.25
X133.697Y-69.0
X133.697Y-74.14
X133.812Y-84.212
X133.812Y-94.25
X135.5Y-43.75
X137.25Y-101.25
X138.135Y-55.0
X138.135Y-65.0
X138.135Y-74.5
X138.25Y-84.462
X138.25Y-94.75
X138.5Y-101.25
X140.0Y-52.0
X140.0Y-130.0
X140.075Y-103.425
X140.25Y-108.5
X141.5Y-123.0
X143.25Y-52.5
X143.25Y-57.5
X143.25Y-62.5
X143.25Y-67.5
X143.25Y-72.5
X143.25Y-77.5
X143.25Y-82.5
X143.25Y-87.5
X143.25Y-92.5
X143.25Y-97.5
X143.5Y-117.0
X143.75Y-114.75
X144.5Y-122.75
X145.5Y-119.25
X147.725Y-55.225
X147.725Y-65.225
X147.725Y-75.225
X147.725Y-85.275
X147.725Y-95.025
X148.5Y-119.25
T3
X52.25Y-116.945
X52.25Y-119.485
X52.25Y-122.025
X71.15Y-136.5
X73.69Y-136.5
X76.23Y-136.5
X78.77Y-136.5
X81.31Y-136.5
X83.85Y-136.5
T4
X125.19Y-134.75
X129.0Y-134.75
T5
X54.0Y-44.0
X54.0Y-136.0
X146.0Y-44.0
X146.0Y-136.0
T0
M30
