G04 #@! TF.GenerationSoftware,KiCad,Pcbnew,(6.0.8)*
G04 #@! TF.CreationDate,2022-12-11T20:06:37-08:00*
G04 #@! TF.ProjectId,EveryDayCalendarSingleMonth,45766572-7944-4617-9943-616c656e6461,rev?*
G04 #@! TF.SameCoordinates,Original*
G04 #@! TF.FileFunction,Paste,Top*
G04 #@! TF.FilePolarity,Positive*
%FSLAX46Y46*%
G04 Gerber Fmt 4.6, Leading zero omitted, Abs format (unit mm)*
G04 Created by KiCad (PCBNEW (6.0.8)) date 2022-12-11 20:06:37*
%MOMM*%
%LPD*%
G01*
G04 APERTURE LIST*
G04 Aperture macros list*
%AMRoundRect*
0 Rectangle with rounded corners*
0 $1 Rounding radius*
0 $2 $3 $4 $5 $6 $7 $8 $9 X,Y pos of 4 corners*
0 Add a 4 corners polygon primitive as box body*
4,1,4,$2,$3,$4,$5,$6,$7,$8,$9,$2,$3,0*
0 Add four circle primitives for the rounded corners*
1,1,$1+$1,$2,$3*
1,1,$1+$1,$4,$5*
1,1,$1+$1,$6,$7*
1,1,$1+$1,$8,$9*
0 Add four rect primitives between the rounded corners*
20,1,$1+$1,$2,$3,$4,$5,0*
20,1,$1+$1,$4,$5,$6,$7,0*
20,1,$1+$1,$6,$7,$8,$9,0*
20,1,$1+$1,$8,$9,$2,$3,0*%
G04 Aperture macros list end*
%ADD10RoundRect,0.147500X0.172500X-0.147500X0.172500X0.147500X-0.172500X0.147500X-0.172500X-0.147500X0*%
%ADD11R,1.500000X0.900000*%
%ADD12R,1.550000X1.300000*%
%ADD13R,1.300000X1.550000*%
%ADD14RoundRect,0.147500X-0.172500X0.147500X-0.172500X-0.147500X0.172500X-0.147500X0.172500X0.147500X0*%
%ADD15R,0.900000X1.500000*%
%ADD16R,1.050000X1.050000*%
%ADD17RoundRect,0.218750X-0.256250X0.218750X-0.256250X-0.218750X0.256250X-0.218750X0.256250X0.218750X0*%
%ADD18R,0.600000X0.500000*%
%ADD19RoundRect,0.147500X-0.147500X-0.172500X0.147500X-0.172500X0.147500X0.172500X-0.147500X0.172500X0*%
%ADD20RoundRect,0.218750X0.256250X-0.218750X0.256250X0.218750X-0.256250X0.218750X-0.256250X-0.218750X0*%
%ADD21RoundRect,0.147500X0.147500X0.172500X-0.147500X0.172500X-0.147500X-0.172500X0.147500X-0.172500X0*%
%ADD22RoundRect,0.150000X0.150000X-0.512500X0.150000X0.512500X-0.150000X0.512500X-0.150000X-0.512500X0*%
%ADD23R,5.250000X4.550000*%
%ADD24R,1.100000X4.600000*%
G04 APERTURE END LIST*
D10*
G04 #@! TO.C,C8*
X74250000Y-97335000D03*
X74250000Y-96365000D03*
G04 #@! TD*
G04 #@! TO.C,C21*
X96200000Y-77335000D03*
X96200000Y-76365000D03*
G04 #@! TD*
D11*
G04 #@! TO.C,DAY13*
X124900000Y-65750000D03*
X124900000Y-62450000D03*
X120000000Y-62450000D03*
X120000000Y-65750000D03*
G04 #@! TD*
G04 #@! TO.C,DAY27*
X125262500Y-85750000D03*
X125262500Y-82450000D03*
X120362500Y-82450000D03*
X120362500Y-85750000D03*
G04 #@! TD*
G04 #@! TO.C,DAY40*
X114262500Y-105750000D03*
X114262500Y-102450000D03*
X109362500Y-102450000D03*
X109362500Y-105750000D03*
G04 #@! TD*
D12*
G04 #@! TO.C,SW_DAY6*
X125975000Y-43750000D03*
X118025000Y-43750000D03*
X125975000Y-48250000D03*
X118025000Y-48250000D03*
G04 #@! TD*
G04 #@! TO.C,SW_DAY3*
X92975000Y-43750000D03*
X85025000Y-43750000D03*
X85025000Y-48250000D03*
X92975000Y-48250000D03*
G04 #@! TD*
D10*
G04 #@! TO.C,C41*
X128750000Y-87335000D03*
X128750000Y-86365000D03*
G04 #@! TD*
G04 #@! TO.C,C36*
X118250000Y-107500000D03*
X118250000Y-106530000D03*
G04 #@! TD*
D11*
G04 #@! TO.C,DAY1*
X69900000Y-55750000D03*
X69900000Y-52450000D03*
X65000000Y-52450000D03*
X65000000Y-55750000D03*
G04 #@! TD*
D13*
G04 #@! TO.C,NEXT1*
X143225000Y-91025000D03*
X143225000Y-98975000D03*
X147725000Y-98975000D03*
X147725000Y-91025000D03*
G04 #@! TD*
D11*
G04 #@! TO.C,DAY10*
X91900000Y-65750000D03*
X91900000Y-62450000D03*
X87000000Y-62450000D03*
X87000000Y-65750000D03*
G04 #@! TD*
D14*
G04 #@! TO.C,C2*
X133000000Y-130272500D03*
X133000000Y-131242500D03*
G04 #@! TD*
D11*
G04 #@! TO.C,DAY2*
X80900000Y-55750000D03*
X80900000Y-52450000D03*
X76000000Y-52450000D03*
X76000000Y-55750000D03*
G04 #@! TD*
D10*
G04 #@! TO.C,C13*
X85200000Y-57335000D03*
X85200000Y-56365000D03*
G04 #@! TD*
D12*
G04 #@! TO.C,SW_WEEK3*
X60975000Y-72750000D03*
X53025000Y-72750000D03*
X60975000Y-77250000D03*
X53025000Y-77250000D03*
G04 #@! TD*
D10*
G04 #@! TO.C,C38*
X129312500Y-57485000D03*
X129312500Y-56515000D03*
G04 #@! TD*
D11*
G04 #@! TO.C,DAY22*
X70262500Y-85750000D03*
X70262500Y-82450000D03*
X65362500Y-82450000D03*
X65362500Y-85750000D03*
G04 #@! TD*
D10*
G04 #@! TO.C,C23*
X96250000Y-97320000D03*
X96250000Y-96350000D03*
G04 #@! TD*
D13*
G04 #@! TO.C,PREV1*
X143225000Y-81025000D03*
X143225000Y-88975000D03*
X147725000Y-81025000D03*
X147725000Y-88975000D03*
G04 #@! TD*
D11*
G04 #@! TO.C,DAY34*
X125262500Y-95750000D03*
X125262500Y-92450000D03*
X120362500Y-92450000D03*
X120362500Y-95750000D03*
G04 #@! TD*
G04 #@! TO.C,U_CPU1*
X110070000Y-131077500D03*
X110070000Y-129807500D03*
X110070000Y-128537500D03*
X110070000Y-127267500D03*
X110070000Y-125997500D03*
X110070000Y-124727500D03*
X110070000Y-123457500D03*
X110070000Y-122187500D03*
X110070000Y-120917500D03*
X110070000Y-119647500D03*
X110070000Y-118377500D03*
X110070000Y-117107500D03*
X110070000Y-115837500D03*
X110070000Y-114567500D03*
D15*
X107030000Y-113317500D03*
X105760000Y-113317500D03*
X104490000Y-113317500D03*
X103220000Y-113317500D03*
X101950000Y-113317500D03*
X100680000Y-113317500D03*
X99410000Y-113317500D03*
X98140000Y-113317500D03*
X96870000Y-113317500D03*
X95600000Y-113317500D03*
D11*
X92570000Y-114567500D03*
X92570000Y-115837500D03*
X92570000Y-117107500D03*
X92570000Y-118377500D03*
X92570000Y-119647500D03*
X92570000Y-120917500D03*
X92570000Y-122187500D03*
X92570000Y-123457500D03*
X92570000Y-124727500D03*
X92570000Y-125997500D03*
X92570000Y-127267500D03*
X92570000Y-128537500D03*
X92570000Y-129807500D03*
X92570000Y-131077500D03*
D16*
X100475000Y-123737500D03*
X102000000Y-123737500D03*
X100475000Y-125262500D03*
X102000000Y-125262500D03*
X103525000Y-123737500D03*
X102000000Y-122212500D03*
X103525000Y-122212500D03*
X103525000Y-125262500D03*
X100475000Y-122212500D03*
G04 #@! TD*
D10*
G04 #@! TO.C,C39*
X129200000Y-67335000D03*
X129200000Y-66365000D03*
G04 #@! TD*
G04 #@! TO.C,C32*
X118200000Y-67335000D03*
X118200000Y-66365000D03*
G04 #@! TD*
D11*
G04 #@! TO.C,DAY8*
X69900000Y-65750000D03*
X69900000Y-62450000D03*
X65000000Y-62450000D03*
X65000000Y-65750000D03*
G04 #@! TD*
D12*
G04 #@! TO.C,SW_DAY7*
X129025000Y-43750000D03*
X136975000Y-43750000D03*
X136975000Y-48250000D03*
X129025000Y-48250000D03*
G04 #@! TD*
D13*
G04 #@! TO.C,WIN1*
X143225000Y-51025000D03*
X143225000Y-58975000D03*
X147725000Y-51025000D03*
X147725000Y-58975000D03*
G04 #@! TD*
D11*
G04 #@! TO.C,DAY11*
X102900000Y-65750000D03*
X102900000Y-62450000D03*
X98000000Y-62450000D03*
X98000000Y-65750000D03*
G04 #@! TD*
D10*
G04 #@! TO.C,C28*
X107250000Y-87335000D03*
X107250000Y-86365000D03*
G04 #@! TD*
D17*
G04 #@! TO.C,ROW2*
X137750000Y-66212500D03*
X137750000Y-67787500D03*
G04 #@! TD*
D10*
G04 #@! TO.C,C24*
X96250000Y-107485000D03*
X96250000Y-106515000D03*
G04 #@! TD*
D11*
G04 #@! TO.C,DAY37*
X81262500Y-105750000D03*
X81262500Y-102450000D03*
X76362500Y-102450000D03*
X76362500Y-105750000D03*
G04 #@! TD*
G04 #@! TO.C,DAY4*
X102900000Y-55750000D03*
X102900000Y-52450000D03*
X98000000Y-52450000D03*
X98000000Y-55750000D03*
G04 #@! TD*
D10*
G04 #@! TO.C,C35*
X118250000Y-97335000D03*
X118250000Y-96365000D03*
G04 #@! TD*
G04 #@! TO.C,C3*
X129000000Y-97235000D03*
X129000000Y-96265000D03*
G04 #@! TD*
D18*
G04 #@! TO.C,Q2*
X79800000Y-129500000D03*
X79800000Y-128500000D03*
X78500000Y-129000000D03*
G04 #@! TD*
D19*
G04 #@! TO.C,R3*
X93515000Y-111500000D03*
X94485000Y-111500000D03*
G04 #@! TD*
D11*
G04 #@! TO.C,DAY21*
X135900000Y-75750000D03*
X135900000Y-72450000D03*
X131000000Y-72450000D03*
X131000000Y-75750000D03*
G04 #@! TD*
G04 #@! TO.C,DAY3*
X91900000Y-55700000D03*
X91900000Y-52400000D03*
X87000000Y-52400000D03*
X87000000Y-55700000D03*
G04 #@! TD*
G04 #@! TO.C,DAY38*
X92262500Y-105750000D03*
X92262500Y-102450000D03*
X87362500Y-102450000D03*
X87362500Y-105750000D03*
G04 #@! TD*
D10*
G04 #@! TO.C,C7*
X74250000Y-87335000D03*
X74250000Y-86365000D03*
G04 #@! TD*
G04 #@! TO.C,C27*
X107200000Y-77335000D03*
X107200000Y-76365000D03*
G04 #@! TD*
G04 #@! TO.C,C29*
X107250000Y-97335000D03*
X107250000Y-96365000D03*
G04 #@! TD*
G04 #@! TO.C,C4*
X74200000Y-57335000D03*
X74200000Y-56365000D03*
G04 #@! TD*
D20*
G04 #@! TO.C,C10*
X112000000Y-128287500D03*
X112000000Y-126712500D03*
G04 #@! TD*
D10*
G04 #@! TO.C,C18*
X85250000Y-107470000D03*
X85250000Y-106500000D03*
G04 #@! TD*
G04 #@! TO.C,C25*
X107200000Y-57335000D03*
X107200000Y-56365000D03*
G04 #@! TD*
G04 #@! TO.C,C31*
X118200000Y-57335000D03*
X118200000Y-56365000D03*
G04 #@! TD*
D17*
G04 #@! TO.C,C1*
X55000000Y-123462500D03*
X55000000Y-125037500D03*
G04 #@! TD*
D21*
G04 #@! TO.C,C43*
X76485000Y-131000000D03*
X75515000Y-131000000D03*
G04 #@! TD*
D10*
G04 #@! TO.C,R4*
X81000000Y-128735000D03*
X81000000Y-127765000D03*
G04 #@! TD*
D20*
G04 #@! TO.C,D1*
X101250000Y-111287500D03*
X101250000Y-109712500D03*
G04 #@! TD*
D17*
G04 #@! TO.C,ROW6*
X138000000Y-102462500D03*
X138000000Y-104037500D03*
G04 #@! TD*
D10*
G04 #@! TO.C,C34*
X118250000Y-87335000D03*
X118250000Y-86365000D03*
G04 #@! TD*
D11*
G04 #@! TO.C,DAY24*
X92262500Y-85750000D03*
X92262500Y-82450000D03*
X87362500Y-82450000D03*
X87362500Y-85750000D03*
G04 #@! TD*
D18*
G04 #@! TO.C,Q1*
X79800000Y-127000000D03*
X79800000Y-126000000D03*
X78500000Y-126500000D03*
G04 #@! TD*
D14*
G04 #@! TO.C,C11*
X133000000Y-117015000D03*
X133000000Y-117985000D03*
G04 #@! TD*
D11*
G04 #@! TO.C,DAY20*
X124900000Y-75750000D03*
X124900000Y-72450000D03*
X120000000Y-72450000D03*
X120000000Y-75750000D03*
G04 #@! TD*
G04 #@! TO.C,DAY41*
X125262500Y-105750000D03*
X125262500Y-102450000D03*
X120362500Y-102450000D03*
X120362500Y-105750000D03*
G04 #@! TD*
G04 #@! TO.C,DAY33*
X114262500Y-95750000D03*
X114262500Y-92450000D03*
X109362500Y-92450000D03*
X109362500Y-95750000D03*
G04 #@! TD*
D10*
G04 #@! TO.C,C19*
X96200000Y-57335000D03*
X96200000Y-56365000D03*
G04 #@! TD*
D14*
G04 #@! TO.C,R5*
X81000000Y-125765000D03*
X81000000Y-126735000D03*
G04 #@! TD*
D17*
G04 #@! TO.C,ROW1*
X137750000Y-56212500D03*
X137750000Y-57787500D03*
G04 #@! TD*
D10*
G04 #@! TO.C,C5*
X74200000Y-67335000D03*
X74200000Y-66365000D03*
G04 #@! TD*
D13*
G04 #@! TO.C,WIN2*
X143225000Y-68975000D03*
X143225000Y-61025000D03*
X147725000Y-68975000D03*
X147725000Y-61025000D03*
G04 #@! TD*
D11*
G04 #@! TO.C,DAY31*
X92262500Y-95750000D03*
X92262500Y-92450000D03*
X87362500Y-92450000D03*
X87362500Y-95750000D03*
G04 #@! TD*
D10*
G04 #@! TO.C,C30*
X107500000Y-107485000D03*
X107500000Y-106515000D03*
G04 #@! TD*
D11*
G04 #@! TO.C,DAY32*
X103262500Y-95750000D03*
X103262500Y-92450000D03*
X98362500Y-92450000D03*
X98362500Y-95750000D03*
G04 #@! TD*
D17*
G04 #@! TO.C,ROW3*
X137750000Y-75962500D03*
X137750000Y-77537500D03*
G04 #@! TD*
D11*
G04 #@! TO.C,DAY17*
X91900000Y-75750000D03*
X91900000Y-72450000D03*
X87000000Y-72450000D03*
X87000000Y-75750000D03*
G04 #@! TD*
G04 #@! TO.C,DAY30*
X81262500Y-95750000D03*
X81262500Y-92450000D03*
X76362500Y-92450000D03*
X76362500Y-95750000D03*
G04 #@! TD*
G04 #@! TO.C,DAY25*
X103262500Y-85750000D03*
X103262500Y-82450000D03*
X98362500Y-82450000D03*
X98362500Y-85750000D03*
G04 #@! TD*
G04 #@! TO.C,DAY14*
X135900000Y-65750000D03*
X135900000Y-62450000D03*
X131000000Y-62450000D03*
X131000000Y-65750000D03*
G04 #@! TD*
D12*
G04 #@! TO.C,SW_DAY2*
X81975000Y-43750000D03*
X74025000Y-43750000D03*
X74025000Y-48250000D03*
X81975000Y-48250000D03*
G04 #@! TD*
D11*
G04 #@! TO.C,DAY7*
X135900000Y-55750000D03*
X135900000Y-52450000D03*
X131000000Y-52450000D03*
X131000000Y-55750000D03*
G04 #@! TD*
D10*
G04 #@! TO.C,C9*
X74500000Y-107485000D03*
X74500000Y-106515000D03*
G04 #@! TD*
D21*
G04 #@! TO.C,R6*
X76485000Y-130000000D03*
X75515000Y-130000000D03*
G04 #@! TD*
D11*
G04 #@! TO.C,DAY36*
X70262500Y-105750000D03*
X70262500Y-102450000D03*
X65362500Y-102450000D03*
X65362500Y-105750000D03*
G04 #@! TD*
D12*
G04 #@! TO.C,SW_DAY1*
X70975000Y-43750000D03*
X63025000Y-43750000D03*
X70975000Y-48250000D03*
X63025000Y-48250000D03*
G04 #@! TD*
D11*
G04 #@! TO.C,DAY23*
X81262500Y-85750000D03*
X81262500Y-82450000D03*
X76362500Y-82450000D03*
X76362500Y-85750000D03*
G04 #@! TD*
D12*
G04 #@! TO.C,SW_WEEK6*
X53025000Y-102750000D03*
X60975000Y-102750000D03*
X53025000Y-107250000D03*
X60975000Y-107250000D03*
G04 #@! TD*
D11*
G04 #@! TO.C,DAY9*
X80900000Y-65750000D03*
X80900000Y-62450000D03*
X76000000Y-62450000D03*
X76000000Y-65750000D03*
G04 #@! TD*
G04 #@! TO.C,DAY26*
X114262500Y-85750000D03*
X114262500Y-82450000D03*
X109362500Y-82450000D03*
X109362500Y-85750000D03*
G04 #@! TD*
G04 #@! TO.C,DAY42*
X135762500Y-105750000D03*
X135762500Y-102450000D03*
X130862500Y-102450000D03*
X130862500Y-105750000D03*
G04 #@! TD*
G04 #@! TO.C,DAY15*
X69900000Y-75750000D03*
X69900000Y-72450000D03*
X65000000Y-72450000D03*
X65000000Y-75750000D03*
G04 #@! TD*
D22*
G04 #@! TO.C,U1*
X141800000Y-121387500D03*
X142750000Y-121387500D03*
X143700000Y-121387500D03*
X143700000Y-119112500D03*
X141800000Y-119112500D03*
G04 #@! TD*
D11*
G04 #@! TO.C,DAY16*
X80900000Y-75750000D03*
X80900000Y-72450000D03*
X76000000Y-72450000D03*
X76000000Y-75750000D03*
G04 #@! TD*
D10*
G04 #@! TO.C,C33*
X118200000Y-77335000D03*
X118200000Y-76365000D03*
G04 #@! TD*
G04 #@! TO.C,C22*
X96250000Y-87335000D03*
X96250000Y-86365000D03*
G04 #@! TD*
D11*
G04 #@! TO.C,DAY35*
X135762500Y-95750000D03*
X135762500Y-92450000D03*
X130862500Y-92450000D03*
X130862500Y-95750000D03*
G04 #@! TD*
G04 #@! TO.C,DAY6*
X124900000Y-55750000D03*
X124900000Y-52450000D03*
X120000000Y-52450000D03*
X120000000Y-55750000D03*
G04 #@! TD*
D12*
G04 #@! TO.C,SW_WEEK5*
X60775000Y-92750000D03*
X52825000Y-92750000D03*
X52825000Y-97250000D03*
X60775000Y-97250000D03*
G04 #@! TD*
G04 #@! TO.C,SW_WEEK4*
X53025000Y-82750000D03*
X60975000Y-82750000D03*
X60975000Y-87250000D03*
X53025000Y-87250000D03*
G04 #@! TD*
D11*
G04 #@! TO.C,DAY39*
X103262500Y-105750000D03*
X103262500Y-102450000D03*
X98362500Y-102450000D03*
X98362500Y-105750000D03*
G04 #@! TD*
D12*
G04 #@! TO.C,SW_DAY5*
X114975000Y-43750000D03*
X107025000Y-43750000D03*
X114975000Y-48250000D03*
X107025000Y-48250000D03*
G04 #@! TD*
D11*
G04 #@! TO.C,DAY5*
X113900000Y-55750000D03*
X113900000Y-52450000D03*
X109000000Y-52450000D03*
X109000000Y-55750000D03*
G04 #@! TD*
D10*
G04 #@! TO.C,C40*
X129200000Y-77335000D03*
X129200000Y-76365000D03*
G04 #@! TD*
D17*
G04 #@! TO.C,ROW5*
X137750000Y-95962500D03*
X137750000Y-97537500D03*
G04 #@! TD*
D10*
G04 #@! TO.C,C14*
X85200000Y-67335000D03*
X85200000Y-66365000D03*
G04 #@! TD*
G04 #@! TO.C,C6*
X74200000Y-77335000D03*
X74200000Y-76365000D03*
G04 #@! TD*
D11*
G04 #@! TO.C,DAY19*
X113900000Y-75750000D03*
X113900000Y-72450000D03*
X109000000Y-72450000D03*
X109000000Y-75750000D03*
G04 #@! TD*
D10*
G04 #@! TO.C,C17*
X85250000Y-97335000D03*
X85250000Y-96365000D03*
G04 #@! TD*
D11*
G04 #@! TO.C,DAY28*
X135762500Y-85750000D03*
X135762500Y-82450000D03*
X130862500Y-82450000D03*
X130862500Y-85750000D03*
G04 #@! TD*
D10*
G04 #@! TO.C,C26*
X107200000Y-67335000D03*
X107200000Y-66365000D03*
G04 #@! TD*
D11*
G04 #@! TO.C,DAY12*
X113900000Y-65750000D03*
X113900000Y-62450000D03*
X109000000Y-62450000D03*
X109000000Y-65750000D03*
G04 #@! TD*
D10*
G04 #@! TO.C,R1*
X142750000Y-123985000D03*
X142750000Y-123015000D03*
G04 #@! TD*
D12*
G04 #@! TO.C,SW_WEEK2*
X53025000Y-62750000D03*
X60975000Y-62750000D03*
X53025000Y-67250000D03*
X60975000Y-67250000D03*
G04 #@! TD*
D14*
G04 #@! TO.C,R2*
X102750000Y-109515000D03*
X102750000Y-110485000D03*
G04 #@! TD*
D12*
G04 #@! TO.C,SW_DAY4*
X103975000Y-43750000D03*
X96025000Y-43750000D03*
X103975000Y-48250000D03*
X96025000Y-48250000D03*
G04 #@! TD*
D10*
G04 #@! TO.C,C16*
X85250000Y-87335000D03*
X85250000Y-86365000D03*
G04 #@! TD*
D13*
G04 #@! TO.C,MODE1*
X143225000Y-71025000D03*
X143225000Y-78975000D03*
X147725000Y-78975000D03*
X147725000Y-71025000D03*
G04 #@! TD*
D10*
G04 #@! TO.C,C15*
X85200000Y-77335000D03*
X85200000Y-76365000D03*
G04 #@! TD*
G04 #@! TO.C,C12*
X129000000Y-107485000D03*
X129000000Y-106515000D03*
G04 #@! TD*
D23*
G04 #@! TO.C,U_POWER1*
X129275000Y-119925000D03*
X129275000Y-115075000D03*
X123725000Y-115075000D03*
X123725000Y-119925000D03*
D24*
X123960000Y-126650000D03*
X126500000Y-126650000D03*
X129040000Y-126650000D03*
G04 #@! TD*
D10*
G04 #@! TO.C,C20*
X96200000Y-67335000D03*
X96200000Y-66365000D03*
G04 #@! TD*
D12*
G04 #@! TO.C,SW_WEEK1*
X53025000Y-52750000D03*
X60975000Y-52750000D03*
X60975000Y-57250000D03*
X53025000Y-57250000D03*
G04 #@! TD*
D17*
G04 #@! TO.C,ROW4*
X137750000Y-85962500D03*
X137750000Y-87537500D03*
G04 #@! TD*
D11*
G04 #@! TO.C,DAY18*
X102900000Y-75750000D03*
X102900000Y-72450000D03*
X98000000Y-72450000D03*
X98000000Y-75750000D03*
G04 #@! TD*
G04 #@! TO.C,DAY29*
X70262500Y-95750000D03*
X70262500Y-92450000D03*
X65362500Y-92450000D03*
X65362500Y-95750000D03*
G04 #@! TD*
M02*
