G04 #@! TF.GenerationSoftware,KiCad,Pcbnew,(6.0.8)*
G04 #@! TF.CreationDate,2022-12-06T21:36:09-08:00*
G04 #@! TF.ProjectId,EveryDayCalendarSingleMonth,45766572-7944-4617-9943-616c656e6461,rev?*
G04 #@! TF.SameCoordinates,Original*
G04 #@! TF.FileFunction,Copper,L2,Bot*
G04 #@! TF.FilePolarity,Positive*
%FSLAX46Y46*%
G04 Gerber Fmt 4.6, Leading zero omitted, Abs format (unit mm)*
G04 Created by KiCad (PCBNEW (6.0.8)) date 2022-12-06 21:36:09*
%MOMM*%
%LPD*%
G01*
G04 APERTURE LIST*
G04 Aperture macros list*
%AMRoundRect*
0 Rectangle with rounded corners*
0 $1 Rounding radius*
0 $2 $3 $4 $5 $6 $7 $8 $9 X,Y pos of 4 corners*
0 Add a 4 corners polygon primitive as box body*
4,1,4,$2,$3,$4,$5,$6,$7,$8,$9,$2,$3,0*
0 Add four circle primitives for the rounded corners*
1,1,$1+$1,$2,$3*
1,1,$1+$1,$4,$5*
1,1,$1+$1,$6,$7*
1,1,$1+$1,$8,$9*
0 Add four rect primitives between the rounded corners*
20,1,$1+$1,$2,$3,$4,$5,0*
20,1,$1+$1,$4,$5,$6,$7,0*
20,1,$1+$1,$6,$7,$8,$9,0*
20,1,$1+$1,$8,$9,$2,$3,0*%
G04 Aperture macros list end*
G04 #@! TA.AperFunction,ComponentPad*
%ADD10C,0.475000*%
G04 #@! TD*
G04 #@! TA.AperFunction,ComponentPad*
%ADD11RoundRect,0.250000X0.650000X1.550000X-0.650000X1.550000X-0.650000X-1.550000X0.650000X-1.550000X0*%
G04 #@! TD*
G04 #@! TA.AperFunction,ComponentPad*
%ADD12O,1.800000X3.600000*%
G04 #@! TD*
G04 #@! TA.AperFunction,ComponentPad*
%ADD13R,1.700000X1.700000*%
G04 #@! TD*
G04 #@! TA.AperFunction,ComponentPad*
%ADD14O,1.700000X1.700000*%
G04 #@! TD*
G04 #@! TA.AperFunction,SMDPad,CuDef*
%ADD15R,2.500000X2.500000*%
G04 #@! TD*
G04 #@! TA.AperFunction,SMDPad,CuDef*
%ADD16R,1.550000X1.300000*%
G04 #@! TD*
G04 #@! TA.AperFunction,ViaPad*
%ADD17C,0.800000*%
G04 #@! TD*
G04 #@! TA.AperFunction,Conductor*
%ADD18C,1.000000*%
G04 #@! TD*
G04 #@! TA.AperFunction,Conductor*
%ADD19C,0.250000*%
G04 #@! TD*
G04 APERTURE END LIST*
D10*
G04 #@! TO.P,U_CPU1,39,GND*
G04 #@! TO.N,GND*
X102000000Y-124500000D03*
X101237500Y-123737500D03*
X101237500Y-125262500D03*
X102762500Y-125262500D03*
X103525000Y-122975000D03*
X102762500Y-122212500D03*
X102000000Y-122975000D03*
X102762500Y-123737500D03*
X103525000Y-124500000D03*
X101237500Y-122212500D03*
X100475000Y-122975000D03*
X100475000Y-124500000D03*
G04 #@! TD*
D11*
G04 #@! TO.P,J2_POWER_IN1,1,Pin_1*
G04 #@! TO.N,+5V*
X129000000Y-134750000D03*
D12*
G04 #@! TO.P,J2_POWER_IN1,2,Pin_2*
G04 #@! TO.N,GND*
X125190000Y-134750000D03*
G04 #@! TD*
D13*
G04 #@! TO.P,J3_PROGRAMING_PIN1,1,Pin_1*
G04 #@! TO.N,GND*
X71150000Y-136500000D03*
D14*
G04 #@! TO.P,J3_PROGRAMING_PIN1,2,Pin_2*
G04 #@! TO.N,unconnected-(J3_PROGRAMING_PIN1-Pad2)*
X73690000Y-136500000D03*
G04 #@! TO.P,J3_PROGRAMING_PIN1,3,Pin_3*
G04 #@! TO.N,+5V*
X76230000Y-136500000D03*
G04 #@! TO.P,J3_PROGRAMING_PIN1,4,Pin_4*
G04 #@! TO.N,/RXD*
X78770000Y-136500000D03*
G04 #@! TO.P,J3_PROGRAMING_PIN1,5,Pin_5*
G04 #@! TO.N,/TXD*
X81310000Y-136500000D03*
G04 #@! TO.P,J3_PROGRAMING_PIN1,6,Pin_6*
G04 #@! TO.N,/RTS*
X83850000Y-136500000D03*
G04 #@! TD*
D13*
G04 #@! TO.P,ONE_WIRE1,1,Pin_1*
G04 #@! TO.N,+5V*
X52250000Y-122025000D03*
D14*
G04 #@! TO.P,ONE_WIRE1,2,Pin_2*
G04 #@! TO.N,Net-(ONE_WIRE1-Pad2)*
X52250000Y-119485000D03*
G04 #@! TO.P,ONE_WIRE1,3,Pin_3*
G04 #@! TO.N,GND*
X52250000Y-116945000D03*
G04 #@! TD*
D15*
G04 #@! TO.P,LED_IN1,1,1*
G04 #@! TO.N,Net-(LED_IN1-Pad1)*
X148000000Y-117000000D03*
G04 #@! TD*
D16*
G04 #@! TO.P,SW_RESET1,1,A*
G04 #@! TO.N,/RESET*
X69475000Y-126250000D03*
X61525000Y-126250000D03*
G04 #@! TO.P,SW_RESET1,2,B*
G04 #@! TO.N,GND*
X69475000Y-130750000D03*
X61525000Y-130750000D03*
G04 #@! TD*
D15*
G04 #@! TO.P,LED_OUT1,1,1*
G04 #@! TO.N,Net-(D_S3-Pad1)*
X148000000Y-113000000D03*
G04 #@! TD*
G04 #@! TO.P,WIN2,1,1*
G04 #@! TO.N,/BUTTON_WIN2*
X148000000Y-65000000D03*
G04 #@! TD*
G04 #@! TO.P,GND2,1,1*
G04 #@! TO.N,GND*
X148000000Y-50000000D03*
G04 #@! TD*
G04 #@! TO.P,5V4,1,1*
G04 #@! TO.N,+5V*
X140000000Y-138000000D03*
G04 #@! TD*
G04 #@! TO.P,CAL_PREV1,1,1*
G04 #@! TO.N,/BUTTON_CAL_PREV*
X148000000Y-85000000D03*
G04 #@! TD*
G04 #@! TO.P,5V2,1,1*
G04 #@! TO.N,+5V*
X148000000Y-130000000D03*
G04 #@! TD*
G04 #@! TO.P,5V3,1,1*
G04 #@! TO.N,+5V*
X52000000Y-130000000D03*
G04 #@! TD*
G04 #@! TO.P,GND1,1,1*
G04 #@! TO.N,GND*
X60000000Y-42000000D03*
G04 #@! TD*
G04 #@! TO.P,5V1,1,1*
G04 #@! TO.N,+5V*
X140000000Y-42000000D03*
G04 #@! TD*
G04 #@! TO.P,GND4,1,1*
G04 #@! TO.N,GND*
X60000000Y-138000000D03*
G04 #@! TD*
G04 #@! TO.P,CAL_NEXT1,1,1*
G04 #@! TO.N,/BUTTON_CAL_NEXT*
X148000000Y-95000000D03*
G04 #@! TD*
G04 #@! TO.P,GND3,1,1*
G04 #@! TO.N,GND*
X52000000Y-50000000D03*
G04 #@! TD*
G04 #@! TO.P,MODE1,1,1*
G04 #@! TO.N,/BUTTON_MODE*
X148000000Y-75000000D03*
G04 #@! TD*
G04 #@! TO.P,WIN1,1,1*
G04 #@! TO.N,/BUTTON_WIN1*
X148000000Y-55000000D03*
G04 #@! TD*
D16*
G04 #@! TO.P,SW_BOOTLOAD1,1,A*
G04 #@! TO.N,/GPIO0*
X61525000Y-118250000D03*
X69475000Y-118250000D03*
G04 #@! TO.P,SW_BOOTLOAD1,2,B*
G04 #@! TO.N,GND*
X69475000Y-122750000D03*
X61525000Y-122750000D03*
G04 #@! TD*
D17*
G04 #@! TO.N,+3.3V*
X126625000Y-117375000D03*
X131000000Y-121250000D03*
X122625000Y-121375000D03*
X122500000Y-114250000D03*
X130250000Y-114250000D03*
X111500000Y-129750000D03*
X121500000Y-123000000D03*
X75500000Y-128250000D03*
X94250000Y-123500000D03*
G04 #@! TO.N,GND*
X80000000Y-64000000D03*
X52750000Y-94250000D03*
X53000000Y-104250000D03*
X128250000Y-84500000D03*
X73250000Y-64000000D03*
X124000000Y-83750000D03*
X124000000Y-54500000D03*
X73750000Y-104250000D03*
X133000000Y-119000000D03*
X75750000Y-43750000D03*
X53000000Y-54250000D03*
X117000000Y-84750000D03*
X143250000Y-82500000D03*
X134275500Y-94000000D03*
X130500000Y-43750000D03*
X108000000Y-56150500D03*
X61000000Y-64250000D03*
X97500000Y-43750000D03*
X61000000Y-84250000D03*
X84000000Y-74500000D03*
X68987701Y-54487701D03*
X143250000Y-72500000D03*
X80000000Y-74500000D03*
X135000000Y-54000000D03*
X134500000Y-77000000D03*
X121500000Y-134500000D03*
X143250000Y-67500000D03*
X61000000Y-54250000D03*
X79987701Y-103987701D03*
X86500000Y-43750000D03*
X91000000Y-83500000D03*
X143250000Y-92500000D03*
X73750000Y-94250000D03*
X143250000Y-87500000D03*
X124000000Y-94000000D03*
X140948294Y-105973070D03*
X143250000Y-52500000D03*
X53000000Y-64250000D03*
X84250000Y-84619500D03*
X113250000Y-64250000D03*
X84500000Y-104750000D03*
X61000000Y-104250000D03*
X69000000Y-63750000D03*
X102000000Y-74500000D03*
X119000000Y-56250000D03*
X80000000Y-54500000D03*
X102500000Y-43750000D03*
X128250000Y-64250000D03*
X53750000Y-125000000D03*
X106250000Y-64250000D03*
X128250000Y-104750000D03*
X130000000Y-56250000D03*
X124500000Y-43750000D03*
X80000000Y-94000000D03*
X95500000Y-104750000D03*
X108500000Y-43750000D03*
X106000000Y-74500000D03*
X137000000Y-103250000D03*
X113000000Y-83750000D03*
X107000000Y-111750000D03*
X53000000Y-74250000D03*
X113000000Y-54500000D03*
X60750000Y-94250000D03*
X119500000Y-43750000D03*
X102000000Y-64250000D03*
X143250000Y-57500000D03*
X73250000Y-74000000D03*
X90987701Y-93987701D03*
X74500000Y-131000000D03*
X54500000Y-115500000D03*
X53000000Y-84250000D03*
X91500000Y-43750000D03*
X117000000Y-64250000D03*
X136250000Y-55250000D03*
X90750000Y-131250000D03*
X143250000Y-97500000D03*
X117500000Y-94634500D03*
X61000000Y-74250000D03*
X95500000Y-94634500D03*
X96500000Y-56250000D03*
X134250000Y-73500000D03*
X117000000Y-74500000D03*
X102000000Y-93750000D03*
X124250000Y-64250000D03*
X64500000Y-43750000D03*
X144500000Y-122750000D03*
X113000000Y-104000000D03*
X111500000Y-131250000D03*
X71000000Y-134750000D03*
X143250000Y-62500000D03*
X90845201Y-103845201D03*
X91000000Y-64000000D03*
X100000000Y-111250000D03*
X135000000Y-64500000D03*
X95000000Y-74500000D03*
X80095201Y-83595201D03*
X91000000Y-74250000D03*
X69145201Y-83895201D03*
X85250000Y-56250000D03*
X128000000Y-74500000D03*
X133750000Y-83250000D03*
X69000000Y-103750000D03*
X91000000Y-54500000D03*
X117750000Y-104750000D03*
X95250000Y-84619500D03*
X95000000Y-64250000D03*
X141500000Y-123000000D03*
X124000000Y-103750000D03*
X106500000Y-94619500D03*
X102000000Y-54500000D03*
X113000000Y-74500000D03*
X140948294Y-102973070D03*
X106250000Y-84619500D03*
X133500000Y-103250000D03*
X135250000Y-66500000D03*
X80500000Y-43750000D03*
X113500000Y-43750000D03*
X141000000Y-108750000D03*
X101862701Y-104112701D03*
X69500000Y-43750000D03*
X73250000Y-84250000D03*
X102000000Y-83500000D03*
X133000000Y-132257500D03*
X134500000Y-86750000D03*
X135500000Y-43750000D03*
X113237701Y-93737701D03*
X84000000Y-64250000D03*
X128000000Y-94500000D03*
X75000000Y-56000000D03*
X69000000Y-74000000D03*
X143250000Y-77500000D03*
X134500000Y-96750000D03*
X84000000Y-94750000D03*
X135500000Y-103250000D03*
X69000000Y-93750000D03*
X106500000Y-104750000D03*
X124000000Y-73750000D03*
G04 #@! TO.N,+5V*
X55000000Y-130000000D03*
X135750000Y-57500000D03*
X138950000Y-109500000D03*
X140250000Y-114750000D03*
X140000000Y-130000000D03*
X67500000Y-107000000D03*
X67000000Y-114000000D03*
G04 #@! TO.N,/RESET*
X71250000Y-126250000D03*
X95537500Y-128537500D03*
X88500000Y-131000000D03*
G04 #@! TO.N,/RXD*
X86250000Y-130250000D03*
X90750000Y-125750000D03*
G04 #@! TO.N,/TXD*
X90750000Y-127250000D03*
X87000000Y-131000000D03*
G04 #@! TO.N,/RTS*
X83750000Y-134500000D03*
X81750000Y-130000000D03*
G04 #@! TO.N,/GPIO0*
X91000000Y-114750000D03*
X83000000Y-114750000D03*
X70500000Y-120000000D03*
G04 #@! TO.N,/PIN_ONE_WIRE*
X95250000Y-111750000D03*
X84500000Y-113750000D03*
G04 #@! TO.N,/BUTTON_MODE*
X147725000Y-75225000D03*
G04 #@! TO.N,/BUTTON_CAL_NEXT*
X147725000Y-95025000D03*
G04 #@! TO.N,/BUTTON_CAL_PREV*
X147725000Y-85275000D03*
G04 #@! TO.N,/DAY1*
X56250000Y-111224500D03*
X54500000Y-111250000D03*
G04 #@! TO.N,/WEEK5*
X57000000Y-108843698D03*
X57000000Y-106000000D03*
G04 #@! TO.N,/BUTTON_WIN1*
X147725000Y-55225000D03*
G04 #@! TO.N,Net-(DAY1-Pad3)*
X145500000Y-119250000D03*
X65000000Y-53500000D03*
X148500000Y-119250000D03*
X61250000Y-48500000D03*
G04 #@! TO.N,/BUTTON_WIN2*
X147725000Y-65225000D03*
G04 #@! TO.N,Net-(LED_IN1-Pad1)*
X143500000Y-117000000D03*
G04 #@! TO.N,Net-(D_S3-Pad1)*
X142025500Y-109775500D03*
G04 #@! TD*
D18*
G04 #@! TO.N,GND*
X133000000Y-103750000D02*
X133500000Y-103250000D01*
X133000000Y-119000000D02*
X133000000Y-103750000D01*
X121500000Y-134500000D02*
X124940000Y-134500000D01*
D19*
G04 #@! TO.N,+3.3V*
X87000000Y-128250000D02*
X75500000Y-128250000D01*
X94250000Y-123500000D02*
X91750000Y-123500000D01*
D18*
X114692500Y-129807500D02*
X111557500Y-129807500D01*
D19*
X91750000Y-123500000D02*
X87000000Y-128250000D01*
D18*
X111557500Y-129807500D02*
X111500000Y-129750000D01*
X121500000Y-123000000D02*
X114692500Y-129807500D01*
G04 #@! TO.N,+5V*
X140000000Y-56750000D02*
X140000000Y-42000000D01*
X55000000Y-130000000D02*
X52000000Y-130000000D01*
X140000000Y-130000000D02*
X148000000Y-130000000D01*
X140250000Y-114750000D02*
X138950000Y-113450000D01*
X135750000Y-57500000D02*
X139250000Y-57500000D01*
X140000000Y-130000000D02*
X140000000Y-138000000D01*
X139250000Y-57500000D02*
X140000000Y-56750000D01*
X67500000Y-107000000D02*
X67500000Y-113500000D01*
X138950000Y-113450000D02*
X138950000Y-109500000D01*
X67500000Y-113500000D02*
X67000000Y-114000000D01*
D19*
G04 #@! TO.N,/RESET*
X94825000Y-129250000D02*
X95537500Y-128537500D01*
X69475000Y-126250000D02*
X71250000Y-126250000D01*
X61525000Y-126250000D02*
X69475000Y-126250000D01*
X90250000Y-129250000D02*
X88500000Y-131000000D01*
X94825000Y-129250000D02*
X90250000Y-129250000D01*
G04 #@! TO.N,/RXD*
X90750000Y-125750000D02*
X86250000Y-130250000D01*
G04 #@! TO.N,/TXD*
X90750000Y-127250000D02*
X87000000Y-131000000D01*
G04 #@! TO.N,/RTS*
X81750000Y-132500000D02*
X83750000Y-134500000D01*
X81750000Y-130000000D02*
X81750000Y-132500000D01*
G04 #@! TO.N,/GPIO0*
X61525000Y-118250000D02*
X69475000Y-118250000D01*
X83000000Y-114750000D02*
X91000000Y-114750000D01*
X69475000Y-118975000D02*
X69475000Y-118250000D01*
X70500000Y-120000000D02*
X69475000Y-118975000D01*
G04 #@! TO.N,/PIN_ONE_WIRE*
X95250000Y-111750000D02*
X86500000Y-111750000D01*
X86500000Y-111750000D02*
X84500000Y-113750000D01*
G04 #@! TO.N,/DAY1*
X56250000Y-111224500D02*
X54525500Y-111224500D01*
X54525500Y-111224500D02*
X54500000Y-111250000D01*
G04 #@! TO.N,/WEEK5*
X57000000Y-108843698D02*
X57000000Y-106000000D01*
G04 #@! TO.N,Net-(DAY1-Pad3)*
X65000000Y-53500000D02*
X61250000Y-49750000D01*
X61250000Y-49750000D02*
X61250000Y-48500000D01*
X148500000Y-119250000D02*
X145500000Y-119250000D01*
G04 #@! TO.N,Net-(LED_IN1-Pad1)*
X143500000Y-117000000D02*
X148000000Y-117000000D01*
G04 #@! TO.N,Net-(D_S3-Pad1)*
X142025500Y-109775500D02*
X145250000Y-113000000D01*
X145250000Y-113000000D02*
X148000000Y-113000000D01*
G04 #@! TD*
G04 #@! TA.AperFunction,Conductor*
G04 #@! TO.N,GND*
G36*
X58727911Y-40274502D02*
G01*
X58774404Y-40328158D01*
X58784508Y-40398432D01*
X58755014Y-40463012D01*
X58695288Y-40501396D01*
X58684369Y-40504079D01*
X58663069Y-40508315D01*
X58640573Y-40517633D01*
X58577192Y-40559983D01*
X58559983Y-40577192D01*
X58517632Y-40640575D01*
X58508316Y-40663066D01*
X58497207Y-40718915D01*
X58496000Y-40731170D01*
X58496000Y-41854885D01*
X58500475Y-41870124D01*
X58501865Y-41871329D01*
X58509548Y-41873000D01*
X61485884Y-41873000D01*
X61501123Y-41868525D01*
X61502328Y-41867135D01*
X61503999Y-41859452D01*
X61503999Y-40731172D01*
X61502791Y-40718912D01*
X61491685Y-40663069D01*
X61482367Y-40640573D01*
X61440017Y-40577192D01*
X61422808Y-40559983D01*
X61359425Y-40517632D01*
X61336934Y-40508316D01*
X61315633Y-40504079D01*
X61252724Y-40471172D01*
X61217591Y-40409477D01*
X61221391Y-40338582D01*
X61262916Y-40280996D01*
X61328983Y-40255002D01*
X61340214Y-40254500D01*
X138657227Y-40254500D01*
X138725348Y-40274502D01*
X138771841Y-40328158D01*
X138781945Y-40398432D01*
X138752451Y-40463012D01*
X138692725Y-40501396D01*
X138681806Y-40504079D01*
X138662874Y-40507844D01*
X138662872Y-40507845D01*
X138650699Y-40510266D01*
X138640379Y-40517161D01*
X138640378Y-40517162D01*
X138626568Y-40526390D01*
X138566516Y-40566516D01*
X138510266Y-40650699D01*
X138495500Y-40724933D01*
X138495501Y-43275066D01*
X138502612Y-43310818D01*
X138507806Y-43336931D01*
X138510266Y-43349301D01*
X138566516Y-43433484D01*
X138650699Y-43489734D01*
X138724933Y-43504500D01*
X139119500Y-43504500D01*
X139187621Y-43524502D01*
X139234114Y-43578158D01*
X139245500Y-43630500D01*
X139245500Y-56385286D01*
X139225498Y-56453407D01*
X139208595Y-56474381D01*
X138974381Y-56708595D01*
X138912069Y-56742621D01*
X138885286Y-56745500D01*
X135705947Y-56745500D01*
X135614050Y-56756214D01*
X135582518Y-56759890D01*
X135582516Y-56759890D01*
X135575246Y-56760738D01*
X135568369Y-56763234D01*
X135568366Y-56763235D01*
X135438953Y-56810210D01*
X135409866Y-56820768D01*
X135403749Y-56824778D01*
X135403746Y-56824780D01*
X135336299Y-56869001D01*
X135262732Y-56917234D01*
X135141736Y-57044960D01*
X135053368Y-57197096D01*
X135002370Y-57365480D01*
X134991476Y-57541080D01*
X135021271Y-57714477D01*
X135090156Y-57876368D01*
X135194437Y-58018071D01*
X135328520Y-58131982D01*
X135343110Y-58139432D01*
X135478695Y-58208666D01*
X135478700Y-58208668D01*
X135485212Y-58211993D01*
X135492318Y-58213732D01*
X135492321Y-58213733D01*
X135573710Y-58233648D01*
X135656108Y-58253811D01*
X135661710Y-58254159D01*
X135661713Y-58254159D01*
X135665275Y-58254380D01*
X135665284Y-58254380D01*
X135667214Y-58254500D01*
X139183235Y-58254500D01*
X139202185Y-58255933D01*
X139216255Y-58258074D01*
X139216259Y-58258074D01*
X139223489Y-58259174D01*
X139230780Y-58258581D01*
X139230783Y-58258581D01*
X139275848Y-58254915D01*
X139286063Y-58254500D01*
X139294053Y-58254500D01*
X139301302Y-58253655D01*
X139322113Y-58251229D01*
X139326487Y-58250796D01*
X139391549Y-58245504D01*
X139391552Y-58245503D01*
X139398847Y-58244910D01*
X139405809Y-58242655D01*
X139411677Y-58241482D01*
X139417484Y-58240110D01*
X139424754Y-58239262D01*
X139493060Y-58214468D01*
X139497163Y-58213060D01*
X139566222Y-58190688D01*
X139572479Y-58186891D01*
X139577926Y-58184398D01*
X139583254Y-58181730D01*
X139590134Y-58179232D01*
X139650849Y-58139426D01*
X139654559Y-58137085D01*
X139711838Y-58102327D01*
X139711840Y-58102325D01*
X139716633Y-58099417D01*
X139724974Y-58092051D01*
X139724996Y-58092076D01*
X139728041Y-58089376D01*
X139731146Y-58086780D01*
X139737268Y-58082766D01*
X139790199Y-58026891D01*
X139792575Y-58024450D01*
X140486303Y-57330721D01*
X140500717Y-57318334D01*
X140512172Y-57309904D01*
X140518071Y-57305563D01*
X140552089Y-57265521D01*
X140559019Y-57258005D01*
X140564662Y-57252362D01*
X140582214Y-57230178D01*
X140584981Y-57226804D01*
X140627243Y-57177058D01*
X140631982Y-57171480D01*
X140635311Y-57164961D01*
X140638628Y-57159987D01*
X140641763Y-57154911D01*
X140646307Y-57149168D01*
X140677053Y-57083382D01*
X140678985Y-57079430D01*
X140708665Y-57021305D01*
X140711993Y-57014788D01*
X140713732Y-57007680D01*
X140715814Y-57002082D01*
X140717701Y-56996409D01*
X140720800Y-56989779D01*
X140735585Y-56918697D01*
X140736556Y-56914406D01*
X140752477Y-56849344D01*
X140752477Y-56849343D01*
X140753811Y-56843892D01*
X140754500Y-56832786D01*
X140754534Y-56832788D01*
X140754777Y-56828729D01*
X140755137Y-56824695D01*
X140756628Y-56817527D01*
X140754546Y-56740585D01*
X140754500Y-56737177D01*
X140754500Y-51268828D01*
X146496001Y-51268828D01*
X146497209Y-51281088D01*
X146508315Y-51336931D01*
X146517633Y-51359427D01*
X146559983Y-51422808D01*
X146577192Y-51440017D01*
X146640575Y-51482368D01*
X146663066Y-51491684D01*
X146718915Y-51502793D01*
X146731170Y-51504000D01*
X147854885Y-51504000D01*
X147870124Y-51499525D01*
X147871329Y-51498135D01*
X147873000Y-51490452D01*
X147873000Y-50145115D01*
X147868525Y-50129876D01*
X147867135Y-50128671D01*
X147859452Y-50127000D01*
X146514116Y-50127000D01*
X146498877Y-50131475D01*
X146497672Y-50132865D01*
X146496001Y-50140548D01*
X146496001Y-51268828D01*
X140754500Y-51268828D01*
X140754500Y-49854885D01*
X146496000Y-49854885D01*
X146500475Y-49870124D01*
X146501865Y-49871329D01*
X146509548Y-49873000D01*
X147854885Y-49873000D01*
X147870124Y-49868525D01*
X147871329Y-49867135D01*
X147873000Y-49859452D01*
X147873000Y-48514116D01*
X147868525Y-48498877D01*
X147867135Y-48497672D01*
X147859452Y-48496001D01*
X146731172Y-48496001D01*
X146718912Y-48497209D01*
X146663069Y-48508315D01*
X146640573Y-48517633D01*
X146577192Y-48559983D01*
X146559983Y-48577192D01*
X146517632Y-48640575D01*
X146508316Y-48663066D01*
X146497207Y-48718915D01*
X146496000Y-48731170D01*
X146496000Y-49854885D01*
X140754500Y-49854885D01*
X140754500Y-44042186D01*
X144141018Y-44042186D01*
X144166579Y-44310100D01*
X144230547Y-44571518D01*
X144331583Y-44820963D01*
X144467569Y-45053210D01*
X144635658Y-45263395D01*
X144832327Y-45447113D01*
X145053457Y-45600516D01*
X145294416Y-45720391D01*
X145298750Y-45721812D01*
X145298753Y-45721813D01*
X145545823Y-45802807D01*
X145545829Y-45802808D01*
X145550156Y-45804227D01*
X145554647Y-45805007D01*
X145554648Y-45805007D01*
X145811538Y-45849611D01*
X145811546Y-45849612D01*
X145815319Y-45850267D01*
X145819156Y-45850458D01*
X145898777Y-45854422D01*
X145898785Y-45854422D01*
X145900348Y-45854500D01*
X146068374Y-45854500D01*
X146070642Y-45854335D01*
X146070654Y-45854335D01*
X146201457Y-45844844D01*
X146268425Y-45839985D01*
X146272880Y-45839001D01*
X146272883Y-45839001D01*
X146526770Y-45782947D01*
X146526772Y-45782946D01*
X146531226Y-45781963D01*
X146782900Y-45686613D01*
X147018172Y-45555931D01*
X147164842Y-45443996D01*
X147228491Y-45395421D01*
X147228495Y-45395417D01*
X147232116Y-45392654D01*
X147420249Y-45200203D01*
X147527242Y-45053210D01*
X147575942Y-44986304D01*
X147575947Y-44986297D01*
X147578630Y-44982610D01*
X147703941Y-44744433D01*
X147793557Y-44490662D01*
X147818688Y-44363156D01*
X147844720Y-44231083D01*
X147844721Y-44231077D01*
X147845601Y-44226611D01*
X147854782Y-44042186D01*
X147858755Y-43962383D01*
X147858755Y-43962377D01*
X147858982Y-43957814D01*
X147833421Y-43689900D01*
X147787759Y-43503291D01*
X147770539Y-43432920D01*
X147769453Y-43428482D01*
X147668417Y-43179037D01*
X147532431Y-42946790D01*
X147364342Y-42736605D01*
X147167673Y-42552887D01*
X146946543Y-42399484D01*
X146705584Y-42279609D01*
X146701250Y-42278188D01*
X146701247Y-42278187D01*
X146454177Y-42197193D01*
X146454171Y-42197192D01*
X146449844Y-42195773D01*
X146445352Y-42194993D01*
X146188462Y-42150389D01*
X146188454Y-42150388D01*
X146184681Y-42149733D01*
X146174718Y-42149237D01*
X146101223Y-42145578D01*
X146101215Y-42145578D01*
X146099652Y-42145500D01*
X145931626Y-42145500D01*
X145929358Y-42145665D01*
X145929346Y-42145665D01*
X145798543Y-42155156D01*
X145731575Y-42160015D01*
X145727120Y-42160999D01*
X145727117Y-42160999D01*
X145473230Y-42217053D01*
X145473228Y-42217054D01*
X145468774Y-42218037D01*
X145217100Y-42313387D01*
X145213114Y-42315601D01*
X145213112Y-42315602D01*
X145065754Y-42397452D01*
X144981828Y-42444069D01*
X144978196Y-42446841D01*
X144771509Y-42604579D01*
X144771505Y-42604583D01*
X144767884Y-42607346D01*
X144579751Y-42799797D01*
X144577066Y-42803486D01*
X144424058Y-43013696D01*
X144424053Y-43013703D01*
X144421370Y-43017390D01*
X144296059Y-43255567D01*
X144206443Y-43509338D01*
X144195989Y-43562378D01*
X144170855Y-43689900D01*
X144154399Y-43773389D01*
X144154172Y-43777942D01*
X144154172Y-43777945D01*
X144144991Y-43962383D01*
X144141018Y-44042186D01*
X140754500Y-44042186D01*
X140754500Y-43630499D01*
X140774502Y-43562378D01*
X140828158Y-43515885D01*
X140880500Y-43504499D01*
X141275066Y-43504499D01*
X141310818Y-43497388D01*
X141337126Y-43492156D01*
X141337128Y-43492155D01*
X141349301Y-43489734D01*
X141359621Y-43482839D01*
X141359622Y-43482838D01*
X141423168Y-43440377D01*
X141433484Y-43433484D01*
X141489734Y-43349301D01*
X141504500Y-43275067D01*
X141504499Y-40724934D01*
X141493950Y-40671894D01*
X141492156Y-40662874D01*
X141492155Y-40662872D01*
X141489734Y-40650699D01*
X141433484Y-40566516D01*
X141349301Y-40510266D01*
X141318197Y-40504079D01*
X141255287Y-40471171D01*
X141220155Y-40409476D01*
X141223955Y-40338582D01*
X141265481Y-40280996D01*
X141331548Y-40255001D01*
X141342778Y-40254500D01*
X146962524Y-40254500D01*
X146987103Y-40256921D01*
X147000000Y-40259486D01*
X147012172Y-40257065D01*
X147024579Y-40257065D01*
X147024579Y-40257262D01*
X147035506Y-40256494D01*
X147300337Y-40271366D01*
X147314369Y-40272947D01*
X147459164Y-40297549D01*
X147603955Y-40322150D01*
X147617730Y-40325294D01*
X147663854Y-40338582D01*
X147899992Y-40406612D01*
X147913311Y-40411273D01*
X148184695Y-40523684D01*
X148197418Y-40529811D01*
X148454506Y-40671899D01*
X148466454Y-40679406D01*
X148663653Y-40819326D01*
X148706027Y-40849392D01*
X148717062Y-40858192D01*
X148936086Y-41053923D01*
X148946076Y-41063913D01*
X149141808Y-41282938D01*
X149150606Y-41293971D01*
X149320594Y-41533546D01*
X149328101Y-41545494D01*
X149399378Y-41674459D01*
X149470187Y-41802578D01*
X149476316Y-41815305D01*
X149588727Y-42086689D01*
X149593388Y-42100008D01*
X149644720Y-42278187D01*
X149674706Y-42382270D01*
X149677850Y-42396045D01*
X149678876Y-42402084D01*
X149722587Y-42659345D01*
X149727052Y-42685626D01*
X149728634Y-42699663D01*
X149742312Y-42943223D01*
X149743506Y-42964491D01*
X149742738Y-42975421D01*
X149742935Y-42975421D01*
X149742935Y-42987828D01*
X149740514Y-43000000D01*
X149742935Y-43012170D01*
X149743079Y-43012894D01*
X149745500Y-43037476D01*
X149745500Y-48659790D01*
X149725498Y-48727911D01*
X149671842Y-48774404D01*
X149601568Y-48784508D01*
X149536988Y-48755014D01*
X149498604Y-48695288D01*
X149495921Y-48684369D01*
X149491685Y-48663069D01*
X149482367Y-48640573D01*
X149440017Y-48577192D01*
X149422808Y-48559983D01*
X149359425Y-48517632D01*
X149336934Y-48508316D01*
X149281085Y-48497207D01*
X149268830Y-48496000D01*
X148145115Y-48496000D01*
X148129876Y-48500475D01*
X148128671Y-48501865D01*
X148127000Y-48509548D01*
X148127000Y-51485884D01*
X148131475Y-51501123D01*
X148132865Y-51502328D01*
X148140548Y-51503999D01*
X149268828Y-51503999D01*
X149281088Y-51502791D01*
X149336931Y-51491685D01*
X149359427Y-51482367D01*
X149422808Y-51440017D01*
X149440017Y-51422808D01*
X149482368Y-51359425D01*
X149491684Y-51336934D01*
X149495921Y-51315633D01*
X149528828Y-51252724D01*
X149590523Y-51217591D01*
X149661418Y-51221391D01*
X149719004Y-51262916D01*
X149744998Y-51328983D01*
X149745500Y-51340214D01*
X149745500Y-53657227D01*
X149725498Y-53725348D01*
X149671842Y-53771841D01*
X149601568Y-53781945D01*
X149536988Y-53752451D01*
X149498604Y-53692725D01*
X149495921Y-53681806D01*
X149492156Y-53662874D01*
X149492155Y-53662872D01*
X149489734Y-53650699D01*
X149433484Y-53566516D01*
X149394835Y-53540691D01*
X149359620Y-53517161D01*
X149349301Y-53510266D01*
X149275067Y-53495500D01*
X148000207Y-53495500D01*
X146724934Y-53495501D01*
X146689182Y-53502612D01*
X146662874Y-53507844D01*
X146662872Y-53507845D01*
X146650699Y-53510266D01*
X146640379Y-53517161D01*
X146640378Y-53517162D01*
X146579985Y-53557516D01*
X146566516Y-53566516D01*
X146510266Y-53650699D01*
X146495500Y-53724933D01*
X146495501Y-56275066D01*
X146502612Y-56310818D01*
X146504080Y-56318197D01*
X146510266Y-56349301D01*
X146566516Y-56433484D01*
X146650699Y-56489734D01*
X146724933Y-56504500D01*
X147999793Y-56504500D01*
X149275066Y-56504499D01*
X149310818Y-56497388D01*
X149337126Y-56492156D01*
X149337128Y-56492155D01*
X149349301Y-56489734D01*
X149359621Y-56482839D01*
X149359622Y-56482838D01*
X149423168Y-56440377D01*
X149433484Y-56433484D01*
X149489734Y-56349301D01*
X149495921Y-56318197D01*
X149528829Y-56255287D01*
X149590524Y-56220155D01*
X149661418Y-56223955D01*
X149719004Y-56265481D01*
X149744999Y-56331548D01*
X149745500Y-56342778D01*
X149745500Y-63657227D01*
X149725498Y-63725348D01*
X149671842Y-63771841D01*
X149601568Y-63781945D01*
X149536988Y-63752451D01*
X149498604Y-63692725D01*
X149495921Y-63681806D01*
X149492156Y-63662874D01*
X149492155Y-63662872D01*
X149489734Y-63650699D01*
X149433484Y-63566516D01*
X149349301Y-63510266D01*
X149275067Y-63495500D01*
X148000207Y-63495500D01*
X146724934Y-63495501D01*
X146689182Y-63502612D01*
X146662874Y-63507844D01*
X146662872Y-63507845D01*
X146650699Y-63510266D01*
X146640379Y-63517161D01*
X146640378Y-63517162D01*
X146579985Y-63557516D01*
X146566516Y-63566516D01*
X146510266Y-63650699D01*
X146495500Y-63724933D01*
X146495501Y-66275066D01*
X146502612Y-66310818D01*
X146504080Y-66318197D01*
X146510266Y-66349301D01*
X146566516Y-66433484D01*
X146650699Y-66489734D01*
X146724933Y-66504500D01*
X147999793Y-66504500D01*
X149275066Y-66504499D01*
X149310818Y-66497388D01*
X149337126Y-66492156D01*
X149337128Y-66492155D01*
X149349301Y-66489734D01*
X149359621Y-66482839D01*
X149359622Y-66482838D01*
X149423168Y-66440377D01*
X149433484Y-66433484D01*
X149489734Y-66349301D01*
X149495921Y-66318197D01*
X149528829Y-66255287D01*
X149590524Y-66220155D01*
X149661418Y-66223955D01*
X149719004Y-66265481D01*
X149744999Y-66331548D01*
X149745500Y-66342778D01*
X149745500Y-73657227D01*
X149725498Y-73725348D01*
X149671842Y-73771841D01*
X149601568Y-73781945D01*
X149536988Y-73752451D01*
X149498604Y-73692725D01*
X149495921Y-73681806D01*
X149492156Y-73662874D01*
X149492155Y-73662872D01*
X149489734Y-73650699D01*
X149433484Y-73566516D01*
X149349301Y-73510266D01*
X149275067Y-73495500D01*
X148000207Y-73495500D01*
X146724934Y-73495501D01*
X146689182Y-73502612D01*
X146662874Y-73507844D01*
X146662872Y-73507845D01*
X146650699Y-73510266D01*
X146640379Y-73517161D01*
X146640378Y-73517162D01*
X146579985Y-73557516D01*
X146566516Y-73566516D01*
X146510266Y-73650699D01*
X146495500Y-73724933D01*
X146495501Y-76275066D01*
X146502612Y-76310818D01*
X146504080Y-76318197D01*
X146510266Y-76349301D01*
X146566516Y-76433484D01*
X146650699Y-76489734D01*
X146724933Y-76504500D01*
X147999793Y-76504500D01*
X149275066Y-76504499D01*
X149310818Y-76497388D01*
X149337126Y-76492156D01*
X149337128Y-76492155D01*
X149349301Y-76489734D01*
X149359621Y-76482839D01*
X149359622Y-76482838D01*
X149423168Y-76440377D01*
X149433484Y-76433484D01*
X149489734Y-76349301D01*
X149495921Y-76318197D01*
X149528829Y-76255287D01*
X149590524Y-76220155D01*
X149661418Y-76223955D01*
X149719004Y-76265481D01*
X149744999Y-76331548D01*
X149745500Y-76342778D01*
X149745500Y-83657227D01*
X149725498Y-83725348D01*
X149671842Y-83771841D01*
X149601568Y-83781945D01*
X149536988Y-83752451D01*
X149498604Y-83692725D01*
X149495921Y-83681806D01*
X149492156Y-83662874D01*
X149492155Y-83662872D01*
X149489734Y-83650699D01*
X149433484Y-83566516D01*
X149349301Y-83510266D01*
X149275067Y-83495500D01*
X148000207Y-83495500D01*
X146724934Y-83495501D01*
X146689182Y-83502612D01*
X146662874Y-83507844D01*
X146662872Y-83507845D01*
X146650699Y-83510266D01*
X146640379Y-83517161D01*
X146640378Y-83517162D01*
X146579985Y-83557516D01*
X146566516Y-83566516D01*
X146510266Y-83650699D01*
X146495500Y-83724933D01*
X146495501Y-86275066D01*
X146502612Y-86310818D01*
X146504080Y-86318197D01*
X146510266Y-86349301D01*
X146566516Y-86433484D01*
X146650699Y-86489734D01*
X146724933Y-86504500D01*
X147999793Y-86504500D01*
X149275066Y-86504499D01*
X149310818Y-86497388D01*
X149337126Y-86492156D01*
X149337128Y-86492155D01*
X149349301Y-86489734D01*
X149359621Y-86482839D01*
X149359622Y-86482838D01*
X149423168Y-86440377D01*
X149433484Y-86433484D01*
X149489734Y-86349301D01*
X149495921Y-86318197D01*
X149528829Y-86255287D01*
X149590524Y-86220155D01*
X149661418Y-86223955D01*
X149719004Y-86265481D01*
X149744999Y-86331548D01*
X149745500Y-86342778D01*
X149745500Y-93657227D01*
X149725498Y-93725348D01*
X149671842Y-93771841D01*
X149601568Y-93781945D01*
X149536988Y-93752451D01*
X149498604Y-93692725D01*
X149495921Y-93681806D01*
X149492156Y-93662874D01*
X149492155Y-93662872D01*
X149489734Y-93650699D01*
X149433484Y-93566516D01*
X149349301Y-93510266D01*
X149275067Y-93495500D01*
X148000207Y-93495500D01*
X146724934Y-93495501D01*
X146689182Y-93502612D01*
X146662874Y-93507844D01*
X146662872Y-93507845D01*
X146650699Y-93510266D01*
X146640379Y-93517161D01*
X146640378Y-93517162D01*
X146579985Y-93557516D01*
X146566516Y-93566516D01*
X146510266Y-93650699D01*
X146495500Y-93724933D01*
X146495501Y-96275066D01*
X146502612Y-96310818D01*
X146504080Y-96318197D01*
X146510266Y-96349301D01*
X146566516Y-96433484D01*
X146650699Y-96489734D01*
X146724933Y-96504500D01*
X147999793Y-96504500D01*
X149275066Y-96504499D01*
X149310818Y-96497388D01*
X149337126Y-96492156D01*
X149337128Y-96492155D01*
X149349301Y-96489734D01*
X149359621Y-96482839D01*
X149359622Y-96482838D01*
X149423168Y-96440377D01*
X149433484Y-96433484D01*
X149489734Y-96349301D01*
X149495921Y-96318197D01*
X149528829Y-96255287D01*
X149590524Y-96220155D01*
X149661418Y-96223955D01*
X149719004Y-96265481D01*
X149744999Y-96331548D01*
X149745500Y-96342778D01*
X149745500Y-111657227D01*
X149725498Y-111725348D01*
X149671842Y-111771841D01*
X149601568Y-111781945D01*
X149536988Y-111752451D01*
X149498604Y-111692725D01*
X149495921Y-111681806D01*
X149492156Y-111662874D01*
X149492155Y-111662872D01*
X149489734Y-111650699D01*
X149471896Y-111624002D01*
X149440377Y-111576832D01*
X149433484Y-111566516D01*
X149349301Y-111510266D01*
X149275067Y-111495500D01*
X148000207Y-111495500D01*
X146724934Y-111495501D01*
X146689182Y-111502612D01*
X146662874Y-111507844D01*
X146662872Y-111507845D01*
X146650699Y-111510266D01*
X146640379Y-111517161D01*
X146640378Y-111517162D01*
X146613576Y-111535071D01*
X146566516Y-111566516D01*
X146510266Y-111650699D01*
X146495500Y-111724933D01*
X146495500Y-112494500D01*
X146475498Y-112562621D01*
X146421842Y-112609114D01*
X146369500Y-112620500D01*
X145459384Y-112620500D01*
X145391263Y-112600498D01*
X145370289Y-112583595D01*
X142715643Y-109928949D01*
X142681617Y-109866637D01*
X142679995Y-109822101D01*
X142684081Y-109793392D01*
X142684081Y-109793386D01*
X142684662Y-109789307D01*
X142684807Y-109775500D01*
X142665776Y-109618233D01*
X142609780Y-109470046D01*
X142520053Y-109339492D01*
X142401775Y-109234111D01*
X142394389Y-109230200D01*
X142279520Y-109169380D01*
X142261774Y-109159984D01*
X142108133Y-109121392D01*
X142100534Y-109121352D01*
X142100533Y-109121352D01*
X142034681Y-109121007D01*
X141949721Y-109120562D01*
X141942341Y-109122334D01*
X141942339Y-109122334D01*
X141803063Y-109155771D01*
X141803060Y-109155772D01*
X141795684Y-109157543D01*
X141654914Y-109230200D01*
X141535539Y-109334338D01*
X141444450Y-109463944D01*
X141386906Y-109611537D01*
X141366229Y-109768596D01*
X141368516Y-109789307D01*
X141379018Y-109884430D01*
X141383613Y-109926053D01*
X141438053Y-110074819D01*
X141526408Y-110206305D01*
X141643576Y-110312919D01*
X141782793Y-110388508D01*
X141936022Y-110428707D01*
X142032638Y-110430225D01*
X142094272Y-110431193D01*
X142162070Y-110452262D01*
X142181388Y-110468082D01*
X144943522Y-113230216D01*
X144958664Y-113248964D01*
X144959779Y-113250189D01*
X144965429Y-113258940D01*
X144973607Y-113265387D01*
X144973609Y-113265389D01*
X144991800Y-113279729D01*
X144996241Y-113283675D01*
X144996303Y-113283602D01*
X145000267Y-113286961D01*
X145003944Y-113290638D01*
X145019692Y-113301892D01*
X145024362Y-113305398D01*
X145064647Y-113337156D01*
X145073281Y-113340188D01*
X145080734Y-113345514D01*
X145129850Y-113360203D01*
X145135492Y-113362036D01*
X145176367Y-113376390D01*
X145183851Y-113379018D01*
X145189416Y-113379500D01*
X145192124Y-113379500D01*
X145194758Y-113379614D01*
X145194856Y-113379643D01*
X145194849Y-113379807D01*
X145195553Y-113379851D01*
X145201778Y-113381713D01*
X145255635Y-113379597D01*
X145260582Y-113379500D01*
X146369501Y-113379500D01*
X146437622Y-113399502D01*
X146484115Y-113453158D01*
X146495501Y-113505500D01*
X146495501Y-114275066D01*
X146501225Y-114303846D01*
X146504080Y-114318197D01*
X146510266Y-114349301D01*
X146517161Y-114359620D01*
X146517162Y-114359622D01*
X146524431Y-114370500D01*
X146566516Y-114433484D01*
X146650699Y-114489734D01*
X146724933Y-114504500D01*
X147999793Y-114504500D01*
X149275066Y-114504499D01*
X149310818Y-114497388D01*
X149337126Y-114492156D01*
X149337128Y-114492155D01*
X149349301Y-114489734D01*
X149359621Y-114482839D01*
X149359622Y-114482838D01*
X149423168Y-114440377D01*
X149433484Y-114433484D01*
X149489734Y-114349301D01*
X149495921Y-114318197D01*
X149528829Y-114255287D01*
X149590524Y-114220155D01*
X149661418Y-114223955D01*
X149719004Y-114265481D01*
X149744999Y-114331548D01*
X149745500Y-114342778D01*
X149745500Y-115657227D01*
X149725498Y-115725348D01*
X149671842Y-115771841D01*
X149601568Y-115781945D01*
X149536988Y-115752451D01*
X149498604Y-115692725D01*
X149495921Y-115681806D01*
X149492156Y-115662874D01*
X149492155Y-115662872D01*
X149489734Y-115650699D01*
X149433484Y-115566516D01*
X149349301Y-115510266D01*
X149275067Y-115495500D01*
X148000207Y-115495500D01*
X146724934Y-115495501D01*
X146692912Y-115501870D01*
X146662874Y-115507844D01*
X146662872Y-115507845D01*
X146650699Y-115510266D01*
X146640379Y-115517161D01*
X146640378Y-115517162D01*
X146596193Y-115546686D01*
X146566516Y-115566516D01*
X146510266Y-115650699D01*
X146495500Y-115724933D01*
X146495500Y-116494500D01*
X146475498Y-116562621D01*
X146421842Y-116609114D01*
X146369500Y-116620500D01*
X144099682Y-116620500D01*
X144031561Y-116600498D01*
X144005114Y-116574860D01*
X144003878Y-116575949D01*
X143998855Y-116570251D01*
X143994553Y-116563992D01*
X143876275Y-116458611D01*
X143868889Y-116454700D01*
X143742988Y-116388039D01*
X143742989Y-116388039D01*
X143736274Y-116384484D01*
X143582633Y-116345892D01*
X143575034Y-116345852D01*
X143575033Y-116345852D01*
X143509181Y-116345507D01*
X143424221Y-116345062D01*
X143416841Y-116346834D01*
X143416839Y-116346834D01*
X143277563Y-116380271D01*
X143277560Y-116380272D01*
X143270184Y-116382043D01*
X143129414Y-116454700D01*
X143010039Y-116558838D01*
X142918950Y-116688444D01*
X142890178Y-116762241D01*
X142869560Y-116815124D01*
X142861406Y-116836037D01*
X142840729Y-116993096D01*
X142841563Y-117000646D01*
X142855187Y-117124046D01*
X142858113Y-117150553D01*
X142860723Y-117157684D01*
X142860723Y-117157686D01*
X142875515Y-117198106D01*
X142912553Y-117299319D01*
X142916789Y-117305622D01*
X142916789Y-117305623D01*
X142958142Y-117367162D01*
X143000908Y-117430805D01*
X143006527Y-117435918D01*
X143006528Y-117435919D01*
X143017903Y-117446269D01*
X143118076Y-117537419D01*
X143257293Y-117613008D01*
X143410522Y-117653207D01*
X143494477Y-117654526D01*
X143561319Y-117655576D01*
X143561322Y-117655576D01*
X143568916Y-117655695D01*
X143723332Y-117620329D01*
X143825662Y-117568863D01*
X143858072Y-117552563D01*
X143858075Y-117552561D01*
X143864855Y-117549151D01*
X143870626Y-117544222D01*
X143870629Y-117544220D01*
X143979542Y-117451199D01*
X143979543Y-117451198D01*
X143985314Y-117446269D01*
X143995586Y-117431974D01*
X144051581Y-117388326D01*
X144097909Y-117379500D01*
X146369501Y-117379500D01*
X146437622Y-117399502D01*
X146484115Y-117453158D01*
X146495501Y-117505500D01*
X146495501Y-118275066D01*
X146502612Y-118310818D01*
X146504080Y-118318197D01*
X146510266Y-118349301D01*
X146517161Y-118359620D01*
X146517162Y-118359622D01*
X146531960Y-118381768D01*
X146566516Y-118433484D01*
X146650699Y-118489734D01*
X146724933Y-118504500D01*
X146737470Y-118504500D01*
X148022802Y-118504499D01*
X148090921Y-118524501D01*
X148137414Y-118578157D01*
X148147518Y-118648431D01*
X148118025Y-118713011D01*
X148105630Y-118725448D01*
X148085763Y-118742779D01*
X148010039Y-118808838D01*
X148005672Y-118815051D01*
X148005667Y-118815057D01*
X148004336Y-118816951D01*
X148003013Y-118818005D01*
X148000589Y-118820697D01*
X148000140Y-118820293D01*
X147948802Y-118861183D01*
X147901250Y-118870500D01*
X146099682Y-118870500D01*
X146031561Y-118850498D01*
X146005114Y-118824860D01*
X146003878Y-118825949D01*
X145998855Y-118820251D01*
X145994553Y-118813992D01*
X145876275Y-118708611D01*
X145868889Y-118704700D01*
X145830565Y-118684409D01*
X145736274Y-118634484D01*
X145582633Y-118595892D01*
X145575034Y-118595852D01*
X145575033Y-118595852D01*
X145509181Y-118595507D01*
X145424221Y-118595062D01*
X145416841Y-118596834D01*
X145416839Y-118596834D01*
X145277563Y-118630271D01*
X145277560Y-118630272D01*
X145270184Y-118632043D01*
X145129414Y-118704700D01*
X145010039Y-118808838D01*
X144918950Y-118938444D01*
X144916190Y-118945524D01*
X144871357Y-119060515D01*
X144861406Y-119086037D01*
X144860414Y-119093570D01*
X144860414Y-119093571D01*
X144844049Y-119217881D01*
X144840729Y-119243096D01*
X144849421Y-119321824D01*
X144856135Y-119382634D01*
X144858113Y-119400553D01*
X144860723Y-119407684D01*
X144860723Y-119407686D01*
X144908903Y-119539344D01*
X144912553Y-119549319D01*
X145000908Y-119680805D01*
X145006525Y-119685916D01*
X145006528Y-119685919D01*
X145016009Y-119694546D01*
X145118076Y-119787419D01*
X145257293Y-119863008D01*
X145410522Y-119903207D01*
X145494477Y-119904526D01*
X145561319Y-119905576D01*
X145561322Y-119905576D01*
X145568916Y-119905695D01*
X145723332Y-119870329D01*
X145793742Y-119834917D01*
X145858072Y-119802563D01*
X145858075Y-119802561D01*
X145864855Y-119799151D01*
X145870626Y-119794222D01*
X145870629Y-119794220D01*
X145979542Y-119701199D01*
X145979543Y-119701198D01*
X145985314Y-119696269D01*
X145995586Y-119681974D01*
X146051581Y-119638326D01*
X146097909Y-119629500D01*
X147900141Y-119629500D01*
X147968262Y-119649502D01*
X147995522Y-119673169D01*
X147996671Y-119674500D01*
X148000908Y-119680805D01*
X148118076Y-119787419D01*
X148257293Y-119863008D01*
X148410522Y-119903207D01*
X148494477Y-119904526D01*
X148561319Y-119905576D01*
X148561322Y-119905576D01*
X148568916Y-119905695D01*
X148723332Y-119870329D01*
X148793742Y-119834917D01*
X148858072Y-119802563D01*
X148858075Y-119802561D01*
X148864855Y-119799151D01*
X148870626Y-119794222D01*
X148870629Y-119794220D01*
X148979536Y-119701204D01*
X148979536Y-119701203D01*
X148985314Y-119696269D01*
X149077755Y-119567624D01*
X149136842Y-119420641D01*
X149146428Y-119353283D01*
X149158581Y-119267891D01*
X149158581Y-119267888D01*
X149159162Y-119263807D01*
X149159307Y-119250000D01*
X149140276Y-119092733D01*
X149084280Y-118944546D01*
X149075063Y-118931135D01*
X148998855Y-118820251D01*
X148998854Y-118820249D01*
X148994553Y-118813992D01*
X148928903Y-118755500D01*
X148894194Y-118724576D01*
X148856639Y-118664326D01*
X148857618Y-118593336D01*
X148896823Y-118534145D01*
X148961804Y-118505546D01*
X148978011Y-118504499D01*
X149275066Y-118504499D01*
X149310818Y-118497388D01*
X149337126Y-118492156D01*
X149337128Y-118492155D01*
X149349301Y-118489734D01*
X149359621Y-118482839D01*
X149359622Y-118482838D01*
X149423168Y-118440377D01*
X149433484Y-118433484D01*
X149489734Y-118349301D01*
X149495921Y-118318197D01*
X149528829Y-118255287D01*
X149590524Y-118220155D01*
X149661418Y-118223955D01*
X149719004Y-118265481D01*
X149744999Y-118331548D01*
X149745500Y-118342778D01*
X149745500Y-128657227D01*
X149725498Y-128725348D01*
X149671842Y-128771841D01*
X149601568Y-128781945D01*
X149536988Y-128752451D01*
X149498604Y-128692725D01*
X149495921Y-128681806D01*
X149492156Y-128662874D01*
X149492155Y-128662872D01*
X149489734Y-128650699D01*
X149477273Y-128632049D01*
X149440377Y-128576832D01*
X149433484Y-128566516D01*
X149349301Y-128510266D01*
X149275067Y-128495500D01*
X148000207Y-128495500D01*
X146724934Y-128495501D01*
X146689182Y-128502612D01*
X146662874Y-128507844D01*
X146662872Y-128507845D01*
X146650699Y-128510266D01*
X146640379Y-128517161D01*
X146640378Y-128517162D01*
X146582818Y-128555623D01*
X146566516Y-128566516D01*
X146510266Y-128650699D01*
X146495500Y-128724933D01*
X146495500Y-129119500D01*
X146475498Y-129187621D01*
X146421842Y-129234114D01*
X146369500Y-129245500D01*
X140360269Y-129245500D01*
X140292148Y-129225498D01*
X140245655Y-129171842D01*
X140235551Y-129101568D01*
X140239372Y-129084005D01*
X140241431Y-129076993D01*
X140241432Y-129076989D01*
X140242700Y-129072670D01*
X140254773Y-128988704D01*
X140262861Y-128932448D01*
X140262861Y-128932443D01*
X140263500Y-128928001D01*
X140263500Y-115701326D01*
X140256965Y-115637744D01*
X140269898Y-115567937D01*
X140318518Y-115516202D01*
X140358438Y-115502217D01*
X140358346Y-115501870D01*
X140377819Y-115496707D01*
X140521336Y-115458654D01*
X140521335Y-115458654D01*
X140528408Y-115456779D01*
X140534858Y-115453328D01*
X140534860Y-115453327D01*
X140677081Y-115377228D01*
X140677082Y-115377227D01*
X140683534Y-115373775D01*
X140815406Y-115257310D01*
X140916948Y-115113631D01*
X140919683Y-115106845D01*
X140919685Y-115106841D01*
X140949830Y-115032040D01*
X140982713Y-114950448D01*
X140987248Y-114920641D01*
X141008074Y-114783745D01*
X141008074Y-114783741D01*
X141009174Y-114776511D01*
X141007675Y-114758074D01*
X140995503Y-114608447D01*
X140994910Y-114601153D01*
X140992454Y-114593571D01*
X140942946Y-114440745D01*
X140942945Y-114440742D01*
X140940689Y-114433779D01*
X140889427Y-114349301D01*
X140852332Y-114288170D01*
X140852329Y-114288166D01*
X140849417Y-114283367D01*
X140842051Y-114275027D01*
X139741405Y-113174381D01*
X139707379Y-113112069D01*
X139704500Y-113085286D01*
X139704500Y-109455947D01*
X139691653Y-109345751D01*
X139690344Y-109334526D01*
X139702323Y-109264547D01*
X139750233Y-109212154D01*
X139779998Y-109199039D01*
X139881008Y-109169380D01*
X139881010Y-109169379D01*
X139889657Y-109166840D01*
X139897236Y-109161970D01*
X139897239Y-109161968D01*
X139961667Y-109120562D01*
X140012612Y-109087822D01*
X140066268Y-109041329D01*
X140096176Y-109006813D01*
X140156081Y-108937680D01*
X140156083Y-108937677D01*
X140161982Y-108930869D01*
X140222698Y-108797920D01*
X140242700Y-108729799D01*
X140247852Y-108693971D01*
X140262861Y-108589577D01*
X140262861Y-108589572D01*
X140263500Y-108585130D01*
X140263500Y-108376000D01*
X140257158Y-108317006D01*
X140252128Y-108270215D01*
X140252127Y-108270208D01*
X140251766Y-108266851D01*
X140247815Y-108248687D01*
X140241094Y-108217790D01*
X140241093Y-108217785D01*
X140240380Y-108214509D01*
X140205710Y-108110343D01*
X140126692Y-107987388D01*
X140080199Y-107933732D01*
X140070933Y-107925703D01*
X139976550Y-107843919D01*
X139976547Y-107843917D01*
X139969739Y-107838018D01*
X139836790Y-107777302D01*
X139813036Y-107770327D01*
X139772992Y-107758569D01*
X139772988Y-107758568D01*
X139768669Y-107757300D01*
X139764220Y-107756660D01*
X139764214Y-107756659D01*
X139628447Y-107737139D01*
X139628442Y-107737139D01*
X139624000Y-107736500D01*
X139109775Y-107736500D01*
X139108345Y-107736565D01*
X139108332Y-107736565D01*
X139086582Y-107737550D01*
X139063389Y-107738599D01*
X139053872Y-107739462D01*
X139042152Y-107740525D01*
X139042139Y-107740526D01*
X139040722Y-107740655D01*
X139039301Y-107740849D01*
X139039292Y-107740850D01*
X139000606Y-107746131D01*
X139000603Y-107746132D01*
X138994733Y-107746933D01*
X138981249Y-107751456D01*
X138923245Y-107756716D01*
X138787093Y-107737140D01*
X138787078Y-107737139D01*
X138782634Y-107736500D01*
X134134500Y-107736500D01*
X134131154Y-107736860D01*
X134131149Y-107736860D01*
X134028715Y-107747872D01*
X134028708Y-107747873D01*
X134025351Y-107748234D01*
X134022051Y-107748952D01*
X134022050Y-107748952D01*
X133976290Y-107758906D01*
X133976285Y-107758907D01*
X133973009Y-107759620D01*
X133868843Y-107794290D01*
X133745888Y-107873308D01*
X133692232Y-107919801D01*
X133689292Y-107923194D01*
X133602419Y-108023450D01*
X133602417Y-108023453D01*
X133596518Y-108030261D01*
X133535802Y-108163210D01*
X133515800Y-108231331D01*
X133515160Y-108235780D01*
X133515159Y-108235786D01*
X133495639Y-108371553D01*
X133495000Y-108376000D01*
X133495000Y-119021015D01*
X133494215Y-119035061D01*
X133487924Y-119091144D01*
X133482811Y-119115197D01*
X133460928Y-119184181D01*
X133451241Y-119206781D01*
X133417647Y-119267891D01*
X133416379Y-119270197D01*
X133402486Y-119290487D01*
X133355996Y-119345892D01*
X133355965Y-119345929D01*
X133338403Y-119363127D01*
X133281991Y-119408484D01*
X133261421Y-119421944D01*
X133207318Y-119450229D01*
X133197285Y-119455474D01*
X133174483Y-119464687D01*
X133105059Y-119485119D01*
X133080904Y-119489726D01*
X133008831Y-119496285D01*
X132984242Y-119496114D01*
X132923463Y-119489726D01*
X132912265Y-119488549D01*
X132888177Y-119483604D01*
X132819047Y-119462205D01*
X132796378Y-119452676D01*
X132732719Y-119418256D01*
X132712331Y-119404505D01*
X132656566Y-119358372D01*
X132639239Y-119340923D01*
X132593497Y-119284838D01*
X132579888Y-119264355D01*
X132574583Y-119254378D01*
X132545912Y-119200455D01*
X132536543Y-119177721D01*
X132515628Y-119108446D01*
X132510851Y-119084325D01*
X132505601Y-119030785D01*
X132505000Y-119018489D01*
X132505000Y-108376000D01*
X132498658Y-108317006D01*
X132493628Y-108270215D01*
X132493627Y-108270208D01*
X132493266Y-108266851D01*
X132489315Y-108248687D01*
X132482594Y-108217790D01*
X132482593Y-108217785D01*
X132481880Y-108214509D01*
X132447210Y-108110343D01*
X132368192Y-107987388D01*
X132321699Y-107933732D01*
X132312433Y-107925703D01*
X132218050Y-107843919D01*
X132218047Y-107843917D01*
X132211239Y-107838018D01*
X132078290Y-107777302D01*
X132054536Y-107770327D01*
X132014492Y-107758569D01*
X132014488Y-107758568D01*
X132010169Y-107757300D01*
X132005720Y-107756660D01*
X132005714Y-107756659D01*
X131869947Y-107737139D01*
X131869942Y-107737139D01*
X131865500Y-107736500D01*
X111376000Y-107736500D01*
X111372654Y-107736860D01*
X111372649Y-107736860D01*
X111270215Y-107747872D01*
X111270208Y-107747873D01*
X111266851Y-107748234D01*
X111263551Y-107748952D01*
X111263550Y-107748952D01*
X111217790Y-107758906D01*
X111217785Y-107758907D01*
X111214509Y-107759620D01*
X111110343Y-107794290D01*
X110987388Y-107873308D01*
X110933732Y-107919801D01*
X110930792Y-107923194D01*
X110843919Y-108023450D01*
X110843917Y-108023453D01*
X110838018Y-108030261D01*
X110777302Y-108163210D01*
X110757300Y-108231331D01*
X110756660Y-108235780D01*
X110756659Y-108235786D01*
X110737139Y-108371553D01*
X110736500Y-108376000D01*
X110736500Y-130218745D01*
X110736785Y-130235840D01*
X110737064Y-130244216D01*
X110737915Y-130261256D01*
X110738956Y-130266158D01*
X110738957Y-130266163D01*
X110757124Y-130351680D01*
X110768286Y-130404223D01*
X110792772Y-130470863D01*
X110862188Y-130599477D01*
X110965030Y-130703330D01*
X110999400Y-130729322D01*
X111018069Y-130743441D01*
X111018073Y-130743444D01*
X111021657Y-130746154D01*
X111025592Y-130748328D01*
X111025594Y-130748329D01*
X111141712Y-130812472D01*
X111141714Y-130812473D01*
X111149600Y-130816829D01*
X111235873Y-130836037D01*
X111286304Y-130847265D01*
X111292264Y-130848592D01*
X111296750Y-130848935D01*
X111296751Y-130848935D01*
X111340494Y-130852278D01*
X111340495Y-130852278D01*
X111352104Y-130853165D01*
X111352249Y-130851268D01*
X111356741Y-130850882D01*
X111397000Y-130852414D01*
X111404513Y-130853367D01*
X111404513Y-130855000D01*
X111528270Y-130855000D01*
X111554466Y-130857753D01*
X111609784Y-130869511D01*
X111634831Y-130877649D01*
X111680152Y-130897827D01*
X111686486Y-130900647D01*
X111709299Y-130913818D01*
X111755052Y-130947060D01*
X111774626Y-130964686D01*
X111812460Y-131006705D01*
X111827944Y-131028016D01*
X111856217Y-131076987D01*
X111866930Y-131101049D01*
X111884403Y-131154824D01*
X111889880Y-131180589D01*
X111894881Y-131228159D01*
X111895792Y-131236830D01*
X111895792Y-131263168D01*
X111891330Y-131305623D01*
X111889881Y-131319407D01*
X111884404Y-131345172D01*
X111858439Y-131425083D01*
X111858017Y-131426382D01*
X111846233Y-131468741D01*
X111845938Y-131470011D01*
X111845932Y-131470033D01*
X111841654Y-131488428D01*
X111841348Y-131489745D01*
X111833226Y-131532990D01*
X111833226Y-131679148D01*
X111843330Y-131749422D01*
X111884507Y-131889657D01*
X111889377Y-131897236D01*
X111889379Y-131897239D01*
X111926218Y-131954561D01*
X111963525Y-132012612D01*
X112010018Y-132066268D01*
X112013411Y-132069208D01*
X112113667Y-132156081D01*
X112113670Y-132156083D01*
X112120478Y-132161982D01*
X112253427Y-132222698D01*
X112277181Y-132229673D01*
X112317225Y-132241431D01*
X112317229Y-132241432D01*
X112321548Y-132242700D01*
X112325997Y-132243340D01*
X112326003Y-132243341D01*
X112461770Y-132262861D01*
X112461775Y-132262861D01*
X112466217Y-132263500D01*
X132178350Y-132263500D01*
X132246588Y-132258946D01*
X132268237Y-132256043D01*
X132277706Y-132254774D01*
X132277712Y-132254773D01*
X132279778Y-132254496D01*
X132296795Y-132251048D01*
X132340319Y-132242229D01*
X132340321Y-132242228D01*
X132346798Y-132240916D01*
X132480879Y-132182744D01*
X132541324Y-132145506D01*
X132570405Y-132121262D01*
X132650134Y-132054792D01*
X132653591Y-132051910D01*
X132725377Y-131972183D01*
X132744948Y-131954561D01*
X132790700Y-131921319D01*
X132813514Y-131908147D01*
X132838014Y-131897239D01*
X132865169Y-131885149D01*
X132890216Y-131877011D01*
X132945534Y-131865253D01*
X132971730Y-131862500D01*
X133028270Y-131862500D01*
X133054466Y-131865253D01*
X133109784Y-131877011D01*
X133134831Y-131885149D01*
X133161986Y-131897239D01*
X133186486Y-131908147D01*
X133209300Y-131921319D01*
X133255052Y-131954561D01*
X133274623Y-131972183D01*
X133346410Y-132051911D01*
X133395458Y-132099577D01*
X133420971Y-132121262D01*
X133422656Y-132122511D01*
X133422665Y-132122518D01*
X133435765Y-132132227D01*
X133475911Y-132161982D01*
X133608860Y-132222698D01*
X133632614Y-132229673D01*
X133672658Y-132241431D01*
X133672662Y-132241432D01*
X133676981Y-132242700D01*
X133681430Y-132243340D01*
X133681436Y-132243341D01*
X133817203Y-132262861D01*
X133817208Y-132262861D01*
X133821650Y-132263500D01*
X138865500Y-132263500D01*
X138868846Y-132263140D01*
X138868851Y-132263140D01*
X138971285Y-132252128D01*
X138971292Y-132252127D01*
X138974649Y-132251766D01*
X138977950Y-132251048D01*
X139023710Y-132241094D01*
X139023715Y-132241093D01*
X139026991Y-132240380D01*
X139030174Y-132239320D01*
X139030187Y-132239317D01*
X139079710Y-132222834D01*
X139150661Y-132220300D01*
X139211719Y-132256528D01*
X139243498Y-132320015D01*
X139245500Y-132342386D01*
X139245500Y-136369501D01*
X139225498Y-136437622D01*
X139171842Y-136484115D01*
X139119500Y-136495501D01*
X138724934Y-136495501D01*
X138689182Y-136502612D01*
X138662874Y-136507844D01*
X138662872Y-136507845D01*
X138650699Y-136510266D01*
X138640379Y-136517161D01*
X138640378Y-136517162D01*
X138611647Y-136536360D01*
X138566516Y-136566516D01*
X138510266Y-136650699D01*
X138495500Y-136724933D01*
X138495501Y-139275066D01*
X138502612Y-139310818D01*
X138507806Y-139336931D01*
X138510266Y-139349301D01*
X138566516Y-139433484D01*
X138650699Y-139489734D01*
X138679228Y-139495409D01*
X138681803Y-139495921D01*
X138744713Y-139528829D01*
X138779845Y-139590524D01*
X138776045Y-139661418D01*
X138734519Y-139719004D01*
X138668452Y-139744999D01*
X138657222Y-139745500D01*
X115446000Y-139745500D01*
X115377879Y-139725498D01*
X115331386Y-139671842D01*
X115320000Y-139619500D01*
X115320000Y-135700906D01*
X124036000Y-135700906D01*
X124036266Y-135706695D01*
X124049934Y-135855447D01*
X124052031Y-135866762D01*
X124106465Y-136059769D01*
X124110587Y-136070508D01*
X124199283Y-136250366D01*
X124205293Y-136260174D01*
X124325284Y-136420861D01*
X124332973Y-136429401D01*
X124480245Y-136565537D01*
X124489361Y-136572532D01*
X124658964Y-136679544D01*
X124669215Y-136684767D01*
X124855473Y-136759076D01*
X124866510Y-136762345D01*
X125045230Y-136797895D01*
X125058106Y-136796743D01*
X125063000Y-136781587D01*
X125063000Y-136781058D01*
X125317000Y-136781058D01*
X125320806Y-136794020D01*
X125335722Y-136795956D01*
X125484260Y-136770433D01*
X125495380Y-136767453D01*
X125683522Y-136698044D01*
X125693900Y-136693094D01*
X125866242Y-136590561D01*
X125875554Y-136583795D01*
X126026327Y-136451571D01*
X126034244Y-136443228D01*
X126109508Y-136347756D01*
X127845500Y-136347756D01*
X127845869Y-136351152D01*
X127845869Y-136351153D01*
X127850378Y-136392654D01*
X127852202Y-136409448D01*
X127902929Y-136544764D01*
X127908309Y-136551943D01*
X127908311Y-136551946D01*
X127966717Y-136629876D01*
X127989596Y-136660404D01*
X128007099Y-136673522D01*
X128098054Y-136741689D01*
X128098057Y-136741691D01*
X128105236Y-136747071D01*
X128159606Y-136767453D01*
X128233157Y-136795026D01*
X128233159Y-136795026D01*
X128240552Y-136797798D01*
X128248402Y-136798651D01*
X128248403Y-136798651D01*
X128298847Y-136804131D01*
X128302244Y-136804500D01*
X129697756Y-136804500D01*
X129701153Y-136804131D01*
X129751597Y-136798651D01*
X129751598Y-136798651D01*
X129759448Y-136797798D01*
X129766841Y-136795026D01*
X129766843Y-136795026D01*
X129840394Y-136767453D01*
X129894764Y-136747071D01*
X129901943Y-136741691D01*
X129901946Y-136741689D01*
X129992901Y-136673522D01*
X130010404Y-136660404D01*
X130033283Y-136629876D01*
X130091689Y-136551946D01*
X130091691Y-136551943D01*
X130097071Y-136544764D01*
X130147798Y-136409448D01*
X130149623Y-136392654D01*
X130154131Y-136351153D01*
X130154131Y-136351152D01*
X130154500Y-136347756D01*
X130154500Y-133152244D01*
X130147798Y-133090552D01*
X130097071Y-132955236D01*
X130091691Y-132948057D01*
X130091689Y-132948054D01*
X130015785Y-132846776D01*
X130010404Y-132839596D01*
X129956465Y-132799171D01*
X129901946Y-132758311D01*
X129901943Y-132758309D01*
X129894764Y-132752929D01*
X129802691Y-132718413D01*
X129766843Y-132704974D01*
X129766841Y-132704974D01*
X129759448Y-132702202D01*
X129751598Y-132701349D01*
X129751597Y-132701349D01*
X129701153Y-132695869D01*
X129701152Y-132695869D01*
X129697756Y-132695500D01*
X128302244Y-132695500D01*
X128298848Y-132695869D01*
X128298847Y-132695869D01*
X128248403Y-132701349D01*
X128248402Y-132701349D01*
X128240552Y-132702202D01*
X128233159Y-132704974D01*
X128233157Y-132704974D01*
X128197309Y-132718413D01*
X128105236Y-132752929D01*
X128098057Y-132758309D01*
X128098054Y-132758311D01*
X128043535Y-132799171D01*
X127989596Y-132839596D01*
X127984215Y-132846776D01*
X127908311Y-132948054D01*
X127908309Y-132948057D01*
X127902929Y-132955236D01*
X127852202Y-133090552D01*
X127845500Y-133152244D01*
X127845500Y-136347756D01*
X126109508Y-136347756D01*
X126158395Y-136285743D01*
X126164663Y-136276092D01*
X126258033Y-136098625D01*
X126262438Y-136087991D01*
X126321905Y-135896475D01*
X126324297Y-135885221D01*
X126343564Y-135722442D01*
X126344000Y-135715039D01*
X126344000Y-134895115D01*
X126339525Y-134879876D01*
X126338135Y-134878671D01*
X126330452Y-134877000D01*
X125335115Y-134877000D01*
X125319876Y-134881475D01*
X125318671Y-134882865D01*
X125317000Y-134890548D01*
X125317000Y-136781058D01*
X125063000Y-136781058D01*
X125063000Y-134895115D01*
X125058525Y-134879876D01*
X125057135Y-134878671D01*
X125049452Y-134877000D01*
X124054115Y-134877000D01*
X124038876Y-134881475D01*
X124037671Y-134882865D01*
X124036000Y-134890548D01*
X124036000Y-135700906D01*
X115320000Y-135700906D01*
X115320000Y-134604885D01*
X124036000Y-134604885D01*
X124040475Y-134620124D01*
X124041865Y-134621329D01*
X124049548Y-134623000D01*
X125044885Y-134623000D01*
X125060124Y-134618525D01*
X125061329Y-134617135D01*
X125063000Y-134609452D01*
X125063000Y-134604885D01*
X125317000Y-134604885D01*
X125321475Y-134620124D01*
X125322865Y-134621329D01*
X125330548Y-134623000D01*
X126325885Y-134623000D01*
X126341124Y-134618525D01*
X126342329Y-134617135D01*
X126344000Y-134609452D01*
X126344000Y-133799094D01*
X126343734Y-133793305D01*
X126330066Y-133644553D01*
X126327969Y-133633238D01*
X126273535Y-133440231D01*
X126269413Y-133429492D01*
X126180717Y-133249634D01*
X126174707Y-133239826D01*
X126054716Y-133079139D01*
X126047027Y-133070599D01*
X125899755Y-132934463D01*
X125890639Y-132927468D01*
X125721036Y-132820456D01*
X125710785Y-132815233D01*
X125524527Y-132740924D01*
X125513490Y-132737655D01*
X125334770Y-132702105D01*
X125321894Y-132703257D01*
X125317000Y-132718413D01*
X125317000Y-134604885D01*
X125063000Y-134604885D01*
X125063000Y-132718942D01*
X125059194Y-132705980D01*
X125044278Y-132704044D01*
X124895740Y-132729567D01*
X124884620Y-132732547D01*
X124696478Y-132801956D01*
X124686100Y-132806906D01*
X124513758Y-132909439D01*
X124504446Y-132916205D01*
X124353673Y-133048429D01*
X124345756Y-133056772D01*
X124221605Y-133214257D01*
X124215337Y-133223908D01*
X124121967Y-133401375D01*
X124117562Y-133412009D01*
X124058095Y-133603525D01*
X124055703Y-133614779D01*
X124036436Y-133777558D01*
X124036000Y-133784961D01*
X124036000Y-134604885D01*
X115320000Y-134604885D01*
X115320000Y-132797500D01*
X87320000Y-132797500D01*
X87320000Y-139619500D01*
X87299998Y-139687621D01*
X87246342Y-139734114D01*
X87194000Y-139745500D01*
X61340210Y-139745500D01*
X61272089Y-139725498D01*
X61225596Y-139671842D01*
X61215492Y-139601568D01*
X61244986Y-139536988D01*
X61304712Y-139498604D01*
X61315631Y-139495921D01*
X61336931Y-139491685D01*
X61359427Y-139482367D01*
X61422808Y-139440017D01*
X61440017Y-139422808D01*
X61482368Y-139359425D01*
X61491684Y-139336934D01*
X61502793Y-139281085D01*
X61504000Y-139268830D01*
X61504000Y-138145115D01*
X61499525Y-138129876D01*
X61498135Y-138128671D01*
X61490452Y-138127000D01*
X58514116Y-138127000D01*
X58498877Y-138131475D01*
X58497672Y-138132865D01*
X58496001Y-138140548D01*
X58496001Y-139268828D01*
X58497209Y-139281088D01*
X58508315Y-139336931D01*
X58517633Y-139359427D01*
X58559983Y-139422808D01*
X58577192Y-139440017D01*
X58640575Y-139482368D01*
X58663066Y-139491684D01*
X58684367Y-139495921D01*
X58747276Y-139528828D01*
X58782409Y-139590523D01*
X58778609Y-139661418D01*
X58737084Y-139719004D01*
X58671017Y-139744998D01*
X58659786Y-139745500D01*
X53037476Y-139745500D01*
X53012897Y-139743079D01*
X53000000Y-139740514D01*
X52987828Y-139742935D01*
X52975421Y-139742935D01*
X52975421Y-139742738D01*
X52964494Y-139743506D01*
X52699663Y-139728634D01*
X52685631Y-139727053D01*
X52540836Y-139702451D01*
X52396045Y-139677850D01*
X52382270Y-139674706D01*
X52249858Y-139636559D01*
X52100008Y-139593388D01*
X52086689Y-139588727D01*
X51815305Y-139476316D01*
X51802582Y-139470189D01*
X51545494Y-139328101D01*
X51533546Y-139320594D01*
X51293971Y-139150606D01*
X51282938Y-139141808D01*
X51063913Y-138946076D01*
X51053923Y-138936086D01*
X51035591Y-138915572D01*
X50858192Y-138717062D01*
X50849392Y-138706027D01*
X50795081Y-138629483D01*
X50679406Y-138466454D01*
X50671899Y-138454506D01*
X50529811Y-138197418D01*
X50523682Y-138184691D01*
X50507289Y-138145115D01*
X50411273Y-137913311D01*
X50406612Y-137899992D01*
X50393617Y-137854885D01*
X58496000Y-137854885D01*
X58500475Y-137870124D01*
X58501865Y-137871329D01*
X58509548Y-137873000D01*
X59854885Y-137873000D01*
X59870124Y-137868525D01*
X59871329Y-137867135D01*
X59873000Y-137859452D01*
X59873000Y-137854885D01*
X60127000Y-137854885D01*
X60131475Y-137870124D01*
X60132865Y-137871329D01*
X60140548Y-137873000D01*
X61485884Y-137873000D01*
X61501123Y-137868525D01*
X61502328Y-137867135D01*
X61503999Y-137859452D01*
X61503999Y-137368828D01*
X70046001Y-137368828D01*
X70047209Y-137381088D01*
X70058315Y-137436931D01*
X70067633Y-137459427D01*
X70109983Y-137522808D01*
X70127192Y-137540017D01*
X70190575Y-137582368D01*
X70213066Y-137591684D01*
X70268915Y-137602793D01*
X70281170Y-137604000D01*
X71004885Y-137604000D01*
X71020124Y-137599525D01*
X71021329Y-137598135D01*
X71023000Y-137590452D01*
X71023000Y-137585884D01*
X71277000Y-137585884D01*
X71281475Y-137601123D01*
X71282865Y-137602328D01*
X71290548Y-137603999D01*
X72018828Y-137603999D01*
X72031088Y-137602791D01*
X72086931Y-137591685D01*
X72109427Y-137582367D01*
X72172808Y-137540017D01*
X72190017Y-137522808D01*
X72232368Y-137459425D01*
X72241684Y-137436934D01*
X72252793Y-137381085D01*
X72254000Y-137368830D01*
X72254000Y-136645115D01*
X72249525Y-136629876D01*
X72248135Y-136628671D01*
X72240452Y-136627000D01*
X71295115Y-136627000D01*
X71279876Y-136631475D01*
X71278671Y-136632865D01*
X71277000Y-136640548D01*
X71277000Y-137585884D01*
X71023000Y-137585884D01*
X71023000Y-136645115D01*
X71018525Y-136629876D01*
X71017135Y-136628671D01*
X71009452Y-136627000D01*
X70064116Y-136627000D01*
X70048877Y-136631475D01*
X70047672Y-136632865D01*
X70046001Y-136640548D01*
X70046001Y-137368828D01*
X61503999Y-137368828D01*
X61503999Y-136731172D01*
X61502791Y-136718912D01*
X61491685Y-136663069D01*
X61482367Y-136640573D01*
X61440017Y-136577192D01*
X61422808Y-136559983D01*
X61359425Y-136517632D01*
X61336934Y-136508316D01*
X61281085Y-136497207D01*
X61268830Y-136496000D01*
X60145115Y-136496000D01*
X60129876Y-136500475D01*
X60128671Y-136501865D01*
X60127000Y-136509548D01*
X60127000Y-137854885D01*
X59873000Y-137854885D01*
X59873000Y-136514116D01*
X59868525Y-136498877D01*
X59867135Y-136497672D01*
X59859452Y-136496001D01*
X58731172Y-136496001D01*
X58718912Y-136497209D01*
X58663069Y-136508315D01*
X58640573Y-136517633D01*
X58577192Y-136559983D01*
X58559983Y-136577192D01*
X58517632Y-136640575D01*
X58508316Y-136663066D01*
X58497207Y-136718915D01*
X58496000Y-136731170D01*
X58496000Y-137854885D01*
X50393617Y-137854885D01*
X50350699Y-137705913D01*
X50325294Y-137617730D01*
X50322150Y-137603955D01*
X50289273Y-137410453D01*
X50272947Y-137314369D01*
X50271366Y-137300333D01*
X50270468Y-137284345D01*
X50256494Y-137035506D01*
X50257262Y-137024579D01*
X50257065Y-137024579D01*
X50257065Y-137012172D01*
X50259486Y-137000000D01*
X50256921Y-136987103D01*
X50254500Y-136962524D01*
X50254500Y-135042186D01*
X53141018Y-135042186D01*
X53166579Y-135310100D01*
X53167664Y-135314534D01*
X53167665Y-135314540D01*
X53222975Y-135540573D01*
X53230547Y-135571518D01*
X53331583Y-135820963D01*
X53467569Y-136053210D01*
X53635658Y-136263395D01*
X53832327Y-136447113D01*
X54053457Y-136600516D01*
X54294416Y-136720391D01*
X54298750Y-136721812D01*
X54298753Y-136721813D01*
X54545823Y-136802807D01*
X54545829Y-136802808D01*
X54550156Y-136804227D01*
X54554647Y-136805007D01*
X54554648Y-136805007D01*
X54811538Y-136849611D01*
X54811546Y-136849612D01*
X54815319Y-136850267D01*
X54819156Y-136850458D01*
X54898777Y-136854422D01*
X54898785Y-136854422D01*
X54900348Y-136854500D01*
X55068374Y-136854500D01*
X55070642Y-136854335D01*
X55070654Y-136854335D01*
X55201457Y-136844844D01*
X55268425Y-136839985D01*
X55272880Y-136839001D01*
X55272883Y-136839001D01*
X55526770Y-136782947D01*
X55526772Y-136782946D01*
X55531226Y-136781963D01*
X55782900Y-136686613D01*
X55820398Y-136665785D01*
X56014179Y-136558149D01*
X56014180Y-136558148D01*
X56018172Y-136555931D01*
X56097356Y-136495500D01*
X56129506Y-136470964D01*
X72581148Y-136470964D01*
X72594424Y-136673522D01*
X72595845Y-136679118D01*
X72595846Y-136679123D01*
X72639145Y-136849611D01*
X72644392Y-136870269D01*
X72646809Y-136875512D01*
X72698588Y-136987830D01*
X72729377Y-137054616D01*
X72846533Y-137220389D01*
X72991938Y-137362035D01*
X73160720Y-137474812D01*
X73166023Y-137477090D01*
X73166026Y-137477092D01*
X73254707Y-137515192D01*
X73347228Y-137554942D01*
X73420244Y-137571464D01*
X73539579Y-137598467D01*
X73539584Y-137598468D01*
X73545216Y-137599742D01*
X73550987Y-137599969D01*
X73550989Y-137599969D01*
X73610756Y-137602317D01*
X73748053Y-137607712D01*
X73858596Y-137591684D01*
X73943231Y-137579413D01*
X73943236Y-137579412D01*
X73948945Y-137578584D01*
X73954409Y-137576729D01*
X73954414Y-137576728D01*
X74135693Y-137515192D01*
X74135698Y-137515190D01*
X74141165Y-137513334D01*
X74318276Y-137414147D01*
X74340792Y-137395421D01*
X74469913Y-137288031D01*
X74474345Y-137284345D01*
X74604147Y-137128276D01*
X74703334Y-136951165D01*
X74705190Y-136945698D01*
X74705192Y-136945693D01*
X74766728Y-136764414D01*
X74766729Y-136764409D01*
X74768584Y-136758945D01*
X74769412Y-136753236D01*
X74769413Y-136753231D01*
X74787715Y-136627000D01*
X74797712Y-136558053D01*
X74799232Y-136500000D01*
X74796564Y-136470964D01*
X75121148Y-136470964D01*
X75134424Y-136673522D01*
X75135845Y-136679118D01*
X75135846Y-136679123D01*
X75179145Y-136849611D01*
X75184392Y-136870269D01*
X75186809Y-136875512D01*
X75238588Y-136987830D01*
X75269377Y-137054616D01*
X75386533Y-137220389D01*
X75531938Y-137362035D01*
X75700720Y-137474812D01*
X75706023Y-137477090D01*
X75706026Y-137477092D01*
X75794707Y-137515192D01*
X75887228Y-137554942D01*
X75960244Y-137571464D01*
X76079579Y-137598467D01*
X76079584Y-137598468D01*
X76085216Y-137599742D01*
X76090987Y-137599969D01*
X76090989Y-137599969D01*
X76150756Y-137602317D01*
X76288053Y-137607712D01*
X76398596Y-137591684D01*
X76483231Y-137579413D01*
X76483236Y-137579412D01*
X76488945Y-137578584D01*
X76494409Y-137576729D01*
X76494414Y-137576728D01*
X76675693Y-137515192D01*
X76675698Y-137515190D01*
X76681165Y-137513334D01*
X76858276Y-137414147D01*
X76880792Y-137395421D01*
X77009913Y-137288031D01*
X77014345Y-137284345D01*
X77144147Y-137128276D01*
X77243334Y-136951165D01*
X77245190Y-136945698D01*
X77245192Y-136945693D01*
X77306728Y-136764414D01*
X77306729Y-136764409D01*
X77308584Y-136758945D01*
X77309412Y-136753236D01*
X77309413Y-136753231D01*
X77327715Y-136627000D01*
X77337712Y-136558053D01*
X77339232Y-136500000D01*
X77336564Y-136470964D01*
X77661148Y-136470964D01*
X77674424Y-136673522D01*
X77675845Y-136679118D01*
X77675846Y-136679123D01*
X77719145Y-136849611D01*
X77724392Y-136870269D01*
X77726809Y-136875512D01*
X77778588Y-136987830D01*
X77809377Y-137054616D01*
X77926533Y-137220389D01*
X78071938Y-137362035D01*
X78240720Y-137474812D01*
X78246023Y-137477090D01*
X78246026Y-137477092D01*
X78334707Y-137515192D01*
X78427228Y-137554942D01*
X78500244Y-137571464D01*
X78619579Y-137598467D01*
X78619584Y-137598468D01*
X78625216Y-137599742D01*
X78630987Y-137599969D01*
X78630989Y-137599969D01*
X78690756Y-137602317D01*
X78828053Y-137607712D01*
X78938596Y-137591684D01*
X79023231Y-137579413D01*
X79023236Y-137579412D01*
X79028945Y-137578584D01*
X79034409Y-137576729D01*
X79034414Y-137576728D01*
X79215693Y-137515192D01*
X79215698Y-137515190D01*
X79221165Y-137513334D01*
X79398276Y-137414147D01*
X79420792Y-137395421D01*
X79549913Y-137288031D01*
X79554345Y-137284345D01*
X79684147Y-137128276D01*
X79783334Y-136951165D01*
X79785190Y-136945698D01*
X79785192Y-136945693D01*
X79846728Y-136764414D01*
X79846729Y-136764409D01*
X79848584Y-136758945D01*
X79849412Y-136753236D01*
X79849413Y-136753231D01*
X79867715Y-136627000D01*
X79877712Y-136558053D01*
X79879232Y-136500000D01*
X79876564Y-136470964D01*
X80201148Y-136470964D01*
X80214424Y-136673522D01*
X80215845Y-136679118D01*
X80215846Y-136679123D01*
X80259145Y-136849611D01*
X80264392Y-136870269D01*
X80266809Y-136875512D01*
X80318588Y-136987830D01*
X80349377Y-137054616D01*
X80466533Y-137220389D01*
X80611938Y-137362035D01*
X80780720Y-137474812D01*
X80786023Y-137477090D01*
X80786026Y-137477092D01*
X80874707Y-137515192D01*
X80967228Y-137554942D01*
X81040244Y-137571464D01*
X81159579Y-137598467D01*
X81159584Y-137598468D01*
X81165216Y-137599742D01*
X81170987Y-137599969D01*
X81170989Y-137599969D01*
X81230756Y-137602317D01*
X81368053Y-137607712D01*
X81478596Y-137591684D01*
X81563231Y-137579413D01*
X81563236Y-137579412D01*
X81568945Y-137578584D01*
X81574409Y-137576729D01*
X81574414Y-137576728D01*
X81755693Y-137515192D01*
X81755698Y-137515190D01*
X81761165Y-137513334D01*
X81938276Y-137414147D01*
X81960792Y-137395421D01*
X82089913Y-137288031D01*
X82094345Y-137284345D01*
X82224147Y-137128276D01*
X82323334Y-136951165D01*
X82325190Y-136945698D01*
X82325192Y-136945693D01*
X82386728Y-136764414D01*
X82386729Y-136764409D01*
X82388584Y-136758945D01*
X82389412Y-136753236D01*
X82389413Y-136753231D01*
X82407715Y-136627000D01*
X82417712Y-136558053D01*
X82419232Y-136500000D01*
X82416564Y-136470964D01*
X82741148Y-136470964D01*
X82754424Y-136673522D01*
X82755845Y-136679118D01*
X82755846Y-136679123D01*
X82799145Y-136849611D01*
X82804392Y-136870269D01*
X82806809Y-136875512D01*
X82858588Y-136987830D01*
X82889377Y-137054616D01*
X83006533Y-137220389D01*
X83151938Y-137362035D01*
X83320720Y-137474812D01*
X83326023Y-137477090D01*
X83326026Y-137477092D01*
X83414707Y-137515192D01*
X83507228Y-137554942D01*
X83580244Y-137571464D01*
X83699579Y-137598467D01*
X83699584Y-137598468D01*
X83705216Y-137599742D01*
X83710987Y-137599969D01*
X83710989Y-137599969D01*
X83770756Y-137602317D01*
X83908053Y-137607712D01*
X84018596Y-137591684D01*
X84103231Y-137579413D01*
X84103236Y-137579412D01*
X84108945Y-137578584D01*
X84114409Y-137576729D01*
X84114414Y-137576728D01*
X84295693Y-137515192D01*
X84295698Y-137515190D01*
X84301165Y-137513334D01*
X84478276Y-137414147D01*
X84500792Y-137395421D01*
X84629913Y-137288031D01*
X84634345Y-137284345D01*
X84764147Y-137128276D01*
X84863334Y-136951165D01*
X84865190Y-136945698D01*
X84865192Y-136945693D01*
X84926728Y-136764414D01*
X84926729Y-136764409D01*
X84928584Y-136758945D01*
X84929412Y-136753236D01*
X84929413Y-136753231D01*
X84947715Y-136627000D01*
X84957712Y-136558053D01*
X84959232Y-136500000D01*
X84940658Y-136297859D01*
X84934519Y-136276092D01*
X84887125Y-136108046D01*
X84887124Y-136108044D01*
X84885557Y-136102487D01*
X84878409Y-136087991D01*
X84798331Y-135925609D01*
X84795776Y-135920428D01*
X84674320Y-135757779D01*
X84525258Y-135619987D01*
X84520375Y-135616906D01*
X84520371Y-135616903D01*
X84358464Y-135514748D01*
X84353581Y-135511667D01*
X84165039Y-135436446D01*
X84159379Y-135435320D01*
X84159375Y-135435319D01*
X83971613Y-135397971D01*
X83971610Y-135397971D01*
X83965946Y-135396844D01*
X83960171Y-135396768D01*
X83960167Y-135396768D01*
X83883551Y-135395765D01*
X83815698Y-135374873D01*
X83789203Y-135343474D01*
X83779619Y-135363617D01*
X83719296Y-135401057D01*
X83707049Y-135403796D01*
X83562910Y-135428564D01*
X83372463Y-135498824D01*
X83198010Y-135602612D01*
X83193670Y-135606418D01*
X83193666Y-135606421D01*
X83069812Y-135715039D01*
X83045392Y-135736455D01*
X82919720Y-135895869D01*
X82917031Y-135900980D01*
X82917029Y-135900983D01*
X82869128Y-135992027D01*
X82825203Y-136075515D01*
X82765007Y-136269378D01*
X82741148Y-136470964D01*
X82416564Y-136470964D01*
X82400658Y-136297859D01*
X82394519Y-136276092D01*
X82347125Y-136108046D01*
X82347124Y-136108044D01*
X82345557Y-136102487D01*
X82338409Y-136087991D01*
X82258331Y-135925609D01*
X82255776Y-135920428D01*
X82134320Y-135757779D01*
X81985258Y-135619987D01*
X81980375Y-135616906D01*
X81980371Y-135616903D01*
X81818464Y-135514748D01*
X81813581Y-135511667D01*
X81625039Y-135436446D01*
X81619379Y-135435320D01*
X81619375Y-135435319D01*
X81431613Y-135397971D01*
X81431610Y-135397971D01*
X81425946Y-135396844D01*
X81420171Y-135396768D01*
X81420167Y-135396768D01*
X81318793Y-135395441D01*
X81222971Y-135394187D01*
X81217274Y-135395166D01*
X81217273Y-135395166D01*
X81086530Y-135417632D01*
X81022910Y-135428564D01*
X80832463Y-135498824D01*
X80658010Y-135602612D01*
X80653670Y-135606418D01*
X80653666Y-135606421D01*
X80529812Y-135715039D01*
X80505392Y-135736455D01*
X80379720Y-135895869D01*
X80377031Y-135900980D01*
X80377029Y-135900983D01*
X80329128Y-135992027D01*
X80285203Y-136075515D01*
X80225007Y-136269378D01*
X80201148Y-136470964D01*
X79876564Y-136470964D01*
X79860658Y-136297859D01*
X79854519Y-136276092D01*
X79807125Y-136108046D01*
X79807124Y-136108044D01*
X79805557Y-136102487D01*
X79798409Y-136087991D01*
X79718331Y-135925609D01*
X79715776Y-135920428D01*
X79594320Y-135757779D01*
X79445258Y-135619987D01*
X79440375Y-135616906D01*
X79440371Y-135616903D01*
X79278464Y-135514748D01*
X79273581Y-135511667D01*
X79085039Y-135436446D01*
X79079379Y-135435320D01*
X79079375Y-135435319D01*
X78891613Y-135397971D01*
X78891610Y-135397971D01*
X78885946Y-135396844D01*
X78880171Y-135396768D01*
X78880167Y-135396768D01*
X78778793Y-135395441D01*
X78682971Y-135394187D01*
X78677274Y-135395166D01*
X78677273Y-135395166D01*
X78546530Y-135417632D01*
X78482910Y-135428564D01*
X78292463Y-135498824D01*
X78118010Y-135602612D01*
X78113670Y-135606418D01*
X78113666Y-135606421D01*
X77989812Y-135715039D01*
X77965392Y-135736455D01*
X77839720Y-135895869D01*
X77837031Y-135900980D01*
X77837029Y-135900983D01*
X77789128Y-135992027D01*
X77745203Y-136075515D01*
X77685007Y-136269378D01*
X77661148Y-136470964D01*
X77336564Y-136470964D01*
X77320658Y-136297859D01*
X77314519Y-136276092D01*
X77267125Y-136108046D01*
X77267124Y-136108044D01*
X77265557Y-136102487D01*
X77258409Y-136087991D01*
X77178331Y-135925609D01*
X77175776Y-135920428D01*
X77054320Y-135757779D01*
X76905258Y-135619987D01*
X76900375Y-135616906D01*
X76900371Y-135616903D01*
X76738464Y-135514748D01*
X76733581Y-135511667D01*
X76545039Y-135436446D01*
X76539379Y-135435320D01*
X76539375Y-135435319D01*
X76351613Y-135397971D01*
X76351610Y-135397971D01*
X76345946Y-135396844D01*
X76340171Y-135396768D01*
X76340167Y-135396768D01*
X76238793Y-135395441D01*
X76142971Y-135394187D01*
X76137274Y-135395166D01*
X76137273Y-135395166D01*
X76006530Y-135417632D01*
X75942910Y-135428564D01*
X75752463Y-135498824D01*
X75578010Y-135602612D01*
X75573670Y-135606418D01*
X75573666Y-135606421D01*
X75449812Y-135715039D01*
X75425392Y-135736455D01*
X75299720Y-135895869D01*
X75297031Y-135900980D01*
X75297029Y-135900983D01*
X75249128Y-135992027D01*
X75205203Y-136075515D01*
X75145007Y-136269378D01*
X75121148Y-136470964D01*
X74796564Y-136470964D01*
X74780658Y-136297859D01*
X74774519Y-136276092D01*
X74727125Y-136108046D01*
X74727124Y-136108044D01*
X74725557Y-136102487D01*
X74718409Y-136087991D01*
X74638331Y-135925609D01*
X74635776Y-135920428D01*
X74514320Y-135757779D01*
X74365258Y-135619987D01*
X74360375Y-135616906D01*
X74360371Y-135616903D01*
X74198464Y-135514748D01*
X74193581Y-135511667D01*
X74005039Y-135436446D01*
X73999379Y-135435320D01*
X73999375Y-135435319D01*
X73811613Y-135397971D01*
X73811610Y-135397971D01*
X73805946Y-135396844D01*
X73800171Y-135396768D01*
X73800167Y-135396768D01*
X73698793Y-135395441D01*
X73602971Y-135394187D01*
X73597274Y-135395166D01*
X73597273Y-135395166D01*
X73466530Y-135417632D01*
X73402910Y-135428564D01*
X73212463Y-135498824D01*
X73038010Y-135602612D01*
X73033670Y-135606418D01*
X73033666Y-135606421D01*
X72909812Y-135715039D01*
X72885392Y-135736455D01*
X72759720Y-135895869D01*
X72757031Y-135900980D01*
X72757029Y-135900983D01*
X72709128Y-135992027D01*
X72665203Y-136075515D01*
X72605007Y-136269378D01*
X72581148Y-136470964D01*
X56129506Y-136470964D01*
X56228491Y-136395421D01*
X56228495Y-136395417D01*
X56232116Y-136392654D01*
X56254141Y-136370124D01*
X56269038Y-136354885D01*
X70046000Y-136354885D01*
X70050475Y-136370124D01*
X70051865Y-136371329D01*
X70059548Y-136373000D01*
X71004885Y-136373000D01*
X71020124Y-136368525D01*
X71021329Y-136367135D01*
X71023000Y-136359452D01*
X71023000Y-136354885D01*
X71277000Y-136354885D01*
X71281475Y-136370124D01*
X71282865Y-136371329D01*
X71290548Y-136373000D01*
X72235884Y-136373000D01*
X72251123Y-136368525D01*
X72252328Y-136367135D01*
X72253999Y-136359452D01*
X72253999Y-135631172D01*
X72252791Y-135618912D01*
X72241685Y-135563069D01*
X72232367Y-135540573D01*
X72190017Y-135477192D01*
X72172808Y-135459983D01*
X72109425Y-135417632D01*
X72086934Y-135408316D01*
X72031085Y-135397207D01*
X72018830Y-135396000D01*
X71295115Y-135396000D01*
X71279876Y-135400475D01*
X71278671Y-135401865D01*
X71277000Y-135409548D01*
X71277000Y-136354885D01*
X71023000Y-136354885D01*
X71023000Y-135414116D01*
X71018525Y-135398877D01*
X71017135Y-135397672D01*
X71009452Y-135396001D01*
X70281172Y-135396001D01*
X70268912Y-135397209D01*
X70213069Y-135408315D01*
X70190573Y-135417633D01*
X70127192Y-135459983D01*
X70109983Y-135477192D01*
X70067632Y-135540575D01*
X70058316Y-135563066D01*
X70047207Y-135618915D01*
X70046000Y-135631170D01*
X70046000Y-136354885D01*
X56269038Y-136354885D01*
X56361961Y-136259829D01*
X56420249Y-136200203D01*
X56487328Y-136108046D01*
X56575942Y-135986304D01*
X56575947Y-135986297D01*
X56578630Y-135982610D01*
X56703941Y-135744433D01*
X56793557Y-135490662D01*
X56822568Y-135343474D01*
X56844720Y-135231083D01*
X56844721Y-135231077D01*
X56845601Y-135226611D01*
X56846632Y-135205904D01*
X56858755Y-134962383D01*
X56858755Y-134962377D01*
X56858982Y-134957814D01*
X56833421Y-134689900D01*
X56830435Y-134677695D01*
X56770539Y-134432920D01*
X56769453Y-134428482D01*
X56668417Y-134179037D01*
X56542311Y-133963664D01*
X56534741Y-133950735D01*
X56534740Y-133950734D01*
X56532431Y-133946790D01*
X56364342Y-133736605D01*
X56167673Y-133552887D01*
X55946543Y-133399484D01*
X55705584Y-133279609D01*
X55701250Y-133278188D01*
X55701247Y-133278187D01*
X55454177Y-133197193D01*
X55454171Y-133197192D01*
X55449844Y-133195773D01*
X55445352Y-133194993D01*
X55188462Y-133150389D01*
X55188454Y-133150388D01*
X55184681Y-133149733D01*
X55166884Y-133148847D01*
X55101223Y-133145578D01*
X55101215Y-133145578D01*
X55099652Y-133145500D01*
X54931626Y-133145500D01*
X54929358Y-133145665D01*
X54929346Y-133145665D01*
X54798543Y-133155156D01*
X54731575Y-133160015D01*
X54727120Y-133160999D01*
X54727117Y-133160999D01*
X54473230Y-133217053D01*
X54473228Y-133217054D01*
X54468774Y-133218037D01*
X54217100Y-133313387D01*
X54213114Y-133315601D01*
X54213112Y-133315602D01*
X53988738Y-133440231D01*
X53981828Y-133444069D01*
X53978196Y-133446841D01*
X53771509Y-133604579D01*
X53771505Y-133604583D01*
X53767884Y-133607346D01*
X53579751Y-133799797D01*
X53577066Y-133803486D01*
X53424058Y-134013696D01*
X53424053Y-134013703D01*
X53421370Y-134017390D01*
X53296059Y-134255567D01*
X53206443Y-134509338D01*
X53185196Y-134617135D01*
X53170855Y-134689900D01*
X53154399Y-134773389D01*
X53154172Y-134777942D01*
X53154172Y-134777945D01*
X53141510Y-135032309D01*
X53141018Y-135042186D01*
X50254500Y-135042186D01*
X50254500Y-131342773D01*
X50274502Y-131274652D01*
X50328158Y-131228159D01*
X50398432Y-131218055D01*
X50463012Y-131247549D01*
X50501396Y-131307275D01*
X50504079Y-131318194D01*
X50505194Y-131323798D01*
X50510266Y-131349301D01*
X50566516Y-131433484D01*
X50650699Y-131489734D01*
X50724933Y-131504500D01*
X51999793Y-131504500D01*
X53275066Y-131504499D01*
X53310818Y-131497388D01*
X53337126Y-131492156D01*
X53337128Y-131492155D01*
X53349301Y-131489734D01*
X53359621Y-131482839D01*
X53359622Y-131482838D01*
X53423168Y-131440377D01*
X53433484Y-131433484D01*
X53443277Y-131418828D01*
X60496001Y-131418828D01*
X60497209Y-131431088D01*
X60508315Y-131486931D01*
X60517633Y-131509427D01*
X60559983Y-131572808D01*
X60577192Y-131590017D01*
X60640575Y-131632368D01*
X60663066Y-131641684D01*
X60718915Y-131652793D01*
X60731170Y-131654000D01*
X61379885Y-131654000D01*
X61395124Y-131649525D01*
X61396329Y-131648135D01*
X61398000Y-131640452D01*
X61398000Y-131635884D01*
X61652000Y-131635884D01*
X61656475Y-131651123D01*
X61657865Y-131652328D01*
X61665548Y-131653999D01*
X62318828Y-131653999D01*
X62331088Y-131652791D01*
X62386931Y-131641685D01*
X62409427Y-131632367D01*
X62472808Y-131590017D01*
X62490017Y-131572808D01*
X62532368Y-131509425D01*
X62541684Y-131486934D01*
X62552793Y-131431085D01*
X62554000Y-131418830D01*
X62554000Y-131418828D01*
X68446001Y-131418828D01*
X68447209Y-131431088D01*
X68458315Y-131486931D01*
X68467633Y-131509427D01*
X68509983Y-131572808D01*
X68527192Y-131590017D01*
X68590575Y-131632368D01*
X68613066Y-131641684D01*
X68668915Y-131652793D01*
X68681170Y-131654000D01*
X69329885Y-131654000D01*
X69345124Y-131649525D01*
X69346329Y-131648135D01*
X69348000Y-131640452D01*
X69348000Y-131635884D01*
X69602000Y-131635884D01*
X69606475Y-131651123D01*
X69607865Y-131652328D01*
X69615548Y-131653999D01*
X70268828Y-131653999D01*
X70281088Y-131652791D01*
X70336931Y-131641685D01*
X70359427Y-131632367D01*
X70422808Y-131590017D01*
X70440017Y-131572808D01*
X70482368Y-131509425D01*
X70491684Y-131486934D01*
X70502793Y-131431085D01*
X70504000Y-131418830D01*
X70504000Y-130895115D01*
X70499525Y-130879876D01*
X70498135Y-130878671D01*
X70490452Y-130877000D01*
X69620115Y-130877000D01*
X69604876Y-130881475D01*
X69603671Y-130882865D01*
X69602000Y-130890548D01*
X69602000Y-131635884D01*
X69348000Y-131635884D01*
X69348000Y-130895115D01*
X69343525Y-130879876D01*
X69342135Y-130878671D01*
X69334452Y-130877000D01*
X68464116Y-130877000D01*
X68448877Y-130881475D01*
X68447672Y-130882865D01*
X68446001Y-130890548D01*
X68446001Y-131418828D01*
X62554000Y-131418828D01*
X62554000Y-130895115D01*
X62549525Y-130879876D01*
X62548135Y-130878671D01*
X62540452Y-130877000D01*
X61670115Y-130877000D01*
X61654876Y-130881475D01*
X61653671Y-130882865D01*
X61652000Y-130890548D01*
X61652000Y-131635884D01*
X61398000Y-131635884D01*
X61398000Y-130895115D01*
X61393525Y-130879876D01*
X61392135Y-130878671D01*
X61384452Y-130877000D01*
X60514116Y-130877000D01*
X60498877Y-130881475D01*
X60497672Y-130882865D01*
X60496001Y-130890548D01*
X60496001Y-131418828D01*
X53443277Y-131418828D01*
X53489734Y-131349301D01*
X53504500Y-131275067D01*
X53504500Y-130880500D01*
X53524502Y-130812379D01*
X53578158Y-130765886D01*
X53630500Y-130754500D01*
X55044053Y-130754500D01*
X55135950Y-130743786D01*
X55167482Y-130740110D01*
X55167484Y-130740110D01*
X55174754Y-130739262D01*
X55181631Y-130736766D01*
X55181634Y-130736765D01*
X55333255Y-130681729D01*
X55340134Y-130679232D01*
X55346251Y-130675222D01*
X55346254Y-130675220D01*
X55453531Y-130604885D01*
X60496000Y-130604885D01*
X60500475Y-130620124D01*
X60501865Y-130621329D01*
X60509548Y-130623000D01*
X61379885Y-130623000D01*
X61395124Y-130618525D01*
X61396329Y-130617135D01*
X61398000Y-130609452D01*
X61398000Y-130604885D01*
X61652000Y-130604885D01*
X61656475Y-130620124D01*
X61657865Y-130621329D01*
X61665548Y-130623000D01*
X62535884Y-130623000D01*
X62551123Y-130618525D01*
X62552328Y-130617135D01*
X62553999Y-130609452D01*
X62553999Y-130604885D01*
X68446000Y-130604885D01*
X68450475Y-130620124D01*
X68451865Y-130621329D01*
X68459548Y-130623000D01*
X69329885Y-130623000D01*
X69345124Y-130618525D01*
X69346329Y-130617135D01*
X69348000Y-130609452D01*
X69348000Y-130604885D01*
X69602000Y-130604885D01*
X69606475Y-130620124D01*
X69607865Y-130621329D01*
X69615548Y-130623000D01*
X70485884Y-130623000D01*
X70501123Y-130618525D01*
X70502328Y-130617135D01*
X70503999Y-130609452D01*
X70503999Y-130081172D01*
X70502791Y-130068912D01*
X70491685Y-130013069D01*
X70483412Y-129993096D01*
X81090729Y-129993096D01*
X81099099Y-130068912D01*
X81107116Y-130141522D01*
X81108113Y-130150553D01*
X81110723Y-130157684D01*
X81110723Y-130157686D01*
X81152325Y-130271368D01*
X81162553Y-130299319D01*
X81166789Y-130305622D01*
X81166789Y-130305623D01*
X81235373Y-130407686D01*
X81250908Y-130430805D01*
X81256527Y-130435918D01*
X81256528Y-130435919D01*
X81329299Y-130502135D01*
X81366222Y-130562775D01*
X81370500Y-130595329D01*
X81370500Y-132446080D01*
X81367951Y-132470028D01*
X81367872Y-132471693D01*
X81365680Y-132481876D01*
X81366904Y-132492217D01*
X81369627Y-132515223D01*
X81369977Y-132521154D01*
X81370072Y-132521146D01*
X81370500Y-132526324D01*
X81370500Y-132531524D01*
X81371354Y-132536653D01*
X81371354Y-132536656D01*
X81373669Y-132550565D01*
X81374506Y-132556443D01*
X81380530Y-132607341D01*
X81384493Y-132615593D01*
X81385996Y-132624626D01*
X81390943Y-132633795D01*
X81390944Y-132633797D01*
X81410334Y-132669732D01*
X81413031Y-132675025D01*
X81431785Y-132714082D01*
X81431788Y-132714086D01*
X81435219Y-132721232D01*
X81438814Y-132725508D01*
X81440737Y-132727431D01*
X81442509Y-132729363D01*
X81442552Y-132729442D01*
X81442428Y-132729555D01*
X81442904Y-132730095D01*
X81445990Y-132735814D01*
X81453635Y-132742881D01*
X81485586Y-132772416D01*
X81489152Y-132775846D01*
X83060249Y-134346943D01*
X83094275Y-134409255D01*
X83096076Y-134452482D01*
X83090729Y-134493096D01*
X83097043Y-134550284D01*
X83104887Y-134621329D01*
X83108113Y-134650553D01*
X83110723Y-134657684D01*
X83110723Y-134657686D01*
X83151428Y-134768917D01*
X83162553Y-134799319D01*
X83166789Y-134805622D01*
X83166789Y-134805623D01*
X83218694Y-134882865D01*
X83250908Y-134930805D01*
X83256527Y-134935918D01*
X83256528Y-134935919D01*
X83346064Y-135017390D01*
X83368076Y-135037419D01*
X83507293Y-135113008D01*
X83660522Y-135153207D01*
X83678504Y-135153489D01*
X83687684Y-135153634D01*
X83755482Y-135174704D01*
X83781669Y-135205904D01*
X83791065Y-135186024D01*
X83857072Y-135146956D01*
X83965928Y-135122025D01*
X83965930Y-135122024D01*
X83973332Y-135120329D01*
X84043742Y-135084917D01*
X84108072Y-135052563D01*
X84108075Y-135052561D01*
X84114855Y-135049151D01*
X84120626Y-135044222D01*
X84120629Y-135044220D01*
X84229536Y-134951204D01*
X84229536Y-134951203D01*
X84235314Y-134946269D01*
X84327755Y-134817624D01*
X84386842Y-134670641D01*
X84409162Y-134513807D01*
X84409231Y-134507265D01*
X84409264Y-134504134D01*
X84409264Y-134504128D01*
X84409307Y-134500000D01*
X84407561Y-134485567D01*
X84402270Y-134441851D01*
X84390276Y-134342733D01*
X84334280Y-134194546D01*
X84244553Y-134063992D01*
X84126275Y-133958611D01*
X83986274Y-133884484D01*
X83832633Y-133845892D01*
X83825034Y-133845852D01*
X83825033Y-133845852D01*
X83764626Y-133845536D01*
X83683335Y-133845110D01*
X83615321Y-133824752D01*
X83594901Y-133808207D01*
X82166405Y-132379711D01*
X82132379Y-132317399D01*
X82129500Y-132290616D01*
X82129500Y-130594730D01*
X82149502Y-130526609D01*
X82173669Y-130498919D01*
X82229536Y-130451204D01*
X82235314Y-130446269D01*
X82327755Y-130317624D01*
X82386842Y-130170641D01*
X82409162Y-130013807D01*
X82409307Y-130000000D01*
X82408167Y-129990575D01*
X82393289Y-129867632D01*
X82390276Y-129842733D01*
X82334280Y-129694546D01*
X82314939Y-129666405D01*
X82248855Y-129570251D01*
X82248854Y-129570249D01*
X82244553Y-129563992D01*
X82126275Y-129458611D01*
X82118889Y-129454700D01*
X81992988Y-129388039D01*
X81992989Y-129388039D01*
X81986274Y-129384484D01*
X81832633Y-129345892D01*
X81825034Y-129345852D01*
X81825033Y-129345852D01*
X81759181Y-129345507D01*
X81674221Y-129345062D01*
X81666841Y-129346834D01*
X81666839Y-129346834D01*
X81527563Y-129380271D01*
X81527560Y-129380272D01*
X81520184Y-129382043D01*
X81379414Y-129454700D01*
X81260039Y-129558838D01*
X81168950Y-129688444D01*
X81163802Y-129701649D01*
X81119588Y-129815052D01*
X81111406Y-129836037D01*
X81110414Y-129843570D01*
X81110414Y-129843571D01*
X81094266Y-129966231D01*
X81090729Y-129993096D01*
X70483412Y-129993096D01*
X70482367Y-129990573D01*
X70440017Y-129927192D01*
X70422808Y-129909983D01*
X70359425Y-129867632D01*
X70336934Y-129858316D01*
X70281085Y-129847207D01*
X70268830Y-129846000D01*
X69620115Y-129846000D01*
X69604876Y-129850475D01*
X69603671Y-129851865D01*
X69602000Y-129859548D01*
X69602000Y-130604885D01*
X69348000Y-130604885D01*
X69348000Y-129864116D01*
X69343525Y-129848877D01*
X69342135Y-129847672D01*
X69334452Y-129846001D01*
X68681172Y-129846001D01*
X68668912Y-129847209D01*
X68613069Y-129858315D01*
X68590573Y-129867633D01*
X68527192Y-129909983D01*
X68509983Y-129927192D01*
X68467632Y-129990575D01*
X68458316Y-130013066D01*
X68447207Y-130068915D01*
X68446000Y-130081170D01*
X68446000Y-130604885D01*
X62553999Y-130604885D01*
X62553999Y-130081172D01*
X62552791Y-130068912D01*
X62541685Y-130013069D01*
X62532367Y-129990573D01*
X62490017Y-129927192D01*
X62472808Y-129909983D01*
X62409425Y-129867632D01*
X62386934Y-129858316D01*
X62331085Y-129847207D01*
X62318830Y-129846000D01*
X61670115Y-129846000D01*
X61654876Y-129850475D01*
X61653671Y-129851865D01*
X61652000Y-129859548D01*
X61652000Y-130604885D01*
X61398000Y-130604885D01*
X61398000Y-129864116D01*
X61393525Y-129848877D01*
X61392135Y-129847672D01*
X61384452Y-129846001D01*
X60731172Y-129846001D01*
X60718912Y-129847209D01*
X60663069Y-129858315D01*
X60640573Y-129867633D01*
X60577192Y-129909983D01*
X60559983Y-129927192D01*
X60517632Y-129990575D01*
X60508316Y-130013066D01*
X60497207Y-130068915D01*
X60496000Y-130081170D01*
X60496000Y-130604885D01*
X55453531Y-130604885D01*
X55487268Y-130582766D01*
X55608264Y-130455040D01*
X55696632Y-130302904D01*
X55747630Y-130134520D01*
X55758524Y-129958920D01*
X55753938Y-129932228D01*
X55729969Y-129792738D01*
X55729968Y-129792736D01*
X55728729Y-129785523D01*
X55659844Y-129623632D01*
X55555563Y-129481929D01*
X55421480Y-129368018D01*
X55376523Y-129345062D01*
X55271305Y-129291334D01*
X55271300Y-129291332D01*
X55264788Y-129288007D01*
X55257682Y-129286268D01*
X55257679Y-129286267D01*
X55176290Y-129266352D01*
X55093892Y-129246189D01*
X55088290Y-129245841D01*
X55088287Y-129245841D01*
X55084725Y-129245620D01*
X55084716Y-129245620D01*
X55082786Y-129245500D01*
X53630499Y-129245500D01*
X53562378Y-129225498D01*
X53515885Y-129171842D01*
X53504499Y-129119500D01*
X53504499Y-128724934D01*
X53496739Y-128685919D01*
X53492156Y-128662874D01*
X53492155Y-128662872D01*
X53489734Y-128650699D01*
X53477273Y-128632049D01*
X53440377Y-128576832D01*
X53433484Y-128566516D01*
X53349301Y-128510266D01*
X53275067Y-128495500D01*
X52000207Y-128495500D01*
X50724934Y-128495501D01*
X50689182Y-128502612D01*
X50662874Y-128507844D01*
X50662872Y-128507845D01*
X50650699Y-128510266D01*
X50640379Y-128517161D01*
X50640378Y-128517162D01*
X50582818Y-128555623D01*
X50566516Y-128566516D01*
X50510266Y-128650699D01*
X50506735Y-128668452D01*
X50504079Y-128681803D01*
X50471171Y-128744713D01*
X50409476Y-128779845D01*
X50338582Y-128776045D01*
X50280996Y-128734519D01*
X50255001Y-128668452D01*
X50254500Y-128657222D01*
X50254500Y-128243096D01*
X74840729Y-128243096D01*
X74841563Y-128250646D01*
X74855870Y-128380233D01*
X74858113Y-128400553D01*
X74860723Y-128407684D01*
X74860723Y-128407686D01*
X74909741Y-128541634D01*
X74912553Y-128549319D01*
X74916789Y-128555622D01*
X74916789Y-128555623D01*
X74988858Y-128662872D01*
X75000908Y-128680805D01*
X75006527Y-128685918D01*
X75006528Y-128685919D01*
X75049404Y-128724933D01*
X75118076Y-128787419D01*
X75257293Y-128863008D01*
X75410522Y-128903207D01*
X75494477Y-128904526D01*
X75561319Y-128905576D01*
X75561322Y-128905576D01*
X75568916Y-128905695D01*
X75723332Y-128870329D01*
X75810867Y-128826304D01*
X75858072Y-128802563D01*
X75858075Y-128802561D01*
X75864855Y-128799151D01*
X75870626Y-128794222D01*
X75870629Y-128794220D01*
X75979542Y-128701199D01*
X75979543Y-128701198D01*
X75985314Y-128696269D01*
X75995586Y-128681974D01*
X76051581Y-128638326D01*
X76097909Y-128629500D01*
X86946080Y-128629500D01*
X86970028Y-128632049D01*
X86971693Y-128632128D01*
X86981876Y-128634320D01*
X86992217Y-128633096D01*
X87014750Y-128630429D01*
X87084749Y-128642286D01*
X87137227Y-128690105D01*
X87155521Y-128758704D01*
X87133823Y-128826304D01*
X87118655Y-128844651D01*
X86404411Y-129558895D01*
X86342099Y-129592921D01*
X86314658Y-129595798D01*
X86174221Y-129595062D01*
X86166841Y-129596834D01*
X86166839Y-129596834D01*
X86027563Y-129630271D01*
X86027560Y-129630272D01*
X86020184Y-129632043D01*
X85879414Y-129704700D01*
X85760039Y-129808838D01*
X85668950Y-129938444D01*
X85643339Y-130004134D01*
X85618082Y-130068915D01*
X85611406Y-130086037D01*
X85610414Y-130093570D01*
X85610414Y-130093571D01*
X85591826Y-130234766D01*
X85590729Y-130243096D01*
X85596149Y-130292185D01*
X85601987Y-130345062D01*
X85608113Y-130400553D01*
X85610723Y-130407684D01*
X85610723Y-130407686D01*
X85658680Y-130538735D01*
X85662553Y-130549319D01*
X85666789Y-130555622D01*
X85666789Y-130555623D01*
X85712065Y-130623000D01*
X85750908Y-130680805D01*
X85756527Y-130685918D01*
X85756528Y-130685919D01*
X85822726Y-130746154D01*
X85868076Y-130787419D01*
X86007293Y-130863008D01*
X86160522Y-130903207D01*
X86199250Y-130903815D01*
X86220031Y-130904142D01*
X86287830Y-130925211D01*
X86333474Y-130979591D01*
X86343291Y-131016297D01*
X86348684Y-131065148D01*
X86352648Y-131101049D01*
X86358113Y-131150553D01*
X86360723Y-131157684D01*
X86360723Y-131157686D01*
X86405899Y-131281135D01*
X86412553Y-131299319D01*
X86416789Y-131305622D01*
X86416789Y-131305623D01*
X86453074Y-131359620D01*
X86500908Y-131430805D01*
X86506527Y-131435918D01*
X86506528Y-131435919D01*
X86580572Y-131503293D01*
X86618076Y-131537419D01*
X86757293Y-131613008D01*
X86910522Y-131653207D01*
X86994477Y-131654526D01*
X87061319Y-131655576D01*
X87061322Y-131655576D01*
X87068916Y-131655695D01*
X87223332Y-131620329D01*
X87317818Y-131572808D01*
X87358072Y-131552563D01*
X87358075Y-131552561D01*
X87364855Y-131549151D01*
X87370626Y-131544222D01*
X87370629Y-131544220D01*
X87479536Y-131451204D01*
X87479536Y-131451203D01*
X87485314Y-131446269D01*
X87577755Y-131317624D01*
X87580589Y-131310575D01*
X87580592Y-131310569D01*
X87634089Y-131177489D01*
X87678055Y-131121744D01*
X87745180Y-131098619D01*
X87814152Y-131115456D01*
X87863071Y-131166908D01*
X87869322Y-131181184D01*
X87905899Y-131281135D01*
X87912553Y-131299319D01*
X87916789Y-131305622D01*
X87916789Y-131305623D01*
X87953074Y-131359620D01*
X88000908Y-131430805D01*
X88006527Y-131435918D01*
X88006528Y-131435919D01*
X88080572Y-131503293D01*
X88118076Y-131537419D01*
X88257293Y-131613008D01*
X88410522Y-131653207D01*
X88494477Y-131654526D01*
X88561319Y-131655576D01*
X88561322Y-131655576D01*
X88568916Y-131655695D01*
X88723332Y-131620329D01*
X88817818Y-131572808D01*
X88858072Y-131552563D01*
X88858075Y-131552561D01*
X88864855Y-131549151D01*
X88870626Y-131544222D01*
X88870629Y-131544220D01*
X88979536Y-131451204D01*
X88979536Y-131451203D01*
X88985314Y-131446269D01*
X89077755Y-131317624D01*
X89136842Y-131170641D01*
X89148538Y-131088455D01*
X89158581Y-131017891D01*
X89158581Y-131017888D01*
X89159162Y-131013807D01*
X89159307Y-131000000D01*
X89153437Y-130951496D01*
X89165109Y-130881468D01*
X89189429Y-130847265D01*
X90370289Y-129666405D01*
X90432601Y-129632379D01*
X90459384Y-129629500D01*
X94771080Y-129629500D01*
X94795028Y-129632049D01*
X94796693Y-129632128D01*
X94806876Y-129634320D01*
X94817217Y-129633096D01*
X94840223Y-129630373D01*
X94846154Y-129630023D01*
X94846146Y-129629928D01*
X94851324Y-129629500D01*
X94856524Y-129629500D01*
X94861653Y-129628646D01*
X94861656Y-129628646D01*
X94875565Y-129626331D01*
X94881443Y-129625494D01*
X94922001Y-129620694D01*
X94922002Y-129620694D01*
X94932341Y-129619470D01*
X94940593Y-129615507D01*
X94949626Y-129614004D01*
X94958795Y-129609057D01*
X94958797Y-129609056D01*
X94994732Y-129589666D01*
X95000025Y-129586969D01*
X95039082Y-129568215D01*
X95039086Y-129568212D01*
X95046232Y-129564781D01*
X95050508Y-129561186D01*
X95052431Y-129559263D01*
X95054363Y-129557491D01*
X95054442Y-129557448D01*
X95054555Y-129557572D01*
X95055095Y-129557096D01*
X95060814Y-129554010D01*
X95097417Y-129514413D01*
X95100846Y-129510848D01*
X95383678Y-129228016D01*
X95445990Y-129193990D01*
X95474752Y-129191127D01*
X95598818Y-129193076D01*
X95598821Y-129193076D01*
X95606416Y-129193195D01*
X95760832Y-129157829D01*
X95831242Y-129122417D01*
X95895572Y-129090063D01*
X95895575Y-129090061D01*
X95902355Y-129086651D01*
X95908126Y-129081722D01*
X95908129Y-129081720D01*
X96017036Y-128988704D01*
X96017036Y-128988703D01*
X96022814Y-128983769D01*
X96115255Y-128855124D01*
X96174342Y-128708141D01*
X96183714Y-128642286D01*
X96196081Y-128555391D01*
X96196081Y-128555388D01*
X96196662Y-128551307D01*
X96196807Y-128537500D01*
X96177776Y-128380233D01*
X96121780Y-128232046D01*
X96032053Y-128101492D01*
X95913775Y-127996111D01*
X95906389Y-127992200D01*
X95780488Y-127925539D01*
X95780489Y-127925539D01*
X95773774Y-127921984D01*
X95620133Y-127883392D01*
X95612534Y-127883352D01*
X95612533Y-127883352D01*
X95546681Y-127883007D01*
X95461721Y-127882562D01*
X95454341Y-127884334D01*
X95454339Y-127884334D01*
X95315063Y-127917771D01*
X95315060Y-127917772D01*
X95307684Y-127919543D01*
X95166914Y-127992200D01*
X95047539Y-128096338D01*
X94956450Y-128225944D01*
X94898906Y-128373537D01*
X94897914Y-128381070D01*
X94897914Y-128381071D01*
X94879998Y-128517162D01*
X94878229Y-128530596D01*
X94880992Y-128555623D01*
X94884463Y-128587066D01*
X94872057Y-128656970D01*
X94848319Y-128689987D01*
X94704711Y-128833595D01*
X94642399Y-128867621D01*
X94615616Y-128870500D01*
X90303925Y-128870500D01*
X90279967Y-128867950D01*
X90278308Y-128867872D01*
X90268124Y-128865679D01*
X90257782Y-128866903D01*
X90257779Y-128866903D01*
X90234779Y-128869626D01*
X90228848Y-128869976D01*
X90228856Y-128870072D01*
X90223680Y-128870500D01*
X90218476Y-128870500D01*
X90199412Y-128873673D01*
X90193566Y-128874504D01*
X90182117Y-128875859D01*
X90142659Y-128880530D01*
X90134407Y-128884493D01*
X90125374Y-128885996D01*
X90116205Y-128890943D01*
X90116203Y-128890944D01*
X90080268Y-128910334D01*
X90074975Y-128913031D01*
X90043800Y-128928001D01*
X90028768Y-128935219D01*
X90024493Y-128938813D01*
X90022568Y-128940738D01*
X90020638Y-128942509D01*
X90020553Y-128942555D01*
X90020441Y-128942432D01*
X90019906Y-128942904D01*
X90014186Y-128945990D01*
X90007119Y-128953635D01*
X89977584Y-128985586D01*
X89974154Y-128989152D01*
X88654411Y-130308895D01*
X88592099Y-130342921D01*
X88564658Y-130345798D01*
X88494789Y-130345432D01*
X88426775Y-130325074D01*
X88380564Y-130271175D01*
X88370828Y-130200849D01*
X88400659Y-130136424D01*
X88406355Y-130130339D01*
X90596178Y-127940516D01*
X90658490Y-127906490D01*
X90687252Y-127903627D01*
X90811318Y-127905576D01*
X90811321Y-127905576D01*
X90818916Y-127905695D01*
X90973332Y-127870329D01*
X91063738Y-127824860D01*
X91108072Y-127802563D01*
X91108075Y-127802561D01*
X91114855Y-127799151D01*
X91120626Y-127794222D01*
X91120629Y-127794220D01*
X91229536Y-127701204D01*
X91229536Y-127701203D01*
X91235314Y-127696269D01*
X91327755Y-127567624D01*
X91386842Y-127420641D01*
X91409162Y-127263807D01*
X91409307Y-127250000D01*
X91390276Y-127092733D01*
X91334280Y-126944546D01*
X91325063Y-126931135D01*
X91248855Y-126820251D01*
X91248854Y-126820249D01*
X91244553Y-126813992D01*
X91126275Y-126708611D01*
X91118889Y-126704700D01*
X90992988Y-126638039D01*
X90992989Y-126638039D01*
X90986274Y-126634484D01*
X90964395Y-126628988D01*
X90939039Y-126622619D01*
X90877843Y-126586623D01*
X90845823Y-126523258D01*
X90853144Y-126452640D01*
X90897482Y-126397190D01*
X90941607Y-126377595D01*
X90941844Y-126377541D01*
X90973332Y-126370329D01*
X91043742Y-126334917D01*
X91108072Y-126302563D01*
X91108075Y-126302561D01*
X91114855Y-126299151D01*
X91120626Y-126294222D01*
X91120629Y-126294220D01*
X91229536Y-126201204D01*
X91229536Y-126201203D01*
X91235314Y-126196269D01*
X91327755Y-126067624D01*
X91386842Y-125920641D01*
X91395598Y-125859114D01*
X91408581Y-125767891D01*
X91408581Y-125767888D01*
X91409162Y-125763807D01*
X91409307Y-125750000D01*
X91408642Y-125744500D01*
X91401717Y-125687280D01*
X100997460Y-125687280D01*
X101007389Y-125699806D01*
X101016254Y-125705707D01*
X101032298Y-125713359D01*
X101149542Y-125749989D01*
X101167084Y-125752830D01*
X101289898Y-125755081D01*
X101307539Y-125752884D01*
X101426043Y-125720577D01*
X101442357Y-125713517D01*
X101468154Y-125697678D01*
X101477544Y-125687280D01*
X102522460Y-125687280D01*
X102532389Y-125699806D01*
X102541254Y-125705707D01*
X102557298Y-125713359D01*
X102674542Y-125749989D01*
X102692084Y-125752830D01*
X102814898Y-125755081D01*
X102832539Y-125752884D01*
X102951043Y-125720577D01*
X102967357Y-125713517D01*
X102993154Y-125697678D01*
X103002606Y-125687211D01*
X102998803Y-125678408D01*
X102775312Y-125454917D01*
X102761368Y-125447303D01*
X102759535Y-125447434D01*
X102752920Y-125451685D01*
X102528637Y-125675968D01*
X102522460Y-125687280D01*
X101477544Y-125687280D01*
X101477606Y-125687211D01*
X101473803Y-125678408D01*
X101250312Y-125454917D01*
X101236368Y-125447303D01*
X101234535Y-125447434D01*
X101227920Y-125451685D01*
X101003637Y-125675968D01*
X100997460Y-125687280D01*
X91401717Y-125687280D01*
X91401709Y-125687211D01*
X91390276Y-125592733D01*
X91334280Y-125444546D01*
X91267039Y-125346709D01*
X91248855Y-125320251D01*
X91248854Y-125320249D01*
X91244553Y-125313992D01*
X91126275Y-125208611D01*
X90986274Y-125134484D01*
X90940507Y-125122988D01*
X90934830Y-125121562D01*
X90873635Y-125085567D01*
X90841614Y-125022201D01*
X90848935Y-124951583D01*
X90876431Y-124910263D01*
X91283855Y-124502839D01*
X99979647Y-124502839D01*
X99995574Y-124624634D01*
X100000353Y-124641748D01*
X100039897Y-124731620D01*
X100048983Y-124742406D01*
X100054537Y-124740858D01*
X100282583Y-124512812D01*
X100290197Y-124498868D01*
X100290066Y-124497035D01*
X100285815Y-124490420D01*
X100060903Y-124265508D01*
X100048523Y-124258748D01*
X100043476Y-124262527D01*
X100003957Y-124346699D01*
X99998762Y-124363688D01*
X99979864Y-124485061D01*
X99979647Y-124502839D01*
X91283855Y-124502839D01*
X91870289Y-123916405D01*
X91932601Y-123882379D01*
X91959384Y-123879500D01*
X93650141Y-123879500D01*
X93718262Y-123899502D01*
X93745522Y-123923169D01*
X93746672Y-123924501D01*
X93750908Y-123930805D01*
X93756525Y-123935916D01*
X93859323Y-124029454D01*
X93868076Y-124037419D01*
X94007293Y-124113008D01*
X94160522Y-124153207D01*
X94244477Y-124154526D01*
X94311319Y-124155576D01*
X94311322Y-124155576D01*
X94318916Y-124155695D01*
X94473332Y-124120329D01*
X94545044Y-124084262D01*
X94563315Y-124075073D01*
X100234763Y-124075073D01*
X100238867Y-124084262D01*
X100565510Y-124410905D01*
X100599536Y-124473217D01*
X100594471Y-124544032D01*
X100565510Y-124589095D01*
X100241137Y-124913468D01*
X100234960Y-124924780D01*
X100244889Y-124937306D01*
X100253754Y-124943207D01*
X100269798Y-124950859D01*
X100387042Y-124987489D01*
X100404584Y-124990330D01*
X100527398Y-124992581D01*
X100545039Y-124990384D01*
X100605781Y-124973824D01*
X100676765Y-124975204D01*
X100735733Y-125014741D01*
X100763966Y-125079883D01*
X100760736Y-125117025D01*
X100762643Y-125117322D01*
X100742364Y-125247561D01*
X100742147Y-125265339D01*
X100758074Y-125387134D01*
X100762853Y-125404248D01*
X100802397Y-125494120D01*
X100811483Y-125504906D01*
X100817037Y-125503358D01*
X101148405Y-125171990D01*
X101210717Y-125137964D01*
X101281532Y-125143029D01*
X101326595Y-125171990D01*
X101651236Y-125496631D01*
X101663616Y-125503391D01*
X101668895Y-125499439D01*
X101706635Y-125421546D01*
X101712037Y-125404619D01*
X101733100Y-125279425D01*
X101733965Y-125269772D01*
X101733995Y-125267359D01*
X101733364Y-125257684D01*
X101715368Y-125132021D01*
X101715102Y-125131112D01*
X101715103Y-125130173D01*
X101714095Y-125123134D01*
X101715111Y-125122988D01*
X101715182Y-125060116D01*
X101753633Y-125000433D01*
X101818246Y-124971012D01*
X101873612Y-124975483D01*
X101912041Y-124987489D01*
X101929584Y-124990330D01*
X102052398Y-124992581D01*
X102070039Y-124990384D01*
X102130781Y-124973824D01*
X102201765Y-124975204D01*
X102260733Y-125014741D01*
X102288966Y-125079883D01*
X102285736Y-125117025D01*
X102287643Y-125117322D01*
X102267364Y-125247561D01*
X102267147Y-125265339D01*
X102283074Y-125387134D01*
X102287853Y-125404248D01*
X102327397Y-125494120D01*
X102336483Y-125504906D01*
X102342037Y-125503358D01*
X102673405Y-125171990D01*
X102735717Y-125137964D01*
X102806532Y-125143029D01*
X102851595Y-125171990D01*
X103176236Y-125496631D01*
X103188616Y-125503391D01*
X103193895Y-125499439D01*
X103231635Y-125421546D01*
X103237037Y-125404619D01*
X103258100Y-125279425D01*
X103258965Y-125269772D01*
X103258995Y-125267359D01*
X103258364Y-125257684D01*
X103240368Y-125132021D01*
X103240102Y-125131112D01*
X103240103Y-125130173D01*
X103239095Y-125123134D01*
X103240111Y-125122988D01*
X103240182Y-125060116D01*
X103278633Y-125000433D01*
X103343246Y-124971012D01*
X103398612Y-124975483D01*
X103437041Y-124987489D01*
X103454584Y-124990330D01*
X103577398Y-124992581D01*
X103595039Y-124990384D01*
X103713543Y-124958077D01*
X103729857Y-124951017D01*
X103755654Y-124935178D01*
X103765106Y-124924711D01*
X103761303Y-124915908D01*
X103434490Y-124589095D01*
X103400464Y-124526783D01*
X103402299Y-124501132D01*
X103709803Y-124501132D01*
X103709934Y-124502965D01*
X103714185Y-124509580D01*
X103938736Y-124734131D01*
X103951116Y-124740891D01*
X103956395Y-124736939D01*
X103994135Y-124659046D01*
X103999537Y-124642119D01*
X104020600Y-124516925D01*
X104021465Y-124507272D01*
X104021495Y-124504859D01*
X104020864Y-124495184D01*
X104002868Y-124369521D01*
X103997880Y-124352464D01*
X103959826Y-124268767D01*
X103950610Y-124258096D01*
X103944820Y-124259785D01*
X103717417Y-124487188D01*
X103709803Y-124501132D01*
X103402299Y-124501132D01*
X103405529Y-124455968D01*
X103434490Y-124410905D01*
X103758617Y-124086778D01*
X103765377Y-124074398D01*
X103759044Y-124065938D01*
X103740818Y-124054124D01*
X103724676Y-124046666D01*
X103606998Y-124011473D01*
X103589418Y-124008845D01*
X103466585Y-124008095D01*
X103448981Y-124010507D01*
X103395210Y-124025875D01*
X103324215Y-124025363D01*
X103264767Y-123986550D01*
X103235740Y-123921758D01*
X103236330Y-123883822D01*
X103258099Y-123754428D01*
X103258965Y-123744772D01*
X103258995Y-123742359D01*
X103258364Y-123732684D01*
X103240368Y-123607021D01*
X103240102Y-123606112D01*
X103240103Y-123605173D01*
X103239095Y-123598134D01*
X103240111Y-123597988D01*
X103240182Y-123535116D01*
X103278633Y-123475433D01*
X103343246Y-123446012D01*
X103398612Y-123450483D01*
X103437041Y-123462489D01*
X103454584Y-123465330D01*
X103577398Y-123467581D01*
X103595039Y-123465384D01*
X103713543Y-123433077D01*
X103729857Y-123426017D01*
X103755654Y-123410178D01*
X103765106Y-123399711D01*
X103761303Y-123390908D01*
X103434490Y-123064095D01*
X103400464Y-123001783D01*
X103402299Y-122976132D01*
X103709803Y-122976132D01*
X103709934Y-122977965D01*
X103714185Y-122984580D01*
X103938736Y-123209131D01*
X103951116Y-123215891D01*
X103956395Y-123211939D01*
X103994135Y-123134046D01*
X103999537Y-123117119D01*
X104020600Y-122991925D01*
X104021465Y-122982272D01*
X104021495Y-122979859D01*
X104020864Y-122970184D01*
X104002868Y-122844521D01*
X103997880Y-122827464D01*
X103959826Y-122743767D01*
X103950610Y-122733096D01*
X103944820Y-122734785D01*
X103717417Y-122962188D01*
X103709803Y-122976132D01*
X103402299Y-122976132D01*
X103405529Y-122930968D01*
X103434490Y-122885905D01*
X103758617Y-122561778D01*
X103765377Y-122549398D01*
X103759044Y-122540938D01*
X103740818Y-122529124D01*
X103724676Y-122521666D01*
X103606998Y-122486473D01*
X103589418Y-122483845D01*
X103466585Y-122483095D01*
X103448981Y-122485507D01*
X103395210Y-122500875D01*
X103324215Y-122500363D01*
X103264767Y-122461550D01*
X103235740Y-122396758D01*
X103236330Y-122358822D01*
X103258099Y-122229428D01*
X103258965Y-122219772D01*
X103258995Y-122217359D01*
X103258364Y-122207684D01*
X103240368Y-122082021D01*
X103235380Y-122064964D01*
X103197326Y-121981267D01*
X103188110Y-121970596D01*
X103182320Y-121972285D01*
X102851595Y-122303010D01*
X102789283Y-122337036D01*
X102718468Y-122331971D01*
X102673405Y-122303010D01*
X102348403Y-121978008D01*
X102336023Y-121971248D01*
X102330976Y-121975027D01*
X102291457Y-122059199D01*
X102286262Y-122076188D01*
X102267364Y-122197561D01*
X102267147Y-122215339D01*
X102283073Y-122337127D01*
X102285446Y-122345625D01*
X102284499Y-122416616D01*
X102245323Y-122475825D01*
X102180355Y-122504454D01*
X102127985Y-122500226D01*
X102081997Y-122486473D01*
X102064418Y-122483845D01*
X101941585Y-122483095D01*
X101923981Y-122485507D01*
X101870210Y-122500875D01*
X101799215Y-122500363D01*
X101739767Y-122461550D01*
X101710740Y-122396758D01*
X101711330Y-122358822D01*
X101733099Y-122229428D01*
X101733965Y-122219772D01*
X101733995Y-122217359D01*
X101733364Y-122207684D01*
X101715368Y-122082021D01*
X101710380Y-122064964D01*
X101672326Y-121981267D01*
X101663110Y-121970596D01*
X101657320Y-121972285D01*
X101326595Y-122303010D01*
X101264283Y-122337036D01*
X101193468Y-122331971D01*
X101148405Y-122303010D01*
X100823403Y-121978008D01*
X100811023Y-121971248D01*
X100805976Y-121975027D01*
X100766457Y-122059199D01*
X100761262Y-122076188D01*
X100742364Y-122197561D01*
X100742147Y-122215339D01*
X100758073Y-122337127D01*
X100760446Y-122345625D01*
X100759499Y-122416616D01*
X100720323Y-122475825D01*
X100655355Y-122504454D01*
X100602985Y-122500226D01*
X100556997Y-122486473D01*
X100539418Y-122483845D01*
X100416585Y-122483095D01*
X100398979Y-122485507D01*
X100280873Y-122519262D01*
X100264651Y-122526518D01*
X100244086Y-122539493D01*
X100234763Y-122550073D01*
X100238867Y-122559262D01*
X100565510Y-122885905D01*
X100599536Y-122948217D01*
X100594471Y-123019032D01*
X100565510Y-123064095D01*
X100241137Y-123388468D01*
X100234960Y-123399780D01*
X100244889Y-123412306D01*
X100253754Y-123418207D01*
X100269798Y-123425859D01*
X100387042Y-123462489D01*
X100404584Y-123465330D01*
X100527398Y-123467581D01*
X100545039Y-123465384D01*
X100605781Y-123448824D01*
X100676765Y-123450204D01*
X100735733Y-123489741D01*
X100763966Y-123554883D01*
X100760736Y-123592025D01*
X100762643Y-123592322D01*
X100742364Y-123722561D01*
X100742147Y-123740339D01*
X100758073Y-123862127D01*
X100760446Y-123870625D01*
X100759499Y-123941616D01*
X100720323Y-124000825D01*
X100655355Y-124029454D01*
X100602985Y-124025226D01*
X100556997Y-124011473D01*
X100539418Y-124008845D01*
X100416585Y-124008095D01*
X100398979Y-124010507D01*
X100280873Y-124044262D01*
X100264651Y-124051518D01*
X100244086Y-124064493D01*
X100234763Y-124075073D01*
X94563315Y-124075073D01*
X94608072Y-124052563D01*
X94608075Y-124052561D01*
X94614855Y-124049151D01*
X94620626Y-124044222D01*
X94620629Y-124044220D01*
X94729536Y-123951204D01*
X94729536Y-123951203D01*
X94735314Y-123946269D01*
X94827755Y-123817624D01*
X94886842Y-123670641D01*
X94903316Y-123554883D01*
X94908581Y-123517891D01*
X94908581Y-123517888D01*
X94909162Y-123513807D01*
X94909307Y-123500000D01*
X94890276Y-123342733D01*
X94834280Y-123194546D01*
X94812629Y-123163043D01*
X94748855Y-123070251D01*
X94748854Y-123070249D01*
X94744553Y-123063992D01*
X94647856Y-122977839D01*
X99979647Y-122977839D01*
X99995574Y-123099634D01*
X100000353Y-123116748D01*
X100039897Y-123206620D01*
X100048983Y-123217406D01*
X100054537Y-123215858D01*
X100282583Y-122987812D01*
X100290197Y-122973868D01*
X100290066Y-122972035D01*
X100285815Y-122965420D01*
X100060903Y-122740508D01*
X100048523Y-122733748D01*
X100043476Y-122737527D01*
X100003957Y-122821699D01*
X99998762Y-122838688D01*
X99979864Y-122960061D01*
X99979647Y-122977839D01*
X94647856Y-122977839D01*
X94626275Y-122958611D01*
X94618889Y-122954700D01*
X94492988Y-122888039D01*
X94492989Y-122888039D01*
X94486274Y-122884484D01*
X94332633Y-122845892D01*
X94325034Y-122845852D01*
X94325033Y-122845852D01*
X94259181Y-122845507D01*
X94174221Y-122845062D01*
X94166841Y-122846834D01*
X94166839Y-122846834D01*
X94027563Y-122880271D01*
X94027560Y-122880272D01*
X94020184Y-122882043D01*
X93879414Y-122954700D01*
X93760039Y-123058838D01*
X93755672Y-123065051D01*
X93755667Y-123065057D01*
X93754336Y-123066951D01*
X93753013Y-123068005D01*
X93750589Y-123070697D01*
X93750140Y-123070293D01*
X93698802Y-123111183D01*
X93651250Y-123120500D01*
X91803920Y-123120500D01*
X91779973Y-123117951D01*
X91778307Y-123117872D01*
X91768124Y-123115680D01*
X91757782Y-123116904D01*
X91757779Y-123116904D01*
X91734787Y-123119626D01*
X91728846Y-123119977D01*
X91728854Y-123120072D01*
X91723674Y-123120500D01*
X91718476Y-123120500D01*
X91713354Y-123121353D01*
X91713349Y-123121353D01*
X91699427Y-123123671D01*
X91693550Y-123124508D01*
X91687049Y-123125277D01*
X91652997Y-123129307D01*
X91652995Y-123129308D01*
X91642659Y-123130531D01*
X91634410Y-123134492D01*
X91625374Y-123135996D01*
X91616205Y-123140943D01*
X91616203Y-123140944D01*
X91580240Y-123160348D01*
X91574951Y-123163043D01*
X91535915Y-123181788D01*
X91528768Y-123185220D01*
X91524492Y-123188814D01*
X91522552Y-123190754D01*
X91520641Y-123192507D01*
X91520551Y-123192556D01*
X91520439Y-123192433D01*
X91519904Y-123192905D01*
X91514186Y-123195990D01*
X91507119Y-123203635D01*
X91477584Y-123235586D01*
X91474154Y-123239152D01*
X86879711Y-127833595D01*
X86817399Y-127867621D01*
X86790616Y-127870500D01*
X76099682Y-127870500D01*
X76031561Y-127850498D01*
X76005114Y-127824860D01*
X76003878Y-127825949D01*
X75998855Y-127820251D01*
X75994553Y-127813992D01*
X75876275Y-127708611D01*
X75868889Y-127704700D01*
X75742988Y-127638039D01*
X75742989Y-127638039D01*
X75736274Y-127634484D01*
X75582633Y-127595892D01*
X75575034Y-127595852D01*
X75575033Y-127595852D01*
X75509181Y-127595507D01*
X75424221Y-127595062D01*
X75416841Y-127596834D01*
X75416839Y-127596834D01*
X75277563Y-127630271D01*
X75277560Y-127630272D01*
X75270184Y-127632043D01*
X75129414Y-127704700D01*
X75010039Y-127808838D01*
X74918950Y-127938444D01*
X74861406Y-128086037D01*
X74860414Y-128093570D01*
X74860414Y-128093571D01*
X74842184Y-128232046D01*
X74840729Y-128243096D01*
X50254500Y-128243096D01*
X50254500Y-125574933D01*
X60495500Y-125574933D01*
X60495501Y-126925066D01*
X60510266Y-126999301D01*
X60566516Y-127083484D01*
X60650699Y-127139734D01*
X60724933Y-127154500D01*
X61524870Y-127154500D01*
X62325066Y-127154499D01*
X62360818Y-127147388D01*
X62387126Y-127142156D01*
X62387128Y-127142155D01*
X62399301Y-127139734D01*
X62409621Y-127132839D01*
X62409622Y-127132838D01*
X62473168Y-127090377D01*
X62483484Y-127083484D01*
X62539734Y-126999301D01*
X62554500Y-126925067D01*
X62554500Y-126755500D01*
X62574502Y-126687379D01*
X62628158Y-126640886D01*
X62680500Y-126629500D01*
X68319501Y-126629500D01*
X68387622Y-126649502D01*
X68434115Y-126703158D01*
X68445501Y-126755500D01*
X68445501Y-126925066D01*
X68460266Y-126999301D01*
X68516516Y-127083484D01*
X68600699Y-127139734D01*
X68674933Y-127154500D01*
X69474870Y-127154500D01*
X70275066Y-127154499D01*
X70310818Y-127147388D01*
X70337126Y-127142156D01*
X70337128Y-127142155D01*
X70349301Y-127139734D01*
X70359621Y-127132839D01*
X70359622Y-127132838D01*
X70423168Y-127090377D01*
X70433484Y-127083484D01*
X70489734Y-126999301D01*
X70504500Y-126925067D01*
X70504500Y-126755500D01*
X70524502Y-126687379D01*
X70578158Y-126640886D01*
X70630500Y-126629500D01*
X70650141Y-126629500D01*
X70718262Y-126649502D01*
X70745522Y-126673169D01*
X70746672Y-126674501D01*
X70750908Y-126680805D01*
X70868076Y-126787419D01*
X71007293Y-126863008D01*
X71160522Y-126903207D01*
X71244477Y-126904526D01*
X71311319Y-126905576D01*
X71311322Y-126905576D01*
X71318916Y-126905695D01*
X71473332Y-126870329D01*
X71595390Y-126808941D01*
X71608072Y-126802563D01*
X71608075Y-126802561D01*
X71614855Y-126799151D01*
X71620626Y-126794222D01*
X71620629Y-126794220D01*
X71729536Y-126701204D01*
X71729536Y-126701203D01*
X71735314Y-126696269D01*
X71827755Y-126567624D01*
X71886842Y-126420641D01*
X71894488Y-126366916D01*
X71908581Y-126267891D01*
X71908581Y-126267888D01*
X71909162Y-126263807D01*
X71909307Y-126250000D01*
X71890276Y-126092733D01*
X71834280Y-125944546D01*
X71783390Y-125870500D01*
X71748855Y-125820251D01*
X71748854Y-125820249D01*
X71744553Y-125813992D01*
X71626275Y-125708611D01*
X71618889Y-125704700D01*
X71492988Y-125638039D01*
X71492989Y-125638039D01*
X71486274Y-125634484D01*
X71332633Y-125595892D01*
X71325034Y-125595852D01*
X71325033Y-125595852D01*
X71259181Y-125595507D01*
X71174221Y-125595062D01*
X71166841Y-125596834D01*
X71166839Y-125596834D01*
X71027563Y-125630271D01*
X71027560Y-125630272D01*
X71020184Y-125632043D01*
X70879414Y-125704700D01*
X70760039Y-125808838D01*
X70755672Y-125815051D01*
X70755667Y-125815057D01*
X70754336Y-125816951D01*
X70753013Y-125818005D01*
X70750589Y-125820697D01*
X70750140Y-125820293D01*
X70698802Y-125861183D01*
X70651250Y-125870500D01*
X70630499Y-125870500D01*
X70562378Y-125850498D01*
X70515885Y-125796842D01*
X70504499Y-125744500D01*
X70504499Y-125574934D01*
X70489734Y-125500699D01*
X70456984Y-125451685D01*
X70440377Y-125426832D01*
X70433484Y-125416516D01*
X70349301Y-125360266D01*
X70275067Y-125345500D01*
X69475130Y-125345500D01*
X68674934Y-125345501D01*
X68639182Y-125352612D01*
X68612874Y-125357844D01*
X68612872Y-125357845D01*
X68600699Y-125360266D01*
X68590379Y-125367161D01*
X68590378Y-125367162D01*
X68534876Y-125404248D01*
X68516516Y-125416516D01*
X68460266Y-125500699D01*
X68445500Y-125574933D01*
X68445500Y-125744500D01*
X68425498Y-125812621D01*
X68371842Y-125859114D01*
X68319500Y-125870500D01*
X62680499Y-125870500D01*
X62612378Y-125850498D01*
X62565885Y-125796842D01*
X62554499Y-125744500D01*
X62554499Y-125574934D01*
X62539734Y-125500699D01*
X62506984Y-125451685D01*
X62490377Y-125426832D01*
X62483484Y-125416516D01*
X62399301Y-125360266D01*
X62325067Y-125345500D01*
X61525130Y-125345500D01*
X60724934Y-125345501D01*
X60689182Y-125352612D01*
X60662874Y-125357844D01*
X60662872Y-125357845D01*
X60650699Y-125360266D01*
X60640379Y-125367161D01*
X60640378Y-125367162D01*
X60584876Y-125404248D01*
X60566516Y-125416516D01*
X60510266Y-125500699D01*
X60495500Y-125574933D01*
X50254500Y-125574933D01*
X50254500Y-123418828D01*
X60496001Y-123418828D01*
X60497209Y-123431088D01*
X60508315Y-123486931D01*
X60517633Y-123509427D01*
X60559983Y-123572808D01*
X60577192Y-123590017D01*
X60640575Y-123632368D01*
X60663066Y-123641684D01*
X60718915Y-123652793D01*
X60731170Y-123654000D01*
X61379885Y-123654000D01*
X61395124Y-123649525D01*
X61396329Y-123648135D01*
X61398000Y-123640452D01*
X61398000Y-123635884D01*
X61652000Y-123635884D01*
X61656475Y-123651123D01*
X61657865Y-123652328D01*
X61665548Y-123653999D01*
X62318828Y-123653999D01*
X62331088Y-123652791D01*
X62386931Y-123641685D01*
X62409427Y-123632367D01*
X62472808Y-123590017D01*
X62490017Y-123572808D01*
X62532368Y-123509425D01*
X62541684Y-123486934D01*
X62552793Y-123431085D01*
X62554000Y-123418830D01*
X62554000Y-123418828D01*
X68446001Y-123418828D01*
X68447209Y-123431088D01*
X68458315Y-123486931D01*
X68467633Y-123509427D01*
X68509983Y-123572808D01*
X68527192Y-123590017D01*
X68590575Y-123632368D01*
X68613066Y-123641684D01*
X68668915Y-123652793D01*
X68681170Y-123654000D01*
X69329885Y-123654000D01*
X69345124Y-123649525D01*
X69346329Y-123648135D01*
X69348000Y-123640452D01*
X69348000Y-123635884D01*
X69602000Y-123635884D01*
X69606475Y-123651123D01*
X69607865Y-123652328D01*
X69615548Y-123653999D01*
X70268828Y-123653999D01*
X70281088Y-123652791D01*
X70336931Y-123641685D01*
X70359427Y-123632367D01*
X70422808Y-123590017D01*
X70440017Y-123572808D01*
X70482368Y-123509425D01*
X70491684Y-123486934D01*
X70502793Y-123431085D01*
X70504000Y-123418830D01*
X70504000Y-122895115D01*
X70499525Y-122879876D01*
X70498135Y-122878671D01*
X70490452Y-122877000D01*
X69620115Y-122877000D01*
X69604876Y-122881475D01*
X69603671Y-122882865D01*
X69602000Y-122890548D01*
X69602000Y-123635884D01*
X69348000Y-123635884D01*
X69348000Y-122895115D01*
X69343525Y-122879876D01*
X69342135Y-122878671D01*
X69334452Y-122877000D01*
X68464116Y-122877000D01*
X68448877Y-122881475D01*
X68447672Y-122882865D01*
X68446001Y-122890548D01*
X68446001Y-123418828D01*
X62554000Y-123418828D01*
X62554000Y-122895115D01*
X62549525Y-122879876D01*
X62548135Y-122878671D01*
X62540452Y-122877000D01*
X61670115Y-122877000D01*
X61654876Y-122881475D01*
X61653671Y-122882865D01*
X61652000Y-122890548D01*
X61652000Y-123635884D01*
X61398000Y-123635884D01*
X61398000Y-122895115D01*
X61393525Y-122879876D01*
X61392135Y-122878671D01*
X61384452Y-122877000D01*
X60514116Y-122877000D01*
X60498877Y-122881475D01*
X60497672Y-122882865D01*
X60496001Y-122890548D01*
X60496001Y-123418828D01*
X50254500Y-123418828D01*
X50254500Y-121149933D01*
X51145500Y-121149933D01*
X51145501Y-122900066D01*
X51151647Y-122930968D01*
X51157434Y-122960061D01*
X51160266Y-122974301D01*
X51216516Y-123058484D01*
X51300699Y-123114734D01*
X51374933Y-123129500D01*
X52249858Y-123129500D01*
X53125066Y-123129499D01*
X53160818Y-123122388D01*
X53187126Y-123117156D01*
X53187128Y-123117155D01*
X53199301Y-123114734D01*
X53209621Y-123107839D01*
X53209622Y-123107838D01*
X53273168Y-123065377D01*
X53283484Y-123058484D01*
X53339734Y-122974301D01*
X53354500Y-122900067D01*
X53354500Y-122604885D01*
X60496000Y-122604885D01*
X60500475Y-122620124D01*
X60501865Y-122621329D01*
X60509548Y-122623000D01*
X61379885Y-122623000D01*
X61395124Y-122618525D01*
X61396329Y-122617135D01*
X61398000Y-122609452D01*
X61398000Y-122604885D01*
X61652000Y-122604885D01*
X61656475Y-122620124D01*
X61657865Y-122621329D01*
X61665548Y-122623000D01*
X62535884Y-122623000D01*
X62551123Y-122618525D01*
X62552328Y-122617135D01*
X62553999Y-122609452D01*
X62553999Y-122604885D01*
X68446000Y-122604885D01*
X68450475Y-122620124D01*
X68451865Y-122621329D01*
X68459548Y-122623000D01*
X69329885Y-122623000D01*
X69345124Y-122618525D01*
X69346329Y-122617135D01*
X69348000Y-122609452D01*
X69348000Y-122604885D01*
X69602000Y-122604885D01*
X69606475Y-122620124D01*
X69607865Y-122621329D01*
X69615548Y-122623000D01*
X70485884Y-122623000D01*
X70501123Y-122618525D01*
X70502328Y-122617135D01*
X70503999Y-122609452D01*
X70503999Y-122081172D01*
X70502791Y-122068912D01*
X70491685Y-122013069D01*
X70482367Y-121990573D01*
X70440017Y-121927192D01*
X70422808Y-121909983D01*
X70359425Y-121867632D01*
X70336934Y-121858316D01*
X70281085Y-121847207D01*
X70268830Y-121846000D01*
X69620115Y-121846000D01*
X69604876Y-121850475D01*
X69603671Y-121851865D01*
X69602000Y-121859548D01*
X69602000Y-122604885D01*
X69348000Y-122604885D01*
X69348000Y-121864116D01*
X69343525Y-121848877D01*
X69342135Y-121847672D01*
X69334452Y-121846001D01*
X68681172Y-121846001D01*
X68668912Y-121847209D01*
X68613069Y-121858315D01*
X68590573Y-121867633D01*
X68527192Y-121909983D01*
X68509983Y-121927192D01*
X68467632Y-121990575D01*
X68458316Y-122013066D01*
X68447207Y-122068915D01*
X68446000Y-122081170D01*
X68446000Y-122604885D01*
X62553999Y-122604885D01*
X62553999Y-122081172D01*
X62552791Y-122068912D01*
X62541685Y-122013069D01*
X62532367Y-121990573D01*
X62490017Y-121927192D01*
X62472808Y-121909983D01*
X62409425Y-121867632D01*
X62386934Y-121858316D01*
X62331085Y-121847207D01*
X62318830Y-121846000D01*
X61670115Y-121846000D01*
X61654876Y-121850475D01*
X61653671Y-121851865D01*
X61652000Y-121859548D01*
X61652000Y-122604885D01*
X61398000Y-122604885D01*
X61398000Y-121864116D01*
X61393525Y-121848877D01*
X61392135Y-121847672D01*
X61384452Y-121846001D01*
X60731172Y-121846001D01*
X60718912Y-121847209D01*
X60663069Y-121858315D01*
X60640573Y-121867633D01*
X60577192Y-121909983D01*
X60559983Y-121927192D01*
X60517632Y-121990575D01*
X60508316Y-122013066D01*
X60497207Y-122068915D01*
X60496000Y-122081170D01*
X60496000Y-122604885D01*
X53354500Y-122604885D01*
X53354499Y-121787573D01*
X100997263Y-121787573D01*
X101001367Y-121796762D01*
X101224688Y-122020083D01*
X101238632Y-122027697D01*
X101240465Y-122027566D01*
X101247080Y-122023315D01*
X101471117Y-121799278D01*
X101477508Y-121787573D01*
X102522263Y-121787573D01*
X102526367Y-121796762D01*
X102749688Y-122020083D01*
X102763632Y-122027697D01*
X102765465Y-122027566D01*
X102772080Y-122023315D01*
X102996117Y-121799278D01*
X103002877Y-121786898D01*
X102996544Y-121778438D01*
X102978318Y-121766624D01*
X102962176Y-121759166D01*
X102844498Y-121723973D01*
X102826918Y-121721345D01*
X102704085Y-121720595D01*
X102686479Y-121723007D01*
X102568373Y-121756762D01*
X102552151Y-121764018D01*
X102531586Y-121776993D01*
X102522263Y-121787573D01*
X101477508Y-121787573D01*
X101477877Y-121786898D01*
X101471544Y-121778438D01*
X101453318Y-121766624D01*
X101437176Y-121759166D01*
X101319498Y-121723973D01*
X101301918Y-121721345D01*
X101179085Y-121720595D01*
X101161479Y-121723007D01*
X101043373Y-121756762D01*
X101027151Y-121764018D01*
X101006586Y-121776993D01*
X100997263Y-121787573D01*
X53354499Y-121787573D01*
X53354499Y-121149934D01*
X53339734Y-121075699D01*
X53283484Y-120991516D01*
X53199301Y-120935266D01*
X53125067Y-120920500D01*
X52250142Y-120920500D01*
X51374934Y-120920501D01*
X51339182Y-120927612D01*
X51312874Y-120932844D01*
X51312872Y-120932845D01*
X51300699Y-120935266D01*
X51290379Y-120942161D01*
X51290378Y-120942162D01*
X51229985Y-120982516D01*
X51216516Y-120991516D01*
X51160266Y-121075699D01*
X51145500Y-121149933D01*
X50254500Y-121149933D01*
X50254500Y-119455964D01*
X51141148Y-119455964D01*
X51154424Y-119658522D01*
X51155845Y-119664118D01*
X51155846Y-119664123D01*
X51201208Y-119842733D01*
X51204392Y-119855269D01*
X51206809Y-119860512D01*
X51244010Y-119941208D01*
X51289377Y-120039616D01*
X51406533Y-120205389D01*
X51551938Y-120347035D01*
X51720720Y-120459812D01*
X51726023Y-120462090D01*
X51726026Y-120462092D01*
X51901921Y-120537662D01*
X51907228Y-120539942D01*
X51963005Y-120552563D01*
X52099579Y-120583467D01*
X52099584Y-120583468D01*
X52105216Y-120584742D01*
X52110987Y-120584969D01*
X52110989Y-120584969D01*
X52170756Y-120587317D01*
X52308053Y-120592712D01*
X52408499Y-120578148D01*
X52503231Y-120564413D01*
X52503236Y-120564412D01*
X52508945Y-120563584D01*
X52514409Y-120561729D01*
X52514414Y-120561728D01*
X52695693Y-120500192D01*
X52695698Y-120500190D01*
X52701165Y-120498334D01*
X52878276Y-120399147D01*
X52940934Y-120347035D01*
X53029913Y-120273031D01*
X53034345Y-120269345D01*
X53122696Y-120163115D01*
X53160453Y-120117718D01*
X53160455Y-120117715D01*
X53164147Y-120113276D01*
X53235668Y-119985567D01*
X53260510Y-119941208D01*
X53260511Y-119941206D01*
X53263334Y-119936165D01*
X53265190Y-119930698D01*
X53265192Y-119930693D01*
X53326728Y-119749414D01*
X53326729Y-119749409D01*
X53328584Y-119743945D01*
X53329412Y-119738236D01*
X53329413Y-119738231D01*
X53357179Y-119546727D01*
X53357712Y-119543053D01*
X53359232Y-119485000D01*
X53340658Y-119282859D01*
X53335285Y-119263807D01*
X53287125Y-119093046D01*
X53287124Y-119093044D01*
X53285557Y-119087487D01*
X53281351Y-119078957D01*
X53198331Y-118910609D01*
X53195776Y-118905428D01*
X53074320Y-118742779D01*
X52925258Y-118604987D01*
X52920375Y-118601906D01*
X52920371Y-118601903D01*
X52758464Y-118499748D01*
X52753581Y-118496667D01*
X52565039Y-118421446D01*
X52559379Y-118420320D01*
X52559375Y-118420319D01*
X52371613Y-118382971D01*
X52371610Y-118382971D01*
X52365946Y-118381844D01*
X52360171Y-118381768D01*
X52360167Y-118381768D01*
X52258793Y-118380441D01*
X52162971Y-118379187D01*
X52157274Y-118380166D01*
X52157273Y-118380166D01*
X51968607Y-118412585D01*
X51962910Y-118413564D01*
X51772463Y-118483824D01*
X51598010Y-118587612D01*
X51593670Y-118591418D01*
X51593666Y-118591421D01*
X51460038Y-118708611D01*
X51445392Y-118721455D01*
X51319720Y-118880869D01*
X51317031Y-118885980D01*
X51317029Y-118885983D01*
X51269128Y-118977027D01*
X51225203Y-119060515D01*
X51165007Y-119254378D01*
X51141148Y-119455964D01*
X50254500Y-119455964D01*
X50254500Y-117087602D01*
X51152899Y-117087602D01*
X51154542Y-117112676D01*
X51156343Y-117124046D01*
X51203443Y-117309502D01*
X51207284Y-117320348D01*
X51287394Y-117494120D01*
X51293145Y-117504081D01*
X51403579Y-117660343D01*
X51411057Y-117669098D01*
X51548114Y-117802612D01*
X51557058Y-117809855D01*
X51716156Y-117916161D01*
X51726266Y-117921651D01*
X51902077Y-117997185D01*
X51913020Y-118000740D01*
X52099647Y-118042970D01*
X52106383Y-118043857D01*
X52120302Y-118040357D01*
X52120658Y-118039978D01*
X52123000Y-118030144D01*
X52123000Y-118024095D01*
X52377000Y-118024095D01*
X52380966Y-118037601D01*
X52394966Y-118039605D01*
X52503106Y-118023926D01*
X52514302Y-118021238D01*
X52695497Y-117959730D01*
X52705994Y-117955056D01*
X52872958Y-117861552D01*
X52882430Y-117855042D01*
X53029553Y-117732682D01*
X53037682Y-117724553D01*
X53160042Y-117577430D01*
X53161758Y-117574933D01*
X60495500Y-117574933D01*
X60495501Y-118925066D01*
X60510266Y-118999301D01*
X60566516Y-119083484D01*
X60650699Y-119139734D01*
X60724933Y-119154500D01*
X61524870Y-119154500D01*
X62325066Y-119154499D01*
X62360818Y-119147388D01*
X62387126Y-119142156D01*
X62387128Y-119142155D01*
X62399301Y-119139734D01*
X62409621Y-119132839D01*
X62409622Y-119132838D01*
X62473168Y-119090377D01*
X62483484Y-119083484D01*
X62539734Y-118999301D01*
X62554500Y-118925067D01*
X62554500Y-118755500D01*
X62574502Y-118687379D01*
X62628158Y-118640886D01*
X62680500Y-118629500D01*
X68319501Y-118629500D01*
X68387622Y-118649502D01*
X68434115Y-118703158D01*
X68445501Y-118755500D01*
X68445501Y-118925066D01*
X68460266Y-118999301D01*
X68516516Y-119083484D01*
X68600699Y-119139734D01*
X68674933Y-119154500D01*
X69066452Y-119154500D01*
X69134573Y-119174502D01*
X69159859Y-119196746D01*
X69160219Y-119196416D01*
X69162071Y-119198435D01*
X69163814Y-119200508D01*
X69165736Y-119202430D01*
X69167509Y-119204363D01*
X69167552Y-119204442D01*
X69167428Y-119204555D01*
X69167904Y-119205095D01*
X69170990Y-119210814D01*
X69178635Y-119217881D01*
X69210586Y-119247416D01*
X69214152Y-119250846D01*
X69810249Y-119846943D01*
X69844275Y-119909255D01*
X69846076Y-119952482D01*
X69840729Y-119993096D01*
X69858113Y-120150553D01*
X69860723Y-120157684D01*
X69860723Y-120157686D01*
X69876453Y-120200669D01*
X69912553Y-120299319D01*
X69916789Y-120305622D01*
X69916789Y-120305623D01*
X69979635Y-120399147D01*
X70000908Y-120430805D01*
X70006527Y-120435918D01*
X70006528Y-120435919D01*
X70032786Y-120459812D01*
X70118076Y-120537419D01*
X70257293Y-120613008D01*
X70410522Y-120653207D01*
X70494477Y-120654526D01*
X70561319Y-120655576D01*
X70561322Y-120655576D01*
X70568916Y-120655695D01*
X70723332Y-120620329D01*
X70834510Y-120564413D01*
X70858072Y-120552563D01*
X70858075Y-120552561D01*
X70864855Y-120549151D01*
X70870626Y-120544222D01*
X70870629Y-120544220D01*
X70979536Y-120451204D01*
X70979536Y-120451203D01*
X70985314Y-120446269D01*
X71077755Y-120317624D01*
X71136842Y-120170641D01*
X71155489Y-120039616D01*
X71158581Y-120017891D01*
X71158581Y-120017888D01*
X71159162Y-120013807D01*
X71159307Y-120000000D01*
X71157561Y-119985567D01*
X71153557Y-119952485D01*
X71140276Y-119842733D01*
X71084280Y-119694546D01*
X71063371Y-119664123D01*
X70998855Y-119570251D01*
X70998854Y-119570249D01*
X70994553Y-119563992D01*
X70966889Y-119539344D01*
X70906027Y-119485119D01*
X70876275Y-119458611D01*
X70736274Y-119384484D01*
X70582633Y-119345892D01*
X70575034Y-119345852D01*
X70575033Y-119345852D01*
X70500084Y-119345459D01*
X70456456Y-119345231D01*
X70388441Y-119324873D01*
X70342230Y-119270974D01*
X70332494Y-119200648D01*
X70362325Y-119136223D01*
X70387111Y-119114470D01*
X70433484Y-119083484D01*
X70489734Y-118999301D01*
X70504500Y-118925067D01*
X70504499Y-117574934D01*
X70489734Y-117500699D01*
X70433484Y-117416516D01*
X70349301Y-117360266D01*
X70275067Y-117345500D01*
X69475130Y-117345500D01*
X68674934Y-117345501D01*
X68639182Y-117352612D01*
X68612874Y-117357844D01*
X68612872Y-117357845D01*
X68600699Y-117360266D01*
X68590379Y-117367161D01*
X68590378Y-117367162D01*
X68541979Y-117399502D01*
X68516516Y-117416516D01*
X68460266Y-117500699D01*
X68445500Y-117574933D01*
X68445500Y-117744500D01*
X68425498Y-117812621D01*
X68371842Y-117859114D01*
X68319500Y-117870500D01*
X62680499Y-117870500D01*
X62612378Y-117850498D01*
X62565885Y-117796842D01*
X62554499Y-117744500D01*
X62554499Y-117574934D01*
X62539734Y-117500699D01*
X62483484Y-117416516D01*
X62399301Y-117360266D01*
X62325067Y-117345500D01*
X61525130Y-117345500D01*
X60724934Y-117345501D01*
X60689182Y-117352612D01*
X60662874Y-117357844D01*
X60662872Y-117357845D01*
X60650699Y-117360266D01*
X60640379Y-117367161D01*
X60640378Y-117367162D01*
X60591979Y-117399502D01*
X60566516Y-117416516D01*
X60510266Y-117500699D01*
X60495500Y-117574933D01*
X53161758Y-117574933D01*
X53166552Y-117567958D01*
X53260056Y-117400994D01*
X53264730Y-117390497D01*
X53326238Y-117209302D01*
X53328926Y-117198106D01*
X53344610Y-117089929D01*
X53342624Y-117075993D01*
X53329056Y-117072000D01*
X52395115Y-117072000D01*
X52379876Y-117076475D01*
X52378671Y-117077865D01*
X52377000Y-117085548D01*
X52377000Y-118024095D01*
X52123000Y-118024095D01*
X52123000Y-117090115D01*
X52118525Y-117074876D01*
X52117135Y-117073671D01*
X52109452Y-117072000D01*
X51169991Y-117072000D01*
X51154951Y-117076416D01*
X51152899Y-117087602D01*
X50254500Y-117087602D01*
X50254500Y-116800012D01*
X51155375Y-116800012D01*
X51157817Y-116814431D01*
X51170559Y-116818000D01*
X52104885Y-116818000D01*
X52120124Y-116813525D01*
X52121329Y-116812135D01*
X52123000Y-116804452D01*
X52123000Y-116799885D01*
X52377000Y-116799885D01*
X52381475Y-116815124D01*
X52382865Y-116816329D01*
X52390548Y-116818000D01*
X53328945Y-116818000D01*
X53343490Y-116813729D01*
X53345553Y-116801595D01*
X53340693Y-116748707D01*
X53338595Y-116737386D01*
X53286658Y-116553231D01*
X53282533Y-116542484D01*
X53197903Y-116370871D01*
X53191893Y-116361063D01*
X53077400Y-116207739D01*
X53069710Y-116199199D01*
X52929192Y-116069304D01*
X52920067Y-116062303D01*
X52758236Y-115960195D01*
X52747989Y-115954974D01*
X52570260Y-115884068D01*
X52559232Y-115880801D01*
X52394769Y-115848088D01*
X52381894Y-115849240D01*
X52377000Y-115864396D01*
X52377000Y-116799885D01*
X52123000Y-116799885D01*
X52123000Y-115864678D01*
X52119194Y-115851716D01*
X52104278Y-115849780D01*
X51968737Y-115873070D01*
X51957617Y-115876050D01*
X51778095Y-115942279D01*
X51767717Y-115947229D01*
X51603273Y-116045063D01*
X51593961Y-116051829D01*
X51450097Y-116177994D01*
X51442180Y-116186337D01*
X51323718Y-116336605D01*
X51317450Y-116346256D01*
X51228360Y-116515589D01*
X51223951Y-116526232D01*
X51167210Y-116708967D01*
X51164820Y-116720211D01*
X51155375Y-116800012D01*
X50254500Y-116800012D01*
X50254500Y-113932473D01*
X66243372Y-113932473D01*
X66248131Y-114108346D01*
X66293221Y-114278408D01*
X66376226Y-114433534D01*
X66381075Y-114439024D01*
X66381076Y-114439026D01*
X66425860Y-114489734D01*
X66492690Y-114565405D01*
X66498667Y-114569629D01*
X66498668Y-114569630D01*
X66521309Y-114585631D01*
X66636369Y-114666947D01*
X66643156Y-114669682D01*
X66643159Y-114669684D01*
X66700872Y-114692943D01*
X66799552Y-114732713D01*
X66806789Y-114733814D01*
X66966255Y-114758074D01*
X66966259Y-114758074D01*
X66973489Y-114759174D01*
X66980780Y-114758581D01*
X66980783Y-114758581D01*
X67141547Y-114745504D01*
X67141549Y-114745504D01*
X67148847Y-114744910D01*
X67154447Y-114743096D01*
X82340729Y-114743096D01*
X82358113Y-114900553D01*
X82360723Y-114907684D01*
X82360723Y-114907686D01*
X82378857Y-114957238D01*
X82412553Y-115049319D01*
X82500908Y-115180805D01*
X82506525Y-115185916D01*
X82506528Y-115185919D01*
X82517903Y-115196269D01*
X82618076Y-115287419D01*
X82757293Y-115363008D01*
X82910522Y-115403207D01*
X82994477Y-115404526D01*
X83061319Y-115405576D01*
X83061322Y-115405576D01*
X83068916Y-115405695D01*
X83223332Y-115370329D01*
X83293742Y-115334917D01*
X83358072Y-115302563D01*
X83358075Y-115302561D01*
X83364855Y-115299151D01*
X83370626Y-115294222D01*
X83370629Y-115294220D01*
X83479542Y-115201199D01*
X83479543Y-115201198D01*
X83485314Y-115196269D01*
X83495586Y-115181974D01*
X83551581Y-115138326D01*
X83597909Y-115129500D01*
X90400141Y-115129500D01*
X90468262Y-115149502D01*
X90495522Y-115173169D01*
X90496671Y-115174500D01*
X90500908Y-115180805D01*
X90618076Y-115287419D01*
X90757293Y-115363008D01*
X90910522Y-115403207D01*
X90994477Y-115404526D01*
X91061319Y-115405576D01*
X91061322Y-115405576D01*
X91068916Y-115405695D01*
X91223332Y-115370329D01*
X91293742Y-115334917D01*
X91358072Y-115302563D01*
X91358075Y-115302561D01*
X91364855Y-115299151D01*
X91370626Y-115294222D01*
X91370629Y-115294220D01*
X91479536Y-115201204D01*
X91479536Y-115201203D01*
X91485314Y-115196269D01*
X91577755Y-115067624D01*
X91636842Y-114920641D01*
X91659162Y-114763807D01*
X91659307Y-114750000D01*
X91640276Y-114592733D01*
X91584280Y-114444546D01*
X91528241Y-114363008D01*
X91498855Y-114320251D01*
X91498854Y-114320249D01*
X91494553Y-114313992D01*
X91376275Y-114208611D01*
X91368889Y-114204700D01*
X91323759Y-114180805D01*
X91236274Y-114134484D01*
X91082633Y-114095892D01*
X91075034Y-114095852D01*
X91075033Y-114095852D01*
X91009181Y-114095507D01*
X90924221Y-114095062D01*
X90916841Y-114096834D01*
X90916839Y-114096834D01*
X90777563Y-114130271D01*
X90777560Y-114130272D01*
X90770184Y-114132043D01*
X90629414Y-114204700D01*
X90510039Y-114308838D01*
X90505672Y-114315051D01*
X90505667Y-114315057D01*
X90504336Y-114316951D01*
X90503013Y-114318005D01*
X90500589Y-114320697D01*
X90500140Y-114320293D01*
X90448802Y-114361183D01*
X90401250Y-114370500D01*
X85105812Y-114370500D01*
X85037691Y-114350498D01*
X84991198Y-114296842D01*
X84981094Y-114226568D01*
X85003489Y-114170976D01*
X85077755Y-114067624D01*
X85136842Y-113920641D01*
X85159162Y-113763807D01*
X85159307Y-113750000D01*
X85153437Y-113701496D01*
X85165109Y-113631468D01*
X85189429Y-113597265D01*
X86620289Y-112166405D01*
X86682601Y-112132379D01*
X86709384Y-112129500D01*
X94650141Y-112129500D01*
X94718262Y-112149502D01*
X94745522Y-112173169D01*
X94746672Y-112174501D01*
X94750908Y-112180805D01*
X94868076Y-112287419D01*
X95007293Y-112363008D01*
X95160522Y-112403207D01*
X95244477Y-112404526D01*
X95311319Y-112405576D01*
X95311322Y-112405576D01*
X95318916Y-112405695D01*
X95473332Y-112370329D01*
X95543742Y-112334917D01*
X95608072Y-112302563D01*
X95608075Y-112302561D01*
X95614855Y-112299151D01*
X95620626Y-112294222D01*
X95620629Y-112294220D01*
X95729536Y-112201204D01*
X95729536Y-112201203D01*
X95735314Y-112196269D01*
X95827755Y-112067624D01*
X95886842Y-111920641D01*
X95899189Y-111833885D01*
X95908581Y-111767891D01*
X95908581Y-111767888D01*
X95909162Y-111763807D01*
X95909231Y-111757265D01*
X95909264Y-111754134D01*
X95909264Y-111754128D01*
X95909307Y-111750000D01*
X95890276Y-111592733D01*
X95834280Y-111444546D01*
X95798856Y-111393003D01*
X95748855Y-111320251D01*
X95748854Y-111320249D01*
X95744553Y-111313992D01*
X95626275Y-111208611D01*
X95618889Y-111204700D01*
X95492988Y-111138039D01*
X95492989Y-111138039D01*
X95486274Y-111134484D01*
X95332633Y-111095892D01*
X95325034Y-111095852D01*
X95325033Y-111095852D01*
X95259181Y-111095507D01*
X95174221Y-111095062D01*
X95166841Y-111096834D01*
X95166839Y-111096834D01*
X95027563Y-111130271D01*
X95027560Y-111130272D01*
X95020184Y-111132043D01*
X94879414Y-111204700D01*
X94760039Y-111308838D01*
X94755672Y-111315051D01*
X94755667Y-111315057D01*
X94754336Y-111316951D01*
X94753013Y-111318005D01*
X94750589Y-111320697D01*
X94750140Y-111320293D01*
X94698802Y-111361183D01*
X94651250Y-111370500D01*
X86553920Y-111370500D01*
X86529972Y-111367951D01*
X86528307Y-111367872D01*
X86518124Y-111365680D01*
X86507783Y-111366904D01*
X86484777Y-111369627D01*
X86478846Y-111369977D01*
X86478854Y-111370072D01*
X86473676Y-111370500D01*
X86468476Y-111370500D01*
X86463347Y-111371354D01*
X86463344Y-111371354D01*
X86449435Y-111373669D01*
X86443557Y-111374506D01*
X86402999Y-111379306D01*
X86402998Y-111379306D01*
X86392659Y-111380530D01*
X86384407Y-111384493D01*
X86375374Y-111385996D01*
X86366205Y-111390943D01*
X86366203Y-111390944D01*
X86330268Y-111410334D01*
X86324975Y-111413031D01*
X86285918Y-111431785D01*
X86285914Y-111431788D01*
X86278768Y-111435219D01*
X86274492Y-111438814D01*
X86272569Y-111440737D01*
X86270637Y-111442509D01*
X86270558Y-111442552D01*
X86270445Y-111442428D01*
X86269905Y-111442904D01*
X86264186Y-111445990D01*
X86257119Y-111453635D01*
X86227584Y-111485586D01*
X86224154Y-111489152D01*
X84654411Y-113058895D01*
X84592099Y-113092921D01*
X84564658Y-113095798D01*
X84424221Y-113095062D01*
X84416841Y-113096834D01*
X84416839Y-113096834D01*
X84277563Y-113130271D01*
X84277560Y-113130272D01*
X84270184Y-113132043D01*
X84129414Y-113204700D01*
X84010039Y-113308838D01*
X83918950Y-113438444D01*
X83895871Y-113497638D01*
X83864634Y-113577758D01*
X83861406Y-113586037D01*
X83860414Y-113593570D01*
X83860414Y-113593571D01*
X83850524Y-113668697D01*
X83840729Y-113743096D01*
X83843844Y-113771307D01*
X83857228Y-113892534D01*
X83858113Y-113900553D01*
X83860723Y-113907684D01*
X83860723Y-113907686D01*
X83897435Y-114008006D01*
X83912553Y-114049319D01*
X83916788Y-114055622D01*
X83916792Y-114055629D01*
X83996485Y-114174224D01*
X84017878Y-114241921D01*
X83999274Y-114310437D01*
X83946581Y-114358018D01*
X83891904Y-114370500D01*
X83599682Y-114370500D01*
X83531561Y-114350498D01*
X83505114Y-114324860D01*
X83503878Y-114325949D01*
X83498855Y-114320251D01*
X83494553Y-114313992D01*
X83376275Y-114208611D01*
X83368889Y-114204700D01*
X83323759Y-114180805D01*
X83236274Y-114134484D01*
X83082633Y-114095892D01*
X83075034Y-114095852D01*
X83075033Y-114095852D01*
X83009181Y-114095507D01*
X82924221Y-114095062D01*
X82916841Y-114096834D01*
X82916839Y-114096834D01*
X82777563Y-114130271D01*
X82777560Y-114130272D01*
X82770184Y-114132043D01*
X82629414Y-114204700D01*
X82510039Y-114308838D01*
X82418950Y-114438444D01*
X82393196Y-114504499D01*
X82367803Y-114569630D01*
X82361406Y-114586037D01*
X82360414Y-114593570D01*
X82360414Y-114593571D01*
X82342096Y-114732713D01*
X82340729Y-114743096D01*
X67154447Y-114743096D01*
X67194946Y-114729976D01*
X67309262Y-114692943D01*
X67309264Y-114692942D01*
X67316222Y-114690688D01*
X67466633Y-114599417D01*
X67474974Y-114592051D01*
X67986303Y-114080721D01*
X68000717Y-114068334D01*
X68012172Y-114059904D01*
X68018071Y-114055563D01*
X68052088Y-114015522D01*
X68059018Y-114008006D01*
X68064662Y-114002362D01*
X68082194Y-113980202D01*
X68084970Y-113976816D01*
X68127243Y-113927058D01*
X68131982Y-113921480D01*
X68135311Y-113914960D01*
X68138631Y-113909982D01*
X68141764Y-113904909D01*
X68146307Y-113899167D01*
X68177053Y-113833383D01*
X68178984Y-113829433D01*
X68208664Y-113771307D01*
X68211993Y-113764788D01*
X68213733Y-113757678D01*
X68215823Y-113752058D01*
X68217703Y-113746407D01*
X68220801Y-113739778D01*
X68235587Y-113668686D01*
X68236556Y-113664405D01*
X68252113Y-113600833D01*
X68253811Y-113593892D01*
X68254299Y-113586037D01*
X68254500Y-113582786D01*
X68254534Y-113582788D01*
X68254777Y-113578730D01*
X68255137Y-113574694D01*
X68256628Y-113567527D01*
X68254546Y-113490568D01*
X68254500Y-113487161D01*
X68254500Y-106955947D01*
X68239262Y-106825246D01*
X68179232Y-106659866D01*
X68082766Y-106512732D01*
X67955040Y-106391736D01*
X67802904Y-106303368D01*
X67634520Y-106252370D01*
X67458920Y-106241476D01*
X67451704Y-106242716D01*
X67451702Y-106242716D01*
X67292738Y-106270031D01*
X67292736Y-106270032D01*
X67285523Y-106271271D01*
X67123632Y-106340156D01*
X66981929Y-106444437D01*
X66868018Y-106578520D01*
X66864690Y-106585038D01*
X66791334Y-106728695D01*
X66791332Y-106728700D01*
X66788007Y-106735212D01*
X66746189Y-106906108D01*
X66745500Y-106917214D01*
X66745500Y-113135286D01*
X66725498Y-113203407D01*
X66708595Y-113224381D01*
X66435338Y-113497638D01*
X66353693Y-113600833D01*
X66350595Y-113607462D01*
X66350593Y-113607465D01*
X66321975Y-113668697D01*
X66279199Y-113760222D01*
X66277709Y-113767386D01*
X66248528Y-113907686D01*
X66243372Y-113932473D01*
X50254500Y-113932473D01*
X50254500Y-111243096D01*
X53840729Y-111243096D01*
X53841563Y-111250646D01*
X53856685Y-111387615D01*
X53858113Y-111400553D01*
X53860723Y-111407684D01*
X53860723Y-111407686D01*
X53898262Y-111510266D01*
X53912553Y-111549319D01*
X53916789Y-111555622D01*
X53916789Y-111555623D01*
X53988858Y-111662872D01*
X54000908Y-111680805D01*
X54006527Y-111685918D01*
X54006528Y-111685919D01*
X54094033Y-111765542D01*
X54118076Y-111787419D01*
X54257293Y-111863008D01*
X54410522Y-111903207D01*
X54494477Y-111904526D01*
X54561319Y-111905576D01*
X54561322Y-111905576D01*
X54568916Y-111905695D01*
X54723332Y-111870329D01*
X54793742Y-111834917D01*
X54858072Y-111802563D01*
X54858075Y-111802561D01*
X54864855Y-111799151D01*
X54870626Y-111794222D01*
X54870629Y-111794220D01*
X54979542Y-111701199D01*
X54979543Y-111701198D01*
X54985314Y-111696269D01*
X54989745Y-111690103D01*
X55013911Y-111656473D01*
X55069906Y-111612826D01*
X55116233Y-111604000D01*
X55650141Y-111604000D01*
X55718262Y-111624002D01*
X55745522Y-111647669D01*
X55746672Y-111649001D01*
X55750908Y-111655305D01*
X55868076Y-111761919D01*
X56007293Y-111837508D01*
X56160522Y-111877707D01*
X56244477Y-111879026D01*
X56311319Y-111880076D01*
X56311322Y-111880076D01*
X56318916Y-111880195D01*
X56473332Y-111844829D01*
X56543742Y-111809417D01*
X56608072Y-111777063D01*
X56608075Y-111777061D01*
X56614855Y-111773651D01*
X56620626Y-111768722D01*
X56620629Y-111768720D01*
X56729536Y-111675704D01*
X56729536Y-111675703D01*
X56735314Y-111670769D01*
X56827755Y-111542124D01*
X56886842Y-111395141D01*
X56907406Y-111250646D01*
X56908581Y-111242391D01*
X56908581Y-111242388D01*
X56909162Y-111238307D01*
X56909307Y-111224500D01*
X56890276Y-111067233D01*
X56834280Y-110919046D01*
X56783390Y-110845000D01*
X56748855Y-110794751D01*
X56748854Y-110794749D01*
X56744553Y-110788492D01*
X56626275Y-110683111D01*
X56618889Y-110679200D01*
X56492988Y-110612539D01*
X56492989Y-110612539D01*
X56486274Y-110608984D01*
X56332633Y-110570392D01*
X56325034Y-110570352D01*
X56325033Y-110570352D01*
X56259181Y-110570007D01*
X56174221Y-110569562D01*
X56166841Y-110571334D01*
X56166839Y-110571334D01*
X56027563Y-110604771D01*
X56027560Y-110604772D01*
X56020184Y-110606543D01*
X55879414Y-110679200D01*
X55760039Y-110783338D01*
X55755672Y-110789551D01*
X55755667Y-110789557D01*
X55754336Y-110791451D01*
X55753013Y-110792505D01*
X55750589Y-110795197D01*
X55750140Y-110794793D01*
X55698802Y-110835683D01*
X55651250Y-110845000D01*
X55077345Y-110845000D01*
X55009224Y-110824998D01*
X54993526Y-110813077D01*
X54969253Y-110791451D01*
X54876275Y-110708611D01*
X54868889Y-110704700D01*
X54821398Y-110679555D01*
X54736274Y-110634484D01*
X54582633Y-110595892D01*
X54575034Y-110595852D01*
X54575033Y-110595852D01*
X54509181Y-110595507D01*
X54424221Y-110595062D01*
X54416841Y-110596834D01*
X54416839Y-110596834D01*
X54277563Y-110630271D01*
X54277560Y-110630272D01*
X54270184Y-110632043D01*
X54129414Y-110704700D01*
X54010039Y-110808838D01*
X53918950Y-110938444D01*
X53916190Y-110945524D01*
X53865798Y-111074773D01*
X53861406Y-111086037D01*
X53860414Y-111093570D01*
X53860414Y-111093571D01*
X53841903Y-111234182D01*
X53840729Y-111243096D01*
X50254500Y-111243096D01*
X50254500Y-108836794D01*
X56340729Y-108836794D01*
X56358113Y-108994251D01*
X56360723Y-109001382D01*
X56360723Y-109001384D01*
X56405317Y-109123243D01*
X56412553Y-109143017D01*
X56416789Y-109149320D01*
X56416789Y-109149321D01*
X56473766Y-109234111D01*
X56500908Y-109274503D01*
X56506527Y-109279616D01*
X56506528Y-109279617D01*
X56517903Y-109289967D01*
X56618076Y-109381117D01*
X56757293Y-109456706D01*
X56910522Y-109496905D01*
X56994477Y-109498224D01*
X57061319Y-109499274D01*
X57061322Y-109499274D01*
X57068916Y-109499393D01*
X57223332Y-109464027D01*
X57293742Y-109428615D01*
X57358072Y-109396261D01*
X57358075Y-109396259D01*
X57364855Y-109392849D01*
X57370626Y-109387920D01*
X57370629Y-109387918D01*
X57479536Y-109294902D01*
X57479536Y-109294901D01*
X57485314Y-109289967D01*
X57577755Y-109161322D01*
X57636842Y-109014339D01*
X57659162Y-108857505D01*
X57659307Y-108843698D01*
X57640276Y-108686431D01*
X57584280Y-108538244D01*
X57494553Y-108407690D01*
X57421681Y-108342763D01*
X57384126Y-108282514D01*
X57379500Y-108248687D01*
X57379500Y-106594730D01*
X57399502Y-106526609D01*
X57423669Y-106498919D01*
X57479536Y-106451204D01*
X57485314Y-106446269D01*
X57577755Y-106317624D01*
X57636842Y-106170641D01*
X57659162Y-106013807D01*
X57659307Y-106000000D01*
X57640276Y-105842733D01*
X57584280Y-105694546D01*
X57494553Y-105563992D01*
X57376275Y-105458611D01*
X57368889Y-105454700D01*
X57242988Y-105388039D01*
X57242989Y-105388039D01*
X57236274Y-105384484D01*
X57082633Y-105345892D01*
X57075034Y-105345852D01*
X57075033Y-105345852D01*
X57009181Y-105345507D01*
X56924221Y-105345062D01*
X56916841Y-105346834D01*
X56916839Y-105346834D01*
X56777563Y-105380271D01*
X56777560Y-105380272D01*
X56770184Y-105382043D01*
X56629414Y-105454700D01*
X56510039Y-105558838D01*
X56418950Y-105688444D01*
X56361406Y-105836037D01*
X56340729Y-105993096D01*
X56358113Y-106150553D01*
X56360723Y-106157684D01*
X56360723Y-106157686D01*
X56403338Y-106274137D01*
X56412553Y-106299319D01*
X56500908Y-106430805D01*
X56506527Y-106435918D01*
X56506528Y-106435919D01*
X56579299Y-106502135D01*
X56616222Y-106562775D01*
X56620500Y-106595329D01*
X56620500Y-108248885D01*
X56600498Y-108317006D01*
X56577330Y-108343833D01*
X56510039Y-108402536D01*
X56418950Y-108532142D01*
X56361406Y-108679735D01*
X56360414Y-108687268D01*
X56360414Y-108687269D01*
X56345847Y-108797920D01*
X56340729Y-108836794D01*
X50254500Y-108836794D01*
X50254500Y-51340210D01*
X50274502Y-51272089D01*
X50328158Y-51225596D01*
X50398432Y-51215492D01*
X50463012Y-51244986D01*
X50501396Y-51304712D01*
X50504079Y-51315631D01*
X50508315Y-51336931D01*
X50517633Y-51359427D01*
X50559983Y-51422808D01*
X50577192Y-51440017D01*
X50640575Y-51482368D01*
X50663066Y-51491684D01*
X50718915Y-51502793D01*
X50731170Y-51504000D01*
X51854885Y-51504000D01*
X51870124Y-51499525D01*
X51871329Y-51498135D01*
X51873000Y-51490452D01*
X51873000Y-51485884D01*
X52127000Y-51485884D01*
X52131475Y-51501123D01*
X52132865Y-51502328D01*
X52140548Y-51503999D01*
X53268828Y-51503999D01*
X53281088Y-51502791D01*
X53336931Y-51491685D01*
X53359427Y-51482367D01*
X53422808Y-51440017D01*
X53440017Y-51422808D01*
X53482368Y-51359425D01*
X53491684Y-51336934D01*
X53502793Y-51281085D01*
X53504000Y-51268830D01*
X53504000Y-50145115D01*
X53499525Y-50129876D01*
X53498135Y-50128671D01*
X53490452Y-50127000D01*
X52145115Y-50127000D01*
X52129876Y-50131475D01*
X52128671Y-50132865D01*
X52127000Y-50140548D01*
X52127000Y-51485884D01*
X51873000Y-51485884D01*
X51873000Y-49854885D01*
X52127000Y-49854885D01*
X52131475Y-49870124D01*
X52132865Y-49871329D01*
X52140548Y-49873000D01*
X53485884Y-49873000D01*
X53501123Y-49868525D01*
X53502328Y-49867135D01*
X53503999Y-49859452D01*
X53503999Y-48731172D01*
X53502791Y-48718912D01*
X53491685Y-48663069D01*
X53482367Y-48640573D01*
X53440017Y-48577192D01*
X53422808Y-48559983D01*
X53359425Y-48517632D01*
X53336934Y-48508316D01*
X53281085Y-48497207D01*
X53268830Y-48496000D01*
X52145115Y-48496000D01*
X52129876Y-48500475D01*
X52128671Y-48501865D01*
X52127000Y-48509548D01*
X52127000Y-49854885D01*
X51873000Y-49854885D01*
X51873000Y-48514116D01*
X51868525Y-48498877D01*
X51867135Y-48497672D01*
X51859452Y-48496001D01*
X50731172Y-48496001D01*
X50718912Y-48497209D01*
X50663069Y-48508315D01*
X50640573Y-48517633D01*
X50577192Y-48559983D01*
X50559983Y-48577192D01*
X50517632Y-48640575D01*
X50508316Y-48663066D01*
X50504079Y-48684367D01*
X50471172Y-48747276D01*
X50409477Y-48782409D01*
X50338582Y-48778609D01*
X50280996Y-48737084D01*
X50255002Y-48671017D01*
X50254500Y-48659786D01*
X50254500Y-48493096D01*
X60590729Y-48493096D01*
X60608113Y-48650553D01*
X60610723Y-48657684D01*
X60610723Y-48657686D01*
X60653436Y-48774404D01*
X60662553Y-48799319D01*
X60750908Y-48930805D01*
X60756527Y-48935918D01*
X60756528Y-48935919D01*
X60829299Y-49002135D01*
X60866222Y-49062775D01*
X60870500Y-49095329D01*
X60870500Y-49696080D01*
X60867951Y-49720028D01*
X60867872Y-49721693D01*
X60865680Y-49731876D01*
X60866904Y-49742217D01*
X60869627Y-49765223D01*
X60869977Y-49771154D01*
X60870072Y-49771146D01*
X60870500Y-49776324D01*
X60870500Y-49781524D01*
X60871354Y-49786653D01*
X60871354Y-49786656D01*
X60873669Y-49800565D01*
X60874506Y-49806443D01*
X60880530Y-49857341D01*
X60884493Y-49865593D01*
X60885996Y-49874626D01*
X60890943Y-49883795D01*
X60890944Y-49883797D01*
X60910334Y-49919732D01*
X60913031Y-49925025D01*
X60931785Y-49964082D01*
X60931788Y-49964086D01*
X60935219Y-49971232D01*
X60938814Y-49975508D01*
X60940737Y-49977431D01*
X60942509Y-49979363D01*
X60942552Y-49979442D01*
X60942428Y-49979555D01*
X60942904Y-49980095D01*
X60945990Y-49985814D01*
X60953635Y-49992881D01*
X60985586Y-50022416D01*
X60989152Y-50025846D01*
X64310249Y-53346943D01*
X64344275Y-53409255D01*
X64346076Y-53452482D01*
X64340729Y-53493096D01*
X64348074Y-53559623D01*
X64356990Y-53640380D01*
X64358113Y-53650553D01*
X64360723Y-53657684D01*
X64360723Y-53657686D01*
X64402498Y-53771841D01*
X64412553Y-53799319D01*
X64500908Y-53930805D01*
X64506527Y-53935918D01*
X64506528Y-53935919D01*
X64517903Y-53946269D01*
X64618076Y-54037419D01*
X64757293Y-54113008D01*
X64910522Y-54153207D01*
X64994477Y-54154526D01*
X65061319Y-54155576D01*
X65061322Y-54155576D01*
X65068916Y-54155695D01*
X65223332Y-54120329D01*
X65293742Y-54084917D01*
X65358072Y-54052563D01*
X65358075Y-54052561D01*
X65364855Y-54049151D01*
X65370626Y-54044222D01*
X65370629Y-54044220D01*
X65479536Y-53951204D01*
X65479536Y-53951203D01*
X65485314Y-53946269D01*
X65577755Y-53817624D01*
X65636842Y-53670641D01*
X65659162Y-53513807D01*
X65659307Y-53500000D01*
X65658763Y-53495500D01*
X65641188Y-53350273D01*
X65640276Y-53342733D01*
X65584280Y-53194546D01*
X65494553Y-53063992D01*
X65376275Y-52958611D01*
X65236274Y-52884484D01*
X65082633Y-52845892D01*
X65075034Y-52845852D01*
X65075033Y-52845852D01*
X65014626Y-52845536D01*
X64933335Y-52845110D01*
X64865321Y-52824752D01*
X64844901Y-52808207D01*
X61666405Y-49629711D01*
X61632379Y-49567399D01*
X61629500Y-49540616D01*
X61629500Y-49094730D01*
X61649502Y-49026609D01*
X61673669Y-48998919D01*
X61729536Y-48951204D01*
X61735314Y-48946269D01*
X61827755Y-48817624D01*
X61886842Y-48670641D01*
X61900141Y-48577192D01*
X61908581Y-48517891D01*
X61908581Y-48517888D01*
X61909162Y-48513807D01*
X61909307Y-48500000D01*
X61890276Y-48342733D01*
X61834280Y-48194546D01*
X61744553Y-48063992D01*
X61626275Y-47958611D01*
X61618889Y-47954700D01*
X61492988Y-47888039D01*
X61492989Y-47888039D01*
X61486274Y-47884484D01*
X61332633Y-47845892D01*
X61325034Y-47845852D01*
X61325033Y-47845852D01*
X61259181Y-47845507D01*
X61174221Y-47845062D01*
X61166841Y-47846834D01*
X61166839Y-47846834D01*
X61027563Y-47880271D01*
X61027560Y-47880272D01*
X61020184Y-47882043D01*
X60879414Y-47954700D01*
X60760039Y-48058838D01*
X60668950Y-48188444D01*
X60611406Y-48336037D01*
X60590729Y-48493096D01*
X50254500Y-48493096D01*
X50254500Y-44042186D01*
X52141018Y-44042186D01*
X52166579Y-44310100D01*
X52230547Y-44571518D01*
X52331583Y-44820963D01*
X52467569Y-45053210D01*
X52635658Y-45263395D01*
X52832327Y-45447113D01*
X53053457Y-45600516D01*
X53294416Y-45720391D01*
X53298750Y-45721812D01*
X53298753Y-45721813D01*
X53545823Y-45802807D01*
X53545829Y-45802808D01*
X53550156Y-45804227D01*
X53554647Y-45805007D01*
X53554648Y-45805007D01*
X53811538Y-45849611D01*
X53811546Y-45849612D01*
X53815319Y-45850267D01*
X53819156Y-45850458D01*
X53898777Y-45854422D01*
X53898785Y-45854422D01*
X53900348Y-45854500D01*
X54068374Y-45854500D01*
X54070642Y-45854335D01*
X54070654Y-45854335D01*
X54201457Y-45844844D01*
X54268425Y-45839985D01*
X54272880Y-45839001D01*
X54272883Y-45839001D01*
X54526770Y-45782947D01*
X54526772Y-45782946D01*
X54531226Y-45781963D01*
X54782900Y-45686613D01*
X55018172Y-45555931D01*
X55164842Y-45443996D01*
X55228491Y-45395421D01*
X55228495Y-45395417D01*
X55232116Y-45392654D01*
X55420249Y-45200203D01*
X55527242Y-45053210D01*
X55575942Y-44986304D01*
X55575947Y-44986297D01*
X55578630Y-44982610D01*
X55703941Y-44744433D01*
X55793557Y-44490662D01*
X55818688Y-44363156D01*
X55844720Y-44231083D01*
X55844721Y-44231077D01*
X55845601Y-44226611D01*
X55854782Y-44042186D01*
X55858755Y-43962383D01*
X55858755Y-43962377D01*
X55858982Y-43957814D01*
X55833421Y-43689900D01*
X55787759Y-43503291D01*
X55770539Y-43432920D01*
X55769453Y-43428482D01*
X55704786Y-43268828D01*
X58496001Y-43268828D01*
X58497209Y-43281088D01*
X58508315Y-43336931D01*
X58517633Y-43359427D01*
X58559983Y-43422808D01*
X58577192Y-43440017D01*
X58640575Y-43482368D01*
X58663066Y-43491684D01*
X58718915Y-43502793D01*
X58731170Y-43504000D01*
X59854885Y-43504000D01*
X59870124Y-43499525D01*
X59871329Y-43498135D01*
X59873000Y-43490452D01*
X59873000Y-43485884D01*
X60127000Y-43485884D01*
X60131475Y-43501123D01*
X60132865Y-43502328D01*
X60140548Y-43503999D01*
X61268828Y-43503999D01*
X61281088Y-43502791D01*
X61336931Y-43491685D01*
X61359427Y-43482367D01*
X61422808Y-43440017D01*
X61440017Y-43422808D01*
X61482368Y-43359425D01*
X61491684Y-43336934D01*
X61502793Y-43281085D01*
X61504000Y-43268830D01*
X61504000Y-42145115D01*
X61499525Y-42129876D01*
X61498135Y-42128671D01*
X61490452Y-42127000D01*
X60145115Y-42127000D01*
X60129876Y-42131475D01*
X60128671Y-42132865D01*
X60127000Y-42140548D01*
X60127000Y-43485884D01*
X59873000Y-43485884D01*
X59873000Y-42145115D01*
X59868525Y-42129876D01*
X59867135Y-42128671D01*
X59859452Y-42127000D01*
X58514116Y-42127000D01*
X58498877Y-42131475D01*
X58497672Y-42132865D01*
X58496001Y-42140548D01*
X58496001Y-43268828D01*
X55704786Y-43268828D01*
X55668417Y-43179037D01*
X55532431Y-42946790D01*
X55364342Y-42736605D01*
X55167673Y-42552887D01*
X54946543Y-42399484D01*
X54705584Y-42279609D01*
X54701250Y-42278188D01*
X54701247Y-42278187D01*
X54454177Y-42197193D01*
X54454171Y-42197192D01*
X54449844Y-42195773D01*
X54445352Y-42194993D01*
X54188462Y-42150389D01*
X54188454Y-42150388D01*
X54184681Y-42149733D01*
X54174718Y-42149237D01*
X54101223Y-42145578D01*
X54101215Y-42145578D01*
X54099652Y-42145500D01*
X53931626Y-42145500D01*
X53929358Y-42145665D01*
X53929346Y-42145665D01*
X53798543Y-42155156D01*
X53731575Y-42160015D01*
X53727120Y-42160999D01*
X53727117Y-42160999D01*
X53473230Y-42217053D01*
X53473228Y-42217054D01*
X53468774Y-42218037D01*
X53217100Y-42313387D01*
X53213114Y-42315601D01*
X53213112Y-42315602D01*
X53065754Y-42397452D01*
X52981828Y-42444069D01*
X52978196Y-42446841D01*
X52771509Y-42604579D01*
X52771505Y-42604583D01*
X52767884Y-42607346D01*
X52579751Y-42799797D01*
X52577066Y-42803486D01*
X52424058Y-43013696D01*
X52424053Y-43013703D01*
X52421370Y-43017390D01*
X52296059Y-43255567D01*
X52206443Y-43509338D01*
X52195989Y-43562378D01*
X52170855Y-43689900D01*
X52154399Y-43773389D01*
X52154172Y-43777942D01*
X52154172Y-43777945D01*
X52144991Y-43962383D01*
X52141018Y-44042186D01*
X50254500Y-44042186D01*
X50254500Y-43037476D01*
X50256921Y-43012894D01*
X50257065Y-43012170D01*
X50259486Y-43000000D01*
X50257065Y-42987828D01*
X50257065Y-42975421D01*
X50257262Y-42975421D01*
X50256494Y-42964491D01*
X50257689Y-42943223D01*
X50271366Y-42699663D01*
X50272948Y-42685626D01*
X50277414Y-42659345D01*
X50321124Y-42402084D01*
X50322150Y-42396045D01*
X50325294Y-42382270D01*
X50355280Y-42278187D01*
X50406612Y-42100008D01*
X50411273Y-42086689D01*
X50523684Y-41815305D01*
X50529813Y-41802578D01*
X50600622Y-41674459D01*
X50671899Y-41545494D01*
X50679406Y-41533546D01*
X50849394Y-41293971D01*
X50858192Y-41282938D01*
X51053924Y-41063913D01*
X51063914Y-41053923D01*
X51282938Y-40858192D01*
X51293973Y-40849392D01*
X51336347Y-40819326D01*
X51533546Y-40679406D01*
X51545494Y-40671899D01*
X51802582Y-40529811D01*
X51815305Y-40523684D01*
X52086689Y-40411273D01*
X52100008Y-40406612D01*
X52336146Y-40338582D01*
X52382270Y-40325294D01*
X52396045Y-40322150D01*
X52540836Y-40297549D01*
X52685631Y-40272947D01*
X52699663Y-40271366D01*
X52964494Y-40256494D01*
X52975421Y-40257262D01*
X52975421Y-40257065D01*
X52987828Y-40257065D01*
X53000000Y-40259486D01*
X53012897Y-40256921D01*
X53037476Y-40254500D01*
X58659790Y-40254500D01*
X58727911Y-40274502D01*
G37*
G04 #@! TD.AperFunction*
G04 #@! TD*
G04 #@! TA.AperFunction,Conductor*
G04 #@! TO.N,+3.3V*
G36*
X131933621Y-108270002D02*
G01*
X131980114Y-108323658D01*
X131991500Y-108376000D01*
X131991500Y-119049769D01*
X131991800Y-119052825D01*
X131991800Y-119052832D01*
X131992530Y-119060273D01*
X132005920Y-119196833D01*
X132063084Y-119386169D01*
X132155934Y-119560796D01*
X132226291Y-119647062D01*
X132277040Y-119709287D01*
X132277043Y-119709290D01*
X132280935Y-119714062D01*
X132285682Y-119717989D01*
X132285684Y-119717991D01*
X132428575Y-119836201D01*
X132428579Y-119836203D01*
X132433325Y-119840130D01*
X132607299Y-119934198D01*
X132796232Y-119992682D01*
X132802357Y-119993326D01*
X132802358Y-119993326D01*
X132986796Y-120012711D01*
X132986798Y-120012711D01*
X132992925Y-120013355D01*
X133075424Y-120005847D01*
X133183749Y-119995989D01*
X133183752Y-119995988D01*
X133189888Y-119995430D01*
X133195794Y-119993692D01*
X133195798Y-119993691D01*
X133300924Y-119962751D01*
X133379619Y-119939590D01*
X133385077Y-119936737D01*
X133385081Y-119936735D01*
X133475853Y-119889280D01*
X133554890Y-119847960D01*
X133709025Y-119724032D01*
X133836154Y-119572526D01*
X133839121Y-119567128D01*
X133839125Y-119567123D01*
X133928467Y-119404608D01*
X133931433Y-119399213D01*
X133933846Y-119391608D01*
X133989373Y-119216564D01*
X133989373Y-119216563D01*
X133991235Y-119210694D01*
X134008500Y-119056773D01*
X134008500Y-108376000D01*
X134028502Y-108307879D01*
X134082158Y-108261386D01*
X134134500Y-108250000D01*
X138782634Y-108250000D01*
X138850755Y-108270002D01*
X138897248Y-108323658D01*
X138907352Y-108393932D01*
X138877858Y-108458512D01*
X138818132Y-108496896D01*
X138794054Y-108501481D01*
X138766251Y-108504011D01*
X138766248Y-108504012D01*
X138760112Y-108504570D01*
X138754206Y-108506308D01*
X138754202Y-108506309D01*
X138649076Y-108537249D01*
X138570381Y-108560410D01*
X138564923Y-108563263D01*
X138564919Y-108563265D01*
X138523096Y-108585130D01*
X138395110Y-108652040D01*
X138240975Y-108775968D01*
X138113846Y-108927474D01*
X138110879Y-108932872D01*
X138110875Y-108932877D01*
X138107397Y-108939204D01*
X138018567Y-109100787D01*
X137958765Y-109289306D01*
X137941500Y-109443227D01*
X137941500Y-113388157D01*
X137940763Y-113401764D01*
X137936676Y-113439388D01*
X137937213Y-113445523D01*
X137941050Y-113489388D01*
X137941379Y-113494214D01*
X137941500Y-113496686D01*
X137941500Y-113499769D01*
X137941801Y-113502837D01*
X137945690Y-113542506D01*
X137945812Y-113543819D01*
X137953913Y-113636413D01*
X137955400Y-113641532D01*
X137955920Y-113646833D01*
X137982791Y-113735834D01*
X137983126Y-113736967D01*
X138009091Y-113826336D01*
X138011544Y-113831068D01*
X138013084Y-113836169D01*
X138015978Y-113841612D01*
X138056731Y-113918260D01*
X138057343Y-113919426D01*
X138100108Y-114001926D01*
X138103431Y-114006089D01*
X138105934Y-114010796D01*
X138164755Y-114082918D01*
X138165446Y-114083774D01*
X138196738Y-114122973D01*
X138199242Y-114125477D01*
X138199884Y-114126195D01*
X138203585Y-114130528D01*
X138230935Y-114164062D01*
X138235682Y-114167989D01*
X138235684Y-114167991D01*
X138266262Y-114193287D01*
X138275042Y-114201277D01*
X139572075Y-115498309D01*
X139574453Y-115500262D01*
X139681506Y-115588197D01*
X139681510Y-115588200D01*
X139686262Y-115592103D01*
X139691687Y-115595012D01*
X139694091Y-115596621D01*
X139739573Y-115651136D01*
X139750000Y-115701326D01*
X139750000Y-128928001D01*
X139729998Y-128996122D01*
X139676342Y-129042615D01*
X139659575Y-129048875D01*
X139626289Y-129058671D01*
X139626287Y-129058672D01*
X139620381Y-129060410D01*
X139617228Y-129062058D01*
X139613831Y-129063084D01*
X139608401Y-129065971D01*
X139608399Y-129065972D01*
X139584013Y-129078938D01*
X139529899Y-129107711D01*
X139529319Y-129108016D01*
X139445110Y-129152040D01*
X139442342Y-129154265D01*
X139439204Y-129155934D01*
X139434426Y-129159831D01*
X139365628Y-129215941D01*
X139364944Y-129216494D01*
X139295782Y-129272102D01*
X139295776Y-129272108D01*
X139290975Y-129275968D01*
X139288692Y-129278689D01*
X139285938Y-129280935D01*
X139282011Y-129285682D01*
X139282009Y-129285684D01*
X139225441Y-129354064D01*
X139224935Y-129354671D01*
X139163846Y-129427474D01*
X139162134Y-129430589D01*
X139159870Y-129433325D01*
X139156939Y-129438746D01*
X139114700Y-129516865D01*
X139114298Y-129517603D01*
X139068567Y-129600787D01*
X139067494Y-129604170D01*
X139065802Y-129607299D01*
X139037725Y-129698002D01*
X139037468Y-129698822D01*
X139008765Y-129789306D01*
X139008369Y-129792837D01*
X139007318Y-129796232D01*
X138997396Y-129890638D01*
X138997311Y-129891421D01*
X138991500Y-129943227D01*
X138991500Y-129945800D01*
X138991180Y-129949776D01*
X138986645Y-129992925D01*
X138987204Y-129999065D01*
X138990981Y-130040570D01*
X138991500Y-130051990D01*
X138991500Y-131624000D01*
X138971498Y-131692121D01*
X138917842Y-131738614D01*
X138865500Y-131750000D01*
X133821650Y-131750000D01*
X133753529Y-131729998D01*
X133728016Y-131708313D01*
X133611253Y-131578634D01*
X133456752Y-131466382D01*
X133450724Y-131463698D01*
X133450722Y-131463697D01*
X133288319Y-131391391D01*
X133288318Y-131391391D01*
X133282288Y-131388706D01*
X133188888Y-131368853D01*
X133101944Y-131350372D01*
X133101939Y-131350372D01*
X133095487Y-131349000D01*
X132904513Y-131349000D01*
X132898061Y-131350372D01*
X132898056Y-131350372D01*
X132811112Y-131368853D01*
X132717712Y-131388706D01*
X132711682Y-131391391D01*
X132711681Y-131391391D01*
X132549278Y-131463697D01*
X132549276Y-131463698D01*
X132543248Y-131466382D01*
X132388747Y-131578634D01*
X132271985Y-131708312D01*
X132211540Y-131745550D01*
X132178350Y-131750000D01*
X112466217Y-131750000D01*
X112398096Y-131729998D01*
X112351603Y-131676342D01*
X112341499Y-131606068D01*
X112346384Y-131585064D01*
X112383685Y-131470263D01*
X112393542Y-131439928D01*
X112398644Y-131391391D01*
X112412814Y-131256565D01*
X112413504Y-131250000D01*
X112393542Y-131060072D01*
X112334527Y-130878444D01*
X112239040Y-130713056D01*
X112111253Y-130571134D01*
X111956752Y-130458882D01*
X111950724Y-130456198D01*
X111950722Y-130456197D01*
X111788319Y-130383891D01*
X111788318Y-130383891D01*
X111782288Y-130381206D01*
X111688887Y-130361353D01*
X111601944Y-130342872D01*
X111601939Y-130342872D01*
X111595487Y-130341500D01*
X111404513Y-130341500D01*
X111398056Y-130342872D01*
X111391485Y-130343563D01*
X111391232Y-130341158D01*
X111331392Y-130336585D01*
X111274765Y-130293761D01*
X111250279Y-130227121D01*
X111250000Y-130218745D01*
X111250000Y-108376000D01*
X111270002Y-108307879D01*
X111323658Y-108261386D01*
X111376000Y-108250000D01*
X131865500Y-108250000D01*
X131933621Y-108270002D01*
G37*
G04 #@! TD.AperFunction*
G04 #@! TD*
M02*
