G04 #@! TF.GenerationSoftware,KiCad,Pcbnew,(6.0.8)*
G04 #@! TF.CreationDate,2022-12-06T21:36:09-08:00*
G04 #@! TF.ProjectId,EveryDayCalendarSingleMonth,45766572-7944-4617-9943-616c656e6461,rev?*
G04 #@! TF.SameCoordinates,Original*
G04 #@! TF.FileFunction,Soldermask,Bot*
G04 #@! TF.FilePolarity,Negative*
%FSLAX46Y46*%
G04 Gerber Fmt 4.6, Leading zero omitted, Abs format (unit mm)*
G04 Created by KiCad (PCBNEW (6.0.8)) date 2022-12-06 21:36:09*
%MOMM*%
%LPD*%
G01*
G04 APERTURE LIST*
G04 Aperture macros list*
%AMRoundRect*
0 Rectangle with rounded corners*
0 $1 Rounding radius*
0 $2 $3 $4 $5 $6 $7 $8 $9 X,Y pos of 4 corners*
0 Add a 4 corners polygon primitive as box body*
4,1,4,$2,$3,$4,$5,$6,$7,$8,$9,$2,$3,0*
0 Add four circle primitives for the rounded corners*
1,1,$1+$1,$2,$3*
1,1,$1+$1,$4,$5*
1,1,$1+$1,$6,$7*
1,1,$1+$1,$8,$9*
0 Add four rect primitives between the rounded corners*
20,1,$1+$1,$2,$3,$4,$5,0*
20,1,$1+$1,$4,$5,$6,$7,0*
20,1,$1+$1,$6,$7,$8,$9,0*
20,1,$1+$1,$8,$9,$2,$3,0*%
G04 Aperture macros list end*
%ADD10C,3.200000*%
%ADD11RoundRect,0.250000X0.650000X1.550000X-0.650000X1.550000X-0.650000X-1.550000X0.650000X-1.550000X0*%
%ADD12O,1.800000X3.600000*%
%ADD13R,1.700000X1.700000*%
%ADD14O,1.700000X1.700000*%
%ADD15R,2.500000X2.500000*%
%ADD16R,1.550000X1.300000*%
G04 APERTURE END LIST*
D10*
G04 #@! TO.C,TP_CORNER_2*
X146000000Y-136000000D03*
G04 #@! TD*
G04 #@! TO.C,TP_CORNER_1*
X146000000Y-44000000D03*
G04 #@! TD*
G04 #@! TO.C,TP_CORNER_4*
X54000000Y-44000000D03*
G04 #@! TD*
D11*
G04 #@! TO.C,J2_POWER_IN1*
X129000000Y-134750000D03*
D12*
X125190000Y-134750000D03*
G04 #@! TD*
D10*
G04 #@! TO.C,TP_CORNER_3*
X55000000Y-135000000D03*
G04 #@! TD*
D13*
G04 #@! TO.C,J3_PROGRAMING_PIN1*
X71150000Y-136500000D03*
D14*
X73690000Y-136500000D03*
X76230000Y-136500000D03*
X78770000Y-136500000D03*
X81310000Y-136500000D03*
X83850000Y-136500000D03*
G04 #@! TD*
D13*
G04 #@! TO.C,ONE_WIRE1*
X52250000Y-122025000D03*
D14*
X52250000Y-119485000D03*
X52250000Y-116945000D03*
G04 #@! TD*
D15*
G04 #@! TO.C,LED_IN1*
X148000000Y-117000000D03*
G04 #@! TD*
D16*
G04 #@! TO.C,SW_RESET1*
X69475000Y-126250000D03*
X61525000Y-126250000D03*
X69475000Y-130750000D03*
X61525000Y-130750000D03*
G04 #@! TD*
D15*
G04 #@! TO.C,LED_OUT1*
X148000000Y-113000000D03*
G04 #@! TD*
G04 #@! TO.C,WIN2*
X148000000Y-65000000D03*
G04 #@! TD*
G04 #@! TO.C,GND2*
X148000000Y-50000000D03*
G04 #@! TD*
G04 #@! TO.C,5V4*
X140000000Y-138000000D03*
G04 #@! TD*
G04 #@! TO.C,CAL_PREV1*
X148000000Y-85000000D03*
G04 #@! TD*
G04 #@! TO.C,5V2*
X148000000Y-130000000D03*
G04 #@! TD*
G04 #@! TO.C,5V3*
X52000000Y-130000000D03*
G04 #@! TD*
G04 #@! TO.C,GND1*
X60000000Y-42000000D03*
G04 #@! TD*
G04 #@! TO.C,5V1*
X140000000Y-42000000D03*
G04 #@! TD*
G04 #@! TO.C,GND4*
X60000000Y-138000000D03*
G04 #@! TD*
G04 #@! TO.C,CAL_NEXT1*
X148000000Y-95000000D03*
G04 #@! TD*
G04 #@! TO.C,GND3*
X52000000Y-50000000D03*
G04 #@! TD*
G04 #@! TO.C,MODE1*
X148000000Y-75000000D03*
G04 #@! TD*
G04 #@! TO.C,WIN1*
X148000000Y-55000000D03*
G04 #@! TD*
D16*
G04 #@! TO.C,SW_BOOTLOAD1*
X61525000Y-118250000D03*
X69475000Y-118250000D03*
X69475000Y-122750000D03*
X61525000Y-122750000D03*
G04 #@! TD*
M02*
