G04 #@! TF.GenerationSoftware,KiCad,Pcbnew,(6.0.8)*
G04 #@! TF.CreationDate,2022-12-11T20:38:51-08:00*
G04 #@! TF.ProjectId,EveryDayCalendarSingleMonth,45766572-7944-4617-9943-616c656e6461,rev?*
G04 #@! TF.SameCoordinates,Original*
G04 #@! TF.FileFunction,Copper,L2,Bot*
G04 #@! TF.FilePolarity,Positive*
%FSLAX46Y46*%
G04 Gerber Fmt 4.6, Leading zero omitted, Abs format (unit mm)*
G04 Created by KiCad (PCBNEW (6.0.8)) date 2022-12-11 20:38:51*
%MOMM*%
%LPD*%
G01*
G04 APERTURE LIST*
G04 Aperture macros list*
%AMRoundRect*
0 Rectangle with rounded corners*
0 $1 Rounding radius*
0 $2 $3 $4 $5 $6 $7 $8 $9 X,Y pos of 4 corners*
0 Add a 4 corners polygon primitive as box body*
4,1,4,$2,$3,$4,$5,$6,$7,$8,$9,$2,$3,0*
0 Add four circle primitives for the rounded corners*
1,1,$1+$1,$2,$3*
1,1,$1+$1,$4,$5*
1,1,$1+$1,$6,$7*
1,1,$1+$1,$8,$9*
0 Add four rect primitives between the rounded corners*
20,1,$1+$1,$2,$3,$4,$5,0*
20,1,$1+$1,$4,$5,$6,$7,0*
20,1,$1+$1,$6,$7,$8,$9,0*
20,1,$1+$1,$8,$9,$2,$3,0*%
G04 Aperture macros list end*
G04 #@! TA.AperFunction,ComponentPad*
%ADD10C,0.475000*%
G04 #@! TD*
G04 #@! TA.AperFunction,ComponentPad*
%ADD11RoundRect,0.250000X0.650000X1.550000X-0.650000X1.550000X-0.650000X-1.550000X0.650000X-1.550000X0*%
G04 #@! TD*
G04 #@! TA.AperFunction,ComponentPad*
%ADD12O,1.800000X3.600000*%
G04 #@! TD*
G04 #@! TA.AperFunction,ComponentPad*
%ADD13R,1.700000X1.700000*%
G04 #@! TD*
G04 #@! TA.AperFunction,ComponentPad*
%ADD14O,1.700000X1.700000*%
G04 #@! TD*
G04 #@! TA.AperFunction,SMDPad,CuDef*
%ADD15R,2.500000X2.500000*%
G04 #@! TD*
G04 #@! TA.AperFunction,SMDPad,CuDef*
%ADD16R,1.550000X1.300000*%
G04 #@! TD*
G04 #@! TA.AperFunction,ViaPad*
%ADD17C,0.800000*%
G04 #@! TD*
G04 #@! TA.AperFunction,Conductor*
%ADD18C,0.250000*%
G04 #@! TD*
G04 #@! TA.AperFunction,Conductor*
%ADD19C,1.000000*%
G04 #@! TD*
G04 APERTURE END LIST*
D10*
G04 #@! TO.P,U_CPU1,39,GND*
G04 #@! TO.N,GND*
X102000000Y-124500000D03*
X101237500Y-123737500D03*
X101237500Y-125262500D03*
X102762500Y-125262500D03*
X103525000Y-122975000D03*
X102762500Y-122212500D03*
X102000000Y-122975000D03*
X102762500Y-123737500D03*
X103525000Y-124500000D03*
X101237500Y-122212500D03*
X100475000Y-122975000D03*
X100475000Y-124500000D03*
G04 #@! TD*
D11*
G04 #@! TO.P,J2_POWER_IN1,1,Pin_1*
G04 #@! TO.N,+5V*
X129000000Y-134750000D03*
D12*
G04 #@! TO.P,J2_POWER_IN1,2,Pin_2*
G04 #@! TO.N,GND*
X125190000Y-134750000D03*
G04 #@! TD*
D13*
G04 #@! TO.P,J3_PROGRAMING_PIN1,1,Pin_1*
G04 #@! TO.N,GND*
X71150000Y-136500000D03*
D14*
G04 #@! TO.P,J3_PROGRAMING_PIN1,2,Pin_2*
G04 #@! TO.N,unconnected-(J3_PROGRAMING_PIN1-Pad2)*
X73690000Y-136500000D03*
G04 #@! TO.P,J3_PROGRAMING_PIN1,3,Pin_3*
G04 #@! TO.N,+5V*
X76230000Y-136500000D03*
G04 #@! TO.P,J3_PROGRAMING_PIN1,4,Pin_4*
G04 #@! TO.N,/RXD*
X78770000Y-136500000D03*
G04 #@! TO.P,J3_PROGRAMING_PIN1,5,Pin_5*
G04 #@! TO.N,/TXD*
X81310000Y-136500000D03*
G04 #@! TO.P,J3_PROGRAMING_PIN1,6,Pin_6*
G04 #@! TO.N,/RTS*
X83850000Y-136500000D03*
G04 #@! TD*
D13*
G04 #@! TO.P,ONE_WIRE1,1,Pin_1*
G04 #@! TO.N,+5V*
X52250000Y-122025000D03*
D14*
G04 #@! TO.P,ONE_WIRE1,2,Pin_2*
G04 #@! TO.N,Net-(ONE_WIRE1-Pad2)*
X52250000Y-119485000D03*
G04 #@! TO.P,ONE_WIRE1,3,Pin_3*
G04 #@! TO.N,GND*
X52250000Y-116945000D03*
G04 #@! TD*
D15*
G04 #@! TO.P,LED_IN1,1,1*
G04 #@! TO.N,Net-(LED_IN1-Pad1)*
X148000000Y-117000000D03*
G04 #@! TD*
D16*
G04 #@! TO.P,SW_RESET1,1,A*
G04 #@! TO.N,/RESET*
X69475000Y-126250000D03*
X61525000Y-126250000D03*
G04 #@! TO.P,SW_RESET1,2,B*
G04 #@! TO.N,GND*
X69475000Y-130750000D03*
X61525000Y-130750000D03*
G04 #@! TD*
D15*
G04 #@! TO.P,LED_OUT1,1,1*
G04 #@! TO.N,Net-(DAY42-Pad2)*
X148000000Y-113000000D03*
G04 #@! TD*
G04 #@! TO.P,TP_WIN2,1,1*
G04 #@! TO.N,/BUTTON_WIN2*
X148000000Y-65000000D03*
G04 #@! TD*
G04 #@! TO.P,GND2,1,1*
G04 #@! TO.N,GND*
X148000000Y-50000000D03*
G04 #@! TD*
G04 #@! TO.P,5V4,1,1*
G04 #@! TO.N,+5V*
X140000000Y-138000000D03*
G04 #@! TD*
G04 #@! TO.P,TP_CAL_PREV1,1,1*
G04 #@! TO.N,/BUTTON_CAL_PREV*
X148000000Y-85000000D03*
G04 #@! TD*
G04 #@! TO.P,5V2,1,1*
G04 #@! TO.N,+5V*
X148000000Y-130000000D03*
G04 #@! TD*
G04 #@! TO.P,5V3,1,1*
G04 #@! TO.N,+5V*
X52000000Y-130000000D03*
G04 #@! TD*
G04 #@! TO.P,GND1,1,1*
G04 #@! TO.N,GND*
X60000000Y-42000000D03*
G04 #@! TD*
G04 #@! TO.P,5V1,1,1*
G04 #@! TO.N,+5V*
X140000000Y-42000000D03*
G04 #@! TD*
G04 #@! TO.P,GND4,1,1*
G04 #@! TO.N,GND*
X60000000Y-138000000D03*
G04 #@! TD*
G04 #@! TO.P,TP_CAL_NEXT1,1,1*
G04 #@! TO.N,/BUTTON_CAL_NEXT*
X148000000Y-95000000D03*
G04 #@! TD*
G04 #@! TO.P,GND3,1,1*
G04 #@! TO.N,GND*
X52000000Y-50000000D03*
G04 #@! TD*
G04 #@! TO.P,TP_MODE1,1,1*
G04 #@! TO.N,/BUTTON_MODE*
X148000000Y-75000000D03*
G04 #@! TD*
G04 #@! TO.P,TP_WIN1,1,1*
G04 #@! TO.N,/BUTTON_WIN1*
X148000000Y-55000000D03*
G04 #@! TD*
D16*
G04 #@! TO.P,SW_BOOTLOAD1,1,A*
G04 #@! TO.N,/GPIO0*
X61525000Y-118250000D03*
X69475000Y-118250000D03*
G04 #@! TO.P,SW_BOOTLOAD1,2,B*
G04 #@! TO.N,GND*
X69475000Y-122750000D03*
X61525000Y-122750000D03*
G04 #@! TD*
D17*
G04 #@! TO.N,+3.3V*
X122500000Y-114250000D03*
X111500000Y-129750000D03*
X121500000Y-123000000D03*
X130250000Y-114250000D03*
X75500000Y-128250000D03*
X126625000Y-117375000D03*
X122625000Y-121375000D03*
X131000000Y-121250000D03*
X94250000Y-123500000D03*
G04 #@! TO.N,GND*
X95062500Y-106250000D03*
X52750000Y-94250000D03*
X53000000Y-104250000D03*
X138250000Y-84462500D03*
X110562500Y-82500000D03*
X121562500Y-92500000D03*
X133000000Y-119000000D03*
X75750000Y-43750000D03*
X117373750Y-66250000D03*
X127750000Y-106500000D03*
X53000000Y-54250000D03*
X143250000Y-82500000D03*
X117373750Y-56250000D03*
X143750000Y-114750000D03*
X133062500Y-92500000D03*
X130500000Y-43750000D03*
X61000000Y-64250000D03*
X121562500Y-102500000D03*
X88873750Y-72390000D03*
X121873750Y-72390000D03*
X97500000Y-43750000D03*
X117062500Y-96250000D03*
X61000000Y-84250000D03*
X132947500Y-62500000D03*
X88562500Y-82500000D03*
X110873750Y-62500000D03*
X143250000Y-72500000D03*
X110873750Y-72390000D03*
X84062500Y-86250000D03*
X121500000Y-134500000D03*
X143250000Y-67500000D03*
X61000000Y-54250000D03*
X73062500Y-86250000D03*
X77873750Y-72390000D03*
X95373750Y-76140000D03*
X127562500Y-86500000D03*
X86500000Y-43750000D03*
X143250000Y-92500000D03*
X138135000Y-74500000D03*
X95062500Y-96250000D03*
X143250000Y-87500000D03*
X143250000Y-52500000D03*
X53000000Y-64250000D03*
X61000000Y-104250000D03*
X121562500Y-82500000D03*
X73373750Y-66250000D03*
X66873750Y-72390000D03*
X133062500Y-82462500D03*
X102500000Y-43750000D03*
X84373750Y-76140000D03*
X53750000Y-125000000D03*
X88562500Y-102500000D03*
X132947500Y-72390000D03*
X106062500Y-86250000D03*
X124500000Y-43750000D03*
X66562500Y-92500000D03*
X106062500Y-106250000D03*
X108500000Y-43750000D03*
X73062500Y-106250000D03*
X107000000Y-111750000D03*
X99562500Y-92500000D03*
X53000000Y-74250000D03*
X121873750Y-52500000D03*
X77873750Y-52500000D03*
X60750000Y-94250000D03*
X119500000Y-43750000D03*
X77562500Y-102500000D03*
X84062500Y-106250000D03*
X143250000Y-57500000D03*
X99562500Y-82500000D03*
X74500000Y-131000000D03*
X106062500Y-96250000D03*
X54500000Y-115500000D03*
X53000000Y-84250000D03*
X91500000Y-43750000D03*
X90750000Y-131250000D03*
X84373750Y-66250000D03*
X143250000Y-97500000D03*
X128447500Y-56500000D03*
X95062500Y-86250000D03*
X61000000Y-74250000D03*
X127947500Y-66500000D03*
X138500000Y-101250000D03*
X133062500Y-102500000D03*
X132947500Y-52500000D03*
X64500000Y-43750000D03*
X144500000Y-122750000D03*
X111500000Y-131250000D03*
X71000000Y-134750000D03*
X99873750Y-62500000D03*
X143250000Y-62500000D03*
X100000000Y-111500000D03*
X106373750Y-56250000D03*
X138135000Y-55000000D03*
X99562500Y-102500000D03*
X95373750Y-56250000D03*
X110562500Y-92500000D03*
X117373750Y-76140000D03*
X66873750Y-52500000D03*
X121873750Y-62500000D03*
X77562500Y-92500000D03*
X95373750Y-66250000D03*
X141500000Y-123000000D03*
X73373750Y-76140000D03*
X88873750Y-62500000D03*
X99873750Y-52500000D03*
X117062500Y-86250000D03*
X88873750Y-52500000D03*
X106373750Y-76140000D03*
X110873750Y-52500000D03*
X88562500Y-92500000D03*
X117062500Y-106250000D03*
X80500000Y-43750000D03*
X113500000Y-43750000D03*
X66873750Y-62500000D03*
X73062500Y-96250000D03*
X84373750Y-56250000D03*
X127947500Y-76390000D03*
X73373750Y-56250000D03*
X69500000Y-43750000D03*
X110562500Y-102500000D03*
X138135000Y-65000000D03*
X77562500Y-82500000D03*
X99873750Y-72390000D03*
X133000000Y-132257500D03*
X135500000Y-43750000D03*
X77873750Y-62500000D03*
X106373750Y-66250000D03*
X84062500Y-96250000D03*
X138250000Y-94750000D03*
X143250000Y-77500000D03*
X66562500Y-82500000D03*
X66562500Y-102500000D03*
G04 #@! TO.N,+5V*
X55000000Y-130000000D03*
X140250000Y-108500000D03*
X70610000Y-107610000D03*
X140000000Y-52000000D03*
X140000000Y-130000000D03*
X65500000Y-115250000D03*
X140075000Y-103425000D03*
G04 #@! TO.N,/RESET*
X71250000Y-126250000D03*
X95537500Y-128537500D03*
X88500000Y-131000000D03*
G04 #@! TO.N,/RXD*
X86250000Y-130250000D03*
X90750000Y-125750000D03*
G04 #@! TO.N,/TXD*
X90750000Y-127250000D03*
X87000000Y-131000000D03*
G04 #@! TO.N,/RTS*
X83750000Y-134500000D03*
X81750000Y-130000000D03*
G04 #@! TO.N,Net-(DAY1-Pad4)*
X66811250Y-55750000D03*
X67000000Y-47250000D03*
X145500000Y-119250000D03*
X148500000Y-119250000D03*
G04 #@! TO.N,/GPIO0*
X91000000Y-114750000D03*
X83000000Y-114750000D03*
X70500000Y-120000000D03*
G04 #@! TO.N,/BUTTON_MODE*
X147725000Y-75225000D03*
G04 #@! TO.N,/BUTTON_CAL_NEXT*
X147725000Y-95025000D03*
G04 #@! TO.N,/BUTTON_CAL_PREV*
X147725000Y-85275000D03*
G04 #@! TO.N,/WEEK5*
X57000000Y-108843698D03*
X57000000Y-106000000D03*
G04 #@! TO.N,/BUTTON_WIN1*
X147725000Y-55225000D03*
G04 #@! TO.N,/BUTTON_WIN2*
X147725000Y-65225000D03*
G04 #@! TO.N,Net-(DAY7-Pad2)*
X133697500Y-54250000D03*
X133697500Y-59000000D03*
G04 #@! TO.N,Net-(DAY14-Pad2)*
X133697500Y-69000000D03*
X133697500Y-64250000D03*
G04 #@! TO.N,Net-(DAY21-Pad2)*
X133697500Y-74140000D03*
X133386250Y-78890000D03*
G04 #@! TO.N,Net-(DAY28-Pad2)*
X133312500Y-89000000D03*
X133812500Y-84212500D03*
G04 #@! TO.N,Net-(DAY35-Pad2)*
X133312500Y-99000000D03*
X133812500Y-94250000D03*
G04 #@! TO.N,Net-(LED_IN1-Pad1)*
X143500000Y-117000000D03*
G04 #@! TO.N,Net-(DAY42-Pad2)*
X137250000Y-101250000D03*
G04 #@! TO.N,Net-(ONE_WIRE1-Pad2)*
X91000000Y-112750000D03*
X83000000Y-113500000D03*
G04 #@! TD*
D18*
G04 #@! TO.N,+3.3V*
X87000000Y-128250000D02*
X75500000Y-128250000D01*
X94250000Y-123500000D02*
X91750000Y-123500000D01*
D19*
X114692500Y-129807500D02*
X111557500Y-129807500D01*
D18*
X91750000Y-123500000D02*
X87000000Y-128250000D01*
D19*
X111557500Y-129807500D02*
X111500000Y-129750000D01*
X121500000Y-123000000D02*
X114692500Y-129807500D01*
G04 #@! TO.N,GND*
X133000000Y-119000000D02*
X137250000Y-114750000D01*
X137250000Y-114750000D02*
X143750000Y-114750000D01*
X121500000Y-134500000D02*
X124940000Y-134500000D01*
G04 #@! TO.N,+5V*
X65500000Y-112720000D02*
X70610000Y-107610000D01*
X55000000Y-130000000D02*
X52000000Y-130000000D01*
X140000000Y-130000000D02*
X148000000Y-130000000D01*
X140250000Y-108500000D02*
X140250000Y-103600000D01*
X140000000Y-130000000D02*
X140000000Y-138000000D01*
X140000000Y-52000000D02*
X140000000Y-42000000D01*
X65500000Y-115250000D02*
X65500000Y-112720000D01*
D18*
G04 #@! TO.N,/RESET*
X94825000Y-129250000D02*
X95537500Y-128537500D01*
X69475000Y-126250000D02*
X71250000Y-126250000D01*
X61525000Y-126250000D02*
X69475000Y-126250000D01*
X90250000Y-129250000D02*
X88500000Y-131000000D01*
X94825000Y-129250000D02*
X90250000Y-129250000D01*
G04 #@! TO.N,/RXD*
X90750000Y-125750000D02*
X86250000Y-130250000D01*
G04 #@! TO.N,/TXD*
X90750000Y-127250000D02*
X87000000Y-131000000D01*
G04 #@! TO.N,/RTS*
X81750000Y-132500000D02*
X83750000Y-134500000D01*
X81750000Y-130000000D02*
X81750000Y-132500000D01*
G04 #@! TO.N,Net-(DAY1-Pad4)*
X67000000Y-47250000D02*
X67598750Y-47848750D01*
X67598750Y-47848750D02*
X67598750Y-54962500D01*
X67598750Y-54962500D02*
X66811250Y-55750000D01*
X148500000Y-119250000D02*
X145500000Y-119250000D01*
G04 #@! TO.N,/GPIO0*
X61525000Y-118250000D02*
X69475000Y-118250000D01*
X83000000Y-114750000D02*
X91000000Y-114750000D01*
X69475000Y-118975000D02*
X69475000Y-118250000D01*
X70500000Y-120000000D02*
X69475000Y-118975000D01*
G04 #@! TO.N,/WEEK5*
X57000000Y-108843698D02*
X57000000Y-106000000D01*
G04 #@! TO.N,Net-(DAY7-Pad2)*
X133697500Y-54250000D02*
X133697500Y-59000000D01*
G04 #@! TO.N,Net-(DAY14-Pad2)*
X133697500Y-64250000D02*
X133697500Y-69000000D01*
G04 #@! TO.N,Net-(DAY21-Pad2)*
X133386250Y-74140000D02*
X133386250Y-78890000D01*
G04 #@! TO.N,Net-(DAY28-Pad2)*
X133312500Y-84250000D02*
X133312500Y-89000000D01*
G04 #@! TO.N,Net-(DAY35-Pad2)*
X133312500Y-94250000D02*
X133312500Y-99000000D01*
G04 #@! TO.N,Net-(LED_IN1-Pad1)*
X143500000Y-117000000D02*
X148000000Y-117000000D01*
G04 #@! TO.N,Net-(DAY42-Pad2)*
X148000000Y-113000000D02*
X143500000Y-113000000D01*
X137250000Y-106750000D02*
X137250000Y-103000000D01*
X143500000Y-113000000D02*
X137250000Y-106750000D01*
X137250000Y-103000000D02*
X137250000Y-101250000D01*
G04 #@! TO.N,Net-(ONE_WIRE1-Pad2)*
X83750000Y-112750000D02*
X83000000Y-113500000D01*
X91000000Y-112750000D02*
X83750000Y-112750000D01*
G04 #@! TD*
G04 #@! TA.AperFunction,Conductor*
G04 #@! TO.N,GND*
G36*
X58727911Y-40274502D02*
G01*
X58774404Y-40328158D01*
X58784508Y-40398432D01*
X58755014Y-40463012D01*
X58695288Y-40501396D01*
X58684369Y-40504079D01*
X58663069Y-40508315D01*
X58640573Y-40517633D01*
X58577192Y-40559983D01*
X58559983Y-40577192D01*
X58517632Y-40640575D01*
X58508316Y-40663066D01*
X58497207Y-40718915D01*
X58496000Y-40731170D01*
X58496000Y-41854885D01*
X58500475Y-41870124D01*
X58501865Y-41871329D01*
X58509548Y-41873000D01*
X61485884Y-41873000D01*
X61501123Y-41868525D01*
X61502328Y-41867135D01*
X61503999Y-41859452D01*
X61503999Y-40731172D01*
X61502791Y-40718912D01*
X61491685Y-40663069D01*
X61482367Y-40640573D01*
X61440017Y-40577192D01*
X61422808Y-40559983D01*
X61359425Y-40517632D01*
X61336934Y-40508316D01*
X61315633Y-40504079D01*
X61252724Y-40471172D01*
X61217591Y-40409477D01*
X61221391Y-40338582D01*
X61262916Y-40280996D01*
X61328983Y-40255002D01*
X61340214Y-40254500D01*
X138657227Y-40254500D01*
X138725348Y-40274502D01*
X138771841Y-40328158D01*
X138781945Y-40398432D01*
X138752451Y-40463012D01*
X138692725Y-40501396D01*
X138681806Y-40504079D01*
X138662874Y-40507844D01*
X138662872Y-40507845D01*
X138650699Y-40510266D01*
X138640379Y-40517161D01*
X138640378Y-40517162D01*
X138626568Y-40526390D01*
X138566516Y-40566516D01*
X138510266Y-40650699D01*
X138495500Y-40724933D01*
X138495501Y-43275066D01*
X138502612Y-43310818D01*
X138507806Y-43336931D01*
X138510266Y-43349301D01*
X138566516Y-43433484D01*
X138650699Y-43489734D01*
X138724933Y-43504500D01*
X139119500Y-43504500D01*
X139187621Y-43524502D01*
X139234114Y-43578158D01*
X139245500Y-43630499D01*
X139245500Y-52044053D01*
X139260738Y-52174754D01*
X139320768Y-52340134D01*
X139417234Y-52487268D01*
X139544960Y-52608264D01*
X139697096Y-52696632D01*
X139865480Y-52747630D01*
X140041080Y-52758524D01*
X140048296Y-52757284D01*
X140048298Y-52757284D01*
X140207262Y-52729969D01*
X140207264Y-52729968D01*
X140214477Y-52728729D01*
X140376368Y-52659844D01*
X140518071Y-52555563D01*
X140631982Y-52421480D01*
X140654201Y-52377966D01*
X140708666Y-52271305D01*
X140708668Y-52271300D01*
X140711993Y-52264788D01*
X140753811Y-52093892D01*
X140754500Y-52082786D01*
X140754500Y-51268828D01*
X146496001Y-51268828D01*
X146497209Y-51281088D01*
X146508315Y-51336931D01*
X146517633Y-51359427D01*
X146559983Y-51422808D01*
X146577192Y-51440017D01*
X146640575Y-51482368D01*
X146663066Y-51491684D01*
X146718915Y-51502793D01*
X146731170Y-51504000D01*
X147854885Y-51504000D01*
X147870124Y-51499525D01*
X147871329Y-51498135D01*
X147873000Y-51490452D01*
X147873000Y-50145115D01*
X147868525Y-50129876D01*
X147867135Y-50128671D01*
X147859452Y-50127000D01*
X146514116Y-50127000D01*
X146498877Y-50131475D01*
X146497672Y-50132865D01*
X146496001Y-50140548D01*
X146496001Y-51268828D01*
X140754500Y-51268828D01*
X140754500Y-49854885D01*
X146496000Y-49854885D01*
X146500475Y-49870124D01*
X146501865Y-49871329D01*
X146509548Y-49873000D01*
X147854885Y-49873000D01*
X147870124Y-49868525D01*
X147871329Y-49867135D01*
X147873000Y-49859452D01*
X147873000Y-48514116D01*
X147868525Y-48498877D01*
X147867135Y-48497672D01*
X147859452Y-48496001D01*
X146731172Y-48496001D01*
X146718912Y-48497209D01*
X146663069Y-48508315D01*
X146640573Y-48517633D01*
X146577192Y-48559983D01*
X146559983Y-48577192D01*
X146517632Y-48640575D01*
X146508316Y-48663066D01*
X146497207Y-48718915D01*
X146496000Y-48731170D01*
X146496000Y-49854885D01*
X140754500Y-49854885D01*
X140754500Y-44042186D01*
X144141018Y-44042186D01*
X144166579Y-44310100D01*
X144230547Y-44571518D01*
X144331583Y-44820963D01*
X144467569Y-45053210D01*
X144635658Y-45263395D01*
X144832327Y-45447113D01*
X145053457Y-45600516D01*
X145294416Y-45720391D01*
X145298750Y-45721812D01*
X145298753Y-45721813D01*
X145545823Y-45802807D01*
X145545829Y-45802808D01*
X145550156Y-45804227D01*
X145554647Y-45805007D01*
X145554648Y-45805007D01*
X145811538Y-45849611D01*
X145811546Y-45849612D01*
X145815319Y-45850267D01*
X145819156Y-45850458D01*
X145898777Y-45854422D01*
X145898785Y-45854422D01*
X145900348Y-45854500D01*
X146068374Y-45854500D01*
X146070642Y-45854335D01*
X146070654Y-45854335D01*
X146201457Y-45844844D01*
X146268425Y-45839985D01*
X146272880Y-45839001D01*
X146272883Y-45839001D01*
X146526770Y-45782947D01*
X146526772Y-45782946D01*
X146531226Y-45781963D01*
X146782900Y-45686613D01*
X147018172Y-45555931D01*
X147164842Y-45443996D01*
X147228491Y-45395421D01*
X147228495Y-45395417D01*
X147232116Y-45392654D01*
X147420249Y-45200203D01*
X147527242Y-45053210D01*
X147575942Y-44986304D01*
X147575947Y-44986297D01*
X147578630Y-44982610D01*
X147703941Y-44744433D01*
X147793557Y-44490662D01*
X147818688Y-44363156D01*
X147844720Y-44231083D01*
X147844721Y-44231077D01*
X147845601Y-44226611D01*
X147854782Y-44042186D01*
X147858755Y-43962383D01*
X147858755Y-43962377D01*
X147858982Y-43957814D01*
X147833421Y-43689900D01*
X147787759Y-43503291D01*
X147770539Y-43432920D01*
X147769453Y-43428482D01*
X147668417Y-43179037D01*
X147532431Y-42946790D01*
X147364342Y-42736605D01*
X147167673Y-42552887D01*
X146946543Y-42399484D01*
X146705584Y-42279609D01*
X146701250Y-42278188D01*
X146701247Y-42278187D01*
X146454177Y-42197193D01*
X146454171Y-42197192D01*
X146449844Y-42195773D01*
X146445352Y-42194993D01*
X146188462Y-42150389D01*
X146188454Y-42150388D01*
X146184681Y-42149733D01*
X146174718Y-42149237D01*
X146101223Y-42145578D01*
X146101215Y-42145578D01*
X146099652Y-42145500D01*
X145931626Y-42145500D01*
X145929358Y-42145665D01*
X145929346Y-42145665D01*
X145798543Y-42155156D01*
X145731575Y-42160015D01*
X145727120Y-42160999D01*
X145727117Y-42160999D01*
X145473230Y-42217053D01*
X145473228Y-42217054D01*
X145468774Y-42218037D01*
X145217100Y-42313387D01*
X145213114Y-42315601D01*
X145213112Y-42315602D01*
X145065754Y-42397452D01*
X144981828Y-42444069D01*
X144978196Y-42446841D01*
X144771509Y-42604579D01*
X144771505Y-42604583D01*
X144767884Y-42607346D01*
X144579751Y-42799797D01*
X144577066Y-42803486D01*
X144424058Y-43013696D01*
X144424053Y-43013703D01*
X144421370Y-43017390D01*
X144296059Y-43255567D01*
X144206443Y-43509338D01*
X144195989Y-43562378D01*
X144170855Y-43689900D01*
X144154399Y-43773389D01*
X144154172Y-43777942D01*
X144154172Y-43777945D01*
X144144991Y-43962383D01*
X144141018Y-44042186D01*
X140754500Y-44042186D01*
X140754500Y-43630499D01*
X140774502Y-43562378D01*
X140828158Y-43515885D01*
X140880500Y-43504499D01*
X141275066Y-43504499D01*
X141310818Y-43497388D01*
X141337126Y-43492156D01*
X141337128Y-43492155D01*
X141349301Y-43489734D01*
X141359621Y-43482839D01*
X141359622Y-43482838D01*
X141423168Y-43440377D01*
X141433484Y-43433484D01*
X141489734Y-43349301D01*
X141504500Y-43275067D01*
X141504499Y-40724934D01*
X141493950Y-40671894D01*
X141492156Y-40662874D01*
X141492155Y-40662872D01*
X141489734Y-40650699D01*
X141433484Y-40566516D01*
X141349301Y-40510266D01*
X141318197Y-40504079D01*
X141255287Y-40471171D01*
X141220155Y-40409476D01*
X141223955Y-40338582D01*
X141265481Y-40280996D01*
X141331548Y-40255001D01*
X141342778Y-40254500D01*
X146962524Y-40254500D01*
X146987103Y-40256921D01*
X147000000Y-40259486D01*
X147012172Y-40257065D01*
X147024579Y-40257065D01*
X147024579Y-40257262D01*
X147035506Y-40256494D01*
X147300337Y-40271366D01*
X147314369Y-40272947D01*
X147459164Y-40297549D01*
X147603955Y-40322150D01*
X147617730Y-40325294D01*
X147663854Y-40338582D01*
X147899992Y-40406612D01*
X147913311Y-40411273D01*
X148184695Y-40523684D01*
X148197418Y-40529811D01*
X148454506Y-40671899D01*
X148466454Y-40679406D01*
X148663653Y-40819326D01*
X148706027Y-40849392D01*
X148717062Y-40858192D01*
X148936086Y-41053923D01*
X148946076Y-41063913D01*
X149141808Y-41282938D01*
X149150606Y-41293971D01*
X149320594Y-41533546D01*
X149328101Y-41545494D01*
X149399378Y-41674459D01*
X149470187Y-41802578D01*
X149476316Y-41815305D01*
X149588727Y-42086689D01*
X149593388Y-42100008D01*
X149644720Y-42278187D01*
X149674706Y-42382270D01*
X149677850Y-42396045D01*
X149678876Y-42402084D01*
X149722587Y-42659345D01*
X149727052Y-42685626D01*
X149728634Y-42699663D01*
X149742312Y-42943223D01*
X149743506Y-42964491D01*
X149742738Y-42975421D01*
X149742935Y-42975421D01*
X149742935Y-42987828D01*
X149740514Y-43000000D01*
X149742935Y-43012170D01*
X149743079Y-43012894D01*
X149745500Y-43037476D01*
X149745500Y-48659790D01*
X149725498Y-48727911D01*
X149671842Y-48774404D01*
X149601568Y-48784508D01*
X149536988Y-48755014D01*
X149498604Y-48695288D01*
X149495921Y-48684369D01*
X149491685Y-48663069D01*
X149482367Y-48640573D01*
X149440017Y-48577192D01*
X149422808Y-48559983D01*
X149359425Y-48517632D01*
X149336934Y-48508316D01*
X149281085Y-48497207D01*
X149268830Y-48496000D01*
X148145115Y-48496000D01*
X148129876Y-48500475D01*
X148128671Y-48501865D01*
X148127000Y-48509548D01*
X148127000Y-51485884D01*
X148131475Y-51501123D01*
X148132865Y-51502328D01*
X148140548Y-51503999D01*
X149268828Y-51503999D01*
X149281088Y-51502791D01*
X149336931Y-51491685D01*
X149359427Y-51482367D01*
X149422808Y-51440017D01*
X149440017Y-51422808D01*
X149482368Y-51359425D01*
X149491684Y-51336934D01*
X149495921Y-51315633D01*
X149528828Y-51252724D01*
X149590523Y-51217591D01*
X149661418Y-51221391D01*
X149719004Y-51262916D01*
X149744998Y-51328983D01*
X149745500Y-51340214D01*
X149745500Y-53657227D01*
X149725498Y-53725348D01*
X149671842Y-53771841D01*
X149601568Y-53781945D01*
X149536988Y-53752451D01*
X149498604Y-53692725D01*
X149495921Y-53681806D01*
X149492156Y-53662874D01*
X149492155Y-53662872D01*
X149489734Y-53650699D01*
X149479595Y-53635524D01*
X149440377Y-53576832D01*
X149433484Y-53566516D01*
X149349301Y-53510266D01*
X149275067Y-53495500D01*
X148000207Y-53495500D01*
X146724934Y-53495501D01*
X146689182Y-53502612D01*
X146662874Y-53507844D01*
X146662872Y-53507845D01*
X146650699Y-53510266D01*
X146640379Y-53517161D01*
X146640378Y-53517162D01*
X146579985Y-53557516D01*
X146566516Y-53566516D01*
X146510266Y-53650699D01*
X146495500Y-53724933D01*
X146495501Y-56275066D01*
X146500970Y-56302563D01*
X146504080Y-56318197D01*
X146510266Y-56349301D01*
X146517161Y-56359620D01*
X146517162Y-56359622D01*
X146547868Y-56405576D01*
X146566516Y-56433484D01*
X146650699Y-56489734D01*
X146724933Y-56504500D01*
X147999793Y-56504500D01*
X149275066Y-56504499D01*
X149310818Y-56497388D01*
X149337126Y-56492156D01*
X149337128Y-56492155D01*
X149349301Y-56489734D01*
X149359621Y-56482839D01*
X149359622Y-56482838D01*
X149423168Y-56440377D01*
X149433484Y-56433484D01*
X149489734Y-56349301D01*
X149495921Y-56318197D01*
X149528829Y-56255287D01*
X149590524Y-56220155D01*
X149661418Y-56223955D01*
X149719004Y-56265481D01*
X149744999Y-56331548D01*
X149745500Y-56342778D01*
X149745500Y-63657227D01*
X149725498Y-63725348D01*
X149671842Y-63771841D01*
X149601568Y-63781945D01*
X149536988Y-63752451D01*
X149498604Y-63692725D01*
X149495921Y-63681806D01*
X149492156Y-63662874D01*
X149492155Y-63662872D01*
X149489734Y-63650699D01*
X149479595Y-63635524D01*
X149440377Y-63576832D01*
X149433484Y-63566516D01*
X149349301Y-63510266D01*
X149275067Y-63495500D01*
X148000207Y-63495500D01*
X146724934Y-63495501D01*
X146689182Y-63502612D01*
X146662874Y-63507844D01*
X146662872Y-63507845D01*
X146650699Y-63510266D01*
X146640379Y-63517161D01*
X146640378Y-63517162D01*
X146579985Y-63557516D01*
X146566516Y-63566516D01*
X146510266Y-63650699D01*
X146495500Y-63724933D01*
X146495501Y-66275066D01*
X146502612Y-66310818D01*
X146504080Y-66318197D01*
X146510266Y-66349301D01*
X146566516Y-66433484D01*
X146650699Y-66489734D01*
X146724933Y-66504500D01*
X147999793Y-66504500D01*
X149275066Y-66504499D01*
X149310818Y-66497388D01*
X149337126Y-66492156D01*
X149337128Y-66492155D01*
X149349301Y-66489734D01*
X149359621Y-66482839D01*
X149359622Y-66482838D01*
X149423168Y-66440377D01*
X149433484Y-66433484D01*
X149489734Y-66349301D01*
X149495921Y-66318197D01*
X149528829Y-66255287D01*
X149590524Y-66220155D01*
X149661418Y-66223955D01*
X149719004Y-66265481D01*
X149744999Y-66331548D01*
X149745500Y-66342778D01*
X149745500Y-73657227D01*
X149725498Y-73725348D01*
X149671842Y-73771841D01*
X149601568Y-73781945D01*
X149536988Y-73752451D01*
X149498604Y-73692725D01*
X149495921Y-73681806D01*
X149492156Y-73662874D01*
X149492155Y-73662872D01*
X149489734Y-73650699D01*
X149454930Y-73598611D01*
X149440377Y-73576832D01*
X149433484Y-73566516D01*
X149349301Y-73510266D01*
X149275067Y-73495500D01*
X148000207Y-73495500D01*
X146724934Y-73495501D01*
X146689182Y-73502612D01*
X146662874Y-73507844D01*
X146662872Y-73507845D01*
X146650699Y-73510266D01*
X146640379Y-73517161D01*
X146640378Y-73517162D01*
X146627864Y-73525524D01*
X146566516Y-73566516D01*
X146510266Y-73650699D01*
X146495500Y-73724933D01*
X146495501Y-76275066D01*
X146502612Y-76310818D01*
X146504080Y-76318197D01*
X146510266Y-76349301D01*
X146566516Y-76433484D01*
X146650699Y-76489734D01*
X146724933Y-76504500D01*
X147999793Y-76504500D01*
X149275066Y-76504499D01*
X149310818Y-76497388D01*
X149337126Y-76492156D01*
X149337128Y-76492155D01*
X149349301Y-76489734D01*
X149359621Y-76482839D01*
X149359622Y-76482838D01*
X149423168Y-76440377D01*
X149433484Y-76433484D01*
X149489734Y-76349301D01*
X149495921Y-76318197D01*
X149528829Y-76255287D01*
X149590524Y-76220155D01*
X149661418Y-76223955D01*
X149719004Y-76265481D01*
X149744999Y-76331548D01*
X149745500Y-76342778D01*
X149745500Y-83657227D01*
X149725498Y-83725348D01*
X149671842Y-83771841D01*
X149601568Y-83781945D01*
X149536988Y-83752451D01*
X149498604Y-83692725D01*
X149495921Y-83681806D01*
X149492156Y-83662874D01*
X149492155Y-83662872D01*
X149489734Y-83650699D01*
X149433484Y-83566516D01*
X149349301Y-83510266D01*
X149275067Y-83495500D01*
X148000207Y-83495500D01*
X146724934Y-83495501D01*
X146689182Y-83502612D01*
X146662874Y-83507844D01*
X146662872Y-83507845D01*
X146650699Y-83510266D01*
X146640379Y-83517161D01*
X146640378Y-83517162D01*
X146579985Y-83557516D01*
X146566516Y-83566516D01*
X146510266Y-83650699D01*
X146495500Y-83724933D01*
X146495501Y-86275066D01*
X146502612Y-86310818D01*
X146504080Y-86318197D01*
X146510266Y-86349301D01*
X146566516Y-86433484D01*
X146650699Y-86489734D01*
X146724933Y-86504500D01*
X147999793Y-86504500D01*
X149275066Y-86504499D01*
X149310818Y-86497388D01*
X149337126Y-86492156D01*
X149337128Y-86492155D01*
X149349301Y-86489734D01*
X149359621Y-86482839D01*
X149359622Y-86482838D01*
X149423168Y-86440377D01*
X149433484Y-86433484D01*
X149489734Y-86349301D01*
X149495921Y-86318197D01*
X149528829Y-86255287D01*
X149590524Y-86220155D01*
X149661418Y-86223955D01*
X149719004Y-86265481D01*
X149744999Y-86331548D01*
X149745500Y-86342778D01*
X149745500Y-93657227D01*
X149725498Y-93725348D01*
X149671842Y-93771841D01*
X149601568Y-93781945D01*
X149536988Y-93752451D01*
X149498604Y-93692725D01*
X149495921Y-93681806D01*
X149492156Y-93662874D01*
X149492155Y-93662872D01*
X149489734Y-93650699D01*
X149479595Y-93635524D01*
X149440377Y-93576832D01*
X149433484Y-93566516D01*
X149349301Y-93510266D01*
X149275067Y-93495500D01*
X148000207Y-93495500D01*
X146724934Y-93495501D01*
X146689182Y-93502612D01*
X146662874Y-93507844D01*
X146662872Y-93507845D01*
X146650699Y-93510266D01*
X146640379Y-93517161D01*
X146640378Y-93517162D01*
X146579985Y-93557516D01*
X146566516Y-93566516D01*
X146510266Y-93650699D01*
X146495500Y-93724933D01*
X146495501Y-96275066D01*
X146502612Y-96310818D01*
X146504080Y-96318197D01*
X146510266Y-96349301D01*
X146566516Y-96433484D01*
X146650699Y-96489734D01*
X146724933Y-96504500D01*
X147999793Y-96504500D01*
X149275066Y-96504499D01*
X149310818Y-96497388D01*
X149337126Y-96492156D01*
X149337128Y-96492155D01*
X149349301Y-96489734D01*
X149359621Y-96482839D01*
X149359622Y-96482838D01*
X149423168Y-96440377D01*
X149433484Y-96433484D01*
X149489734Y-96349301D01*
X149495921Y-96318197D01*
X149528829Y-96255287D01*
X149590524Y-96220155D01*
X149661418Y-96223955D01*
X149719004Y-96265481D01*
X149744999Y-96331548D01*
X149745500Y-96342778D01*
X149745500Y-111657227D01*
X149725498Y-111725348D01*
X149671842Y-111771841D01*
X149601568Y-111781945D01*
X149536988Y-111752451D01*
X149498604Y-111692725D01*
X149495921Y-111681806D01*
X149492156Y-111662874D01*
X149492155Y-111662872D01*
X149489734Y-111650699D01*
X149433484Y-111566516D01*
X149349301Y-111510266D01*
X149275067Y-111495500D01*
X148000207Y-111495500D01*
X146724934Y-111495501D01*
X146689182Y-111502612D01*
X146662874Y-111507844D01*
X146662872Y-111507845D01*
X146650699Y-111510266D01*
X146640379Y-111517161D01*
X146640378Y-111517162D01*
X146579985Y-111557516D01*
X146566516Y-111566516D01*
X146510266Y-111650699D01*
X146495500Y-111724933D01*
X146495500Y-112494500D01*
X146475498Y-112562621D01*
X146421842Y-112609114D01*
X146369500Y-112620500D01*
X143709384Y-112620500D01*
X143641263Y-112600498D01*
X143620289Y-112583595D01*
X140456805Y-109420111D01*
X140422779Y-109357799D01*
X140427844Y-109286984D01*
X140470391Y-109230148D01*
X140496567Y-109215075D01*
X140550045Y-109192320D01*
X140626368Y-109159844D01*
X140768071Y-109055563D01*
X140881982Y-108921480D01*
X140925225Y-108836794D01*
X140958666Y-108771305D01*
X140958668Y-108771300D01*
X140961993Y-108764788D01*
X141003811Y-108593892D01*
X141004500Y-108582786D01*
X141004500Y-103555947D01*
X140989262Y-103425246D01*
X140929232Y-103259866D01*
X140832766Y-103112732D01*
X140705040Y-102991736D01*
X140552904Y-102903368D01*
X140545900Y-102901247D01*
X140545896Y-102901245D01*
X140414296Y-102861388D01*
X140391868Y-102852156D01*
X140311274Y-102809484D01*
X140157633Y-102770892D01*
X140150034Y-102770852D01*
X140150033Y-102770852D01*
X140084181Y-102770507D01*
X139999221Y-102770062D01*
X139991841Y-102771834D01*
X139991839Y-102771834D01*
X139852563Y-102805271D01*
X139852560Y-102805272D01*
X139845184Y-102807043D01*
X139704414Y-102879700D01*
X139585039Y-102983838D01*
X139493950Y-103113444D01*
X139491190Y-103120524D01*
X139439249Y-103253746D01*
X139436406Y-103261037D01*
X139415729Y-103418096D01*
X139424421Y-103496824D01*
X139431353Y-103559610D01*
X139433113Y-103575553D01*
X139435723Y-103582684D01*
X139435723Y-103582686D01*
X139487553Y-103724319D01*
X139485187Y-103725185D01*
X139495500Y-103768156D01*
X139495500Y-108154616D01*
X139475498Y-108222737D01*
X139421842Y-108269230D01*
X139351568Y-108279334D01*
X139286988Y-108249840D01*
X139280405Y-108243711D01*
X137666405Y-106629711D01*
X137632379Y-106567399D01*
X137629500Y-106540616D01*
X137629500Y-101844730D01*
X137649502Y-101776609D01*
X137673669Y-101748919D01*
X137729536Y-101701204D01*
X137735314Y-101696269D01*
X137827755Y-101567624D01*
X137886842Y-101420641D01*
X137909162Y-101263807D01*
X137909307Y-101250000D01*
X137890276Y-101092733D01*
X137834280Y-100944546D01*
X137744553Y-100813992D01*
X137626275Y-100708611D01*
X137618889Y-100704700D01*
X137492988Y-100638039D01*
X137492989Y-100638039D01*
X137486274Y-100634484D01*
X137332633Y-100595892D01*
X137325034Y-100595852D01*
X137325033Y-100595852D01*
X137259181Y-100595507D01*
X137174221Y-100595062D01*
X137166841Y-100596834D01*
X137166839Y-100596834D01*
X137027563Y-100630271D01*
X137027560Y-100630272D01*
X137020184Y-100632043D01*
X136879414Y-100704700D01*
X136760039Y-100808838D01*
X136668950Y-100938444D01*
X136611406Y-101086037D01*
X136590729Y-101243096D01*
X136608113Y-101400553D01*
X136662553Y-101549319D01*
X136750908Y-101680805D01*
X136756527Y-101685918D01*
X136756528Y-101685919D01*
X136829299Y-101752135D01*
X136866222Y-101812775D01*
X136870500Y-101845329D01*
X136870500Y-106696080D01*
X136867951Y-106720028D01*
X136867872Y-106721693D01*
X136865680Y-106731876D01*
X136866904Y-106742217D01*
X136869627Y-106765223D01*
X136869977Y-106771154D01*
X136870072Y-106771146D01*
X136870500Y-106776324D01*
X136870500Y-106781524D01*
X136871354Y-106786653D01*
X136871354Y-106786656D01*
X136873669Y-106800565D01*
X136874506Y-106806443D01*
X136880530Y-106857341D01*
X136884493Y-106865593D01*
X136885996Y-106874626D01*
X136890943Y-106883795D01*
X136890944Y-106883797D01*
X136910334Y-106919732D01*
X136913031Y-106925025D01*
X136931785Y-106964082D01*
X136931788Y-106964086D01*
X136935219Y-106971232D01*
X136938814Y-106975508D01*
X136940737Y-106977431D01*
X136942509Y-106979363D01*
X136942552Y-106979442D01*
X136942428Y-106979555D01*
X136942904Y-106980095D01*
X136945990Y-106985814D01*
X136953635Y-106992881D01*
X136985586Y-107022416D01*
X136989152Y-107025846D01*
X137484711Y-107521405D01*
X137518737Y-107583717D01*
X137513672Y-107654532D01*
X137471125Y-107711368D01*
X137404605Y-107736179D01*
X137395616Y-107736500D01*
X111376000Y-107736500D01*
X111372654Y-107736860D01*
X111372649Y-107736860D01*
X111270215Y-107747872D01*
X111270208Y-107747873D01*
X111266851Y-107748234D01*
X111263551Y-107748952D01*
X111263550Y-107748952D01*
X111217790Y-107758906D01*
X111217785Y-107758907D01*
X111214509Y-107759620D01*
X111110343Y-107794290D01*
X110987388Y-107873308D01*
X110933732Y-107919801D01*
X110930792Y-107923194D01*
X110843919Y-108023450D01*
X110843917Y-108023453D01*
X110838018Y-108030261D01*
X110777302Y-108163210D01*
X110757300Y-108231331D01*
X110756660Y-108235780D01*
X110756659Y-108235786D01*
X110737139Y-108371553D01*
X110736500Y-108376000D01*
X110736500Y-130218745D01*
X110736785Y-130235840D01*
X110737064Y-130244216D01*
X110737915Y-130261256D01*
X110738956Y-130266158D01*
X110738957Y-130266163D01*
X110757124Y-130351680D01*
X110768286Y-130404223D01*
X110792772Y-130470863D01*
X110862188Y-130599477D01*
X110965030Y-130703330D01*
X110999400Y-130729322D01*
X111018069Y-130743441D01*
X111018073Y-130743444D01*
X111021657Y-130746154D01*
X111025592Y-130748328D01*
X111025594Y-130748329D01*
X111141712Y-130812472D01*
X111141714Y-130812473D01*
X111149600Y-130816829D01*
X111235873Y-130836037D01*
X111286304Y-130847265D01*
X111292264Y-130848592D01*
X111296750Y-130848935D01*
X111296751Y-130848935D01*
X111340494Y-130852278D01*
X111340495Y-130852278D01*
X111352104Y-130853165D01*
X111352249Y-130851268D01*
X111356741Y-130850882D01*
X111397000Y-130852414D01*
X111404513Y-130853367D01*
X111404513Y-130855000D01*
X111528270Y-130855000D01*
X111554466Y-130857753D01*
X111609784Y-130869511D01*
X111634831Y-130877649D01*
X111680152Y-130897827D01*
X111686486Y-130900647D01*
X111709299Y-130913818D01*
X111755052Y-130947060D01*
X111774626Y-130964686D01*
X111812460Y-131006705D01*
X111827944Y-131028016D01*
X111856217Y-131076987D01*
X111866930Y-131101049D01*
X111884403Y-131154824D01*
X111889880Y-131180589D01*
X111894881Y-131228159D01*
X111895792Y-131236830D01*
X111895792Y-131263168D01*
X111891330Y-131305623D01*
X111889881Y-131319407D01*
X111884404Y-131345172D01*
X111858439Y-131425083D01*
X111858017Y-131426382D01*
X111846233Y-131468741D01*
X111845938Y-131470011D01*
X111845932Y-131470033D01*
X111841654Y-131488428D01*
X111841348Y-131489745D01*
X111833226Y-131532990D01*
X111833226Y-131679148D01*
X111843330Y-131749422D01*
X111884507Y-131889657D01*
X111889377Y-131897236D01*
X111889379Y-131897239D01*
X111926218Y-131954561D01*
X111963525Y-132012612D01*
X112010018Y-132066268D01*
X112013411Y-132069208D01*
X112113667Y-132156081D01*
X112113670Y-132156083D01*
X112120478Y-132161982D01*
X112253427Y-132222698D01*
X112277181Y-132229673D01*
X112317225Y-132241431D01*
X112317229Y-132241432D01*
X112321548Y-132242700D01*
X112325997Y-132243340D01*
X112326003Y-132243341D01*
X112461770Y-132262861D01*
X112461775Y-132262861D01*
X112466217Y-132263500D01*
X132178350Y-132263500D01*
X132246588Y-132258946D01*
X132268237Y-132256043D01*
X132277706Y-132254774D01*
X132277712Y-132254773D01*
X132279778Y-132254496D01*
X132296795Y-132251048D01*
X132340319Y-132242229D01*
X132340321Y-132242228D01*
X132346798Y-132240916D01*
X132480879Y-132182744D01*
X132541324Y-132145506D01*
X132570405Y-132121262D01*
X132650134Y-132054792D01*
X132653591Y-132051910D01*
X132725377Y-131972183D01*
X132744948Y-131954561D01*
X132790700Y-131921319D01*
X132813514Y-131908147D01*
X132838014Y-131897239D01*
X132865169Y-131885149D01*
X132890216Y-131877011D01*
X132945534Y-131865253D01*
X132971730Y-131862500D01*
X133028270Y-131862500D01*
X133054466Y-131865253D01*
X133109784Y-131877011D01*
X133134831Y-131885149D01*
X133161986Y-131897239D01*
X133186486Y-131908147D01*
X133209300Y-131921319D01*
X133255052Y-131954561D01*
X133274623Y-131972183D01*
X133346410Y-132051911D01*
X133395458Y-132099577D01*
X133420971Y-132121262D01*
X133422656Y-132122511D01*
X133422665Y-132122518D01*
X133435765Y-132132227D01*
X133475911Y-132161982D01*
X133608860Y-132222698D01*
X133632614Y-132229673D01*
X133672658Y-132241431D01*
X133672662Y-132241432D01*
X133676981Y-132242700D01*
X133681430Y-132243340D01*
X133681436Y-132243341D01*
X133817203Y-132262861D01*
X133817208Y-132262861D01*
X133821650Y-132263500D01*
X138865500Y-132263500D01*
X138868846Y-132263140D01*
X138868851Y-132263140D01*
X138971285Y-132252128D01*
X138971292Y-132252127D01*
X138974649Y-132251766D01*
X138977950Y-132251048D01*
X139023710Y-132241094D01*
X139023715Y-132241093D01*
X139026991Y-132240380D01*
X139030174Y-132239320D01*
X139030187Y-132239317D01*
X139079710Y-132222834D01*
X139150661Y-132220300D01*
X139211719Y-132256528D01*
X139243498Y-132320015D01*
X139245500Y-132342386D01*
X139245500Y-136369501D01*
X139225498Y-136437622D01*
X139171842Y-136484115D01*
X139119500Y-136495501D01*
X138724934Y-136495501D01*
X138689182Y-136502612D01*
X138662874Y-136507844D01*
X138662872Y-136507845D01*
X138650699Y-136510266D01*
X138640379Y-136517161D01*
X138640378Y-136517162D01*
X138611647Y-136536360D01*
X138566516Y-136566516D01*
X138510266Y-136650699D01*
X138495500Y-136724933D01*
X138495501Y-139275066D01*
X138502612Y-139310818D01*
X138507806Y-139336931D01*
X138510266Y-139349301D01*
X138566516Y-139433484D01*
X138650699Y-139489734D01*
X138679228Y-139495409D01*
X138681803Y-139495921D01*
X138744713Y-139528829D01*
X138779845Y-139590524D01*
X138776045Y-139661418D01*
X138734519Y-139719004D01*
X138668452Y-139744999D01*
X138657222Y-139745500D01*
X115446000Y-139745500D01*
X115377879Y-139725498D01*
X115331386Y-139671842D01*
X115320000Y-139619500D01*
X115320000Y-135700906D01*
X124036000Y-135700906D01*
X124036266Y-135706695D01*
X124049934Y-135855447D01*
X124052031Y-135866762D01*
X124106465Y-136059769D01*
X124110587Y-136070508D01*
X124199283Y-136250366D01*
X124205293Y-136260174D01*
X124325284Y-136420861D01*
X124332973Y-136429401D01*
X124480245Y-136565537D01*
X124489361Y-136572532D01*
X124658964Y-136679544D01*
X124669215Y-136684767D01*
X124855473Y-136759076D01*
X124866510Y-136762345D01*
X125045230Y-136797895D01*
X125058106Y-136796743D01*
X125063000Y-136781587D01*
X125063000Y-136781058D01*
X125317000Y-136781058D01*
X125320806Y-136794020D01*
X125335722Y-136795956D01*
X125484260Y-136770433D01*
X125495380Y-136767453D01*
X125683522Y-136698044D01*
X125693900Y-136693094D01*
X125866242Y-136590561D01*
X125875554Y-136583795D01*
X126026327Y-136451571D01*
X126034244Y-136443228D01*
X126109508Y-136347756D01*
X127845500Y-136347756D01*
X127852202Y-136409448D01*
X127902929Y-136544764D01*
X127908309Y-136551943D01*
X127908311Y-136551946D01*
X127966717Y-136629876D01*
X127989596Y-136660404D01*
X128007099Y-136673522D01*
X128098054Y-136741689D01*
X128098057Y-136741691D01*
X128105236Y-136747071D01*
X128159606Y-136767453D01*
X128233157Y-136795026D01*
X128233159Y-136795026D01*
X128240552Y-136797798D01*
X128248402Y-136798651D01*
X128248403Y-136798651D01*
X128298847Y-136804131D01*
X128302244Y-136804500D01*
X129697756Y-136804500D01*
X129701153Y-136804131D01*
X129751597Y-136798651D01*
X129751598Y-136798651D01*
X129759448Y-136797798D01*
X129766841Y-136795026D01*
X129766843Y-136795026D01*
X129840394Y-136767453D01*
X129894764Y-136747071D01*
X129901943Y-136741691D01*
X129901946Y-136741689D01*
X129992901Y-136673522D01*
X130010404Y-136660404D01*
X130033283Y-136629876D01*
X130091689Y-136551946D01*
X130091691Y-136551943D01*
X130097071Y-136544764D01*
X130147798Y-136409448D01*
X130154500Y-136347756D01*
X130154500Y-133152244D01*
X130147798Y-133090552D01*
X130097071Y-132955236D01*
X130091691Y-132948057D01*
X130091689Y-132948054D01*
X130015785Y-132846776D01*
X130010404Y-132839596D01*
X129956465Y-132799171D01*
X129901946Y-132758311D01*
X129901943Y-132758309D01*
X129894764Y-132752929D01*
X129802691Y-132718413D01*
X129766843Y-132704974D01*
X129766841Y-132704974D01*
X129759448Y-132702202D01*
X129751598Y-132701349D01*
X129751597Y-132701349D01*
X129701153Y-132695869D01*
X129701152Y-132695869D01*
X129697756Y-132695500D01*
X128302244Y-132695500D01*
X128298848Y-132695869D01*
X128298847Y-132695869D01*
X128248403Y-132701349D01*
X128248402Y-132701349D01*
X128240552Y-132702202D01*
X128233159Y-132704974D01*
X128233157Y-132704974D01*
X128197309Y-132718413D01*
X128105236Y-132752929D01*
X128098057Y-132758309D01*
X128098054Y-132758311D01*
X128043535Y-132799171D01*
X127989596Y-132839596D01*
X127984215Y-132846776D01*
X127908311Y-132948054D01*
X127908309Y-132948057D01*
X127902929Y-132955236D01*
X127852202Y-133090552D01*
X127845500Y-133152244D01*
X127845500Y-136347756D01*
X126109508Y-136347756D01*
X126158395Y-136285743D01*
X126164663Y-136276092D01*
X126258033Y-136098625D01*
X126262438Y-136087991D01*
X126321905Y-135896475D01*
X126324297Y-135885221D01*
X126343564Y-135722442D01*
X126344000Y-135715039D01*
X126344000Y-134895115D01*
X126339525Y-134879876D01*
X126338135Y-134878671D01*
X126330452Y-134877000D01*
X125335115Y-134877000D01*
X125319876Y-134881475D01*
X125318671Y-134882865D01*
X125317000Y-134890548D01*
X125317000Y-136781058D01*
X125063000Y-136781058D01*
X125063000Y-134895115D01*
X125058525Y-134879876D01*
X125057135Y-134878671D01*
X125049452Y-134877000D01*
X124054115Y-134877000D01*
X124038876Y-134881475D01*
X124037671Y-134882865D01*
X124036000Y-134890548D01*
X124036000Y-135700906D01*
X115320000Y-135700906D01*
X115320000Y-134604885D01*
X124036000Y-134604885D01*
X124040475Y-134620124D01*
X124041865Y-134621329D01*
X124049548Y-134623000D01*
X125044885Y-134623000D01*
X125060124Y-134618525D01*
X125061329Y-134617135D01*
X125063000Y-134609452D01*
X125063000Y-134604885D01*
X125317000Y-134604885D01*
X125321475Y-134620124D01*
X125322865Y-134621329D01*
X125330548Y-134623000D01*
X126325885Y-134623000D01*
X126341124Y-134618525D01*
X126342329Y-134617135D01*
X126344000Y-134609452D01*
X126344000Y-133799094D01*
X126343734Y-133793305D01*
X126330066Y-133644553D01*
X126327969Y-133633238D01*
X126273535Y-133440231D01*
X126269413Y-133429492D01*
X126180717Y-133249634D01*
X126174707Y-133239826D01*
X126054716Y-133079139D01*
X126047027Y-133070599D01*
X125899755Y-132934463D01*
X125890639Y-132927468D01*
X125721036Y-132820456D01*
X125710785Y-132815233D01*
X125524527Y-132740924D01*
X125513490Y-132737655D01*
X125334770Y-132702105D01*
X125321894Y-132703257D01*
X125317000Y-132718413D01*
X125317000Y-134604885D01*
X125063000Y-134604885D01*
X125063000Y-132718942D01*
X125059194Y-132705980D01*
X125044278Y-132704044D01*
X124895740Y-132729567D01*
X124884620Y-132732547D01*
X124696478Y-132801956D01*
X124686100Y-132806906D01*
X124513758Y-132909439D01*
X124504446Y-132916205D01*
X124353673Y-133048429D01*
X124345756Y-133056772D01*
X124221605Y-133214257D01*
X124215337Y-133223908D01*
X124121967Y-133401375D01*
X124117562Y-133412009D01*
X124058095Y-133603525D01*
X124055703Y-133614779D01*
X124036436Y-133777558D01*
X124036000Y-133784961D01*
X124036000Y-134604885D01*
X115320000Y-134604885D01*
X115320000Y-132797500D01*
X87320000Y-132797500D01*
X87320000Y-139619500D01*
X87299998Y-139687621D01*
X87246342Y-139734114D01*
X87194000Y-139745500D01*
X61340210Y-139745500D01*
X61272089Y-139725498D01*
X61225596Y-139671842D01*
X61215492Y-139601568D01*
X61244986Y-139536988D01*
X61304712Y-139498604D01*
X61315631Y-139495921D01*
X61336931Y-139491685D01*
X61359427Y-139482367D01*
X61422808Y-139440017D01*
X61440017Y-139422808D01*
X61482368Y-139359425D01*
X61491684Y-139336934D01*
X61502793Y-139281085D01*
X61504000Y-139268830D01*
X61504000Y-138145115D01*
X61499525Y-138129876D01*
X61498135Y-138128671D01*
X61490452Y-138127000D01*
X58514116Y-138127000D01*
X58498877Y-138131475D01*
X58497672Y-138132865D01*
X58496001Y-138140548D01*
X58496001Y-139268828D01*
X58497209Y-139281088D01*
X58508315Y-139336931D01*
X58517633Y-139359427D01*
X58559983Y-139422808D01*
X58577192Y-139440017D01*
X58640575Y-139482368D01*
X58663066Y-139491684D01*
X58684367Y-139495921D01*
X58747276Y-139528828D01*
X58782409Y-139590523D01*
X58778609Y-139661418D01*
X58737084Y-139719004D01*
X58671017Y-139744998D01*
X58659786Y-139745500D01*
X53037476Y-139745500D01*
X53012897Y-139743079D01*
X53000000Y-139740514D01*
X52987828Y-139742935D01*
X52975421Y-139742935D01*
X52975421Y-139742738D01*
X52964494Y-139743506D01*
X52699663Y-139728634D01*
X52685631Y-139727053D01*
X52540836Y-139702451D01*
X52396045Y-139677850D01*
X52382270Y-139674706D01*
X52249858Y-139636559D01*
X52100008Y-139593388D01*
X52086689Y-139588727D01*
X51815305Y-139476316D01*
X51802582Y-139470189D01*
X51545494Y-139328101D01*
X51533546Y-139320594D01*
X51293971Y-139150606D01*
X51282938Y-139141808D01*
X51063913Y-138946076D01*
X51053923Y-138936086D01*
X51035591Y-138915572D01*
X50858192Y-138717062D01*
X50849392Y-138706027D01*
X50795081Y-138629483D01*
X50679406Y-138466454D01*
X50671899Y-138454506D01*
X50529811Y-138197418D01*
X50523682Y-138184691D01*
X50507289Y-138145115D01*
X50411273Y-137913311D01*
X50406612Y-137899992D01*
X50393617Y-137854885D01*
X58496000Y-137854885D01*
X58500475Y-137870124D01*
X58501865Y-137871329D01*
X58509548Y-137873000D01*
X59854885Y-137873000D01*
X59870124Y-137868525D01*
X59871329Y-137867135D01*
X59873000Y-137859452D01*
X59873000Y-137854885D01*
X60127000Y-137854885D01*
X60131475Y-137870124D01*
X60132865Y-137871329D01*
X60140548Y-137873000D01*
X61485884Y-137873000D01*
X61501123Y-137868525D01*
X61502328Y-137867135D01*
X61503999Y-137859452D01*
X61503999Y-137368828D01*
X70046001Y-137368828D01*
X70047209Y-137381088D01*
X70058315Y-137436931D01*
X70067633Y-137459427D01*
X70109983Y-137522808D01*
X70127192Y-137540017D01*
X70190575Y-137582368D01*
X70213066Y-137591684D01*
X70268915Y-137602793D01*
X70281170Y-137604000D01*
X71004885Y-137604000D01*
X71020124Y-137599525D01*
X71021329Y-137598135D01*
X71023000Y-137590452D01*
X71023000Y-137585884D01*
X71277000Y-137585884D01*
X71281475Y-137601123D01*
X71282865Y-137602328D01*
X71290548Y-137603999D01*
X72018828Y-137603999D01*
X72031088Y-137602791D01*
X72086931Y-137591685D01*
X72109427Y-137582367D01*
X72172808Y-137540017D01*
X72190017Y-137522808D01*
X72232368Y-137459425D01*
X72241684Y-137436934D01*
X72252793Y-137381085D01*
X72254000Y-137368830D01*
X72254000Y-136645115D01*
X72249525Y-136629876D01*
X72248135Y-136628671D01*
X72240452Y-136627000D01*
X71295115Y-136627000D01*
X71279876Y-136631475D01*
X71278671Y-136632865D01*
X71277000Y-136640548D01*
X71277000Y-137585884D01*
X71023000Y-137585884D01*
X71023000Y-136645115D01*
X71018525Y-136629876D01*
X71017135Y-136628671D01*
X71009452Y-136627000D01*
X70064116Y-136627000D01*
X70048877Y-136631475D01*
X70047672Y-136632865D01*
X70046001Y-136640548D01*
X70046001Y-137368828D01*
X61503999Y-137368828D01*
X61503999Y-136731172D01*
X61502791Y-136718912D01*
X61491685Y-136663069D01*
X61482367Y-136640573D01*
X61440017Y-136577192D01*
X61422808Y-136559983D01*
X61359425Y-136517632D01*
X61336934Y-136508316D01*
X61281085Y-136497207D01*
X61268830Y-136496000D01*
X60145115Y-136496000D01*
X60129876Y-136500475D01*
X60128671Y-136501865D01*
X60127000Y-136509548D01*
X60127000Y-137854885D01*
X59873000Y-137854885D01*
X59873000Y-136514116D01*
X59868525Y-136498877D01*
X59867135Y-136497672D01*
X59859452Y-136496001D01*
X58731172Y-136496001D01*
X58718912Y-136497209D01*
X58663069Y-136508315D01*
X58640573Y-136517633D01*
X58577192Y-136559983D01*
X58559983Y-136577192D01*
X58517632Y-136640575D01*
X58508316Y-136663066D01*
X58497207Y-136718915D01*
X58496000Y-136731170D01*
X58496000Y-137854885D01*
X50393617Y-137854885D01*
X50350699Y-137705913D01*
X50325294Y-137617730D01*
X50322150Y-137603955D01*
X50289273Y-137410453D01*
X50272947Y-137314369D01*
X50271366Y-137300333D01*
X50270468Y-137284345D01*
X50256494Y-137035506D01*
X50257262Y-137024579D01*
X50257065Y-137024579D01*
X50257065Y-137012172D01*
X50259486Y-137000000D01*
X50256921Y-136987103D01*
X50254500Y-136962524D01*
X50254500Y-136042186D01*
X52141018Y-136042186D01*
X52166579Y-136310100D01*
X52167664Y-136314534D01*
X52167665Y-136314540D01*
X52221944Y-136536360D01*
X52230547Y-136571518D01*
X52331583Y-136820963D01*
X52467569Y-137053210D01*
X52635658Y-137263395D01*
X52832327Y-137447113D01*
X53053457Y-137600516D01*
X53294416Y-137720391D01*
X53298750Y-137721812D01*
X53298753Y-137721813D01*
X53545823Y-137802807D01*
X53545829Y-137802808D01*
X53550156Y-137804227D01*
X53554647Y-137805007D01*
X53554648Y-137805007D01*
X53811538Y-137849611D01*
X53811546Y-137849612D01*
X53815319Y-137850267D01*
X53819156Y-137850458D01*
X53898777Y-137854422D01*
X53898785Y-137854422D01*
X53900348Y-137854500D01*
X54068374Y-137854500D01*
X54070642Y-137854335D01*
X54070654Y-137854335D01*
X54201457Y-137844844D01*
X54268425Y-137839985D01*
X54272880Y-137839001D01*
X54272883Y-137839001D01*
X54526770Y-137782947D01*
X54526772Y-137782946D01*
X54531226Y-137781963D01*
X54782900Y-137686613D01*
X54919154Y-137610931D01*
X55014179Y-137558149D01*
X55014180Y-137558148D01*
X55018172Y-137555931D01*
X55121476Y-137477092D01*
X55228491Y-137395421D01*
X55228495Y-137395417D01*
X55232116Y-137392654D01*
X55243423Y-137381088D01*
X55417063Y-137203462D01*
X55420249Y-137200203D01*
X55524646Y-137056777D01*
X55575942Y-136986304D01*
X55575947Y-136986297D01*
X55578630Y-136982610D01*
X55703941Y-136744433D01*
X55793557Y-136490662D01*
X55797439Y-136470964D01*
X72581148Y-136470964D01*
X72594424Y-136673522D01*
X72595845Y-136679118D01*
X72595846Y-136679123D01*
X72630795Y-136816733D01*
X72644392Y-136870269D01*
X72646809Y-136875512D01*
X72698588Y-136987830D01*
X72729377Y-137054616D01*
X72846533Y-137220389D01*
X72991938Y-137362035D01*
X73160720Y-137474812D01*
X73166023Y-137477090D01*
X73166026Y-137477092D01*
X73254707Y-137515192D01*
X73347228Y-137554942D01*
X73420244Y-137571464D01*
X73539579Y-137598467D01*
X73539584Y-137598468D01*
X73545216Y-137599742D01*
X73550987Y-137599969D01*
X73550989Y-137599969D01*
X73610756Y-137602317D01*
X73748053Y-137607712D01*
X73858596Y-137591684D01*
X73943231Y-137579413D01*
X73943236Y-137579412D01*
X73948945Y-137578584D01*
X73954409Y-137576729D01*
X73954414Y-137576728D01*
X74135693Y-137515192D01*
X74135698Y-137515190D01*
X74141165Y-137513334D01*
X74318276Y-137414147D01*
X74340792Y-137395421D01*
X74469913Y-137288031D01*
X74474345Y-137284345D01*
X74604147Y-137128276D01*
X74703334Y-136951165D01*
X74705190Y-136945698D01*
X74705192Y-136945693D01*
X74766728Y-136764414D01*
X74766729Y-136764409D01*
X74768584Y-136758945D01*
X74769412Y-136753236D01*
X74769413Y-136753231D01*
X74787715Y-136627000D01*
X74797712Y-136558053D01*
X74799232Y-136500000D01*
X74796564Y-136470964D01*
X75121148Y-136470964D01*
X75134424Y-136673522D01*
X75135845Y-136679118D01*
X75135846Y-136679123D01*
X75170795Y-136816733D01*
X75184392Y-136870269D01*
X75186809Y-136875512D01*
X75238588Y-136987830D01*
X75269377Y-137054616D01*
X75386533Y-137220389D01*
X75531938Y-137362035D01*
X75700720Y-137474812D01*
X75706023Y-137477090D01*
X75706026Y-137477092D01*
X75794707Y-137515192D01*
X75887228Y-137554942D01*
X75960244Y-137571464D01*
X76079579Y-137598467D01*
X76079584Y-137598468D01*
X76085216Y-137599742D01*
X76090987Y-137599969D01*
X76090989Y-137599969D01*
X76150756Y-137602317D01*
X76288053Y-137607712D01*
X76398596Y-137591684D01*
X76483231Y-137579413D01*
X76483236Y-137579412D01*
X76488945Y-137578584D01*
X76494409Y-137576729D01*
X76494414Y-137576728D01*
X76675693Y-137515192D01*
X76675698Y-137515190D01*
X76681165Y-137513334D01*
X76858276Y-137414147D01*
X76880792Y-137395421D01*
X77009913Y-137288031D01*
X77014345Y-137284345D01*
X77144147Y-137128276D01*
X77243334Y-136951165D01*
X77245190Y-136945698D01*
X77245192Y-136945693D01*
X77306728Y-136764414D01*
X77306729Y-136764409D01*
X77308584Y-136758945D01*
X77309412Y-136753236D01*
X77309413Y-136753231D01*
X77327715Y-136627000D01*
X77337712Y-136558053D01*
X77339232Y-136500000D01*
X77336564Y-136470964D01*
X77661148Y-136470964D01*
X77674424Y-136673522D01*
X77675845Y-136679118D01*
X77675846Y-136679123D01*
X77710795Y-136816733D01*
X77724392Y-136870269D01*
X77726809Y-136875512D01*
X77778588Y-136987830D01*
X77809377Y-137054616D01*
X77926533Y-137220389D01*
X78071938Y-137362035D01*
X78240720Y-137474812D01*
X78246023Y-137477090D01*
X78246026Y-137477092D01*
X78334707Y-137515192D01*
X78427228Y-137554942D01*
X78500244Y-137571464D01*
X78619579Y-137598467D01*
X78619584Y-137598468D01*
X78625216Y-137599742D01*
X78630987Y-137599969D01*
X78630989Y-137599969D01*
X78690756Y-137602317D01*
X78828053Y-137607712D01*
X78938596Y-137591684D01*
X79023231Y-137579413D01*
X79023236Y-137579412D01*
X79028945Y-137578584D01*
X79034409Y-137576729D01*
X79034414Y-137576728D01*
X79215693Y-137515192D01*
X79215698Y-137515190D01*
X79221165Y-137513334D01*
X79398276Y-137414147D01*
X79420792Y-137395421D01*
X79549913Y-137288031D01*
X79554345Y-137284345D01*
X79684147Y-137128276D01*
X79783334Y-136951165D01*
X79785190Y-136945698D01*
X79785192Y-136945693D01*
X79846728Y-136764414D01*
X79846729Y-136764409D01*
X79848584Y-136758945D01*
X79849412Y-136753236D01*
X79849413Y-136753231D01*
X79867715Y-136627000D01*
X79877712Y-136558053D01*
X79879232Y-136500000D01*
X79876564Y-136470964D01*
X80201148Y-136470964D01*
X80214424Y-136673522D01*
X80215845Y-136679118D01*
X80215846Y-136679123D01*
X80250795Y-136816733D01*
X80264392Y-136870269D01*
X80266809Y-136875512D01*
X80318588Y-136987830D01*
X80349377Y-137054616D01*
X80466533Y-137220389D01*
X80611938Y-137362035D01*
X80780720Y-137474812D01*
X80786023Y-137477090D01*
X80786026Y-137477092D01*
X80874707Y-137515192D01*
X80967228Y-137554942D01*
X81040244Y-137571464D01*
X81159579Y-137598467D01*
X81159584Y-137598468D01*
X81165216Y-137599742D01*
X81170987Y-137599969D01*
X81170989Y-137599969D01*
X81230756Y-137602317D01*
X81368053Y-137607712D01*
X81478596Y-137591684D01*
X81563231Y-137579413D01*
X81563236Y-137579412D01*
X81568945Y-137578584D01*
X81574409Y-137576729D01*
X81574414Y-137576728D01*
X81755693Y-137515192D01*
X81755698Y-137515190D01*
X81761165Y-137513334D01*
X81938276Y-137414147D01*
X81960792Y-137395421D01*
X82089913Y-137288031D01*
X82094345Y-137284345D01*
X82224147Y-137128276D01*
X82323334Y-136951165D01*
X82325190Y-136945698D01*
X82325192Y-136945693D01*
X82386728Y-136764414D01*
X82386729Y-136764409D01*
X82388584Y-136758945D01*
X82389412Y-136753236D01*
X82389413Y-136753231D01*
X82407715Y-136627000D01*
X82417712Y-136558053D01*
X82419232Y-136500000D01*
X82416564Y-136470964D01*
X82741148Y-136470964D01*
X82754424Y-136673522D01*
X82755845Y-136679118D01*
X82755846Y-136679123D01*
X82790795Y-136816733D01*
X82804392Y-136870269D01*
X82806809Y-136875512D01*
X82858588Y-136987830D01*
X82889377Y-137054616D01*
X83006533Y-137220389D01*
X83151938Y-137362035D01*
X83320720Y-137474812D01*
X83326023Y-137477090D01*
X83326026Y-137477092D01*
X83414707Y-137515192D01*
X83507228Y-137554942D01*
X83580244Y-137571464D01*
X83699579Y-137598467D01*
X83699584Y-137598468D01*
X83705216Y-137599742D01*
X83710987Y-137599969D01*
X83710989Y-137599969D01*
X83770756Y-137602317D01*
X83908053Y-137607712D01*
X84018596Y-137591684D01*
X84103231Y-137579413D01*
X84103236Y-137579412D01*
X84108945Y-137578584D01*
X84114409Y-137576729D01*
X84114414Y-137576728D01*
X84295693Y-137515192D01*
X84295698Y-137515190D01*
X84301165Y-137513334D01*
X84478276Y-137414147D01*
X84500792Y-137395421D01*
X84629913Y-137288031D01*
X84634345Y-137284345D01*
X84764147Y-137128276D01*
X84863334Y-136951165D01*
X84865190Y-136945698D01*
X84865192Y-136945693D01*
X84926728Y-136764414D01*
X84926729Y-136764409D01*
X84928584Y-136758945D01*
X84929412Y-136753236D01*
X84929413Y-136753231D01*
X84947715Y-136627000D01*
X84957712Y-136558053D01*
X84959232Y-136500000D01*
X84940658Y-136297859D01*
X84934519Y-136276092D01*
X84887125Y-136108046D01*
X84887124Y-136108044D01*
X84885557Y-136102487D01*
X84878409Y-136087991D01*
X84798331Y-135925609D01*
X84795776Y-135920428D01*
X84674320Y-135757779D01*
X84525258Y-135619987D01*
X84520375Y-135616906D01*
X84520371Y-135616903D01*
X84358464Y-135514748D01*
X84353581Y-135511667D01*
X84165039Y-135436446D01*
X84159379Y-135435320D01*
X84159375Y-135435319D01*
X83971613Y-135397971D01*
X83971610Y-135397971D01*
X83965946Y-135396844D01*
X83960171Y-135396768D01*
X83960167Y-135396768D01*
X83883551Y-135395765D01*
X83815698Y-135374873D01*
X83789203Y-135343474D01*
X83779619Y-135363617D01*
X83719296Y-135401057D01*
X83707049Y-135403796D01*
X83562910Y-135428564D01*
X83372463Y-135498824D01*
X83198010Y-135602612D01*
X83193670Y-135606418D01*
X83193666Y-135606421D01*
X83069812Y-135715039D01*
X83045392Y-135736455D01*
X82919720Y-135895869D01*
X82917031Y-135900980D01*
X82917029Y-135900983D01*
X82904073Y-135925609D01*
X82825203Y-136075515D01*
X82765007Y-136269378D01*
X82741148Y-136470964D01*
X82416564Y-136470964D01*
X82400658Y-136297859D01*
X82394519Y-136276092D01*
X82347125Y-136108046D01*
X82347124Y-136108044D01*
X82345557Y-136102487D01*
X82338409Y-136087991D01*
X82258331Y-135925609D01*
X82255776Y-135920428D01*
X82134320Y-135757779D01*
X81985258Y-135619987D01*
X81980375Y-135616906D01*
X81980371Y-135616903D01*
X81818464Y-135514748D01*
X81813581Y-135511667D01*
X81625039Y-135436446D01*
X81619379Y-135435320D01*
X81619375Y-135435319D01*
X81431613Y-135397971D01*
X81431610Y-135397971D01*
X81425946Y-135396844D01*
X81420171Y-135396768D01*
X81420167Y-135396768D01*
X81318793Y-135395441D01*
X81222971Y-135394187D01*
X81217274Y-135395166D01*
X81217273Y-135395166D01*
X81086530Y-135417632D01*
X81022910Y-135428564D01*
X80832463Y-135498824D01*
X80658010Y-135602612D01*
X80653670Y-135606418D01*
X80653666Y-135606421D01*
X80529812Y-135715039D01*
X80505392Y-135736455D01*
X80379720Y-135895869D01*
X80377031Y-135900980D01*
X80377029Y-135900983D01*
X80364073Y-135925609D01*
X80285203Y-136075515D01*
X80225007Y-136269378D01*
X80201148Y-136470964D01*
X79876564Y-136470964D01*
X79860658Y-136297859D01*
X79854519Y-136276092D01*
X79807125Y-136108046D01*
X79807124Y-136108044D01*
X79805557Y-136102487D01*
X79798409Y-136087991D01*
X79718331Y-135925609D01*
X79715776Y-135920428D01*
X79594320Y-135757779D01*
X79445258Y-135619987D01*
X79440375Y-135616906D01*
X79440371Y-135616903D01*
X79278464Y-135514748D01*
X79273581Y-135511667D01*
X79085039Y-135436446D01*
X79079379Y-135435320D01*
X79079375Y-135435319D01*
X78891613Y-135397971D01*
X78891610Y-135397971D01*
X78885946Y-135396844D01*
X78880171Y-135396768D01*
X78880167Y-135396768D01*
X78778793Y-135395441D01*
X78682971Y-135394187D01*
X78677274Y-135395166D01*
X78677273Y-135395166D01*
X78546530Y-135417632D01*
X78482910Y-135428564D01*
X78292463Y-135498824D01*
X78118010Y-135602612D01*
X78113670Y-135606418D01*
X78113666Y-135606421D01*
X77989812Y-135715039D01*
X77965392Y-135736455D01*
X77839720Y-135895869D01*
X77837031Y-135900980D01*
X77837029Y-135900983D01*
X77824073Y-135925609D01*
X77745203Y-136075515D01*
X77685007Y-136269378D01*
X77661148Y-136470964D01*
X77336564Y-136470964D01*
X77320658Y-136297859D01*
X77314519Y-136276092D01*
X77267125Y-136108046D01*
X77267124Y-136108044D01*
X77265557Y-136102487D01*
X77258409Y-136087991D01*
X77178331Y-135925609D01*
X77175776Y-135920428D01*
X77054320Y-135757779D01*
X76905258Y-135619987D01*
X76900375Y-135616906D01*
X76900371Y-135616903D01*
X76738464Y-135514748D01*
X76733581Y-135511667D01*
X76545039Y-135436446D01*
X76539379Y-135435320D01*
X76539375Y-135435319D01*
X76351613Y-135397971D01*
X76351610Y-135397971D01*
X76345946Y-135396844D01*
X76340171Y-135396768D01*
X76340167Y-135396768D01*
X76238793Y-135395441D01*
X76142971Y-135394187D01*
X76137274Y-135395166D01*
X76137273Y-135395166D01*
X76006530Y-135417632D01*
X75942910Y-135428564D01*
X75752463Y-135498824D01*
X75578010Y-135602612D01*
X75573670Y-135606418D01*
X75573666Y-135606421D01*
X75449812Y-135715039D01*
X75425392Y-135736455D01*
X75299720Y-135895869D01*
X75297031Y-135900980D01*
X75297029Y-135900983D01*
X75284073Y-135925609D01*
X75205203Y-136075515D01*
X75145007Y-136269378D01*
X75121148Y-136470964D01*
X74796564Y-136470964D01*
X74780658Y-136297859D01*
X74774519Y-136276092D01*
X74727125Y-136108046D01*
X74727124Y-136108044D01*
X74725557Y-136102487D01*
X74718409Y-136087991D01*
X74638331Y-135925609D01*
X74635776Y-135920428D01*
X74514320Y-135757779D01*
X74365258Y-135619987D01*
X74360375Y-135616906D01*
X74360371Y-135616903D01*
X74198464Y-135514748D01*
X74193581Y-135511667D01*
X74005039Y-135436446D01*
X73999379Y-135435320D01*
X73999375Y-135435319D01*
X73811613Y-135397971D01*
X73811610Y-135397971D01*
X73805946Y-135396844D01*
X73800171Y-135396768D01*
X73800167Y-135396768D01*
X73698793Y-135395441D01*
X73602971Y-135394187D01*
X73597274Y-135395166D01*
X73597273Y-135395166D01*
X73466530Y-135417632D01*
X73402910Y-135428564D01*
X73212463Y-135498824D01*
X73038010Y-135602612D01*
X73033670Y-135606418D01*
X73033666Y-135606421D01*
X72909812Y-135715039D01*
X72885392Y-135736455D01*
X72759720Y-135895869D01*
X72757031Y-135900980D01*
X72757029Y-135900983D01*
X72744073Y-135925609D01*
X72665203Y-136075515D01*
X72605007Y-136269378D01*
X72581148Y-136470964D01*
X55797439Y-136470964D01*
X55820318Y-136354885D01*
X70046000Y-136354885D01*
X70050475Y-136370124D01*
X70051865Y-136371329D01*
X70059548Y-136373000D01*
X71004885Y-136373000D01*
X71020124Y-136368525D01*
X71021329Y-136367135D01*
X71023000Y-136359452D01*
X71023000Y-136354885D01*
X71277000Y-136354885D01*
X71281475Y-136370124D01*
X71282865Y-136371329D01*
X71290548Y-136373000D01*
X72235884Y-136373000D01*
X72251123Y-136368525D01*
X72252328Y-136367135D01*
X72253999Y-136359452D01*
X72253999Y-135631172D01*
X72252791Y-135618912D01*
X72241685Y-135563069D01*
X72232367Y-135540573D01*
X72190017Y-135477192D01*
X72172808Y-135459983D01*
X72109425Y-135417632D01*
X72086934Y-135408316D01*
X72031085Y-135397207D01*
X72018830Y-135396000D01*
X71295115Y-135396000D01*
X71279876Y-135400475D01*
X71278671Y-135401865D01*
X71277000Y-135409548D01*
X71277000Y-136354885D01*
X71023000Y-136354885D01*
X71023000Y-135414116D01*
X71018525Y-135398877D01*
X71017135Y-135397672D01*
X71009452Y-135396001D01*
X70281172Y-135396001D01*
X70268912Y-135397209D01*
X70213069Y-135408315D01*
X70190573Y-135417633D01*
X70127192Y-135459983D01*
X70109983Y-135477192D01*
X70067632Y-135540575D01*
X70058316Y-135563066D01*
X70047207Y-135618915D01*
X70046000Y-135631170D01*
X70046000Y-136354885D01*
X55820318Y-136354885D01*
X55822397Y-136344339D01*
X55844720Y-136231083D01*
X55844721Y-136231077D01*
X55845601Y-136226611D01*
X55845828Y-136222055D01*
X55858755Y-135962383D01*
X55858755Y-135962377D01*
X55858982Y-135957814D01*
X55833421Y-135689900D01*
X55819051Y-135631172D01*
X55770539Y-135432920D01*
X55769453Y-135428482D01*
X55668417Y-135179037D01*
X55571606Y-135013696D01*
X55534741Y-134950735D01*
X55534740Y-134950734D01*
X55532431Y-134946790D01*
X55364342Y-134736605D01*
X55167673Y-134552887D01*
X54946543Y-134399484D01*
X54705584Y-134279609D01*
X54701250Y-134278188D01*
X54701247Y-134278187D01*
X54454177Y-134197193D01*
X54454171Y-134197192D01*
X54449844Y-134195773D01*
X54445352Y-134194993D01*
X54188462Y-134150389D01*
X54188454Y-134150388D01*
X54184681Y-134149733D01*
X54174718Y-134149237D01*
X54101223Y-134145578D01*
X54101215Y-134145578D01*
X54099652Y-134145500D01*
X53931626Y-134145500D01*
X53929358Y-134145665D01*
X53929346Y-134145665D01*
X53798543Y-134155156D01*
X53731575Y-134160015D01*
X53727120Y-134160999D01*
X53727117Y-134160999D01*
X53473230Y-134217053D01*
X53473228Y-134217054D01*
X53468774Y-134218037D01*
X53217100Y-134313387D01*
X53213114Y-134315601D01*
X53213112Y-134315602D01*
X53077586Y-134390880D01*
X52981828Y-134444069D01*
X52931057Y-134482816D01*
X52771509Y-134604579D01*
X52771505Y-134604583D01*
X52767884Y-134607346D01*
X52579751Y-134799797D01*
X52571909Y-134810571D01*
X52424058Y-135013696D01*
X52424053Y-135013703D01*
X52421370Y-135017390D01*
X52296059Y-135255567D01*
X52206443Y-135509338D01*
X52195853Y-135563069D01*
X52157476Y-135757779D01*
X52154399Y-135773389D01*
X52154172Y-135777942D01*
X52154172Y-135777945D01*
X52144991Y-135962383D01*
X52141018Y-136042186D01*
X50254500Y-136042186D01*
X50254500Y-131342773D01*
X50274502Y-131274652D01*
X50328158Y-131228159D01*
X50398432Y-131218055D01*
X50463012Y-131247549D01*
X50501396Y-131307275D01*
X50504079Y-131318194D01*
X50505194Y-131323798D01*
X50510266Y-131349301D01*
X50566516Y-131433484D01*
X50650699Y-131489734D01*
X50724933Y-131504500D01*
X51999793Y-131504500D01*
X53275066Y-131504499D01*
X53310818Y-131497388D01*
X53337126Y-131492156D01*
X53337128Y-131492155D01*
X53349301Y-131489734D01*
X53359621Y-131482839D01*
X53359622Y-131482838D01*
X53423168Y-131440377D01*
X53433484Y-131433484D01*
X53443277Y-131418828D01*
X60496001Y-131418828D01*
X60497209Y-131431088D01*
X60508315Y-131486931D01*
X60517633Y-131509427D01*
X60559983Y-131572808D01*
X60577192Y-131590017D01*
X60640575Y-131632368D01*
X60663066Y-131641684D01*
X60718915Y-131652793D01*
X60731170Y-131654000D01*
X61379885Y-131654000D01*
X61395124Y-131649525D01*
X61396329Y-131648135D01*
X61398000Y-131640452D01*
X61398000Y-131635884D01*
X61652000Y-131635884D01*
X61656475Y-131651123D01*
X61657865Y-131652328D01*
X61665548Y-131653999D01*
X62318828Y-131653999D01*
X62331088Y-131652791D01*
X62386931Y-131641685D01*
X62409427Y-131632367D01*
X62472808Y-131590017D01*
X62490017Y-131572808D01*
X62532368Y-131509425D01*
X62541684Y-131486934D01*
X62552793Y-131431085D01*
X62554000Y-131418830D01*
X62554000Y-131418828D01*
X68446001Y-131418828D01*
X68447209Y-131431088D01*
X68458315Y-131486931D01*
X68467633Y-131509427D01*
X68509983Y-131572808D01*
X68527192Y-131590017D01*
X68590575Y-131632368D01*
X68613066Y-131641684D01*
X68668915Y-131652793D01*
X68681170Y-131654000D01*
X69329885Y-131654000D01*
X69345124Y-131649525D01*
X69346329Y-131648135D01*
X69348000Y-131640452D01*
X69348000Y-131635884D01*
X69602000Y-131635884D01*
X69606475Y-131651123D01*
X69607865Y-131652328D01*
X69615548Y-131653999D01*
X70268828Y-131653999D01*
X70281088Y-131652791D01*
X70336931Y-131641685D01*
X70359427Y-131632367D01*
X70422808Y-131590017D01*
X70440017Y-131572808D01*
X70482368Y-131509425D01*
X70491684Y-131486934D01*
X70502793Y-131431085D01*
X70504000Y-131418830D01*
X70504000Y-130895115D01*
X70499525Y-130879876D01*
X70498135Y-130878671D01*
X70490452Y-130877000D01*
X69620115Y-130877000D01*
X69604876Y-130881475D01*
X69603671Y-130882865D01*
X69602000Y-130890548D01*
X69602000Y-131635884D01*
X69348000Y-131635884D01*
X69348000Y-130895115D01*
X69343525Y-130879876D01*
X69342135Y-130878671D01*
X69334452Y-130877000D01*
X68464116Y-130877000D01*
X68448877Y-130881475D01*
X68447672Y-130882865D01*
X68446001Y-130890548D01*
X68446001Y-131418828D01*
X62554000Y-131418828D01*
X62554000Y-130895115D01*
X62549525Y-130879876D01*
X62548135Y-130878671D01*
X62540452Y-130877000D01*
X61670115Y-130877000D01*
X61654876Y-130881475D01*
X61653671Y-130882865D01*
X61652000Y-130890548D01*
X61652000Y-131635884D01*
X61398000Y-131635884D01*
X61398000Y-130895115D01*
X61393525Y-130879876D01*
X61392135Y-130878671D01*
X61384452Y-130877000D01*
X60514116Y-130877000D01*
X60498877Y-130881475D01*
X60497672Y-130882865D01*
X60496001Y-130890548D01*
X60496001Y-131418828D01*
X53443277Y-131418828D01*
X53489734Y-131349301D01*
X53504500Y-131275067D01*
X53504500Y-130880500D01*
X53524502Y-130812379D01*
X53578158Y-130765886D01*
X53630500Y-130754500D01*
X55044053Y-130754500D01*
X55135950Y-130743786D01*
X55167482Y-130740110D01*
X55167484Y-130740110D01*
X55174754Y-130739262D01*
X55181631Y-130736766D01*
X55181634Y-130736765D01*
X55333255Y-130681729D01*
X55340134Y-130679232D01*
X55346251Y-130675222D01*
X55346254Y-130675220D01*
X55453531Y-130604885D01*
X60496000Y-130604885D01*
X60500475Y-130620124D01*
X60501865Y-130621329D01*
X60509548Y-130623000D01*
X61379885Y-130623000D01*
X61395124Y-130618525D01*
X61396329Y-130617135D01*
X61398000Y-130609452D01*
X61398000Y-130604885D01*
X61652000Y-130604885D01*
X61656475Y-130620124D01*
X61657865Y-130621329D01*
X61665548Y-130623000D01*
X62535884Y-130623000D01*
X62551123Y-130618525D01*
X62552328Y-130617135D01*
X62553999Y-130609452D01*
X62553999Y-130604885D01*
X68446000Y-130604885D01*
X68450475Y-130620124D01*
X68451865Y-130621329D01*
X68459548Y-130623000D01*
X69329885Y-130623000D01*
X69345124Y-130618525D01*
X69346329Y-130617135D01*
X69348000Y-130609452D01*
X69348000Y-130604885D01*
X69602000Y-130604885D01*
X69606475Y-130620124D01*
X69607865Y-130621329D01*
X69615548Y-130623000D01*
X70485884Y-130623000D01*
X70501123Y-130618525D01*
X70502328Y-130617135D01*
X70503999Y-130609452D01*
X70503999Y-130081172D01*
X70502791Y-130068912D01*
X70491685Y-130013069D01*
X70483412Y-129993096D01*
X81090729Y-129993096D01*
X81099099Y-130068912D01*
X81107116Y-130141522D01*
X81108113Y-130150553D01*
X81110723Y-130157684D01*
X81110723Y-130157686D01*
X81152325Y-130271368D01*
X81162553Y-130299319D01*
X81166789Y-130305622D01*
X81166789Y-130305623D01*
X81235373Y-130407686D01*
X81250908Y-130430805D01*
X81256527Y-130435918D01*
X81256528Y-130435919D01*
X81329299Y-130502135D01*
X81366222Y-130562775D01*
X81370500Y-130595329D01*
X81370500Y-132446080D01*
X81367951Y-132470028D01*
X81367872Y-132471693D01*
X81365680Y-132481876D01*
X81366904Y-132492217D01*
X81369627Y-132515223D01*
X81369977Y-132521154D01*
X81370072Y-132521146D01*
X81370500Y-132526324D01*
X81370500Y-132531524D01*
X81371354Y-132536653D01*
X81371354Y-132536656D01*
X81373669Y-132550565D01*
X81374506Y-132556443D01*
X81380530Y-132607341D01*
X81384493Y-132615593D01*
X81385996Y-132624626D01*
X81390943Y-132633795D01*
X81390944Y-132633797D01*
X81410334Y-132669732D01*
X81413031Y-132675025D01*
X81431785Y-132714082D01*
X81431788Y-132714086D01*
X81435219Y-132721232D01*
X81438814Y-132725508D01*
X81440737Y-132727431D01*
X81442509Y-132729363D01*
X81442552Y-132729442D01*
X81442428Y-132729555D01*
X81442904Y-132730095D01*
X81445990Y-132735814D01*
X81453635Y-132742881D01*
X81485586Y-132772416D01*
X81489152Y-132775846D01*
X83060249Y-134346943D01*
X83094275Y-134409255D01*
X83096076Y-134452482D01*
X83090729Y-134493096D01*
X83097043Y-134550284D01*
X83104887Y-134621329D01*
X83108113Y-134650553D01*
X83110723Y-134657684D01*
X83110723Y-134657686D01*
X83138463Y-134733488D01*
X83162553Y-134799319D01*
X83166789Y-134805622D01*
X83166789Y-134805623D01*
X83218694Y-134882865D01*
X83250908Y-134930805D01*
X83256527Y-134935918D01*
X83256528Y-134935919D01*
X83346064Y-135017390D01*
X83368076Y-135037419D01*
X83507293Y-135113008D01*
X83660522Y-135153207D01*
X83678504Y-135153489D01*
X83687684Y-135153634D01*
X83755482Y-135174704D01*
X83781669Y-135205904D01*
X83791065Y-135186024D01*
X83857072Y-135146956D01*
X83965928Y-135122025D01*
X83965930Y-135122024D01*
X83973332Y-135120329D01*
X84043742Y-135084917D01*
X84108072Y-135052563D01*
X84108075Y-135052561D01*
X84114855Y-135049151D01*
X84120626Y-135044222D01*
X84120629Y-135044220D01*
X84229536Y-134951204D01*
X84229536Y-134951203D01*
X84235314Y-134946269D01*
X84327755Y-134817624D01*
X84386842Y-134670641D01*
X84409162Y-134513807D01*
X84409307Y-134500000D01*
X84407561Y-134485567D01*
X84397143Y-134399484D01*
X84390276Y-134342733D01*
X84334280Y-134194546D01*
X84244553Y-134063992D01*
X84126275Y-133958611D01*
X83986274Y-133884484D01*
X83832633Y-133845892D01*
X83825034Y-133845852D01*
X83825033Y-133845852D01*
X83764626Y-133845536D01*
X83683335Y-133845110D01*
X83615321Y-133824752D01*
X83594901Y-133808207D01*
X82166405Y-132379711D01*
X82132379Y-132317399D01*
X82129500Y-132290616D01*
X82129500Y-130594730D01*
X82149502Y-130526609D01*
X82173669Y-130498919D01*
X82229536Y-130451204D01*
X82235314Y-130446269D01*
X82327755Y-130317624D01*
X82386842Y-130170641D01*
X82409162Y-130013807D01*
X82409307Y-130000000D01*
X82408167Y-129990575D01*
X82393289Y-129867632D01*
X82390276Y-129842733D01*
X82334280Y-129694546D01*
X82314939Y-129666405D01*
X82248855Y-129570251D01*
X82248854Y-129570249D01*
X82244553Y-129563992D01*
X82126275Y-129458611D01*
X82118889Y-129454700D01*
X81992988Y-129388039D01*
X81992989Y-129388039D01*
X81986274Y-129384484D01*
X81832633Y-129345892D01*
X81825034Y-129345852D01*
X81825033Y-129345852D01*
X81759181Y-129345507D01*
X81674221Y-129345062D01*
X81666841Y-129346834D01*
X81666839Y-129346834D01*
X81527563Y-129380271D01*
X81527560Y-129380272D01*
X81520184Y-129382043D01*
X81379414Y-129454700D01*
X81260039Y-129558838D01*
X81168950Y-129688444D01*
X81163802Y-129701649D01*
X81119588Y-129815052D01*
X81111406Y-129836037D01*
X81110414Y-129843570D01*
X81110414Y-129843571D01*
X81094266Y-129966231D01*
X81090729Y-129993096D01*
X70483412Y-129993096D01*
X70482367Y-129990573D01*
X70440017Y-129927192D01*
X70422808Y-129909983D01*
X70359425Y-129867632D01*
X70336934Y-129858316D01*
X70281085Y-129847207D01*
X70268830Y-129846000D01*
X69620115Y-129846000D01*
X69604876Y-129850475D01*
X69603671Y-129851865D01*
X69602000Y-129859548D01*
X69602000Y-130604885D01*
X69348000Y-130604885D01*
X69348000Y-129864116D01*
X69343525Y-129848877D01*
X69342135Y-129847672D01*
X69334452Y-129846001D01*
X68681172Y-129846001D01*
X68668912Y-129847209D01*
X68613069Y-129858315D01*
X68590573Y-129867633D01*
X68527192Y-129909983D01*
X68509983Y-129927192D01*
X68467632Y-129990575D01*
X68458316Y-130013066D01*
X68447207Y-130068915D01*
X68446000Y-130081170D01*
X68446000Y-130604885D01*
X62553999Y-130604885D01*
X62553999Y-130081172D01*
X62552791Y-130068912D01*
X62541685Y-130013069D01*
X62532367Y-129990573D01*
X62490017Y-129927192D01*
X62472808Y-129909983D01*
X62409425Y-129867632D01*
X62386934Y-129858316D01*
X62331085Y-129847207D01*
X62318830Y-129846000D01*
X61670115Y-129846000D01*
X61654876Y-129850475D01*
X61653671Y-129851865D01*
X61652000Y-129859548D01*
X61652000Y-130604885D01*
X61398000Y-130604885D01*
X61398000Y-129864116D01*
X61393525Y-129848877D01*
X61392135Y-129847672D01*
X61384452Y-129846001D01*
X60731172Y-129846001D01*
X60718912Y-129847209D01*
X60663069Y-129858315D01*
X60640573Y-129867633D01*
X60577192Y-129909983D01*
X60559983Y-129927192D01*
X60517632Y-129990575D01*
X60508316Y-130013066D01*
X60497207Y-130068915D01*
X60496000Y-130081170D01*
X60496000Y-130604885D01*
X55453531Y-130604885D01*
X55487268Y-130582766D01*
X55608264Y-130455040D01*
X55696632Y-130302904D01*
X55747630Y-130134520D01*
X55758524Y-129958920D01*
X55753938Y-129932228D01*
X55729969Y-129792738D01*
X55729968Y-129792736D01*
X55728729Y-129785523D01*
X55659844Y-129623632D01*
X55555563Y-129481929D01*
X55421480Y-129368018D01*
X55376523Y-129345062D01*
X55271305Y-129291334D01*
X55271300Y-129291332D01*
X55264788Y-129288007D01*
X55257682Y-129286268D01*
X55257679Y-129286267D01*
X55176290Y-129266352D01*
X55093892Y-129246189D01*
X55088290Y-129245841D01*
X55088287Y-129245841D01*
X55084725Y-129245620D01*
X55084716Y-129245620D01*
X55082786Y-129245500D01*
X53630499Y-129245500D01*
X53562378Y-129225498D01*
X53515885Y-129171842D01*
X53504499Y-129119500D01*
X53504499Y-128724934D01*
X53496739Y-128685919D01*
X53492156Y-128662874D01*
X53492155Y-128662872D01*
X53489734Y-128650699D01*
X53477273Y-128632049D01*
X53440377Y-128576832D01*
X53433484Y-128566516D01*
X53349301Y-128510266D01*
X53275067Y-128495500D01*
X52000207Y-128495500D01*
X50724934Y-128495501D01*
X50689182Y-128502612D01*
X50662874Y-128507844D01*
X50662872Y-128507845D01*
X50650699Y-128510266D01*
X50640379Y-128517161D01*
X50640378Y-128517162D01*
X50582818Y-128555623D01*
X50566516Y-128566516D01*
X50510266Y-128650699D01*
X50506735Y-128668452D01*
X50504079Y-128681803D01*
X50471171Y-128744713D01*
X50409476Y-128779845D01*
X50338582Y-128776045D01*
X50280996Y-128734519D01*
X50255001Y-128668452D01*
X50254500Y-128657222D01*
X50254500Y-128243096D01*
X74840729Y-128243096D01*
X74841563Y-128250646D01*
X74855870Y-128380233D01*
X74858113Y-128400553D01*
X74860723Y-128407684D01*
X74860723Y-128407686D01*
X74909741Y-128541634D01*
X74912553Y-128549319D01*
X74916789Y-128555622D01*
X74916789Y-128555623D01*
X74988858Y-128662872D01*
X75000908Y-128680805D01*
X75006527Y-128685918D01*
X75006528Y-128685919D01*
X75049404Y-128724933D01*
X75118076Y-128787419D01*
X75257293Y-128863008D01*
X75410522Y-128903207D01*
X75494477Y-128904526D01*
X75561319Y-128905576D01*
X75561322Y-128905576D01*
X75568916Y-128905695D01*
X75723332Y-128870329D01*
X75810867Y-128826304D01*
X75858072Y-128802563D01*
X75858075Y-128802561D01*
X75864855Y-128799151D01*
X75870626Y-128794222D01*
X75870629Y-128794220D01*
X75979542Y-128701199D01*
X75979543Y-128701198D01*
X75985314Y-128696269D01*
X75995586Y-128681974D01*
X76051581Y-128638326D01*
X76097909Y-128629500D01*
X86946080Y-128629500D01*
X86970028Y-128632049D01*
X86971693Y-128632128D01*
X86981876Y-128634320D01*
X86992217Y-128633096D01*
X87014750Y-128630429D01*
X87084749Y-128642286D01*
X87137227Y-128690105D01*
X87155521Y-128758704D01*
X87133823Y-128826304D01*
X87118655Y-128844651D01*
X86404411Y-129558895D01*
X86342099Y-129592921D01*
X86314658Y-129595798D01*
X86174221Y-129595062D01*
X86166841Y-129596834D01*
X86166839Y-129596834D01*
X86027563Y-129630271D01*
X86027560Y-129630272D01*
X86020184Y-129632043D01*
X85879414Y-129704700D01*
X85760039Y-129808838D01*
X85668950Y-129938444D01*
X85643339Y-130004134D01*
X85618082Y-130068915D01*
X85611406Y-130086037D01*
X85610414Y-130093570D01*
X85610414Y-130093571D01*
X85591826Y-130234766D01*
X85590729Y-130243096D01*
X85596149Y-130292185D01*
X85601987Y-130345062D01*
X85608113Y-130400553D01*
X85610723Y-130407684D01*
X85610723Y-130407686D01*
X85658680Y-130538735D01*
X85662553Y-130549319D01*
X85666789Y-130555622D01*
X85666789Y-130555623D01*
X85712065Y-130623000D01*
X85750908Y-130680805D01*
X85756527Y-130685918D01*
X85756528Y-130685919D01*
X85822726Y-130746154D01*
X85868076Y-130787419D01*
X86007293Y-130863008D01*
X86160522Y-130903207D01*
X86199250Y-130903815D01*
X86220031Y-130904142D01*
X86287830Y-130925211D01*
X86333474Y-130979591D01*
X86343291Y-131016297D01*
X86348684Y-131065148D01*
X86352648Y-131101049D01*
X86358113Y-131150553D01*
X86360723Y-131157684D01*
X86360723Y-131157686D01*
X86405899Y-131281135D01*
X86412553Y-131299319D01*
X86416789Y-131305622D01*
X86416789Y-131305623D01*
X86453074Y-131359620D01*
X86500908Y-131430805D01*
X86506527Y-131435918D01*
X86506528Y-131435919D01*
X86580572Y-131503293D01*
X86618076Y-131537419D01*
X86757293Y-131613008D01*
X86910522Y-131653207D01*
X86994477Y-131654526D01*
X87061319Y-131655576D01*
X87061322Y-131655576D01*
X87068916Y-131655695D01*
X87223332Y-131620329D01*
X87317818Y-131572808D01*
X87358072Y-131552563D01*
X87358075Y-131552561D01*
X87364855Y-131549151D01*
X87370626Y-131544222D01*
X87370629Y-131544220D01*
X87479536Y-131451204D01*
X87479536Y-131451203D01*
X87485314Y-131446269D01*
X87577755Y-131317624D01*
X87580589Y-131310575D01*
X87580592Y-131310569D01*
X87634089Y-131177489D01*
X87678055Y-131121744D01*
X87745180Y-131098619D01*
X87814152Y-131115456D01*
X87863071Y-131166908D01*
X87869322Y-131181184D01*
X87905899Y-131281135D01*
X87912553Y-131299319D01*
X87916789Y-131305622D01*
X87916789Y-131305623D01*
X87953074Y-131359620D01*
X88000908Y-131430805D01*
X88006527Y-131435918D01*
X88006528Y-131435919D01*
X88080572Y-131503293D01*
X88118076Y-131537419D01*
X88257293Y-131613008D01*
X88410522Y-131653207D01*
X88494477Y-131654526D01*
X88561319Y-131655576D01*
X88561322Y-131655576D01*
X88568916Y-131655695D01*
X88723332Y-131620329D01*
X88817818Y-131572808D01*
X88858072Y-131552563D01*
X88858075Y-131552561D01*
X88864855Y-131549151D01*
X88870626Y-131544222D01*
X88870629Y-131544220D01*
X88979536Y-131451204D01*
X88979536Y-131451203D01*
X88985314Y-131446269D01*
X89077755Y-131317624D01*
X89136842Y-131170641D01*
X89148538Y-131088455D01*
X89158581Y-131017891D01*
X89158581Y-131017888D01*
X89159162Y-131013807D01*
X89159307Y-131000000D01*
X89153437Y-130951496D01*
X89165109Y-130881468D01*
X89189429Y-130847265D01*
X90370289Y-129666405D01*
X90432601Y-129632379D01*
X90459384Y-129629500D01*
X94771080Y-129629500D01*
X94795028Y-129632049D01*
X94796693Y-129632128D01*
X94806876Y-129634320D01*
X94817217Y-129633096D01*
X94840223Y-129630373D01*
X94846154Y-129630023D01*
X94846146Y-129629928D01*
X94851324Y-129629500D01*
X94856524Y-129629500D01*
X94861653Y-129628646D01*
X94861656Y-129628646D01*
X94875565Y-129626331D01*
X94881443Y-129625494D01*
X94922001Y-129620694D01*
X94922002Y-129620694D01*
X94932341Y-129619470D01*
X94940593Y-129615507D01*
X94949626Y-129614004D01*
X94958795Y-129609057D01*
X94958797Y-129609056D01*
X94994732Y-129589666D01*
X95000025Y-129586969D01*
X95039082Y-129568215D01*
X95039086Y-129568212D01*
X95046232Y-129564781D01*
X95050508Y-129561186D01*
X95052431Y-129559263D01*
X95054363Y-129557491D01*
X95054442Y-129557448D01*
X95054555Y-129557572D01*
X95055095Y-129557096D01*
X95060814Y-129554010D01*
X95097417Y-129514413D01*
X95100846Y-129510848D01*
X95383678Y-129228016D01*
X95445990Y-129193990D01*
X95474752Y-129191127D01*
X95598818Y-129193076D01*
X95598821Y-129193076D01*
X95606416Y-129193195D01*
X95760832Y-129157829D01*
X95831242Y-129122417D01*
X95895572Y-129090063D01*
X95895575Y-129090061D01*
X95902355Y-129086651D01*
X95908126Y-129081722D01*
X95908129Y-129081720D01*
X96017036Y-128988704D01*
X96017036Y-128988703D01*
X96022814Y-128983769D01*
X96115255Y-128855124D01*
X96174342Y-128708141D01*
X96183714Y-128642286D01*
X96196081Y-128555391D01*
X96196081Y-128555388D01*
X96196662Y-128551307D01*
X96196807Y-128537500D01*
X96177776Y-128380233D01*
X96121780Y-128232046D01*
X96032053Y-128101492D01*
X95913775Y-127996111D01*
X95906389Y-127992200D01*
X95780488Y-127925539D01*
X95780489Y-127925539D01*
X95773774Y-127921984D01*
X95620133Y-127883392D01*
X95612534Y-127883352D01*
X95612533Y-127883352D01*
X95546681Y-127883007D01*
X95461721Y-127882562D01*
X95454341Y-127884334D01*
X95454339Y-127884334D01*
X95315063Y-127917771D01*
X95315060Y-127917772D01*
X95307684Y-127919543D01*
X95166914Y-127992200D01*
X95047539Y-128096338D01*
X94956450Y-128225944D01*
X94898906Y-128373537D01*
X94897914Y-128381070D01*
X94897914Y-128381071D01*
X94879998Y-128517162D01*
X94878229Y-128530596D01*
X94880992Y-128555623D01*
X94884463Y-128587066D01*
X94872057Y-128656970D01*
X94848319Y-128689987D01*
X94704711Y-128833595D01*
X94642399Y-128867621D01*
X94615616Y-128870500D01*
X90303925Y-128870500D01*
X90279967Y-128867950D01*
X90278308Y-128867872D01*
X90268124Y-128865679D01*
X90257782Y-128866903D01*
X90257779Y-128866903D01*
X90234779Y-128869626D01*
X90228848Y-128869976D01*
X90228856Y-128870072D01*
X90223680Y-128870500D01*
X90218476Y-128870500D01*
X90199412Y-128873673D01*
X90193566Y-128874504D01*
X90182117Y-128875859D01*
X90142659Y-128880530D01*
X90134407Y-128884493D01*
X90125374Y-128885996D01*
X90116205Y-128890943D01*
X90116203Y-128890944D01*
X90080268Y-128910334D01*
X90074975Y-128913031D01*
X90043800Y-128928001D01*
X90028768Y-128935219D01*
X90024493Y-128938813D01*
X90022568Y-128940738D01*
X90020638Y-128942509D01*
X90020553Y-128942555D01*
X90020441Y-128942432D01*
X90019906Y-128942904D01*
X90014186Y-128945990D01*
X90007119Y-128953635D01*
X89977584Y-128985586D01*
X89974154Y-128989152D01*
X88654411Y-130308895D01*
X88592099Y-130342921D01*
X88564658Y-130345798D01*
X88494789Y-130345432D01*
X88426775Y-130325074D01*
X88380564Y-130271175D01*
X88370828Y-130200849D01*
X88400659Y-130136424D01*
X88406355Y-130130339D01*
X90596178Y-127940516D01*
X90658490Y-127906490D01*
X90687252Y-127903627D01*
X90811318Y-127905576D01*
X90811321Y-127905576D01*
X90818916Y-127905695D01*
X90973332Y-127870329D01*
X91063738Y-127824860D01*
X91108072Y-127802563D01*
X91108075Y-127802561D01*
X91114855Y-127799151D01*
X91120626Y-127794222D01*
X91120629Y-127794220D01*
X91229536Y-127701204D01*
X91229536Y-127701203D01*
X91235314Y-127696269D01*
X91327755Y-127567624D01*
X91386842Y-127420641D01*
X91409162Y-127263807D01*
X91409307Y-127250000D01*
X91390276Y-127092733D01*
X91334280Y-126944546D01*
X91325063Y-126931135D01*
X91248855Y-126820251D01*
X91248854Y-126820249D01*
X91244553Y-126813992D01*
X91126275Y-126708611D01*
X91118889Y-126704700D01*
X90992988Y-126638039D01*
X90992989Y-126638039D01*
X90986274Y-126634484D01*
X90964395Y-126628988D01*
X90939039Y-126622619D01*
X90877843Y-126586623D01*
X90845823Y-126523258D01*
X90853144Y-126452640D01*
X90897482Y-126397190D01*
X90941607Y-126377595D01*
X90941844Y-126377541D01*
X90973332Y-126370329D01*
X91043742Y-126334917D01*
X91108072Y-126302563D01*
X91108075Y-126302561D01*
X91114855Y-126299151D01*
X91120626Y-126294222D01*
X91120629Y-126294220D01*
X91229536Y-126201204D01*
X91229536Y-126201203D01*
X91235314Y-126196269D01*
X91327755Y-126067624D01*
X91386842Y-125920641D01*
X91395598Y-125859114D01*
X91408581Y-125767891D01*
X91408581Y-125767888D01*
X91409162Y-125763807D01*
X91409307Y-125750000D01*
X91408642Y-125744500D01*
X91401717Y-125687280D01*
X100997460Y-125687280D01*
X101007389Y-125699806D01*
X101016254Y-125705707D01*
X101032298Y-125713359D01*
X101149542Y-125749989D01*
X101167084Y-125752830D01*
X101289898Y-125755081D01*
X101307539Y-125752884D01*
X101426043Y-125720577D01*
X101442357Y-125713517D01*
X101468154Y-125697678D01*
X101477544Y-125687280D01*
X102522460Y-125687280D01*
X102532389Y-125699806D01*
X102541254Y-125705707D01*
X102557298Y-125713359D01*
X102674542Y-125749989D01*
X102692084Y-125752830D01*
X102814898Y-125755081D01*
X102832539Y-125752884D01*
X102951043Y-125720577D01*
X102967357Y-125713517D01*
X102993154Y-125697678D01*
X103002606Y-125687211D01*
X102998803Y-125678408D01*
X102775312Y-125454917D01*
X102761368Y-125447303D01*
X102759535Y-125447434D01*
X102752920Y-125451685D01*
X102528637Y-125675968D01*
X102522460Y-125687280D01*
X101477544Y-125687280D01*
X101477606Y-125687211D01*
X101473803Y-125678408D01*
X101250312Y-125454917D01*
X101236368Y-125447303D01*
X101234535Y-125447434D01*
X101227920Y-125451685D01*
X101003637Y-125675968D01*
X100997460Y-125687280D01*
X91401717Y-125687280D01*
X91401709Y-125687211D01*
X91390276Y-125592733D01*
X91334280Y-125444546D01*
X91267039Y-125346709D01*
X91248855Y-125320251D01*
X91248854Y-125320249D01*
X91244553Y-125313992D01*
X91126275Y-125208611D01*
X90986274Y-125134484D01*
X90940507Y-125122988D01*
X90934830Y-125121562D01*
X90873635Y-125085567D01*
X90841614Y-125022201D01*
X90848935Y-124951583D01*
X90876431Y-124910263D01*
X91283855Y-124502839D01*
X99979647Y-124502839D01*
X99995574Y-124624634D01*
X100000353Y-124641748D01*
X100039897Y-124731620D01*
X100048983Y-124742406D01*
X100054537Y-124740858D01*
X100282583Y-124512812D01*
X100290197Y-124498868D01*
X100290066Y-124497035D01*
X100285815Y-124490420D01*
X100060903Y-124265508D01*
X100048523Y-124258748D01*
X100043476Y-124262527D01*
X100003957Y-124346699D01*
X99998762Y-124363688D01*
X99979864Y-124485061D01*
X99979647Y-124502839D01*
X91283855Y-124502839D01*
X91870289Y-123916405D01*
X91932601Y-123882379D01*
X91959384Y-123879500D01*
X93650141Y-123879500D01*
X93718262Y-123899502D01*
X93745522Y-123923169D01*
X93746672Y-123924501D01*
X93750908Y-123930805D01*
X93756525Y-123935916D01*
X93859323Y-124029454D01*
X93868076Y-124037419D01*
X94007293Y-124113008D01*
X94160522Y-124153207D01*
X94244477Y-124154526D01*
X94311319Y-124155576D01*
X94311322Y-124155576D01*
X94318916Y-124155695D01*
X94473332Y-124120329D01*
X94545044Y-124084262D01*
X94563315Y-124075073D01*
X100234763Y-124075073D01*
X100238867Y-124084262D01*
X100565510Y-124410905D01*
X100599536Y-124473217D01*
X100594471Y-124544032D01*
X100565510Y-124589095D01*
X100241137Y-124913468D01*
X100234960Y-124924780D01*
X100244889Y-124937306D01*
X100253754Y-124943207D01*
X100269798Y-124950859D01*
X100387042Y-124987489D01*
X100404584Y-124990330D01*
X100527398Y-124992581D01*
X100545039Y-124990384D01*
X100605781Y-124973824D01*
X100676765Y-124975204D01*
X100735733Y-125014741D01*
X100763966Y-125079883D01*
X100760736Y-125117025D01*
X100762643Y-125117322D01*
X100742364Y-125247561D01*
X100742147Y-125265339D01*
X100758074Y-125387134D01*
X100762853Y-125404248D01*
X100802397Y-125494120D01*
X100811483Y-125504906D01*
X100817037Y-125503358D01*
X101148405Y-125171990D01*
X101210717Y-125137964D01*
X101281532Y-125143029D01*
X101326595Y-125171990D01*
X101651236Y-125496631D01*
X101663616Y-125503391D01*
X101668895Y-125499439D01*
X101706635Y-125421546D01*
X101712037Y-125404619D01*
X101733100Y-125279425D01*
X101733965Y-125269772D01*
X101733995Y-125267359D01*
X101733364Y-125257684D01*
X101715368Y-125132021D01*
X101715102Y-125131112D01*
X101715103Y-125130173D01*
X101714095Y-125123134D01*
X101715111Y-125122988D01*
X101715182Y-125060116D01*
X101753633Y-125000433D01*
X101818246Y-124971012D01*
X101873612Y-124975483D01*
X101912041Y-124987489D01*
X101929584Y-124990330D01*
X102052398Y-124992581D01*
X102070039Y-124990384D01*
X102130781Y-124973824D01*
X102201765Y-124975204D01*
X102260733Y-125014741D01*
X102288966Y-125079883D01*
X102285736Y-125117025D01*
X102287643Y-125117322D01*
X102267364Y-125247561D01*
X102267147Y-125265339D01*
X102283074Y-125387134D01*
X102287853Y-125404248D01*
X102327397Y-125494120D01*
X102336483Y-125504906D01*
X102342037Y-125503358D01*
X102673405Y-125171990D01*
X102735717Y-125137964D01*
X102806532Y-125143029D01*
X102851595Y-125171990D01*
X103176236Y-125496631D01*
X103188616Y-125503391D01*
X103193895Y-125499439D01*
X103231635Y-125421546D01*
X103237037Y-125404619D01*
X103258100Y-125279425D01*
X103258965Y-125269772D01*
X103258995Y-125267359D01*
X103258364Y-125257684D01*
X103240368Y-125132021D01*
X103240102Y-125131112D01*
X103240103Y-125130173D01*
X103239095Y-125123134D01*
X103240111Y-125122988D01*
X103240182Y-125060116D01*
X103278633Y-125000433D01*
X103343246Y-124971012D01*
X103398612Y-124975483D01*
X103437041Y-124987489D01*
X103454584Y-124990330D01*
X103577398Y-124992581D01*
X103595039Y-124990384D01*
X103713543Y-124958077D01*
X103729857Y-124951017D01*
X103755654Y-124935178D01*
X103765106Y-124924711D01*
X103761303Y-124915908D01*
X103434490Y-124589095D01*
X103400464Y-124526783D01*
X103402299Y-124501132D01*
X103709803Y-124501132D01*
X103709934Y-124502965D01*
X103714185Y-124509580D01*
X103938736Y-124734131D01*
X103951116Y-124740891D01*
X103956395Y-124736939D01*
X103994135Y-124659046D01*
X103999537Y-124642119D01*
X104020600Y-124516925D01*
X104021465Y-124507272D01*
X104021495Y-124504859D01*
X104020864Y-124495184D01*
X104002868Y-124369521D01*
X103997880Y-124352464D01*
X103959826Y-124268767D01*
X103950610Y-124258096D01*
X103944820Y-124259785D01*
X103717417Y-124487188D01*
X103709803Y-124501132D01*
X103402299Y-124501132D01*
X103405529Y-124455968D01*
X103434490Y-124410905D01*
X103758617Y-124086778D01*
X103765377Y-124074398D01*
X103759044Y-124065938D01*
X103740818Y-124054124D01*
X103724676Y-124046666D01*
X103606998Y-124011473D01*
X103589418Y-124008845D01*
X103466585Y-124008095D01*
X103448981Y-124010507D01*
X103395210Y-124025875D01*
X103324215Y-124025363D01*
X103264767Y-123986550D01*
X103235740Y-123921758D01*
X103236330Y-123883822D01*
X103258099Y-123754428D01*
X103258965Y-123744772D01*
X103258995Y-123742359D01*
X103258364Y-123732684D01*
X103240368Y-123607021D01*
X103240102Y-123606112D01*
X103240103Y-123605173D01*
X103239095Y-123598134D01*
X103240111Y-123597988D01*
X103240182Y-123535116D01*
X103278633Y-123475433D01*
X103343246Y-123446012D01*
X103398612Y-123450483D01*
X103437041Y-123462489D01*
X103454584Y-123465330D01*
X103577398Y-123467581D01*
X103595039Y-123465384D01*
X103713543Y-123433077D01*
X103729857Y-123426017D01*
X103755654Y-123410178D01*
X103765106Y-123399711D01*
X103761303Y-123390908D01*
X103434490Y-123064095D01*
X103400464Y-123001783D01*
X103402299Y-122976132D01*
X103709803Y-122976132D01*
X103709934Y-122977965D01*
X103714185Y-122984580D01*
X103938736Y-123209131D01*
X103951116Y-123215891D01*
X103956395Y-123211939D01*
X103994135Y-123134046D01*
X103999537Y-123117119D01*
X104020600Y-122991925D01*
X104021465Y-122982272D01*
X104021495Y-122979859D01*
X104020864Y-122970184D01*
X104002868Y-122844521D01*
X103997880Y-122827464D01*
X103959826Y-122743767D01*
X103950610Y-122733096D01*
X103944820Y-122734785D01*
X103717417Y-122962188D01*
X103709803Y-122976132D01*
X103402299Y-122976132D01*
X103405529Y-122930968D01*
X103434490Y-122885905D01*
X103758617Y-122561778D01*
X103765377Y-122549398D01*
X103759044Y-122540938D01*
X103740818Y-122529124D01*
X103724676Y-122521666D01*
X103606998Y-122486473D01*
X103589418Y-122483845D01*
X103466585Y-122483095D01*
X103448981Y-122485507D01*
X103395210Y-122500875D01*
X103324215Y-122500363D01*
X103264767Y-122461550D01*
X103235740Y-122396758D01*
X103236330Y-122358822D01*
X103258099Y-122229428D01*
X103258965Y-122219772D01*
X103258995Y-122217359D01*
X103258364Y-122207684D01*
X103240368Y-122082021D01*
X103235380Y-122064964D01*
X103197326Y-121981267D01*
X103188110Y-121970596D01*
X103182320Y-121972285D01*
X102851595Y-122303010D01*
X102789283Y-122337036D01*
X102718468Y-122331971D01*
X102673405Y-122303010D01*
X102348403Y-121978008D01*
X102336023Y-121971248D01*
X102330976Y-121975027D01*
X102291457Y-122059199D01*
X102286262Y-122076188D01*
X102267364Y-122197561D01*
X102267147Y-122215339D01*
X102283073Y-122337127D01*
X102285446Y-122345625D01*
X102284499Y-122416616D01*
X102245323Y-122475825D01*
X102180355Y-122504454D01*
X102127985Y-122500226D01*
X102081997Y-122486473D01*
X102064418Y-122483845D01*
X101941585Y-122483095D01*
X101923981Y-122485507D01*
X101870210Y-122500875D01*
X101799215Y-122500363D01*
X101739767Y-122461550D01*
X101710740Y-122396758D01*
X101711330Y-122358822D01*
X101733099Y-122229428D01*
X101733965Y-122219772D01*
X101733995Y-122217359D01*
X101733364Y-122207684D01*
X101715368Y-122082021D01*
X101710380Y-122064964D01*
X101672326Y-121981267D01*
X101663110Y-121970596D01*
X101657320Y-121972285D01*
X101326595Y-122303010D01*
X101264283Y-122337036D01*
X101193468Y-122331971D01*
X101148405Y-122303010D01*
X100823403Y-121978008D01*
X100811023Y-121971248D01*
X100805976Y-121975027D01*
X100766457Y-122059199D01*
X100761262Y-122076188D01*
X100742364Y-122197561D01*
X100742147Y-122215339D01*
X100758073Y-122337127D01*
X100760446Y-122345625D01*
X100759499Y-122416616D01*
X100720323Y-122475825D01*
X100655355Y-122504454D01*
X100602985Y-122500226D01*
X100556997Y-122486473D01*
X100539418Y-122483845D01*
X100416585Y-122483095D01*
X100398979Y-122485507D01*
X100280873Y-122519262D01*
X100264651Y-122526518D01*
X100244086Y-122539493D01*
X100234763Y-122550073D01*
X100238867Y-122559262D01*
X100565510Y-122885905D01*
X100599536Y-122948217D01*
X100594471Y-123019032D01*
X100565510Y-123064095D01*
X100241137Y-123388468D01*
X100234960Y-123399780D01*
X100244889Y-123412306D01*
X100253754Y-123418207D01*
X100269798Y-123425859D01*
X100387042Y-123462489D01*
X100404584Y-123465330D01*
X100527398Y-123467581D01*
X100545039Y-123465384D01*
X100605781Y-123448824D01*
X100676765Y-123450204D01*
X100735733Y-123489741D01*
X100763966Y-123554883D01*
X100760736Y-123592025D01*
X100762643Y-123592322D01*
X100742364Y-123722561D01*
X100742147Y-123740339D01*
X100758073Y-123862127D01*
X100760446Y-123870625D01*
X100759499Y-123941616D01*
X100720323Y-124000825D01*
X100655355Y-124029454D01*
X100602985Y-124025226D01*
X100556997Y-124011473D01*
X100539418Y-124008845D01*
X100416585Y-124008095D01*
X100398979Y-124010507D01*
X100280873Y-124044262D01*
X100264651Y-124051518D01*
X100244086Y-124064493D01*
X100234763Y-124075073D01*
X94563315Y-124075073D01*
X94608072Y-124052563D01*
X94608075Y-124052561D01*
X94614855Y-124049151D01*
X94620626Y-124044222D01*
X94620629Y-124044220D01*
X94729536Y-123951204D01*
X94729536Y-123951203D01*
X94735314Y-123946269D01*
X94827755Y-123817624D01*
X94886842Y-123670641D01*
X94903316Y-123554883D01*
X94908581Y-123517891D01*
X94908581Y-123517888D01*
X94909162Y-123513807D01*
X94909307Y-123500000D01*
X94890276Y-123342733D01*
X94834280Y-123194546D01*
X94812629Y-123163043D01*
X94748855Y-123070251D01*
X94748854Y-123070249D01*
X94744553Y-123063992D01*
X94647856Y-122977839D01*
X99979647Y-122977839D01*
X99995574Y-123099634D01*
X100000353Y-123116748D01*
X100039897Y-123206620D01*
X100048983Y-123217406D01*
X100054537Y-123215858D01*
X100282583Y-122987812D01*
X100290197Y-122973868D01*
X100290066Y-122972035D01*
X100285815Y-122965420D01*
X100060903Y-122740508D01*
X100048523Y-122733748D01*
X100043476Y-122737527D01*
X100003957Y-122821699D01*
X99998762Y-122838688D01*
X99979864Y-122960061D01*
X99979647Y-122977839D01*
X94647856Y-122977839D01*
X94626275Y-122958611D01*
X94618889Y-122954700D01*
X94492988Y-122888039D01*
X94492989Y-122888039D01*
X94486274Y-122884484D01*
X94332633Y-122845892D01*
X94325034Y-122845852D01*
X94325033Y-122845852D01*
X94259181Y-122845507D01*
X94174221Y-122845062D01*
X94166841Y-122846834D01*
X94166839Y-122846834D01*
X94027563Y-122880271D01*
X94027560Y-122880272D01*
X94020184Y-122882043D01*
X93879414Y-122954700D01*
X93760039Y-123058838D01*
X93755672Y-123065051D01*
X93755667Y-123065057D01*
X93754336Y-123066951D01*
X93753013Y-123068005D01*
X93750589Y-123070697D01*
X93750140Y-123070293D01*
X93698802Y-123111183D01*
X93651250Y-123120500D01*
X91803920Y-123120500D01*
X91779973Y-123117951D01*
X91778307Y-123117872D01*
X91768124Y-123115680D01*
X91757782Y-123116904D01*
X91757779Y-123116904D01*
X91734787Y-123119626D01*
X91728846Y-123119977D01*
X91728854Y-123120072D01*
X91723674Y-123120500D01*
X91718476Y-123120500D01*
X91713354Y-123121353D01*
X91713349Y-123121353D01*
X91699427Y-123123671D01*
X91693550Y-123124508D01*
X91687049Y-123125277D01*
X91652997Y-123129307D01*
X91652995Y-123129308D01*
X91642659Y-123130531D01*
X91634410Y-123134492D01*
X91625374Y-123135996D01*
X91616205Y-123140943D01*
X91616203Y-123140944D01*
X91580240Y-123160348D01*
X91574951Y-123163043D01*
X91535915Y-123181788D01*
X91528768Y-123185220D01*
X91524492Y-123188814D01*
X91522552Y-123190754D01*
X91520641Y-123192507D01*
X91520551Y-123192556D01*
X91520439Y-123192433D01*
X91519904Y-123192905D01*
X91514186Y-123195990D01*
X91507119Y-123203635D01*
X91477584Y-123235586D01*
X91474154Y-123239152D01*
X86879711Y-127833595D01*
X86817399Y-127867621D01*
X86790616Y-127870500D01*
X76099682Y-127870500D01*
X76031561Y-127850498D01*
X76005114Y-127824860D01*
X76003878Y-127825949D01*
X75998855Y-127820251D01*
X75994553Y-127813992D01*
X75876275Y-127708611D01*
X75868889Y-127704700D01*
X75742988Y-127638039D01*
X75742989Y-127638039D01*
X75736274Y-127634484D01*
X75582633Y-127595892D01*
X75575034Y-127595852D01*
X75575033Y-127595852D01*
X75509181Y-127595507D01*
X75424221Y-127595062D01*
X75416841Y-127596834D01*
X75416839Y-127596834D01*
X75277563Y-127630271D01*
X75277560Y-127630272D01*
X75270184Y-127632043D01*
X75129414Y-127704700D01*
X75010039Y-127808838D01*
X74918950Y-127938444D01*
X74861406Y-128086037D01*
X74860414Y-128093570D01*
X74860414Y-128093571D01*
X74842184Y-128232046D01*
X74840729Y-128243096D01*
X50254500Y-128243096D01*
X50254500Y-125574933D01*
X60495500Y-125574933D01*
X60495501Y-126925066D01*
X60510266Y-126999301D01*
X60566516Y-127083484D01*
X60650699Y-127139734D01*
X60724933Y-127154500D01*
X61524870Y-127154500D01*
X62325066Y-127154499D01*
X62360818Y-127147388D01*
X62387126Y-127142156D01*
X62387128Y-127142155D01*
X62399301Y-127139734D01*
X62409621Y-127132839D01*
X62409622Y-127132838D01*
X62473168Y-127090377D01*
X62483484Y-127083484D01*
X62539734Y-126999301D01*
X62554500Y-126925067D01*
X62554500Y-126755500D01*
X62574502Y-126687379D01*
X62628158Y-126640886D01*
X62680500Y-126629500D01*
X68319501Y-126629500D01*
X68387622Y-126649502D01*
X68434115Y-126703158D01*
X68445501Y-126755500D01*
X68445501Y-126925066D01*
X68460266Y-126999301D01*
X68516516Y-127083484D01*
X68600699Y-127139734D01*
X68674933Y-127154500D01*
X69474870Y-127154500D01*
X70275066Y-127154499D01*
X70310818Y-127147388D01*
X70337126Y-127142156D01*
X70337128Y-127142155D01*
X70349301Y-127139734D01*
X70359621Y-127132839D01*
X70359622Y-127132838D01*
X70423168Y-127090377D01*
X70433484Y-127083484D01*
X70489734Y-126999301D01*
X70504500Y-126925067D01*
X70504500Y-126755500D01*
X70524502Y-126687379D01*
X70578158Y-126640886D01*
X70630500Y-126629500D01*
X70650141Y-126629500D01*
X70718262Y-126649502D01*
X70745522Y-126673169D01*
X70746672Y-126674501D01*
X70750908Y-126680805D01*
X70868076Y-126787419D01*
X71007293Y-126863008D01*
X71160522Y-126903207D01*
X71244477Y-126904526D01*
X71311319Y-126905576D01*
X71311322Y-126905576D01*
X71318916Y-126905695D01*
X71473332Y-126870329D01*
X71595390Y-126808941D01*
X71608072Y-126802563D01*
X71608075Y-126802561D01*
X71614855Y-126799151D01*
X71620626Y-126794222D01*
X71620629Y-126794220D01*
X71729536Y-126701204D01*
X71729536Y-126701203D01*
X71735314Y-126696269D01*
X71827755Y-126567624D01*
X71886842Y-126420641D01*
X71894488Y-126366916D01*
X71908581Y-126267891D01*
X71908581Y-126267888D01*
X71909162Y-126263807D01*
X71909307Y-126250000D01*
X71890276Y-126092733D01*
X71834280Y-125944546D01*
X71783390Y-125870500D01*
X71748855Y-125820251D01*
X71748854Y-125820249D01*
X71744553Y-125813992D01*
X71626275Y-125708611D01*
X71618889Y-125704700D01*
X71492988Y-125638039D01*
X71492989Y-125638039D01*
X71486274Y-125634484D01*
X71332633Y-125595892D01*
X71325034Y-125595852D01*
X71325033Y-125595852D01*
X71259181Y-125595507D01*
X71174221Y-125595062D01*
X71166841Y-125596834D01*
X71166839Y-125596834D01*
X71027563Y-125630271D01*
X71027560Y-125630272D01*
X71020184Y-125632043D01*
X70879414Y-125704700D01*
X70760039Y-125808838D01*
X70755672Y-125815051D01*
X70755667Y-125815057D01*
X70754336Y-125816951D01*
X70753013Y-125818005D01*
X70750589Y-125820697D01*
X70750140Y-125820293D01*
X70698802Y-125861183D01*
X70651250Y-125870500D01*
X70630499Y-125870500D01*
X70562378Y-125850498D01*
X70515885Y-125796842D01*
X70504499Y-125744500D01*
X70504499Y-125574934D01*
X70489734Y-125500699D01*
X70456984Y-125451685D01*
X70440377Y-125426832D01*
X70433484Y-125416516D01*
X70349301Y-125360266D01*
X70275067Y-125345500D01*
X69475130Y-125345500D01*
X68674934Y-125345501D01*
X68639182Y-125352612D01*
X68612874Y-125357844D01*
X68612872Y-125357845D01*
X68600699Y-125360266D01*
X68590379Y-125367161D01*
X68590378Y-125367162D01*
X68534876Y-125404248D01*
X68516516Y-125416516D01*
X68460266Y-125500699D01*
X68445500Y-125574933D01*
X68445500Y-125744500D01*
X68425498Y-125812621D01*
X68371842Y-125859114D01*
X68319500Y-125870500D01*
X62680499Y-125870500D01*
X62612378Y-125850498D01*
X62565885Y-125796842D01*
X62554499Y-125744500D01*
X62554499Y-125574934D01*
X62539734Y-125500699D01*
X62506984Y-125451685D01*
X62490377Y-125426832D01*
X62483484Y-125416516D01*
X62399301Y-125360266D01*
X62325067Y-125345500D01*
X61525130Y-125345500D01*
X60724934Y-125345501D01*
X60689182Y-125352612D01*
X60662874Y-125357844D01*
X60662872Y-125357845D01*
X60650699Y-125360266D01*
X60640379Y-125367161D01*
X60640378Y-125367162D01*
X60584876Y-125404248D01*
X60566516Y-125416516D01*
X60510266Y-125500699D01*
X60495500Y-125574933D01*
X50254500Y-125574933D01*
X50254500Y-123418828D01*
X60496001Y-123418828D01*
X60497209Y-123431088D01*
X60508315Y-123486931D01*
X60517633Y-123509427D01*
X60559983Y-123572808D01*
X60577192Y-123590017D01*
X60640575Y-123632368D01*
X60663066Y-123641684D01*
X60718915Y-123652793D01*
X60731170Y-123654000D01*
X61379885Y-123654000D01*
X61395124Y-123649525D01*
X61396329Y-123648135D01*
X61398000Y-123640452D01*
X61398000Y-123635884D01*
X61652000Y-123635884D01*
X61656475Y-123651123D01*
X61657865Y-123652328D01*
X61665548Y-123653999D01*
X62318828Y-123653999D01*
X62331088Y-123652791D01*
X62386931Y-123641685D01*
X62409427Y-123632367D01*
X62472808Y-123590017D01*
X62490017Y-123572808D01*
X62532368Y-123509425D01*
X62541684Y-123486934D01*
X62552793Y-123431085D01*
X62554000Y-123418830D01*
X62554000Y-123418828D01*
X68446001Y-123418828D01*
X68447209Y-123431088D01*
X68458315Y-123486931D01*
X68467633Y-123509427D01*
X68509983Y-123572808D01*
X68527192Y-123590017D01*
X68590575Y-123632368D01*
X68613066Y-123641684D01*
X68668915Y-123652793D01*
X68681170Y-123654000D01*
X69329885Y-123654000D01*
X69345124Y-123649525D01*
X69346329Y-123648135D01*
X69348000Y-123640452D01*
X69348000Y-123635884D01*
X69602000Y-123635884D01*
X69606475Y-123651123D01*
X69607865Y-123652328D01*
X69615548Y-123653999D01*
X70268828Y-123653999D01*
X70281088Y-123652791D01*
X70336931Y-123641685D01*
X70359427Y-123632367D01*
X70422808Y-123590017D01*
X70440017Y-123572808D01*
X70482368Y-123509425D01*
X70491684Y-123486934D01*
X70502793Y-123431085D01*
X70504000Y-123418830D01*
X70504000Y-122895115D01*
X70499525Y-122879876D01*
X70498135Y-122878671D01*
X70490452Y-122877000D01*
X69620115Y-122877000D01*
X69604876Y-122881475D01*
X69603671Y-122882865D01*
X69602000Y-122890548D01*
X69602000Y-123635884D01*
X69348000Y-123635884D01*
X69348000Y-122895115D01*
X69343525Y-122879876D01*
X69342135Y-122878671D01*
X69334452Y-122877000D01*
X68464116Y-122877000D01*
X68448877Y-122881475D01*
X68447672Y-122882865D01*
X68446001Y-122890548D01*
X68446001Y-123418828D01*
X62554000Y-123418828D01*
X62554000Y-122895115D01*
X62549525Y-122879876D01*
X62548135Y-122878671D01*
X62540452Y-122877000D01*
X61670115Y-122877000D01*
X61654876Y-122881475D01*
X61653671Y-122882865D01*
X61652000Y-122890548D01*
X61652000Y-123635884D01*
X61398000Y-123635884D01*
X61398000Y-122895115D01*
X61393525Y-122879876D01*
X61392135Y-122878671D01*
X61384452Y-122877000D01*
X60514116Y-122877000D01*
X60498877Y-122881475D01*
X60497672Y-122882865D01*
X60496001Y-122890548D01*
X60496001Y-123418828D01*
X50254500Y-123418828D01*
X50254500Y-121149933D01*
X51145500Y-121149933D01*
X51145501Y-122900066D01*
X51151647Y-122930968D01*
X51157434Y-122960061D01*
X51160266Y-122974301D01*
X51216516Y-123058484D01*
X51300699Y-123114734D01*
X51374933Y-123129500D01*
X52249858Y-123129500D01*
X53125066Y-123129499D01*
X53160818Y-123122388D01*
X53187126Y-123117156D01*
X53187128Y-123117155D01*
X53199301Y-123114734D01*
X53209621Y-123107839D01*
X53209622Y-123107838D01*
X53273168Y-123065377D01*
X53283484Y-123058484D01*
X53339734Y-122974301D01*
X53354500Y-122900067D01*
X53354500Y-122604885D01*
X60496000Y-122604885D01*
X60500475Y-122620124D01*
X60501865Y-122621329D01*
X60509548Y-122623000D01*
X61379885Y-122623000D01*
X61395124Y-122618525D01*
X61396329Y-122617135D01*
X61398000Y-122609452D01*
X61398000Y-122604885D01*
X61652000Y-122604885D01*
X61656475Y-122620124D01*
X61657865Y-122621329D01*
X61665548Y-122623000D01*
X62535884Y-122623000D01*
X62551123Y-122618525D01*
X62552328Y-122617135D01*
X62553999Y-122609452D01*
X62553999Y-122604885D01*
X68446000Y-122604885D01*
X68450475Y-122620124D01*
X68451865Y-122621329D01*
X68459548Y-122623000D01*
X69329885Y-122623000D01*
X69345124Y-122618525D01*
X69346329Y-122617135D01*
X69348000Y-122609452D01*
X69348000Y-122604885D01*
X69602000Y-122604885D01*
X69606475Y-122620124D01*
X69607865Y-122621329D01*
X69615548Y-122623000D01*
X70485884Y-122623000D01*
X70501123Y-122618525D01*
X70502328Y-122617135D01*
X70503999Y-122609452D01*
X70503999Y-122081172D01*
X70502791Y-122068912D01*
X70491685Y-122013069D01*
X70482367Y-121990573D01*
X70440017Y-121927192D01*
X70422808Y-121909983D01*
X70359425Y-121867632D01*
X70336934Y-121858316D01*
X70281085Y-121847207D01*
X70268830Y-121846000D01*
X69620115Y-121846000D01*
X69604876Y-121850475D01*
X69603671Y-121851865D01*
X69602000Y-121859548D01*
X69602000Y-122604885D01*
X69348000Y-122604885D01*
X69348000Y-121864116D01*
X69343525Y-121848877D01*
X69342135Y-121847672D01*
X69334452Y-121846001D01*
X68681172Y-121846001D01*
X68668912Y-121847209D01*
X68613069Y-121858315D01*
X68590573Y-121867633D01*
X68527192Y-121909983D01*
X68509983Y-121927192D01*
X68467632Y-121990575D01*
X68458316Y-122013066D01*
X68447207Y-122068915D01*
X68446000Y-122081170D01*
X68446000Y-122604885D01*
X62553999Y-122604885D01*
X62553999Y-122081172D01*
X62552791Y-122068912D01*
X62541685Y-122013069D01*
X62532367Y-121990573D01*
X62490017Y-121927192D01*
X62472808Y-121909983D01*
X62409425Y-121867632D01*
X62386934Y-121858316D01*
X62331085Y-121847207D01*
X62318830Y-121846000D01*
X61670115Y-121846000D01*
X61654876Y-121850475D01*
X61653671Y-121851865D01*
X61652000Y-121859548D01*
X61652000Y-122604885D01*
X61398000Y-122604885D01*
X61398000Y-121864116D01*
X61393525Y-121848877D01*
X61392135Y-121847672D01*
X61384452Y-121846001D01*
X60731172Y-121846001D01*
X60718912Y-121847209D01*
X60663069Y-121858315D01*
X60640573Y-121867633D01*
X60577192Y-121909983D01*
X60559983Y-121927192D01*
X60517632Y-121990575D01*
X60508316Y-122013066D01*
X60497207Y-122068915D01*
X60496000Y-122081170D01*
X60496000Y-122604885D01*
X53354500Y-122604885D01*
X53354499Y-121787573D01*
X100997263Y-121787573D01*
X101001367Y-121796762D01*
X101224688Y-122020083D01*
X101238632Y-122027697D01*
X101240465Y-122027566D01*
X101247080Y-122023315D01*
X101471117Y-121799278D01*
X101477508Y-121787573D01*
X102522263Y-121787573D01*
X102526367Y-121796762D01*
X102749688Y-122020083D01*
X102763632Y-122027697D01*
X102765465Y-122027566D01*
X102772080Y-122023315D01*
X102996117Y-121799278D01*
X103002877Y-121786898D01*
X102996544Y-121778438D01*
X102978318Y-121766624D01*
X102962176Y-121759166D01*
X102844498Y-121723973D01*
X102826918Y-121721345D01*
X102704085Y-121720595D01*
X102686479Y-121723007D01*
X102568373Y-121756762D01*
X102552151Y-121764018D01*
X102531586Y-121776993D01*
X102522263Y-121787573D01*
X101477508Y-121787573D01*
X101477877Y-121786898D01*
X101471544Y-121778438D01*
X101453318Y-121766624D01*
X101437176Y-121759166D01*
X101319498Y-121723973D01*
X101301918Y-121721345D01*
X101179085Y-121720595D01*
X101161479Y-121723007D01*
X101043373Y-121756762D01*
X101027151Y-121764018D01*
X101006586Y-121776993D01*
X100997263Y-121787573D01*
X53354499Y-121787573D01*
X53354499Y-121149934D01*
X53339734Y-121075699D01*
X53283484Y-120991516D01*
X53199301Y-120935266D01*
X53125067Y-120920500D01*
X52250142Y-120920500D01*
X51374934Y-120920501D01*
X51339182Y-120927612D01*
X51312874Y-120932844D01*
X51312872Y-120932845D01*
X51300699Y-120935266D01*
X51290379Y-120942161D01*
X51290378Y-120942162D01*
X51229985Y-120982516D01*
X51216516Y-120991516D01*
X51160266Y-121075699D01*
X51145500Y-121149933D01*
X50254500Y-121149933D01*
X50254500Y-119455964D01*
X51141148Y-119455964D01*
X51154424Y-119658522D01*
X51155845Y-119664118D01*
X51155846Y-119664123D01*
X51201208Y-119842733D01*
X51204392Y-119855269D01*
X51206809Y-119860512D01*
X51244010Y-119941208D01*
X51289377Y-120039616D01*
X51406533Y-120205389D01*
X51551938Y-120347035D01*
X51720720Y-120459812D01*
X51726023Y-120462090D01*
X51726026Y-120462092D01*
X51901921Y-120537662D01*
X51907228Y-120539942D01*
X51963005Y-120552563D01*
X52099579Y-120583467D01*
X52099584Y-120583468D01*
X52105216Y-120584742D01*
X52110987Y-120584969D01*
X52110989Y-120584969D01*
X52170756Y-120587317D01*
X52308053Y-120592712D01*
X52408499Y-120578148D01*
X52503231Y-120564413D01*
X52503236Y-120564412D01*
X52508945Y-120563584D01*
X52514409Y-120561729D01*
X52514414Y-120561728D01*
X52695693Y-120500192D01*
X52695698Y-120500190D01*
X52701165Y-120498334D01*
X52878276Y-120399147D01*
X52940934Y-120347035D01*
X53029913Y-120273031D01*
X53034345Y-120269345D01*
X53122696Y-120163115D01*
X53160453Y-120117718D01*
X53160455Y-120117715D01*
X53164147Y-120113276D01*
X53235668Y-119985567D01*
X53260510Y-119941208D01*
X53260511Y-119941206D01*
X53263334Y-119936165D01*
X53265190Y-119930698D01*
X53265192Y-119930693D01*
X53326728Y-119749414D01*
X53326729Y-119749409D01*
X53328584Y-119743945D01*
X53329412Y-119738236D01*
X53329413Y-119738231D01*
X53357179Y-119546727D01*
X53357712Y-119543053D01*
X53359232Y-119485000D01*
X53346374Y-119345062D01*
X53341187Y-119288613D01*
X53341186Y-119288610D01*
X53340658Y-119282859D01*
X53335026Y-119262889D01*
X53287125Y-119093046D01*
X53287124Y-119093044D01*
X53285557Y-119087487D01*
X53281351Y-119078957D01*
X53198331Y-118910609D01*
X53195776Y-118905428D01*
X53074320Y-118742779D01*
X52925258Y-118604987D01*
X52920375Y-118601906D01*
X52920371Y-118601903D01*
X52758464Y-118499748D01*
X52753581Y-118496667D01*
X52565039Y-118421446D01*
X52559379Y-118420320D01*
X52559375Y-118420319D01*
X52371613Y-118382971D01*
X52371610Y-118382971D01*
X52365946Y-118381844D01*
X52360171Y-118381768D01*
X52360167Y-118381768D01*
X52258793Y-118380441D01*
X52162971Y-118379187D01*
X52157274Y-118380166D01*
X52157273Y-118380166D01*
X51968607Y-118412585D01*
X51962910Y-118413564D01*
X51772463Y-118483824D01*
X51598010Y-118587612D01*
X51593670Y-118591418D01*
X51593666Y-118591421D01*
X51460038Y-118708611D01*
X51445392Y-118721455D01*
X51319720Y-118880869D01*
X51317031Y-118885980D01*
X51317029Y-118885983D01*
X51269128Y-118977027D01*
X51225203Y-119060515D01*
X51165007Y-119254378D01*
X51141148Y-119455964D01*
X50254500Y-119455964D01*
X50254500Y-117087602D01*
X51152899Y-117087602D01*
X51154542Y-117112676D01*
X51156343Y-117124046D01*
X51203443Y-117309502D01*
X51207284Y-117320348D01*
X51287394Y-117494120D01*
X51293145Y-117504081D01*
X51403579Y-117660343D01*
X51411057Y-117669098D01*
X51548114Y-117802612D01*
X51557058Y-117809855D01*
X51716156Y-117916161D01*
X51726266Y-117921651D01*
X51902077Y-117997185D01*
X51913020Y-118000740D01*
X52099647Y-118042970D01*
X52106383Y-118043857D01*
X52120302Y-118040357D01*
X52120658Y-118039978D01*
X52123000Y-118030144D01*
X52123000Y-118024095D01*
X52377000Y-118024095D01*
X52380966Y-118037601D01*
X52394966Y-118039605D01*
X52503106Y-118023926D01*
X52514302Y-118021238D01*
X52695497Y-117959730D01*
X52705994Y-117955056D01*
X52872958Y-117861552D01*
X52882430Y-117855042D01*
X53029553Y-117732682D01*
X53037682Y-117724553D01*
X53160042Y-117577430D01*
X53161758Y-117574933D01*
X60495500Y-117574933D01*
X60495501Y-118925066D01*
X60510266Y-118999301D01*
X60517161Y-119009620D01*
X60517162Y-119009622D01*
X60547750Y-119055399D01*
X60566516Y-119083484D01*
X60650699Y-119139734D01*
X60724933Y-119154500D01*
X61524870Y-119154500D01*
X62325066Y-119154499D01*
X62360818Y-119147388D01*
X62387126Y-119142156D01*
X62387128Y-119142155D01*
X62399301Y-119139734D01*
X62409621Y-119132839D01*
X62409622Y-119132838D01*
X62473168Y-119090377D01*
X62483484Y-119083484D01*
X62539734Y-118999301D01*
X62554500Y-118925067D01*
X62554500Y-118755500D01*
X62574502Y-118687379D01*
X62628158Y-118640886D01*
X62680500Y-118629500D01*
X68319501Y-118629500D01*
X68387622Y-118649502D01*
X68434115Y-118703158D01*
X68445501Y-118755500D01*
X68445501Y-118925066D01*
X68460266Y-118999301D01*
X68467161Y-119009620D01*
X68467162Y-119009622D01*
X68497750Y-119055399D01*
X68516516Y-119083484D01*
X68600699Y-119139734D01*
X68674933Y-119154500D01*
X69066452Y-119154500D01*
X69134573Y-119174502D01*
X69159859Y-119196746D01*
X69160219Y-119196416D01*
X69162071Y-119198435D01*
X69163814Y-119200508D01*
X69165736Y-119202430D01*
X69167509Y-119204363D01*
X69167552Y-119204442D01*
X69167428Y-119204555D01*
X69167904Y-119205095D01*
X69170990Y-119210814D01*
X69178635Y-119217881D01*
X69210586Y-119247416D01*
X69214152Y-119250846D01*
X69810249Y-119846943D01*
X69844275Y-119909255D01*
X69846076Y-119952482D01*
X69840729Y-119993096D01*
X69858113Y-120150553D01*
X69860723Y-120157684D01*
X69860723Y-120157686D01*
X69876453Y-120200669D01*
X69912553Y-120299319D01*
X69916789Y-120305622D01*
X69916789Y-120305623D01*
X69979635Y-120399147D01*
X70000908Y-120430805D01*
X70006527Y-120435918D01*
X70006528Y-120435919D01*
X70032786Y-120459812D01*
X70118076Y-120537419D01*
X70257293Y-120613008D01*
X70410522Y-120653207D01*
X70494477Y-120654526D01*
X70561319Y-120655576D01*
X70561322Y-120655576D01*
X70568916Y-120655695D01*
X70723332Y-120620329D01*
X70834510Y-120564413D01*
X70858072Y-120552563D01*
X70858075Y-120552561D01*
X70864855Y-120549151D01*
X70870626Y-120544222D01*
X70870629Y-120544220D01*
X70979536Y-120451204D01*
X70979536Y-120451203D01*
X70985314Y-120446269D01*
X71077755Y-120317624D01*
X71136842Y-120170641D01*
X71155489Y-120039616D01*
X71158581Y-120017891D01*
X71158581Y-120017888D01*
X71159162Y-120013807D01*
X71159307Y-120000000D01*
X71157561Y-119985567D01*
X71153557Y-119952485D01*
X71140276Y-119842733D01*
X71084280Y-119694546D01*
X71063371Y-119664123D01*
X70998855Y-119570251D01*
X70998854Y-119570249D01*
X70994553Y-119563992D01*
X70966889Y-119539344D01*
X70918591Y-119496313D01*
X70876275Y-119458611D01*
X70863714Y-119451960D01*
X70766623Y-119400553D01*
X70736274Y-119384484D01*
X70582633Y-119345892D01*
X70575034Y-119345852D01*
X70575033Y-119345852D01*
X70500084Y-119345459D01*
X70456456Y-119345231D01*
X70388441Y-119324873D01*
X70342230Y-119270974D01*
X70332494Y-119200648D01*
X70362325Y-119136223D01*
X70387111Y-119114470D01*
X70433484Y-119083484D01*
X70489734Y-118999301D01*
X70504500Y-118925067D01*
X70504499Y-117574934D01*
X70489734Y-117500699D01*
X70433484Y-117416516D01*
X70349301Y-117360266D01*
X70275067Y-117345500D01*
X69475130Y-117345500D01*
X68674934Y-117345501D01*
X68639182Y-117352612D01*
X68612874Y-117357844D01*
X68612872Y-117357845D01*
X68600699Y-117360266D01*
X68590379Y-117367161D01*
X68590378Y-117367162D01*
X68541979Y-117399502D01*
X68516516Y-117416516D01*
X68460266Y-117500699D01*
X68445500Y-117574933D01*
X68445500Y-117744500D01*
X68425498Y-117812621D01*
X68371842Y-117859114D01*
X68319500Y-117870500D01*
X62680499Y-117870500D01*
X62612378Y-117850498D01*
X62565885Y-117796842D01*
X62554499Y-117744500D01*
X62554499Y-117574934D01*
X62539734Y-117500699D01*
X62483484Y-117416516D01*
X62399301Y-117360266D01*
X62325067Y-117345500D01*
X61525130Y-117345500D01*
X60724934Y-117345501D01*
X60689182Y-117352612D01*
X60662874Y-117357844D01*
X60662872Y-117357845D01*
X60650699Y-117360266D01*
X60640379Y-117367161D01*
X60640378Y-117367162D01*
X60591979Y-117399502D01*
X60566516Y-117416516D01*
X60510266Y-117500699D01*
X60495500Y-117574933D01*
X53161758Y-117574933D01*
X53166552Y-117567958D01*
X53260056Y-117400994D01*
X53264730Y-117390497D01*
X53326238Y-117209302D01*
X53328926Y-117198106D01*
X53344610Y-117089929D01*
X53342624Y-117075993D01*
X53329056Y-117072000D01*
X52395115Y-117072000D01*
X52379876Y-117076475D01*
X52378671Y-117077865D01*
X52377000Y-117085548D01*
X52377000Y-118024095D01*
X52123000Y-118024095D01*
X52123000Y-117090115D01*
X52118525Y-117074876D01*
X52117135Y-117073671D01*
X52109452Y-117072000D01*
X51169991Y-117072000D01*
X51154951Y-117076416D01*
X51152899Y-117087602D01*
X50254500Y-117087602D01*
X50254500Y-116800012D01*
X51155375Y-116800012D01*
X51157817Y-116814431D01*
X51170559Y-116818000D01*
X52104885Y-116818000D01*
X52120124Y-116813525D01*
X52121329Y-116812135D01*
X52123000Y-116804452D01*
X52123000Y-116799885D01*
X52377000Y-116799885D01*
X52381475Y-116815124D01*
X52382865Y-116816329D01*
X52390548Y-116818000D01*
X53328945Y-116818000D01*
X53343490Y-116813729D01*
X53345553Y-116801595D01*
X53340693Y-116748707D01*
X53338595Y-116737386D01*
X53286658Y-116553231D01*
X53282533Y-116542484D01*
X53197903Y-116370871D01*
X53191893Y-116361063D01*
X53077400Y-116207739D01*
X53069710Y-116199199D01*
X52929192Y-116069304D01*
X52920067Y-116062303D01*
X52758236Y-115960195D01*
X52747989Y-115954974D01*
X52570260Y-115884068D01*
X52559232Y-115880801D01*
X52394769Y-115848088D01*
X52381894Y-115849240D01*
X52377000Y-115864396D01*
X52377000Y-116799885D01*
X52123000Y-116799885D01*
X52123000Y-115864678D01*
X52119194Y-115851716D01*
X52104278Y-115849780D01*
X51968737Y-115873070D01*
X51957617Y-115876050D01*
X51778095Y-115942279D01*
X51767717Y-115947229D01*
X51603273Y-116045063D01*
X51593961Y-116051829D01*
X51450097Y-116177994D01*
X51442180Y-116186337D01*
X51323718Y-116336605D01*
X51317450Y-116346256D01*
X51228360Y-116515589D01*
X51223951Y-116526232D01*
X51167210Y-116708967D01*
X51164820Y-116720211D01*
X51155375Y-116800012D01*
X50254500Y-116800012D01*
X50254500Y-112652473D01*
X64743372Y-112652473D01*
X64743570Y-112659790D01*
X64745454Y-112729415D01*
X64745500Y-112732823D01*
X64745500Y-115294053D01*
X64760738Y-115424754D01*
X64763234Y-115431631D01*
X64763235Y-115431634D01*
X64791777Y-115510266D01*
X64820768Y-115590134D01*
X64824778Y-115596251D01*
X64824780Y-115596254D01*
X64853711Y-115640380D01*
X64917234Y-115737268D01*
X65044960Y-115858264D01*
X65197096Y-115946632D01*
X65365480Y-115997630D01*
X65541080Y-116008524D01*
X65548296Y-116007284D01*
X65548298Y-116007284D01*
X65707262Y-115979969D01*
X65707264Y-115979968D01*
X65714477Y-115978729D01*
X65876368Y-115909844D01*
X66018071Y-115805563D01*
X66131982Y-115671480D01*
X66162244Y-115612216D01*
X66208666Y-115521305D01*
X66208668Y-115521300D01*
X66211993Y-115514788D01*
X66215693Y-115499670D01*
X66239103Y-115403999D01*
X66253811Y-115343892D01*
X66254500Y-115332786D01*
X66254500Y-114743096D01*
X82340729Y-114743096D01*
X82358113Y-114900553D01*
X82412553Y-115049319D01*
X82500908Y-115180805D01*
X82506525Y-115185916D01*
X82506528Y-115185919D01*
X82612460Y-115282309D01*
X82618076Y-115287419D01*
X82757293Y-115363008D01*
X82910522Y-115403207D01*
X82994477Y-115404526D01*
X83061319Y-115405576D01*
X83061322Y-115405576D01*
X83068916Y-115405695D01*
X83223332Y-115370329D01*
X83301834Y-115330847D01*
X83358072Y-115302563D01*
X83358075Y-115302561D01*
X83364855Y-115299151D01*
X83370626Y-115294222D01*
X83370629Y-115294220D01*
X83479542Y-115201199D01*
X83479543Y-115201198D01*
X83485314Y-115196269D01*
X83495586Y-115181974D01*
X83551581Y-115138326D01*
X83597909Y-115129500D01*
X90400141Y-115129500D01*
X90468262Y-115149502D01*
X90495522Y-115173169D01*
X90496671Y-115174500D01*
X90500908Y-115180805D01*
X90506525Y-115185916D01*
X90595712Y-115267069D01*
X90618076Y-115287419D01*
X90757293Y-115363008D01*
X90910522Y-115403207D01*
X90994477Y-115404526D01*
X91061319Y-115405576D01*
X91061322Y-115405576D01*
X91068916Y-115405695D01*
X91223332Y-115370329D01*
X91301834Y-115330847D01*
X91358072Y-115302563D01*
X91358075Y-115302561D01*
X91364855Y-115299151D01*
X91370626Y-115294222D01*
X91370629Y-115294220D01*
X91479536Y-115201204D01*
X91479536Y-115201203D01*
X91485314Y-115196269D01*
X91577755Y-115067624D01*
X91636842Y-114920641D01*
X91659162Y-114763807D01*
X91659307Y-114750000D01*
X91640276Y-114592733D01*
X91584280Y-114444546D01*
X91561832Y-114411884D01*
X91498855Y-114320251D01*
X91498854Y-114320249D01*
X91494553Y-114313992D01*
X91488880Y-114308937D01*
X91434137Y-114260164D01*
X91376275Y-114208611D01*
X91368889Y-114204700D01*
X91242988Y-114138039D01*
X91242989Y-114138039D01*
X91236274Y-114134484D01*
X91082633Y-114095892D01*
X91075034Y-114095852D01*
X91075033Y-114095852D01*
X91009181Y-114095507D01*
X90924221Y-114095062D01*
X90916841Y-114096834D01*
X90916839Y-114096834D01*
X90777563Y-114130271D01*
X90777560Y-114130272D01*
X90770184Y-114132043D01*
X90629414Y-114204700D01*
X90510039Y-114308838D01*
X90505672Y-114315051D01*
X90505667Y-114315057D01*
X90504336Y-114316951D01*
X90503013Y-114318005D01*
X90500589Y-114320697D01*
X90500140Y-114320293D01*
X90448802Y-114361183D01*
X90401250Y-114370500D01*
X83599682Y-114370500D01*
X83531561Y-114350498D01*
X83505114Y-114324860D01*
X83503878Y-114325949D01*
X83498855Y-114320251D01*
X83494553Y-114313992D01*
X83488882Y-114308940D01*
X83488880Y-114308937D01*
X83387150Y-114218300D01*
X83349594Y-114158050D01*
X83350573Y-114087060D01*
X83389137Y-114028412D01*
X83479536Y-113951204D01*
X83479536Y-113951203D01*
X83485314Y-113946269D01*
X83577755Y-113817624D01*
X83636842Y-113670641D01*
X83659162Y-113513807D01*
X83659307Y-113500000D01*
X83653437Y-113451496D01*
X83665109Y-113381468D01*
X83689429Y-113347265D01*
X83870289Y-113166405D01*
X83932601Y-113132379D01*
X83959384Y-113129500D01*
X90400141Y-113129500D01*
X90468262Y-113149502D01*
X90495522Y-113173169D01*
X90496672Y-113174501D01*
X90500908Y-113180805D01*
X90618076Y-113287419D01*
X90757293Y-113363008D01*
X90910522Y-113403207D01*
X90994477Y-113404526D01*
X91061319Y-113405576D01*
X91061322Y-113405576D01*
X91068916Y-113405695D01*
X91223332Y-113370329D01*
X91305592Y-113328957D01*
X91358072Y-113302563D01*
X91358075Y-113302561D01*
X91364855Y-113299151D01*
X91370626Y-113294222D01*
X91370629Y-113294220D01*
X91479536Y-113201204D01*
X91479536Y-113201203D01*
X91485314Y-113196269D01*
X91577755Y-113067624D01*
X91636842Y-112920641D01*
X91659162Y-112763807D01*
X91659307Y-112750000D01*
X91640276Y-112592733D01*
X91584280Y-112444546D01*
X91547440Y-112390943D01*
X91498855Y-112320251D01*
X91498854Y-112320249D01*
X91494553Y-112313992D01*
X91477188Y-112298520D01*
X91413201Y-112241511D01*
X91376275Y-112208611D01*
X91368889Y-112204700D01*
X91242988Y-112138039D01*
X91242989Y-112138039D01*
X91236274Y-112134484D01*
X91082633Y-112095892D01*
X91075034Y-112095852D01*
X91075033Y-112095852D01*
X91009181Y-112095507D01*
X90924221Y-112095062D01*
X90916841Y-112096834D01*
X90916839Y-112096834D01*
X90777563Y-112130271D01*
X90777560Y-112130272D01*
X90770184Y-112132043D01*
X90629414Y-112204700D01*
X90510039Y-112308838D01*
X90505672Y-112315051D01*
X90505667Y-112315057D01*
X90504336Y-112316951D01*
X90503013Y-112318005D01*
X90500589Y-112320697D01*
X90500140Y-112320293D01*
X90448802Y-112361183D01*
X90401250Y-112370500D01*
X83803920Y-112370500D01*
X83779972Y-112367951D01*
X83778307Y-112367872D01*
X83768124Y-112365680D01*
X83757783Y-112366904D01*
X83734777Y-112369627D01*
X83728846Y-112369977D01*
X83728854Y-112370072D01*
X83723676Y-112370500D01*
X83718476Y-112370500D01*
X83713347Y-112371354D01*
X83713344Y-112371354D01*
X83699435Y-112373669D01*
X83693557Y-112374506D01*
X83652999Y-112379306D01*
X83652998Y-112379306D01*
X83642659Y-112380530D01*
X83634407Y-112384493D01*
X83625374Y-112385996D01*
X83580227Y-112410356D01*
X83574963Y-112413037D01*
X83528768Y-112435220D01*
X83524492Y-112438814D01*
X83522552Y-112440754D01*
X83520641Y-112442507D01*
X83520551Y-112442556D01*
X83520439Y-112442433D01*
X83519904Y-112442905D01*
X83514186Y-112445990D01*
X83507119Y-112453635D01*
X83477584Y-112485586D01*
X83474154Y-112489152D01*
X83154411Y-112808895D01*
X83092099Y-112842921D01*
X83064658Y-112845798D01*
X82924221Y-112845062D01*
X82916841Y-112846834D01*
X82916839Y-112846834D01*
X82777563Y-112880271D01*
X82777560Y-112880272D01*
X82770184Y-112882043D01*
X82629414Y-112954700D01*
X82510039Y-113058838D01*
X82418950Y-113188444D01*
X82413975Y-113201204D01*
X82373341Y-113305426D01*
X82361406Y-113336037D01*
X82360414Y-113343570D01*
X82360414Y-113343571D01*
X82345987Y-113453158D01*
X82340729Y-113493096D01*
X82349421Y-113571824D01*
X82353747Y-113611004D01*
X82358113Y-113650553D01*
X82412553Y-113799319D01*
X82500908Y-113930805D01*
X82506527Y-113935918D01*
X82506528Y-113935919D01*
X82612884Y-114032695D01*
X82649807Y-114093336D01*
X82648084Y-114164311D01*
X82610914Y-114220838D01*
X82515765Y-114303842D01*
X82515761Y-114303846D01*
X82510039Y-114308838D01*
X82418950Y-114438444D01*
X82361406Y-114586037D01*
X82340729Y-114743096D01*
X66254500Y-114743096D01*
X66254500Y-113084715D01*
X66274502Y-113016594D01*
X66291405Y-112995620D01*
X71172064Y-108114960D01*
X71174662Y-108112362D01*
X71256307Y-108009168D01*
X71259408Y-108002534D01*
X71327701Y-107856411D01*
X71327702Y-107856407D01*
X71330800Y-107849779D01*
X71366628Y-107677527D01*
X71361869Y-107501654D01*
X71316778Y-107331592D01*
X71233774Y-107176466D01*
X71117309Y-107044595D01*
X70973631Y-106943053D01*
X70966845Y-106940318D01*
X70966841Y-106940316D01*
X70817240Y-106880025D01*
X70817238Y-106880024D01*
X70810448Y-106877288D01*
X70733576Y-106865593D01*
X70643744Y-106851926D01*
X70643741Y-106851926D01*
X70636511Y-106850826D01*
X70629220Y-106851419D01*
X70629217Y-106851419D01*
X70468452Y-106864496D01*
X70468450Y-106864496D01*
X70461152Y-106865090D01*
X70454185Y-106867347D01*
X70300741Y-106917056D01*
X70300739Y-106917057D01*
X70293778Y-106919312D01*
X70259165Y-106940316D01*
X70148157Y-107007677D01*
X70148154Y-107007679D01*
X70143367Y-107010584D01*
X70139164Y-107014296D01*
X70136493Y-107016654D01*
X70136485Y-107016662D01*
X70135026Y-107017950D01*
X65013700Y-112139276D01*
X64999287Y-112151663D01*
X64981929Y-112164437D01*
X64977186Y-112170020D01*
X64947911Y-112204479D01*
X64940981Y-112211995D01*
X64935338Y-112217638D01*
X64917806Y-112239798D01*
X64915039Y-112243173D01*
X64868018Y-112298520D01*
X64864689Y-112305040D01*
X64861369Y-112310018D01*
X64858236Y-112315091D01*
X64853693Y-112320833D01*
X64850593Y-112327466D01*
X64822947Y-112386617D01*
X64821016Y-112390567D01*
X64788007Y-112455212D01*
X64786267Y-112462322D01*
X64784177Y-112467942D01*
X64782297Y-112473593D01*
X64779199Y-112480222D01*
X64777709Y-112487385D01*
X64777708Y-112487389D01*
X64764415Y-112551303D01*
X64763449Y-112555573D01*
X64746189Y-112626108D01*
X64745500Y-112637214D01*
X64745466Y-112637212D01*
X64745223Y-112641271D01*
X64744863Y-112645305D01*
X64743372Y-112652473D01*
X50254500Y-112652473D01*
X50254500Y-108836794D01*
X56340729Y-108836794D01*
X56358113Y-108994251D01*
X56360723Y-109001382D01*
X56360723Y-109001384D01*
X56380550Y-109055563D01*
X56412553Y-109143017D01*
X56416789Y-109149320D01*
X56416789Y-109149321D01*
X56489763Y-109257917D01*
X56500908Y-109274503D01*
X56506527Y-109279616D01*
X56506528Y-109279617D01*
X56517903Y-109289967D01*
X56618076Y-109381117D01*
X56757293Y-109456706D01*
X56910522Y-109496905D01*
X56994477Y-109498224D01*
X57061319Y-109499274D01*
X57061322Y-109499274D01*
X57068916Y-109499393D01*
X57223332Y-109464027D01*
X57310650Y-109420111D01*
X57358072Y-109396261D01*
X57358075Y-109396259D01*
X57364855Y-109392849D01*
X57370626Y-109387920D01*
X57370629Y-109387918D01*
X57479536Y-109294902D01*
X57479536Y-109294901D01*
X57485314Y-109289967D01*
X57577755Y-109161322D01*
X57636842Y-109014339D01*
X57659162Y-108857505D01*
X57659307Y-108843698D01*
X57640276Y-108686431D01*
X57584280Y-108538244D01*
X57494553Y-108407690D01*
X57421681Y-108342763D01*
X57384126Y-108282514D01*
X57379500Y-108248687D01*
X57379500Y-106594730D01*
X57399502Y-106526609D01*
X57423669Y-106498919D01*
X57479536Y-106451204D01*
X57485314Y-106446269D01*
X57577755Y-106317624D01*
X57636842Y-106170641D01*
X57659162Y-106013807D01*
X57659307Y-106000000D01*
X57640276Y-105842733D01*
X57584280Y-105694546D01*
X57494553Y-105563992D01*
X57376275Y-105458611D01*
X57368889Y-105454700D01*
X57242988Y-105388039D01*
X57242989Y-105388039D01*
X57236274Y-105384484D01*
X57082633Y-105345892D01*
X57075034Y-105345852D01*
X57075033Y-105345852D01*
X57009181Y-105345507D01*
X56924221Y-105345062D01*
X56916841Y-105346834D01*
X56916839Y-105346834D01*
X56777563Y-105380271D01*
X56777560Y-105380272D01*
X56770184Y-105382043D01*
X56629414Y-105454700D01*
X56510039Y-105558838D01*
X56418950Y-105688444D01*
X56361406Y-105836037D01*
X56340729Y-105993096D01*
X56358113Y-106150553D01*
X56412553Y-106299319D01*
X56500908Y-106430805D01*
X56506527Y-106435918D01*
X56506528Y-106435919D01*
X56579299Y-106502135D01*
X56616222Y-106562775D01*
X56620500Y-106595329D01*
X56620500Y-108248885D01*
X56600498Y-108317006D01*
X56577330Y-108343833D01*
X56510039Y-108402536D01*
X56418950Y-108532142D01*
X56361406Y-108679735D01*
X56360414Y-108687268D01*
X56360414Y-108687269D01*
X56349351Y-108771305D01*
X56340729Y-108836794D01*
X50254500Y-108836794D01*
X50254500Y-98993096D01*
X132653229Y-98993096D01*
X132670613Y-99150553D01*
X132725053Y-99299319D01*
X132813408Y-99430805D01*
X132819027Y-99435918D01*
X132819028Y-99435919D01*
X132830403Y-99446269D01*
X132930576Y-99537419D01*
X133069793Y-99613008D01*
X133223022Y-99653207D01*
X133306977Y-99654526D01*
X133373819Y-99655576D01*
X133373822Y-99655576D01*
X133381416Y-99655695D01*
X133535832Y-99620329D01*
X133606242Y-99584917D01*
X133670572Y-99552563D01*
X133670575Y-99552561D01*
X133677355Y-99549151D01*
X133683126Y-99544222D01*
X133683129Y-99544220D01*
X133792036Y-99451204D01*
X133792036Y-99451203D01*
X133797814Y-99446269D01*
X133890255Y-99317624D01*
X133949342Y-99170641D01*
X133971662Y-99013807D01*
X133971807Y-99000000D01*
X133952776Y-98842733D01*
X133896780Y-98694546D01*
X133807053Y-98563992D01*
X133734181Y-98499065D01*
X133696626Y-98438816D01*
X133692000Y-98404989D01*
X133692000Y-95030714D01*
X133712002Y-94962593D01*
X133765658Y-94916100D01*
X133819979Y-94904730D01*
X133873818Y-94905576D01*
X133873821Y-94905576D01*
X133881416Y-94905695D01*
X134035832Y-94870329D01*
X134106242Y-94834917D01*
X134170572Y-94802563D01*
X134170575Y-94802561D01*
X134177355Y-94799151D01*
X134183126Y-94794222D01*
X134183129Y-94794220D01*
X134292036Y-94701204D01*
X134292036Y-94701203D01*
X134297814Y-94696269D01*
X134390255Y-94567624D01*
X134449342Y-94420641D01*
X134471662Y-94263807D01*
X134471807Y-94250000D01*
X134452776Y-94092733D01*
X134396780Y-93944546D01*
X134307053Y-93813992D01*
X134188775Y-93708611D01*
X134181389Y-93704700D01*
X134079399Y-93650699D01*
X134048774Y-93634484D01*
X133895133Y-93595892D01*
X133887534Y-93595852D01*
X133887533Y-93595852D01*
X133821681Y-93595507D01*
X133736721Y-93595062D01*
X133729341Y-93596834D01*
X133729339Y-93596834D01*
X133590063Y-93630271D01*
X133590060Y-93630272D01*
X133582684Y-93632043D01*
X133441914Y-93704700D01*
X133322539Y-93808838D01*
X133318172Y-93815051D01*
X133318167Y-93815057D01*
X133309053Y-93828025D01*
X133253519Y-93872257D01*
X133236342Y-93877858D01*
X133159699Y-93896897D01*
X133150947Y-93902548D01*
X133074902Y-93951649D01*
X133053560Y-93965429D01*
X133047113Y-93973607D01*
X133047111Y-93973609D01*
X132981794Y-94056465D01*
X132975344Y-94064647D01*
X132933482Y-94183851D01*
X132933000Y-94189416D01*
X132933000Y-98405187D01*
X132912998Y-98473308D01*
X132889830Y-98500135D01*
X132822539Y-98558838D01*
X132731450Y-98688444D01*
X132673906Y-98836037D01*
X132653229Y-98993096D01*
X50254500Y-98993096D01*
X50254500Y-88993096D01*
X132653229Y-88993096D01*
X132670613Y-89150553D01*
X132725053Y-89299319D01*
X132813408Y-89430805D01*
X132819027Y-89435918D01*
X132819028Y-89435919D01*
X132830403Y-89446269D01*
X132930576Y-89537419D01*
X133069793Y-89613008D01*
X133223022Y-89653207D01*
X133306977Y-89654526D01*
X133373819Y-89655576D01*
X133373822Y-89655576D01*
X133381416Y-89655695D01*
X133535832Y-89620329D01*
X133606242Y-89584917D01*
X133670572Y-89552563D01*
X133670575Y-89552561D01*
X133677355Y-89549151D01*
X133683126Y-89544222D01*
X133683129Y-89544220D01*
X133792036Y-89451204D01*
X133792036Y-89451203D01*
X133797814Y-89446269D01*
X133890255Y-89317624D01*
X133949342Y-89170641D01*
X133971662Y-89013807D01*
X133971807Y-89000000D01*
X133952776Y-88842733D01*
X133896780Y-88694546D01*
X133807053Y-88563992D01*
X133734181Y-88499065D01*
X133696626Y-88438816D01*
X133692000Y-88404989D01*
X133692000Y-84993214D01*
X133712002Y-84925093D01*
X133765658Y-84878600D01*
X133819979Y-84867230D01*
X133873818Y-84868076D01*
X133873821Y-84868076D01*
X133881416Y-84868195D01*
X134035832Y-84832829D01*
X134106242Y-84797417D01*
X134170572Y-84765063D01*
X134170575Y-84765061D01*
X134177355Y-84761651D01*
X134183126Y-84756722D01*
X134183129Y-84756720D01*
X134292036Y-84663704D01*
X134292036Y-84663703D01*
X134297814Y-84658769D01*
X134390255Y-84530124D01*
X134449342Y-84383141D01*
X134471662Y-84226307D01*
X134471807Y-84212500D01*
X134452776Y-84055233D01*
X134396780Y-83907046D01*
X134307053Y-83776492D01*
X134188775Y-83671111D01*
X134181389Y-83667200D01*
X134055488Y-83600539D01*
X134055489Y-83600539D01*
X134048774Y-83596984D01*
X133895133Y-83558392D01*
X133887534Y-83558352D01*
X133887533Y-83558352D01*
X133821681Y-83558007D01*
X133736721Y-83557562D01*
X133729341Y-83559334D01*
X133729339Y-83559334D01*
X133590063Y-83592771D01*
X133590060Y-83592772D01*
X133582684Y-83594543D01*
X133441914Y-83667200D01*
X133322539Y-83771338D01*
X133314518Y-83782751D01*
X133277124Y-83835957D01*
X133221589Y-83880188D01*
X133204412Y-83885790D01*
X133169809Y-83894385D01*
X133169806Y-83894386D01*
X133159699Y-83896897D01*
X133053560Y-83965429D01*
X133047113Y-83973607D01*
X133047111Y-83973609D01*
X132988364Y-84048131D01*
X132975344Y-84064647D01*
X132933482Y-84183851D01*
X132933000Y-84189416D01*
X132933000Y-88405187D01*
X132912998Y-88473308D01*
X132889830Y-88500135D01*
X132822539Y-88558838D01*
X132731450Y-88688444D01*
X132673906Y-88836037D01*
X132653229Y-88993096D01*
X50254500Y-88993096D01*
X50254500Y-78883096D01*
X132726979Y-78883096D01*
X132744363Y-79040553D01*
X132798803Y-79189319D01*
X132887158Y-79320805D01*
X132892777Y-79325918D01*
X132892778Y-79325919D01*
X132904153Y-79336269D01*
X133004326Y-79427419D01*
X133143543Y-79503008D01*
X133296772Y-79543207D01*
X133380727Y-79544526D01*
X133447569Y-79545576D01*
X133447572Y-79545576D01*
X133455166Y-79545695D01*
X133609582Y-79510329D01*
X133679992Y-79474917D01*
X133744322Y-79442563D01*
X133744325Y-79442561D01*
X133751105Y-79439151D01*
X133756876Y-79434222D01*
X133756879Y-79434220D01*
X133865786Y-79341204D01*
X133865786Y-79341203D01*
X133871564Y-79336269D01*
X133964005Y-79207624D01*
X134023092Y-79060641D01*
X134045412Y-78903807D01*
X134045557Y-78890000D01*
X134026526Y-78732733D01*
X133970530Y-78584546D01*
X133880803Y-78453992D01*
X133807931Y-78389065D01*
X133770376Y-78328816D01*
X133765750Y-78294989D01*
X133765750Y-74896252D01*
X133785752Y-74828131D01*
X133839408Y-74781638D01*
X133863621Y-74773432D01*
X133913428Y-74762025D01*
X133913430Y-74762024D01*
X133920832Y-74760329D01*
X133991242Y-74724917D01*
X134055572Y-74692563D01*
X134055575Y-74692561D01*
X134062355Y-74689151D01*
X134068126Y-74684222D01*
X134068129Y-74684220D01*
X134177036Y-74591204D01*
X134177036Y-74591203D01*
X134182814Y-74586269D01*
X134275255Y-74457624D01*
X134334342Y-74310641D01*
X134356662Y-74153807D01*
X134356807Y-74140000D01*
X134337776Y-73982733D01*
X134281780Y-73834546D01*
X134273314Y-73822228D01*
X134196355Y-73710251D01*
X134196354Y-73710249D01*
X134192053Y-73703992D01*
X134073775Y-73598611D01*
X134066389Y-73594700D01*
X133940488Y-73528039D01*
X133940489Y-73528039D01*
X133933774Y-73524484D01*
X133780133Y-73485892D01*
X133772534Y-73485852D01*
X133772533Y-73485852D01*
X133706681Y-73485507D01*
X133621721Y-73485062D01*
X133614341Y-73486834D01*
X133614339Y-73486834D01*
X133475063Y-73520271D01*
X133475060Y-73520272D01*
X133467684Y-73522043D01*
X133326914Y-73594700D01*
X133207539Y-73698838D01*
X133116450Y-73828444D01*
X133113690Y-73835524D01*
X133091826Y-73891601D01*
X133073386Y-73923832D01*
X133049094Y-73954647D01*
X133007232Y-74073851D01*
X133006750Y-74079416D01*
X133006750Y-78295187D01*
X132986748Y-78363308D01*
X132963580Y-78390135D01*
X132896289Y-78448838D01*
X132805200Y-78578444D01*
X132747656Y-78726037D01*
X132726979Y-78883096D01*
X50254500Y-78883096D01*
X50254500Y-68993096D01*
X133038229Y-68993096D01*
X133055613Y-69150553D01*
X133110053Y-69299319D01*
X133198408Y-69430805D01*
X133204027Y-69435918D01*
X133204028Y-69435919D01*
X133215403Y-69446269D01*
X133315576Y-69537419D01*
X133454793Y-69613008D01*
X133608022Y-69653207D01*
X133691977Y-69654526D01*
X133758819Y-69655576D01*
X133758822Y-69655576D01*
X133766416Y-69655695D01*
X133920832Y-69620329D01*
X133991242Y-69584917D01*
X134055572Y-69552563D01*
X134055575Y-69552561D01*
X134062355Y-69549151D01*
X134068126Y-69544222D01*
X134068129Y-69544220D01*
X134177036Y-69451204D01*
X134177036Y-69451203D01*
X134182814Y-69446269D01*
X134275255Y-69317624D01*
X134334342Y-69170641D01*
X134356662Y-69013807D01*
X134356807Y-69000000D01*
X134337776Y-68842733D01*
X134281780Y-68694546D01*
X134192053Y-68563992D01*
X134119181Y-68499065D01*
X134081626Y-68438816D01*
X134077000Y-68404989D01*
X134077000Y-64844730D01*
X134097002Y-64776609D01*
X134121169Y-64748919D01*
X134177036Y-64701204D01*
X134182814Y-64696269D01*
X134275255Y-64567624D01*
X134334342Y-64420641D01*
X134356662Y-64263807D01*
X134356807Y-64250000D01*
X134337776Y-64092733D01*
X134281780Y-63944546D01*
X134192053Y-63813992D01*
X134073775Y-63708611D01*
X134066389Y-63704700D01*
X133964399Y-63650699D01*
X133933774Y-63634484D01*
X133780133Y-63595892D01*
X133772534Y-63595852D01*
X133772533Y-63595852D01*
X133706681Y-63595507D01*
X133621721Y-63595062D01*
X133614341Y-63596834D01*
X133614339Y-63596834D01*
X133475063Y-63630271D01*
X133475060Y-63630272D01*
X133467684Y-63632043D01*
X133326914Y-63704700D01*
X133207539Y-63808838D01*
X133116450Y-63938444D01*
X133058906Y-64086037D01*
X133038229Y-64243096D01*
X133055613Y-64400553D01*
X133110053Y-64549319D01*
X133198408Y-64680805D01*
X133204027Y-64685918D01*
X133204028Y-64685919D01*
X133276799Y-64752135D01*
X133313722Y-64812775D01*
X133318000Y-64845329D01*
X133318000Y-68405187D01*
X133297998Y-68473308D01*
X133274830Y-68500135D01*
X133207539Y-68558838D01*
X133116450Y-68688444D01*
X133058906Y-68836037D01*
X133038229Y-68993096D01*
X50254500Y-68993096D01*
X50254500Y-58993096D01*
X133038229Y-58993096D01*
X133055613Y-59150553D01*
X133110053Y-59299319D01*
X133198408Y-59430805D01*
X133204027Y-59435918D01*
X133204028Y-59435919D01*
X133215403Y-59446269D01*
X133315576Y-59537419D01*
X133454793Y-59613008D01*
X133608022Y-59653207D01*
X133691977Y-59654526D01*
X133758819Y-59655576D01*
X133758822Y-59655576D01*
X133766416Y-59655695D01*
X133920832Y-59620329D01*
X133991242Y-59584917D01*
X134055572Y-59552563D01*
X134055575Y-59552561D01*
X134062355Y-59549151D01*
X134068126Y-59544222D01*
X134068129Y-59544220D01*
X134177036Y-59451204D01*
X134177036Y-59451203D01*
X134182814Y-59446269D01*
X134275255Y-59317624D01*
X134334342Y-59170641D01*
X134356662Y-59013807D01*
X134356807Y-59000000D01*
X134337776Y-58842733D01*
X134281780Y-58694546D01*
X134192053Y-58563992D01*
X134119181Y-58499065D01*
X134081626Y-58438816D01*
X134077000Y-58404989D01*
X134077000Y-54844730D01*
X134097002Y-54776609D01*
X134121169Y-54748919D01*
X134177036Y-54701204D01*
X134182814Y-54696269D01*
X134275255Y-54567624D01*
X134334342Y-54420641D01*
X134356662Y-54263807D01*
X134356807Y-54250000D01*
X134337776Y-54092733D01*
X134281780Y-53944546D01*
X134192053Y-53813992D01*
X134073775Y-53708611D01*
X134066389Y-53704700D01*
X133964399Y-53650699D01*
X133933774Y-53634484D01*
X133780133Y-53595892D01*
X133772534Y-53595852D01*
X133772533Y-53595852D01*
X133706681Y-53595507D01*
X133621721Y-53595062D01*
X133614341Y-53596834D01*
X133614339Y-53596834D01*
X133475063Y-53630271D01*
X133475060Y-53630272D01*
X133467684Y-53632043D01*
X133326914Y-53704700D01*
X133207539Y-53808838D01*
X133116450Y-53938444D01*
X133058906Y-54086037D01*
X133038229Y-54243096D01*
X133055613Y-54400553D01*
X133110053Y-54549319D01*
X133198408Y-54680805D01*
X133204027Y-54685918D01*
X133204028Y-54685919D01*
X133276799Y-54752135D01*
X133313722Y-54812775D01*
X133318000Y-54845329D01*
X133318000Y-58405187D01*
X133297998Y-58473308D01*
X133274830Y-58500135D01*
X133207539Y-58558838D01*
X133116450Y-58688444D01*
X133058906Y-58836037D01*
X133038229Y-58993096D01*
X50254500Y-58993096D01*
X50254500Y-55743096D01*
X66151979Y-55743096D01*
X66169363Y-55900553D01*
X66223803Y-56049319D01*
X66312158Y-56180805D01*
X66317777Y-56185918D01*
X66317778Y-56185919D01*
X66394013Y-56255287D01*
X66429326Y-56287419D01*
X66568543Y-56363008D01*
X66721772Y-56403207D01*
X66805727Y-56404526D01*
X66872569Y-56405576D01*
X66872572Y-56405576D01*
X66880166Y-56405695D01*
X67034582Y-56370329D01*
X67138236Y-56318197D01*
X67169322Y-56302563D01*
X67169325Y-56302561D01*
X67176105Y-56299151D01*
X67181876Y-56294222D01*
X67181879Y-56294220D01*
X67290786Y-56201204D01*
X67290786Y-56201203D01*
X67296564Y-56196269D01*
X67389005Y-56067624D01*
X67448092Y-55920641D01*
X67470412Y-55763807D01*
X67470557Y-55750000D01*
X67464687Y-55701496D01*
X67476359Y-55631468D01*
X67500679Y-55597265D01*
X67828966Y-55268978D01*
X67847714Y-55253836D01*
X67848939Y-55252721D01*
X67857690Y-55247071D01*
X67864137Y-55238893D01*
X67864139Y-55238891D01*
X67878479Y-55220700D01*
X67882428Y-55216256D01*
X67882354Y-55216194D01*
X67885707Y-55212237D01*
X67889388Y-55208556D01*
X67900615Y-55192846D01*
X67904171Y-55188109D01*
X67929458Y-55156032D01*
X67935906Y-55147853D01*
X67938939Y-55139216D01*
X67944263Y-55131766D01*
X67958952Y-55082651D01*
X67960784Y-55077014D01*
X67975140Y-55036133D01*
X67975140Y-55036132D01*
X67977768Y-55028649D01*
X67978250Y-55023084D01*
X67978250Y-55020376D01*
X67978364Y-55017742D01*
X67978393Y-55017644D01*
X67978557Y-55017651D01*
X67978601Y-55016947D01*
X67980463Y-55010722D01*
X67978347Y-54956865D01*
X67978250Y-54951918D01*
X67978250Y-47902670D01*
X67980799Y-47878723D01*
X67980878Y-47877057D01*
X67983070Y-47866874D01*
X67981846Y-47856532D01*
X67981846Y-47856529D01*
X67979124Y-47833537D01*
X67978773Y-47827596D01*
X67978678Y-47827604D01*
X67978250Y-47822424D01*
X67978250Y-47817226D01*
X67975079Y-47798174D01*
X67974242Y-47792297D01*
X67974094Y-47791042D01*
X67968219Y-47741409D01*
X67964258Y-47733160D01*
X67962754Y-47724124D01*
X67957806Y-47714953D01*
X67938402Y-47678990D01*
X67935707Y-47673701D01*
X67916962Y-47634665D01*
X67913530Y-47627518D01*
X67909936Y-47623242D01*
X67907996Y-47621302D01*
X67906243Y-47619391D01*
X67906194Y-47619301D01*
X67906317Y-47619189D01*
X67905845Y-47618654D01*
X67902760Y-47612936D01*
X67863163Y-47576333D01*
X67859598Y-47572904D01*
X67690143Y-47403449D01*
X67656117Y-47341137D01*
X67654495Y-47296601D01*
X67658581Y-47267892D01*
X67658581Y-47267886D01*
X67659162Y-47263807D01*
X67659307Y-47250000D01*
X67640276Y-47092733D01*
X67584280Y-46944546D01*
X67494553Y-46813992D01*
X67376275Y-46708611D01*
X67368889Y-46704700D01*
X67242988Y-46638039D01*
X67242989Y-46638039D01*
X67236274Y-46634484D01*
X67082633Y-46595892D01*
X67075034Y-46595852D01*
X67075033Y-46595852D01*
X67009181Y-46595507D01*
X66924221Y-46595062D01*
X66916841Y-46596834D01*
X66916839Y-46596834D01*
X66777563Y-46630271D01*
X66777560Y-46630272D01*
X66770184Y-46632043D01*
X66629414Y-46704700D01*
X66510039Y-46808838D01*
X66418950Y-46938444D01*
X66361406Y-47086037D01*
X66340729Y-47243096D01*
X66343016Y-47263807D01*
X66353518Y-47358930D01*
X66358113Y-47400553D01*
X66412553Y-47549319D01*
X66416789Y-47555622D01*
X66416789Y-47555623D01*
X66465101Y-47627518D01*
X66500908Y-47680805D01*
X66506527Y-47685918D01*
X66506528Y-47685919D01*
X66555353Y-47730346D01*
X66618076Y-47787419D01*
X66757293Y-47863008D01*
X66910522Y-47903207D01*
X67007138Y-47904725D01*
X67068772Y-47905693D01*
X67136570Y-47926762D01*
X67155888Y-47942582D01*
X67182345Y-47969039D01*
X67216371Y-48031351D01*
X67219250Y-48058134D01*
X67219250Y-54753116D01*
X67199248Y-54821237D01*
X67182345Y-54842211D01*
X66965661Y-55058895D01*
X66903349Y-55092921D01*
X66875908Y-55095798D01*
X66735471Y-55095062D01*
X66728091Y-55096834D01*
X66728089Y-55096834D01*
X66588813Y-55130271D01*
X66588810Y-55130272D01*
X66581434Y-55132043D01*
X66440664Y-55204700D01*
X66321289Y-55308838D01*
X66230200Y-55438444D01*
X66172656Y-55586037D01*
X66171664Y-55593570D01*
X66171664Y-55593571D01*
X66165470Y-55640623D01*
X66151979Y-55743096D01*
X50254500Y-55743096D01*
X50254500Y-51340210D01*
X50274502Y-51272089D01*
X50328158Y-51225596D01*
X50398432Y-51215492D01*
X50463012Y-51244986D01*
X50501396Y-51304712D01*
X50504079Y-51315631D01*
X50508315Y-51336931D01*
X50517633Y-51359427D01*
X50559983Y-51422808D01*
X50577192Y-51440017D01*
X50640575Y-51482368D01*
X50663066Y-51491684D01*
X50718915Y-51502793D01*
X50731170Y-51504000D01*
X51854885Y-51504000D01*
X51870124Y-51499525D01*
X51871329Y-51498135D01*
X51873000Y-51490452D01*
X51873000Y-51485884D01*
X52127000Y-51485884D01*
X52131475Y-51501123D01*
X52132865Y-51502328D01*
X52140548Y-51503999D01*
X53268828Y-51503999D01*
X53281088Y-51502791D01*
X53336931Y-51491685D01*
X53359427Y-51482367D01*
X53422808Y-51440017D01*
X53440017Y-51422808D01*
X53482368Y-51359425D01*
X53491684Y-51336934D01*
X53502793Y-51281085D01*
X53504000Y-51268830D01*
X53504000Y-50145115D01*
X53499525Y-50129876D01*
X53498135Y-50128671D01*
X53490452Y-50127000D01*
X52145115Y-50127000D01*
X52129876Y-50131475D01*
X52128671Y-50132865D01*
X52127000Y-50140548D01*
X52127000Y-51485884D01*
X51873000Y-51485884D01*
X51873000Y-49854885D01*
X52127000Y-49854885D01*
X52131475Y-49870124D01*
X52132865Y-49871329D01*
X52140548Y-49873000D01*
X53485884Y-49873000D01*
X53501123Y-49868525D01*
X53502328Y-49867135D01*
X53503999Y-49859452D01*
X53503999Y-48731172D01*
X53502791Y-48718912D01*
X53491685Y-48663069D01*
X53482367Y-48640573D01*
X53440017Y-48577192D01*
X53422808Y-48559983D01*
X53359425Y-48517632D01*
X53336934Y-48508316D01*
X53281085Y-48497207D01*
X53268830Y-48496000D01*
X52145115Y-48496000D01*
X52129876Y-48500475D01*
X52128671Y-48501865D01*
X52127000Y-48509548D01*
X52127000Y-49854885D01*
X51873000Y-49854885D01*
X51873000Y-48514116D01*
X51868525Y-48498877D01*
X51867135Y-48497672D01*
X51859452Y-48496001D01*
X50731172Y-48496001D01*
X50718912Y-48497209D01*
X50663069Y-48508315D01*
X50640573Y-48517633D01*
X50577192Y-48559983D01*
X50559983Y-48577192D01*
X50517632Y-48640575D01*
X50508316Y-48663066D01*
X50504079Y-48684367D01*
X50471172Y-48747276D01*
X50409477Y-48782409D01*
X50338582Y-48778609D01*
X50280996Y-48737084D01*
X50255002Y-48671017D01*
X50254500Y-48659786D01*
X50254500Y-44042186D01*
X52141018Y-44042186D01*
X52166579Y-44310100D01*
X52230547Y-44571518D01*
X52331583Y-44820963D01*
X52467569Y-45053210D01*
X52635658Y-45263395D01*
X52832327Y-45447113D01*
X53053457Y-45600516D01*
X53294416Y-45720391D01*
X53298750Y-45721812D01*
X53298753Y-45721813D01*
X53545823Y-45802807D01*
X53545829Y-45802808D01*
X53550156Y-45804227D01*
X53554647Y-45805007D01*
X53554648Y-45805007D01*
X53811538Y-45849611D01*
X53811546Y-45849612D01*
X53815319Y-45850267D01*
X53819156Y-45850458D01*
X53898777Y-45854422D01*
X53898785Y-45854422D01*
X53900348Y-45854500D01*
X54068374Y-45854500D01*
X54070642Y-45854335D01*
X54070654Y-45854335D01*
X54201457Y-45844844D01*
X54268425Y-45839985D01*
X54272880Y-45839001D01*
X54272883Y-45839001D01*
X54526770Y-45782947D01*
X54526772Y-45782946D01*
X54531226Y-45781963D01*
X54782900Y-45686613D01*
X55018172Y-45555931D01*
X55164842Y-45443996D01*
X55228491Y-45395421D01*
X55228495Y-45395417D01*
X55232116Y-45392654D01*
X55420249Y-45200203D01*
X55527242Y-45053210D01*
X55575942Y-44986304D01*
X55575947Y-44986297D01*
X55578630Y-44982610D01*
X55703941Y-44744433D01*
X55793557Y-44490662D01*
X55818688Y-44363156D01*
X55844720Y-44231083D01*
X55844721Y-44231077D01*
X55845601Y-44226611D01*
X55854782Y-44042186D01*
X55858755Y-43962383D01*
X55858755Y-43962377D01*
X55858982Y-43957814D01*
X55833421Y-43689900D01*
X55787759Y-43503291D01*
X55770539Y-43432920D01*
X55769453Y-43428482D01*
X55704786Y-43268828D01*
X58496001Y-43268828D01*
X58497209Y-43281088D01*
X58508315Y-43336931D01*
X58517633Y-43359427D01*
X58559983Y-43422808D01*
X58577192Y-43440017D01*
X58640575Y-43482368D01*
X58663066Y-43491684D01*
X58718915Y-43502793D01*
X58731170Y-43504000D01*
X59854885Y-43504000D01*
X59870124Y-43499525D01*
X59871329Y-43498135D01*
X59873000Y-43490452D01*
X59873000Y-43485884D01*
X60127000Y-43485884D01*
X60131475Y-43501123D01*
X60132865Y-43502328D01*
X60140548Y-43503999D01*
X61268828Y-43503999D01*
X61281088Y-43502791D01*
X61336931Y-43491685D01*
X61359427Y-43482367D01*
X61422808Y-43440017D01*
X61440017Y-43422808D01*
X61482368Y-43359425D01*
X61491684Y-43336934D01*
X61502793Y-43281085D01*
X61504000Y-43268830D01*
X61504000Y-42145115D01*
X61499525Y-42129876D01*
X61498135Y-42128671D01*
X61490452Y-42127000D01*
X60145115Y-42127000D01*
X60129876Y-42131475D01*
X60128671Y-42132865D01*
X60127000Y-42140548D01*
X60127000Y-43485884D01*
X59873000Y-43485884D01*
X59873000Y-42145115D01*
X59868525Y-42129876D01*
X59867135Y-42128671D01*
X59859452Y-42127000D01*
X58514116Y-42127000D01*
X58498877Y-42131475D01*
X58497672Y-42132865D01*
X58496001Y-42140548D01*
X58496001Y-43268828D01*
X55704786Y-43268828D01*
X55668417Y-43179037D01*
X55532431Y-42946790D01*
X55364342Y-42736605D01*
X55167673Y-42552887D01*
X54946543Y-42399484D01*
X54705584Y-42279609D01*
X54701250Y-42278188D01*
X54701247Y-42278187D01*
X54454177Y-42197193D01*
X54454171Y-42197192D01*
X54449844Y-42195773D01*
X54445352Y-42194993D01*
X54188462Y-42150389D01*
X54188454Y-42150388D01*
X54184681Y-42149733D01*
X54174718Y-42149237D01*
X54101223Y-42145578D01*
X54101215Y-42145578D01*
X54099652Y-42145500D01*
X53931626Y-42145500D01*
X53929358Y-42145665D01*
X53929346Y-42145665D01*
X53798543Y-42155156D01*
X53731575Y-42160015D01*
X53727120Y-42160999D01*
X53727117Y-42160999D01*
X53473230Y-42217053D01*
X53473228Y-42217054D01*
X53468774Y-42218037D01*
X53217100Y-42313387D01*
X53213114Y-42315601D01*
X53213112Y-42315602D01*
X53065754Y-42397452D01*
X52981828Y-42444069D01*
X52978196Y-42446841D01*
X52771509Y-42604579D01*
X52771505Y-42604583D01*
X52767884Y-42607346D01*
X52579751Y-42799797D01*
X52577066Y-42803486D01*
X52424058Y-43013696D01*
X52424053Y-43013703D01*
X52421370Y-43017390D01*
X52296059Y-43255567D01*
X52206443Y-43509338D01*
X52195989Y-43562378D01*
X52170855Y-43689900D01*
X52154399Y-43773389D01*
X52154172Y-43777942D01*
X52154172Y-43777945D01*
X52144991Y-43962383D01*
X52141018Y-44042186D01*
X50254500Y-44042186D01*
X50254500Y-43037476D01*
X50256921Y-43012894D01*
X50257065Y-43012170D01*
X50259486Y-43000000D01*
X50257065Y-42987828D01*
X50257065Y-42975421D01*
X50257262Y-42975421D01*
X50256494Y-42964491D01*
X50257689Y-42943223D01*
X50271366Y-42699663D01*
X50272948Y-42685626D01*
X50277414Y-42659345D01*
X50321124Y-42402084D01*
X50322150Y-42396045D01*
X50325294Y-42382270D01*
X50355280Y-42278187D01*
X50406612Y-42100008D01*
X50411273Y-42086689D01*
X50523684Y-41815305D01*
X50529813Y-41802578D01*
X50600622Y-41674459D01*
X50671899Y-41545494D01*
X50679406Y-41533546D01*
X50849394Y-41293971D01*
X50858192Y-41282938D01*
X51053924Y-41063913D01*
X51063914Y-41053923D01*
X51282938Y-40858192D01*
X51293973Y-40849392D01*
X51336347Y-40819326D01*
X51533546Y-40679406D01*
X51545494Y-40671899D01*
X51802582Y-40529811D01*
X51815305Y-40523684D01*
X52086689Y-40411273D01*
X52100008Y-40406612D01*
X52336146Y-40338582D01*
X52382270Y-40325294D01*
X52396045Y-40322150D01*
X52540836Y-40297549D01*
X52685631Y-40272947D01*
X52699663Y-40271366D01*
X52964494Y-40256494D01*
X52975421Y-40257262D01*
X52975421Y-40257065D01*
X52987828Y-40257065D01*
X53000000Y-40259486D01*
X53012897Y-40256921D01*
X53037476Y-40254500D01*
X58659790Y-40254500D01*
X58727911Y-40274502D01*
G37*
G04 #@! TD.AperFunction*
G04 #@! TA.AperFunction,Conductor*
G36*
X140472012Y-110509160D02*
G01*
X140478595Y-110515289D01*
X143193522Y-113230216D01*
X143208664Y-113248964D01*
X143209779Y-113250189D01*
X143215429Y-113258940D01*
X143223607Y-113265387D01*
X143223609Y-113265389D01*
X143241800Y-113279729D01*
X143246241Y-113283675D01*
X143246303Y-113283602D01*
X143250267Y-113286961D01*
X143253944Y-113290638D01*
X143269692Y-113301892D01*
X143274362Y-113305398D01*
X143314647Y-113337156D01*
X143323281Y-113340188D01*
X143330734Y-113345514D01*
X143379850Y-113360203D01*
X143385492Y-113362036D01*
X143426367Y-113376390D01*
X143433851Y-113379018D01*
X143439416Y-113379500D01*
X143442124Y-113379500D01*
X143444758Y-113379614D01*
X143444856Y-113379643D01*
X143444849Y-113379807D01*
X143445553Y-113379851D01*
X143451778Y-113381713D01*
X143505635Y-113379597D01*
X143510582Y-113379500D01*
X146369501Y-113379500D01*
X146437622Y-113399502D01*
X146484115Y-113453158D01*
X146495501Y-113505500D01*
X146495501Y-114275066D01*
X146501225Y-114303846D01*
X146507230Y-114334035D01*
X146510266Y-114349301D01*
X146517161Y-114359620D01*
X146517162Y-114359622D01*
X146551685Y-114411288D01*
X146566516Y-114433484D01*
X146650699Y-114489734D01*
X146724933Y-114504500D01*
X147999793Y-114504500D01*
X149275066Y-114504499D01*
X149310818Y-114497388D01*
X149337126Y-114492156D01*
X149337128Y-114492155D01*
X149349301Y-114489734D01*
X149359621Y-114482839D01*
X149359622Y-114482838D01*
X149423168Y-114440377D01*
X149433484Y-114433484D01*
X149489734Y-114349301D01*
X149495921Y-114318197D01*
X149528829Y-114255287D01*
X149590524Y-114220155D01*
X149661418Y-114223955D01*
X149719004Y-114265481D01*
X149744999Y-114331548D01*
X149745500Y-114342778D01*
X149745500Y-115657227D01*
X149725498Y-115725348D01*
X149671842Y-115771841D01*
X149601568Y-115781945D01*
X149536988Y-115752451D01*
X149498604Y-115692725D01*
X149495921Y-115681806D01*
X149492156Y-115662874D01*
X149492155Y-115662872D01*
X149489734Y-115650699D01*
X149433484Y-115566516D01*
X149349301Y-115510266D01*
X149275067Y-115495500D01*
X148000207Y-115495500D01*
X146724934Y-115495501D01*
X146689182Y-115502612D01*
X146662874Y-115507844D01*
X146662872Y-115507845D01*
X146650699Y-115510266D01*
X146640379Y-115517161D01*
X146640378Y-115517162D01*
X146634178Y-115521305D01*
X146566516Y-115566516D01*
X146510266Y-115650699D01*
X146495500Y-115724933D01*
X146495500Y-116494500D01*
X146475498Y-116562621D01*
X146421842Y-116609114D01*
X146369500Y-116620500D01*
X144099682Y-116620500D01*
X144031561Y-116600498D01*
X144005114Y-116574860D01*
X144003878Y-116575949D01*
X143998855Y-116570251D01*
X143994553Y-116563992D01*
X143876275Y-116458611D01*
X143868889Y-116454700D01*
X143742988Y-116388039D01*
X143742989Y-116388039D01*
X143736274Y-116384484D01*
X143582633Y-116345892D01*
X143575034Y-116345852D01*
X143575033Y-116345852D01*
X143509181Y-116345507D01*
X143424221Y-116345062D01*
X143416841Y-116346834D01*
X143416839Y-116346834D01*
X143277563Y-116380271D01*
X143277560Y-116380272D01*
X143270184Y-116382043D01*
X143129414Y-116454700D01*
X143010039Y-116558838D01*
X142918950Y-116688444D01*
X142890178Y-116762241D01*
X142869560Y-116815124D01*
X142861406Y-116836037D01*
X142840729Y-116993096D01*
X142841563Y-117000646D01*
X142855187Y-117124046D01*
X142858113Y-117150553D01*
X142860723Y-117157684D01*
X142860723Y-117157686D01*
X142875515Y-117198106D01*
X142912553Y-117299319D01*
X142916789Y-117305622D01*
X142916789Y-117305623D01*
X142958142Y-117367162D01*
X143000908Y-117430805D01*
X143006527Y-117435918D01*
X143006528Y-117435919D01*
X143017903Y-117446269D01*
X143118076Y-117537419D01*
X143257293Y-117613008D01*
X143410522Y-117653207D01*
X143494477Y-117654526D01*
X143561319Y-117655576D01*
X143561322Y-117655576D01*
X143568916Y-117655695D01*
X143723332Y-117620329D01*
X143825662Y-117568863D01*
X143858072Y-117552563D01*
X143858075Y-117552561D01*
X143864855Y-117549151D01*
X143870626Y-117544222D01*
X143870629Y-117544220D01*
X143979542Y-117451199D01*
X143979543Y-117451198D01*
X143985314Y-117446269D01*
X143995586Y-117431974D01*
X144051581Y-117388326D01*
X144097909Y-117379500D01*
X146369501Y-117379500D01*
X146437622Y-117399502D01*
X146484115Y-117453158D01*
X146495501Y-117505500D01*
X146495501Y-118275066D01*
X146502612Y-118310818D01*
X146504080Y-118318197D01*
X146510266Y-118349301D01*
X146517161Y-118359620D01*
X146517162Y-118359622D01*
X146531960Y-118381768D01*
X146566516Y-118433484D01*
X146650699Y-118489734D01*
X146724933Y-118504500D01*
X146737470Y-118504500D01*
X148022802Y-118504499D01*
X148090921Y-118524501D01*
X148137414Y-118578157D01*
X148147518Y-118648431D01*
X148118025Y-118713011D01*
X148105630Y-118725448D01*
X148085763Y-118742779D01*
X148010039Y-118808838D01*
X148005672Y-118815051D01*
X148005667Y-118815057D01*
X148004336Y-118816951D01*
X148003013Y-118818005D01*
X148000589Y-118820697D01*
X148000140Y-118820293D01*
X147948802Y-118861183D01*
X147901250Y-118870500D01*
X146099682Y-118870500D01*
X146031561Y-118850498D01*
X146005114Y-118824860D01*
X146003878Y-118825949D01*
X145998855Y-118820251D01*
X145994553Y-118813992D01*
X145876275Y-118708611D01*
X145868889Y-118704700D01*
X145798464Y-118667412D01*
X145736274Y-118634484D01*
X145582633Y-118595892D01*
X145575034Y-118595852D01*
X145575033Y-118595852D01*
X145509181Y-118595507D01*
X145424221Y-118595062D01*
X145416841Y-118596834D01*
X145416839Y-118596834D01*
X145277563Y-118630271D01*
X145277560Y-118630272D01*
X145270184Y-118632043D01*
X145129414Y-118704700D01*
X145010039Y-118808838D01*
X144918950Y-118938444D01*
X144916190Y-118945524D01*
X144871357Y-119060515D01*
X144861406Y-119086037D01*
X144860414Y-119093570D01*
X144860414Y-119093571D01*
X144844049Y-119217881D01*
X144840729Y-119243096D01*
X144849421Y-119321824D01*
X144856135Y-119382634D01*
X144858113Y-119400553D01*
X144860723Y-119407684D01*
X144860723Y-119407686D01*
X144908903Y-119539344D01*
X144912553Y-119549319D01*
X145000908Y-119680805D01*
X145006525Y-119685916D01*
X145006528Y-119685919D01*
X145016009Y-119694546D01*
X145118076Y-119787419D01*
X145257293Y-119863008D01*
X145410522Y-119903207D01*
X145494477Y-119904526D01*
X145561319Y-119905576D01*
X145561322Y-119905576D01*
X145568916Y-119905695D01*
X145723332Y-119870329D01*
X145793742Y-119834917D01*
X145858072Y-119802563D01*
X145858075Y-119802561D01*
X145864855Y-119799151D01*
X145870626Y-119794222D01*
X145870629Y-119794220D01*
X145979542Y-119701199D01*
X145979543Y-119701198D01*
X145985314Y-119696269D01*
X145995586Y-119681974D01*
X146051581Y-119638326D01*
X146097909Y-119629500D01*
X147900141Y-119629500D01*
X147968262Y-119649502D01*
X147995522Y-119673169D01*
X147996671Y-119674500D01*
X148000908Y-119680805D01*
X148118076Y-119787419D01*
X148257293Y-119863008D01*
X148410522Y-119903207D01*
X148494477Y-119904526D01*
X148561319Y-119905576D01*
X148561322Y-119905576D01*
X148568916Y-119905695D01*
X148723332Y-119870329D01*
X148793742Y-119834917D01*
X148858072Y-119802563D01*
X148858075Y-119802561D01*
X148864855Y-119799151D01*
X148870626Y-119794222D01*
X148870629Y-119794220D01*
X148979536Y-119701204D01*
X148979536Y-119701203D01*
X148985314Y-119696269D01*
X149077755Y-119567624D01*
X149136842Y-119420641D01*
X149159162Y-119263807D01*
X149159307Y-119250000D01*
X149140276Y-119092733D01*
X149084280Y-118944546D01*
X149075063Y-118931135D01*
X148998855Y-118820251D01*
X148998854Y-118820249D01*
X148994553Y-118813992D01*
X148928903Y-118755500D01*
X148894194Y-118724576D01*
X148856639Y-118664326D01*
X148857618Y-118593336D01*
X148896823Y-118534145D01*
X148961804Y-118505546D01*
X148978011Y-118504499D01*
X149275066Y-118504499D01*
X149310818Y-118497388D01*
X149337126Y-118492156D01*
X149337128Y-118492155D01*
X149349301Y-118489734D01*
X149359621Y-118482839D01*
X149359622Y-118482838D01*
X149423168Y-118440377D01*
X149433484Y-118433484D01*
X149489734Y-118349301D01*
X149495921Y-118318197D01*
X149528829Y-118255287D01*
X149590524Y-118220155D01*
X149661418Y-118223955D01*
X149719004Y-118265481D01*
X149744999Y-118331548D01*
X149745500Y-118342778D01*
X149745500Y-128657227D01*
X149725498Y-128725348D01*
X149671842Y-128771841D01*
X149601568Y-128781945D01*
X149536988Y-128752451D01*
X149498604Y-128692725D01*
X149495921Y-128681806D01*
X149492156Y-128662874D01*
X149492155Y-128662872D01*
X149489734Y-128650699D01*
X149477273Y-128632049D01*
X149440377Y-128576832D01*
X149433484Y-128566516D01*
X149349301Y-128510266D01*
X149275067Y-128495500D01*
X148000207Y-128495500D01*
X146724934Y-128495501D01*
X146689182Y-128502612D01*
X146662874Y-128507844D01*
X146662872Y-128507845D01*
X146650699Y-128510266D01*
X146640379Y-128517161D01*
X146640378Y-128517162D01*
X146582818Y-128555623D01*
X146566516Y-128566516D01*
X146510266Y-128650699D01*
X146495500Y-128724933D01*
X146495500Y-129119500D01*
X146475498Y-129187621D01*
X146421842Y-129234114D01*
X146369500Y-129245500D01*
X140360269Y-129245500D01*
X140292148Y-129225498D01*
X140245655Y-129171842D01*
X140235551Y-129101568D01*
X140239372Y-129084005D01*
X140241431Y-129076993D01*
X140241432Y-129076989D01*
X140242700Y-129072670D01*
X140254773Y-128988704D01*
X140262861Y-128932448D01*
X140262861Y-128932443D01*
X140263500Y-128928001D01*
X140263500Y-115884500D01*
X140263140Y-115881149D01*
X140252128Y-115778715D01*
X140252127Y-115778708D01*
X140251766Y-115775351D01*
X140251048Y-115772050D01*
X140241094Y-115726290D01*
X140241093Y-115726285D01*
X140240380Y-115723009D01*
X140205710Y-115618843D01*
X140126692Y-115495888D01*
X140080199Y-115442232D01*
X139999175Y-115372024D01*
X139976550Y-115352419D01*
X139976547Y-115352417D01*
X139969739Y-115346518D01*
X139836790Y-115285802D01*
X139813036Y-115278827D01*
X139772992Y-115267069D01*
X139772988Y-115267068D01*
X139768669Y-115265800D01*
X139764220Y-115265160D01*
X139764214Y-115265159D01*
X139628447Y-115245639D01*
X139628442Y-115245639D01*
X139624000Y-115245000D01*
X137719924Y-115245000D01*
X137693349Y-115246424D01*
X137666735Y-115247850D01*
X137666725Y-115247851D01*
X137665042Y-115247941D01*
X137638259Y-115250820D01*
X137636602Y-115251088D01*
X137636591Y-115251090D01*
X137590094Y-115258625D01*
X137590089Y-115258626D01*
X137583982Y-115259616D01*
X137578185Y-115261778D01*
X137578182Y-115261779D01*
X137451255Y-115309122D01*
X137451253Y-115309123D01*
X137447041Y-115310694D01*
X137443098Y-115312847D01*
X137443096Y-115312848D01*
X137388677Y-115342564D01*
X137384729Y-115344720D01*
X137381129Y-115347415D01*
X137271332Y-115429609D01*
X137271328Y-115429613D01*
X137267730Y-115432306D01*
X135299043Y-117400994D01*
X133335167Y-119364870D01*
X133324681Y-119374247D01*
X133280564Y-119409465D01*
X133259939Y-119422858D01*
X133195697Y-119456157D01*
X133172866Y-119465289D01*
X133103359Y-119485483D01*
X133079188Y-119490006D01*
X133007103Y-119496313D01*
X132982514Y-119496056D01*
X132955728Y-119493146D01*
X132910560Y-119488239D01*
X132886492Y-119483211D01*
X132817431Y-119461570D01*
X132794794Y-119451961D01*
X132731256Y-119417318D01*
X132710924Y-119403500D01*
X132655315Y-119357168D01*
X132638057Y-119339668D01*
X132592502Y-119283412D01*
X132578970Y-119262889D01*
X132545219Y-119198874D01*
X132535928Y-119176107D01*
X132515252Y-119106752D01*
X132510559Y-119082613D01*
X132510214Y-119078957D01*
X132503748Y-119010561D01*
X132503834Y-118985969D01*
X132511148Y-118913972D01*
X132516009Y-118889867D01*
X132537167Y-118820662D01*
X132546617Y-118797960D01*
X132580818Y-118734175D01*
X132594495Y-118713743D01*
X132628652Y-118672160D01*
X132636911Y-118663053D01*
X136861812Y-114438152D01*
X136862341Y-114437598D01*
X136862363Y-114437575D01*
X136877962Y-114421224D01*
X136877972Y-114421213D01*
X136878496Y-114420664D01*
X136886486Y-114411884D01*
X136886972Y-114411324D01*
X136887004Y-114411288D01*
X136892914Y-114404478D01*
X136906254Y-114391243D01*
X136907272Y-114390374D01*
X136907976Y-114389759D01*
X136912284Y-114386159D01*
X136936193Y-114367073D01*
X136936438Y-114366877D01*
X136938373Y-114365325D01*
X136939400Y-114364497D01*
X136939469Y-114364441D01*
X136941649Y-114362673D01*
X136941736Y-114362602D01*
X136966673Y-114342264D01*
X136988320Y-114328044D01*
X137002493Y-114320697D01*
X137016891Y-114313234D01*
X137019220Y-114312019D01*
X137020386Y-114311407D01*
X137022807Y-114310128D01*
X137051268Y-114294996D01*
X137075263Y-114285253D01*
X137106114Y-114276289D01*
X137106300Y-114276235D01*
X137108631Y-114275552D01*
X137109764Y-114275217D01*
X137112584Y-114274375D01*
X137112605Y-114274369D01*
X137143436Y-114265061D01*
X137168868Y-114260164D01*
X137187401Y-114258542D01*
X137200970Y-114257355D01*
X137201093Y-114257344D01*
X137201151Y-114257339D01*
X137202111Y-114257252D01*
X137203687Y-114257110D01*
X137205001Y-114256988D01*
X137207638Y-114256736D01*
X137233274Y-114254222D01*
X137238208Y-114253836D01*
X137238453Y-114253822D01*
X137240296Y-114253715D01*
X137240403Y-114253708D01*
X137240713Y-114253690D01*
X137242635Y-114253559D01*
X137245149Y-114253388D01*
X137245225Y-114253382D01*
X137245495Y-114253364D01*
X137247319Y-114253222D01*
X137267336Y-114253257D01*
X137269584Y-114253440D01*
X137269605Y-114253441D01*
X137270472Y-114253512D01*
X137271297Y-114253557D01*
X137271331Y-114253559D01*
X137278252Y-114253933D01*
X137284080Y-114254249D01*
X137311850Y-114255000D01*
X139624000Y-114255000D01*
X139627346Y-114254640D01*
X139627351Y-114254640D01*
X139729785Y-114243628D01*
X139729792Y-114243627D01*
X139733149Y-114243266D01*
X139736450Y-114242548D01*
X139782210Y-114232594D01*
X139782215Y-114232593D01*
X139785491Y-114231880D01*
X139889657Y-114197210D01*
X140012612Y-114118192D01*
X140036212Y-114097743D01*
X140062875Y-114074639D01*
X140066268Y-114071699D01*
X140100065Y-114032695D01*
X140156081Y-113968050D01*
X140156083Y-113968047D01*
X140161982Y-113961239D01*
X140222698Y-113828290D01*
X140242700Y-113760169D01*
X140258461Y-113650553D01*
X140262861Y-113619947D01*
X140262861Y-113619942D01*
X140263500Y-113615500D01*
X140263500Y-110604384D01*
X140283502Y-110536263D01*
X140337158Y-110489770D01*
X140407432Y-110479666D01*
X140472012Y-110509160D01*
G37*
G04 #@! TD.AperFunction*
G04 #@! TD*
G04 #@! TA.AperFunction,Conductor*
G04 #@! TO.N,+3.3V*
G36*
X137870027Y-108270002D02*
G01*
X137891001Y-108286905D01*
X139713095Y-110108999D01*
X139747121Y-110171311D01*
X139750000Y-110198094D01*
X139750000Y-113615500D01*
X139729998Y-113683621D01*
X139676342Y-113730114D01*
X139624000Y-113741500D01*
X137311850Y-113741500D01*
X137298242Y-113740763D01*
X137297662Y-113740700D01*
X137260612Y-113736675D01*
X137210570Y-113741053D01*
X137205788Y-113741379D01*
X137203310Y-113741500D01*
X137200231Y-113741500D01*
X137197177Y-113741799D01*
X137197166Y-113741800D01*
X137157529Y-113745687D01*
X137156215Y-113745809D01*
X137120688Y-113748917D01*
X137063587Y-113753913D01*
X137058468Y-113755400D01*
X137053167Y-113755920D01*
X136964166Y-113782791D01*
X136963033Y-113783126D01*
X136879586Y-113807370D01*
X136879582Y-113807372D01*
X136873664Y-113809091D01*
X136868932Y-113811544D01*
X136863831Y-113813084D01*
X136858388Y-113815978D01*
X136781740Y-113856731D01*
X136780574Y-113857343D01*
X136703547Y-113897271D01*
X136698074Y-113900108D01*
X136693911Y-113903431D01*
X136689204Y-113905934D01*
X136684429Y-113909828D01*
X136684428Y-113909829D01*
X136617102Y-113964739D01*
X136616075Y-113965567D01*
X136579792Y-113994531D01*
X136579787Y-113994536D01*
X136577028Y-113996738D01*
X136574527Y-113999239D01*
X136573809Y-113999881D01*
X136569461Y-114003594D01*
X136535938Y-114030935D01*
X136532015Y-114035677D01*
X136532013Y-114035679D01*
X136506703Y-114066273D01*
X136498713Y-114075053D01*
X132251691Y-118322075D01*
X132157897Y-118436261D01*
X132064438Y-118610563D01*
X132006613Y-118799698D01*
X131986626Y-118996462D01*
X132005239Y-119193362D01*
X132061741Y-119382896D01*
X132153982Y-119557846D01*
X132278447Y-119711547D01*
X132430396Y-119838146D01*
X132604041Y-119932822D01*
X132698405Y-119962394D01*
X132786886Y-119990122D01*
X132786889Y-119990123D01*
X132792768Y-119991965D01*
X132798891Y-119992630D01*
X132798895Y-119992631D01*
X132983263Y-120012659D01*
X132983267Y-120012659D01*
X132989388Y-120013324D01*
X133186413Y-119996087D01*
X133192330Y-119994368D01*
X133192335Y-119994367D01*
X133323064Y-119956386D01*
X133376336Y-119940909D01*
X133551926Y-119849892D01*
X133586037Y-119822662D01*
X133670223Y-119755458D01*
X133670230Y-119755451D01*
X133672973Y-119753262D01*
X137630829Y-115795405D01*
X137693141Y-115761379D01*
X137719924Y-115758500D01*
X139624000Y-115758500D01*
X139692121Y-115778502D01*
X139738614Y-115832158D01*
X139750000Y-115884500D01*
X139750000Y-128928001D01*
X139729998Y-128996122D01*
X139676342Y-129042615D01*
X139659575Y-129048875D01*
X139626289Y-129058671D01*
X139626287Y-129058672D01*
X139620381Y-129060410D01*
X139617228Y-129062058D01*
X139613831Y-129063084D01*
X139608401Y-129065971D01*
X139608399Y-129065972D01*
X139584013Y-129078938D01*
X139529899Y-129107711D01*
X139529319Y-129108016D01*
X139445110Y-129152040D01*
X139442342Y-129154265D01*
X139439204Y-129155934D01*
X139434426Y-129159831D01*
X139365628Y-129215941D01*
X139364944Y-129216494D01*
X139295782Y-129272102D01*
X139295776Y-129272108D01*
X139290975Y-129275968D01*
X139288692Y-129278689D01*
X139285938Y-129280935D01*
X139282011Y-129285682D01*
X139282009Y-129285684D01*
X139225441Y-129354064D01*
X139224935Y-129354671D01*
X139163846Y-129427474D01*
X139162134Y-129430589D01*
X139159870Y-129433325D01*
X139156939Y-129438746D01*
X139114700Y-129516865D01*
X139114298Y-129517603D01*
X139068567Y-129600787D01*
X139067494Y-129604170D01*
X139065802Y-129607299D01*
X139037725Y-129698002D01*
X139037468Y-129698822D01*
X139008765Y-129789306D01*
X139008369Y-129792837D01*
X139007318Y-129796232D01*
X138997396Y-129890638D01*
X138997311Y-129891421D01*
X138991500Y-129943227D01*
X138991500Y-129945800D01*
X138991180Y-129949776D01*
X138986645Y-129992925D01*
X138987204Y-129999065D01*
X138990981Y-130040570D01*
X138991500Y-130051990D01*
X138991500Y-131624000D01*
X138971498Y-131692121D01*
X138917842Y-131738614D01*
X138865500Y-131750000D01*
X133821650Y-131750000D01*
X133753529Y-131729998D01*
X133728016Y-131708313D01*
X133611253Y-131578634D01*
X133456752Y-131466382D01*
X133450724Y-131463698D01*
X133450722Y-131463697D01*
X133288319Y-131391391D01*
X133288318Y-131391391D01*
X133282288Y-131388706D01*
X133188888Y-131368853D01*
X133101944Y-131350372D01*
X133101939Y-131350372D01*
X133095487Y-131349000D01*
X132904513Y-131349000D01*
X132898061Y-131350372D01*
X132898056Y-131350372D01*
X132811112Y-131368853D01*
X132717712Y-131388706D01*
X132711682Y-131391391D01*
X132711681Y-131391391D01*
X132549278Y-131463697D01*
X132549276Y-131463698D01*
X132543248Y-131466382D01*
X132388747Y-131578634D01*
X132271985Y-131708312D01*
X132211540Y-131745550D01*
X132178350Y-131750000D01*
X112466217Y-131750000D01*
X112398096Y-131729998D01*
X112351603Y-131676342D01*
X112341499Y-131606068D01*
X112346384Y-131585064D01*
X112383685Y-131470263D01*
X112393542Y-131439928D01*
X112398644Y-131391391D01*
X112412814Y-131256565D01*
X112413504Y-131250000D01*
X112393542Y-131060072D01*
X112334527Y-130878444D01*
X112239040Y-130713056D01*
X112111253Y-130571134D01*
X111956752Y-130458882D01*
X111950724Y-130456198D01*
X111950722Y-130456197D01*
X111788319Y-130383891D01*
X111788318Y-130383891D01*
X111782288Y-130381206D01*
X111688887Y-130361353D01*
X111601944Y-130342872D01*
X111601939Y-130342872D01*
X111595487Y-130341500D01*
X111404513Y-130341500D01*
X111398056Y-130342872D01*
X111391485Y-130343563D01*
X111391232Y-130341158D01*
X111331392Y-130336585D01*
X111274765Y-130293761D01*
X111250279Y-130227121D01*
X111250000Y-130218745D01*
X111250000Y-108376000D01*
X111270002Y-108307879D01*
X111323658Y-108261386D01*
X111376000Y-108250000D01*
X137801906Y-108250000D01*
X137870027Y-108270002D01*
G37*
G04 #@! TD.AperFunction*
G04 #@! TD*
M02*
